<svg enable-background="new 0 0 512 512" viewBox="0 0 512 512" xmlns="http://www.w3.org/2000/svg"><path d="m147.6 301.3c-7.5-7.5-7.5-19.8 0-27.3l95.7-95.4c7.3-7.3 19.1-7.5 26.6-.6l94.3 94c3.8 3.8 5.7 8.7 5.7 13.7 0 4.9-1.9 9.9-5.6 13.6-7.5 7.5-19.7 7.6-27.3 0l-81-79.8-81.1 81.9c-7.5 7.5-19.7 7.5-27.3-.1z"/><path d="m256 464c114.9 0 208-93.1 208-208s-93.1-208-208-208-208 93.1-208 208 93.1 208 208 208zm0-32c-47 0-91.2-18.3-124.4-51.6-33.3-33.2-51.6-77.4-51.6-124.4s18.3-91.2 51.6-124.4c33.2-33.3 77.4-51.6 124.4-51.6s91.2 18.3 124.4 51.6c33.3 33.2 51.6 77.4 51.6 124.4s-18.3 91.2-51.6 124.4c-33.2 33.3-77.4 51.6-124.4 51.6z"/></svg>