<svg enable-background="new 0 0 512 512" viewBox="0 0 512 512" xmlns="http://www.w3.org/2000/svg"><path d="m210.7 147.6c7.5-7.5 19.8-7.5 27.3 0l95.4 95.7c7.3 7.3 7.5 19.1.6 26.6l-94 94.3c-3.8 3.8-8.7 5.7-13.7 5.7-4.9 0-9.9-1.9-13.6-5.6-7.5-7.5-7.6-19.7 0-27.3l79.9-81.1-81.9-81.1c-7.6-7.4-7.6-19.6 0-27.2z"/><path d="m48 256c0 114.9 93.1 208 208 208s208-93.1 208-208-93.1-208-208-208-208 93.1-208 208zm32 0c0-47 18.3-91.2 51.6-124.4 33.2-33.3 77.4-51.6 124.4-51.6s91.2 18.3 124.4 51.6c33.3 33.2 51.6 77.4 51.6 124.4s-18.3 91.2-51.6 124.4c-33.2 33.3-77.4 51.6-124.4 51.6s-91.2-18.3-124.4-51.6c-33.3-33.2-51.6-77.4-51.6-124.4z"/></svg>