<svg enable-background="new 0 0 512 512" viewBox="0 0 512 512" xmlns="http://www.w3.org/2000/svg"><path d="m332 142.7c-1.2-1.1-2.7-1.7-4.1-1.7s-3 .6-4.1 1.7l-13.8 13.2c-1.2 1.1-1.9 2.7-1.9 4.3s.7 3.2 1.9 4.3l95.8 91.5-95.8 91.5c-1.2 1.1-1.9 2.7-1.9 4.3s.7 3.2 1.9 4.3l13.8 13.2c1.2 1.1 2.6 1.7 4.1 1.7s3-.6 4.1-1.7l114.2-109c1.2-1.1 1.9-2.7 1.9-4.3s-.7-3.2-1.9-4.3z"/><path d="m204 160.2c0-1.6-.7-3.2-1.9-4.3l-13.8-13.2c-1.2-1.1-2.7-1.7-4.1-1.7s-3 .6-4.1 1.7l-114.2 109c-1.2 1.1-1.9 2.7-1.9 4.3s.7 3.2 1.9 4.3l114.2 109c1.2 1.1 2.7 1.7 4.1 1.7 1.5 0 3-.6 4.1-1.7l13.8-13.2c1.2-1.1 1.9-2.7 1.9-4.3s-.7-3.2-1.9-4.3l-95.8-91.5 95.8-91.5c1.2-1.1 1.9-2.7 1.9-4.3z"/></svg>