<svg enable-background="new 0 0 444.185 444.184" height="444.184" viewBox="0 0 444.185 444.184" width="444.185" xmlns="http://www.w3.org/2000/svg"><path d="m404.198 205.738c-.917-.656-2.096-.83-3.165-.467 0 0-119.009 40.477-122.261 41.598-2.725.938-4.487-1.42-4.487-1.42l-37.448-46.254c-.935-1.154-2.492-1.592-3.89-1.098-1.396.494-2.332 1.816-2.332 3.299v167.891c0 1.168.583 2.26 1.556 2.91.584.391 1.263.59 1.945.59.451 0 .906-.088 1.336-.267l168.045-69.438c1.31-.541 2.163-1.818 2.163-3.234v-91.266c0-1.126-.544-2.185-1.462-2.844z"/><path d="m443.487 168.221-32.07-42.859c-.46-.615-1.111-1.061-1.852-1.27l-186.424-52.636c-.622-.176-1.465-.125-2.096.049l-186.425 52.636c-.739.209-1.391.654-1.851 1.27l-32.071 42.86c-.672.898-.872 2.063-.541 3.133.332 1.07 1.157 1.918 2.219 2.279l157.639 53.502c.369.125.749.187 1.125.187 1.035 0 2.041-.462 2.718-1.296l44.128-54.391 13.082 3.6c.607.168 1.249.168 1.857 0v-.008c.064-.016.13-.023.192-.041l13.082-3.6 44.129 54.391c.677.834 1.683 1.295 2.718 1.295.376 0 .756-.061 1.125-.186l157.639-53.502c1.062-.361 1.887-1.209 2.219-2.279.33-1.072.13-2.236-.542-3.134zm-221.295-7.84-133.691-36.525 133.691-37.527 133.494 37.479z"/><path d="m211.238 198.147c-1.396-.494-2.955-.057-3.889 1.098l-37.448 46.255s-1.764 2.356-4.488 1.42c-3.252-1.121-122.26-41.598-122.26-41.598-1.07-.363-2.248-.189-3.165.467-.918.658-1.462 1.717-1.462 2.846v91.267c0 1.416.854 2.692 2.163 3.233l168.044 69.438c.43.178.885.266 1.336.266.684 0 1.362-.199 1.946-.59.972-.65 1.555-1.742 1.555-2.91v-167.894c0-1.482-.935-2.804-2.332-3.298z"/></svg>