<?xml version="1.0" standalone="no"?>
<!DOCTYPE svg PUBLIC "-//W3C//DTD SVG 20010904//EN"
 "http://www.w3.org/TR/2001/REC-SVG-20010904/DTD/svg10.dtd">
<svg version="1.0" xmlns="http://www.w3.org/2000/svg"
 width="512.000000pt" height="512.000000pt" viewBox="0 0 512.000000 512.000000"
 preserveAspectRatio="xMidYMid meet">

<g transform="translate(0.000000,512.000000) scale(0.100000,-0.100000)"
fill="#000000" stroke="none">
<path d="M2256 4935 c-95 -34 -136 -98 -136 -212 0 -56 3 -73 14 -73 11 0 15
20 17 83 5 97 27 138 93 168 37 17 69 19 316 19 247 0 279 -2 316 -19 66 -30
88 -71 93 -168 2 -66 6 -83 18 -83 12 0 14 14 12 83 -3 71 -8 90 -32 125 -15
23 -46 52 -70 64 -40 22 -52 23 -322 25 -223 2 -288 0 -319 -12z"/>
<path d="M1142 4455 c-23 -47 -42 -87 -42 -90 0 -3 657 -5 1460 -5 803 0 1460
2 1460 5 0 3 -19 43 -42 90 l-42 85 -1376 0 -1376 0 -42 -85z"/>
<path d="M1051 4243 c-15 -30 -78 -223 -101 -313 -59 -228 -86 -530 -61 -662
45 -229 226 -383 608 -518 48 -17 227 -72 396 -121 170 -50 390 -117 489 -150
100 -33 188 -58 197 -56 9 3 84 29 166 57 83 28 294 93 470 145 176 51 361
108 410 125 370 131 543 274 600 495 30 116 15 369 -35 599 -25 115 -81 303
-110 370 l-19 46 -1500 0 c-1419 0 -1501 -1 -1510 -17z m2131 -300 c8 -10 32
-89 53 -177 31 -132 36 -168 30 -220 -4 -44 0 -98 15 -186 27 -155 23 -234
-14 -316 -31 -67 -92 -136 -151 -167 -39 -22 -46 -22 -525 -22 l-485 0 -43 23
c-59 32 -116 93 -148 160 -38 79 -42 172 -15 327 14 83 19 140 15 185 -5 54 0
90 31 220 21 85 44 163 53 173 14 16 55 17 592 17 537 0 578 -1 592 -17z"/>
<path d="M2077 3853 c-2 -5 -19 -68 -36 -140 -31 -129 -32 -134 -15 -169 9
-20 35 -48 57 -62 l41 -27 445 -3 c290 -2 459 1 482 7 20 6 52 27 72 46 46 45
47 74 9 235 l-27 115 -512 3 c-281 1 -514 -1 -516 -5z m581 -99 c29 -20 52
-66 52 -104 0 -92 -108 -151 -184 -101 -40 26 -55 57 -56 110 0 36 6 49 34 77
29 29 41 34 83 34 28 0 58 -7 71 -16z"/>
<path d="M2575 3661 c-7 -12 12 -24 25 -16 11 7 4 25 -10 25 -5 0 -11 -4 -15
-9z"/>
<path d="M1996 3297 c-20 -123 -11 -182 37 -254 59 -86 39 -83 557 -83 454 0
455 0 492 23 96 58 126 152 101 314 l-15 102 -52 -27 -51 -27 -475 0 -475 0
-51 27 -51 27 -17 -102z"/>
<path d="M916 2798 c-10 -280 -39 -2029 -33 -2074 6 -56 47 -110 101 -135 39
-18 78 -19 714 -19 l672 0 -2 902 -3 901 -55 19 c-30 11 -212 66 -405 123
-192 57 -403 122 -468 145 -208 72 -360 154 -462 251 l-53 50 -6 -163z m1328
-924 c21 -21 22 -201 1 -259 -12 -32 -15 -112 -15 -399 l0 -359 -25 -43 c-18
-31 -39 -50 -79 -69 l-53 -26 -316 3 -315 3 -43 30 c-85 60 -83 50 -91 480 -5
209 -10 435 -14 503 -4 88 -2 128 7 138 10 12 85 14 470 14 403 0 459 -2 473
-16z"/>
<path d="M1393 1775 c-10 -27 3 -118 22 -158 21 -45 85 -92 148 -107 29 -8
114 -11 239 -8 212 4 239 11 300 75 37 39 48 73 48 149 l0 64 -375 0 c-329 0
-376 -2 -382 -15z m434 -22 c44 -21 76 -85 67 -132 -9 -42 -56 -89 -98 -96
-70 -14 -146 49 -146 120 0 42 34 93 73 110 42 19 62 18 104 -2z"/>
<path d="M1760 1645 c0 -8 7 -15 15 -15 8 0 15 7 15 15 0 8 -7 15 -15 15 -8 0
-15 -7 -15 -15z"/>
<path d="M1420 1165 l0 -286 25 -24 24 -25 303 0 c222 1 307 4 319 13 36 28
39 51 39 332 0 260 -1 277 -17 270 -113 -47 -105 -46 -357 -43 -228 3 -243 4
-283 26 -23 12 -45 22 -48 22 -3 0 -5 -128 -5 -285z"/>
<path d="M4150 2915 c-59 -61 -183 -139 -300 -191 -116 -51 -327 -121 -650
-214 -135 -40 -290 -86 -345 -104 l-100 -32 -3 -902 -2 -902 672 0 c634 0 675
2 714 19 47 21 78 57 95 108 9 28 8 258 -6 1032 -9 548 -20 1049 -23 1114 l-7
118 -45 -46z m-250 -1064 c16 -30 12 -212 -5 -261 -12 -35 -15 -108 -15 -399
0 -350 -1 -357 -23 -396 -16 -29 -37 -48 -77 -68 l-55 -28 -310 3 c-347 3
-359 6 -413 76 l-27 35 -5 376 c-4 257 -9 387 -18 411 -16 46 -16 242 0 258 9
9 128 12 475 12 447 0 463 -1 473 -19z"/>
<path d="M3047 1763 c-10 -10 -8 -83 4 -126 13 -47 60 -102 113 -130 39 -21
54 -22 261 -22 240 0 253 3 318 64 45 41 57 73 57 151 l0 70 -373 0 c-206 0
-377 -3 -380 -7z m446 -38 c36 -23 60 -79 53 -121 -8 -42 -57 -91 -100 -99
-41 -8 -99 15 -121 48 -74 113 56 246 168 172z"/>
<path d="M3410 1625 c0 -8 7 -15 15 -15 8 0 15 7 15 15 0 8 -7 15 -15 15 -8 0
-15 -7 -15 -15z"/>
<path d="M3070 1145 l0 -286 25 -24 24 -25 304 0 c285 0 306 1 328 19 l24 19
3 291 c2 160 2 291 0 291 -2 0 -30 -11 -63 -25 -58 -24 -68 -25 -290 -25 -222
0 -232 1 -290 25 -33 14 -61 25 -62 25 -2 0 -3 -128 -3 -285z"/>
<path d="M2470 1313 l0 -1019 41 -55 c22 -30 44 -54 49 -54 5 0 27 24 49 54
l41 55 0 1019 0 1019 -22 -7 c-31 -11 -97 -11 -130 -1 l-28 8 0 -1019z"/>
<path d="M747 1969 c-62 -15 -112 -45 -159 -97 -56 -63 -68 -104 -68 -231 l0
-101 135 0 135 0 0 220 c0 121 -1 220 -2 219 -2 -1 -20 -5 -41 -10z"/>
<path d="M4330 1759 l0 -219 135 0 135 0 0 108 c0 86 -4 116 -21 152 -38 84
-117 148 -208 169 l-41 9 0 -219z"/>
<path d="M580 1172 c0 -191 3 -262 13 -274 8 -11 36 -17 93 -21 l81 -5 7 52
c3 28 6 153 6 279 l0 227 -100 0 -100 0 0 -258z"/>
<path d="M4340 1203 c0 -126 3 -251 6 -279 l7 -52 81 5 c57 4 85 10 94 21 9
12 12 83 12 274 l0 258 -100 0 -100 0 0 -227z"/>
</g>
</svg>
