<svg height="512pt" preserveAspectRatio="xMidYMid meet" viewBox="0 0 512 512" width="512pt" xmlns="http://www.w3.org/2000/svg"><g transform="matrix(.1 0 0 -.1 0 512)"><path d="m2256 4935c-95-34-136-98-136-212 0-56 3-73 14-73s15 20 17 83c5 97 27 138 93 168 37 17 69 19 316 19s279-2 316-19c66-30 88-71 93-168 2-66 6-83 18-83s14 14 12 83c-3 71-8 90-32 125-15 23-46 52-70 64-40 22-52 23-322 25-223 2-288 0-319-12z"/><path d="m1142 4455c-23-47-42-87-42-90s657-5 1460-5 1460 2 1460 5-19 43-42 90l-42 85h-1376-1376z"/><path d="m1051 4243c-15-30-78-223-101-313-59-228-86-530-61-662 45-229 226-383 608-518 48-17 227-72 396-121 170-50 390-117 489-150 100-33 188-58 197-56 9 3 84 29 166 57 83 28 294 93 470 145 176 51 361 108 410 125 370 131 543 274 600 495 30 116 15 369-35 599-25 115-81 303-110 370l-19 46h-1500c-1419 0-1501-1-1510-17zm2131-300c8-10 32-89 53-177 31-132 36-168 30-220-4-44 0-98 15-186 27-155 23-234-14-316-31-67-92-136-151-167-39-22-46-22-525-22h-485l-43 23c-59 32-116 93-148 160-38 79-42 172-15 327 14 83 19 140 15 185-5 54 0 90 31 220 21 85 44 163 53 173 14 16 55 17 592 17s578-1 592-17z"/><path d="m2077 3853c-2-5-19-68-36-140-31-129-32-134-15-169 9-20 35-48 57-62l41-27 445-3c290-2 459 1 482 7 20 6 52 27 72 46 46 45 47 74 9 235l-27 115-512 3c-281 1-514-1-516-5zm581-99c29-20 52-66 52-104 0-92-108-151-184-101-40 26-55 57-56 110 0 36 6 49 34 77 29 29 41 34 83 34 28 0 58-7 71-16z"/><path d="m2575 3661c-7-12 12-24 25-16 11 7 4 25-10 25-5 0-11-4-15-9z"/><path d="m1996 3297c-20-123-11-182 37-254 59-86 39-83 557-83 454 0 455 0 492 23 96 58 126 152 101 314l-15 102-52-27-51-27h-475-475l-51 27-51 27z"/><path d="m916 2798c-10-280-39-2029-33-2074 6-56 47-110 101-135 39-18 78-19 714-19h672l-2 902-3 901-55 19c-30 11-212 66-405 123-192 57-403 122-468 145-208 72-360 154-462 251l-53 50zm1328-924c21-21 22-201 1-259-12-32-15-112-15-399v-359l-25-43c-18-31-39-50-79-69l-53-26-316 3-315 3-43 30c-85 60-83 50-91 480-5 209-10 435-14 503-4 88-2 128 7 138 10 12 85 14 470 14 403 0 459-2 473-16z"/><path d="m1393 1775c-10-27 3-118 22-158 21-45 85-92 148-107 29-8 114-11 239-8 212 4 239 11 300 75 37 39 48 73 48 149v64h-375c-329 0-376-2-382-15zm434-22c44-21 76-85 67-132-9-42-56-89-98-96-70-14-146 49-146 120 0 42 34 93 73 110 42 19 62 18 104-2z"/><path d="m1760 1645c0-8 7-15 15-15s15 7 15 15-7 15-15 15-15-7-15-15z"/><path d="m1420 1165v-286l25-24 24-25h303c222 1 307 4 319 13 36 28 39 51 39 332 0 260-1 277-17 270-113-47-105-46-357-43-228 3-243 4-283 26-23 12-45 22-48 22s-5-128-5-285z"/><path d="m4150 2915c-59-61-183-139-300-191-116-51-327-121-650-214-135-40-290-86-345-104l-100-32-3-902-2-902h672c634 0 675 2 714 19 47 21 78 57 95 108 9 28 8 258-6 1032-9 548-20 1049-23 1114l-7 118zm-250-1064c16-30 12-212-5-261-12-35-15-108-15-399 0-350-1-357-23-396-16-29-37-48-77-68l-55-28-310 3c-347 3-359 6-413 76l-27 35-5 376c-4 257-9 387-18 411-16 46-16 242 0 258 9 9 128 12 475 12 447 0 463-1 473-19z"/><path d="m3047 1763c-10-10-8-83 4-126 13-47 60-102 113-130 39-21 54-22 261-22 240 0 253 3 318 64 45 41 57 73 57 151v70h-373c-206 0-377-3-380-7zm446-38c36-23 60-79 53-121-8-42-57-91-100-99-41-8-99 15-121 48-74 113 56 246 168 172z"/><path d="m3410 1625c0-8 7-15 15-15s15 7 15 15-7 15-15 15-15-7-15-15z"/><path d="m3070 1145v-286l25-24 24-25h304c285 0 306 1 328 19l24 19 3 291c2 160 2 291 0 291s-30-11-63-25c-58-24-68-25-290-25s-232 1-290 25c-33 14-61 25-62 25-2 0-3-128-3-285z"/><path d="m2470 1313v-1019l41-55c22-30 44-54 49-54s27 24 49 54l41 55v1019 1019l-22-7c-31-11-97-11-130-1l-28 8z"/><path d="m747 1969c-62-15-112-45-159-97-56-63-68-104-68-231v-101h135 135v220c0 121-1 220-2 219-2-1-20-5-41-10z"/><path d="m4330 1759v-219h135 135v108c0 86-4 116-21 152-38 84-117 148-208 169l-41 9z"/><path d="m580 1172c0-191 3-262 13-274 8-11 36-17 93-21l81-5 7 52c3 28 6 153 6 279v227h-100-100z"/><path d="m4340 1203c0-126 3-251 6-279l7-52 81 5c57 4 85 10 94 21 9 12 12 83 12 274v258h-100-100z"/></g></svg>