<svg enable-background="new 0 0 512 512" height="512" viewBox="0 0 512 512" width="512" xmlns="http://www.w3.org/2000/svg"><path d="m426.666 330.667c-26.666 0-52.271-4.271-75.729-11.729-7.469-2.136-16-1.073-21.332 5.333l-46.939 46.928c-60.802-30.928-109.864-80-140.802-140.803l46.939-46.927c5.332-5.333 7.462-13.864 5.332-21.333-8.537-24.531-12.802-50.136-12.802-76.803 0-11.729-9.599-21.333-21.333-21.333h-74.667c-11.734 0-21.333 9.604-21.333 21.333 0 200.531 162.136 362.667 362.666 362.667 11.73 0 21.334-9.604 21.334-21.333v-74.667c0-11.729-9.604-21.333-21.334-21.333z"/></svg>