<svg enable-background="new 0 0 512 512" viewBox="0 0 512 512" xmlns="http://www.w3.org/2000/svg"><path d="m296 48h-119.5c-22.1 0-40.5 17.4-40.5 39.5v8.5h-7.5c-22.1 0-40.5 17.4-40.5 39.5v288c0 22.1 18.4 40.5 40.5 40.5h208c22.1 0 39.5-18.4 39.5-40.5v-7.5h8.5c22.1 0 39.5-18.4 39.5-40.5v-199.5zm0 44.6 83.4 83.4h-83.4zm48 330.9c0 4.7-3.4 8.5-7.5 8.5h-208c-4.4 0-8.5-4.1-8.5-8.5v-288c0-4.1 3.8-7.5 8.5-7.5h7.5v255.5c0 22.1 10.4 32.5 32.5 32.5h175.5zm48-48c0 4.7-3.4 8.5-7.5 8.5h-208c-4.4 0-8.5-4.1-8.5-8.5v-288c0-4.1 3.8-7.5 8.5-7.5h71.5 16v96 32h32 96z"/></svg>