<svg enable-background="new 0 0 512 512" viewBox="0 0 512 512" xmlns="http://www.w3.org/2000/svg"><path d="m192 277.4h189.7l-43.6 44.7 29.9 29.9 96-96-96-96-31 29.9 44.7 44.7h-189.7z"/><path d="m255.7 421.3c-44.1 0-85.5-17.2-116.7-48.4s-48.3-72.7-48.3-116.9c0-44.1 17.2-85.7 48.3-116.9 31.2-31.2 72.6-48.4 116.7-48.4 44 0 85.3 17.1 116.5 48.2l30.3-30.3c-8.5-8.4-17.8-16.2-27.7-23.2-35.1-24.4-76.2-37.4-119.1-37.4-114.5 0-207.7 93.3-207.7 208s93.2 208 207.7 208c42.9 0 84-13 119-37.5 10-7 19.2-14.7 27.7-23.2l-30.2-30.2c-31.1 31.1-72.5 48.2-116.5 48.2z"/><path d="m447.4 255.4h1.2v1.2h-1.2z" transform="matrix(-.7071 -.7071 .7071 -.7071 583.767 753.7971)"/></svg>