<?xml version="1.0" encoding="UTF-8" standalone="no"?>
<svg
   xmlns:dc="http://purl.org/dc/elements/1.1/"
   xmlns:cc="http://creativecommons.org/ns#"
   xmlns:rdf="http://www.w3.org/1999/02/22-rdf-syntax-ns#"
   xmlns:svg="http://www.w3.org/2000/svg"
   xmlns="http://www.w3.org/2000/svg"
   xmlns:sodipodi="http://sodipodi.sourceforge.net/DTD/sodipodi-0.dtd"
   xmlns:inkscape="http://www.inkscape.org/namespaces/inkscape"
   width="500"
   height="330"
   viewBox="0 0 500 330"
   fill="none"
   version="1.1"
   id="svg10"
   sodipodi:docname="huitdor.svg"
   inkscape:version="1.0 (4035a4fb49, 2020-05-01)">
  <metadata
     id="metadata16">
    <rdf:RDF>
      <cc:Work
         rdf:about="">
        <dc:format>image/svg+xml</dc:format>
        <dc:type
           rdf:resource="http://purl.org/dc/dcmitype/StillImage" />
        <dc:title></dc:title>
      </cc:Work>
    </rdf:RDF>
  </metadata>
  <defs
     id="defs14" />
  <sodipodi:namedview
     inkscape:document-rotation="0"
     pagecolor="#ffffff"
     bordercolor="#666666"
     borderopacity="1"
     objecttolerance="10"
     gridtolerance="10"
     guidetolerance="10"
     inkscape:pageopacity="0"
     inkscape:pageshadow="2"
     inkscape:window-width="1920"
     inkscape:window-height="1017"
     id="namedview12"
     showgrid="false"
     inkscape:zoom="1.47"
     inkscape:cx="250"
     inkscape:cy="251.9"
     inkscape:window-x="-8"
     inkscape:window-y="-8"
     inkscape:window-maximized="1"
     inkscape:current-layer="svg10" />
  <rect
     style="stroke-width:0.82972"
     y="0"
     x="0"
     width="500"
     height="344.21768"
     fill="#ffffff"
     id="rect2" />
  <path
     fill-rule="evenodd"
     clip-rule="evenodd"
     d="m 273.00784,111.23498 c 13.03852,-0.97265 25.6758,-7.48173 34.07508,-18.886637 15.00101,-20.37024 10.80367,-48.64675 -9.37516,-63.15685 -20.17882,-14.50996 -48.69785,-9.75968 -63.69886,10.61042 -8.58954,11.66342 -10.885,25.91804 -7.49015,38.69739 0.0338,0.89381 0.0944,1.81415 0.15728,2.7686 0.37823,5.74339 0.83931,12.72704 -4.10144,22.618017 -2.58545,5.17481 -4.80879,9.25569 -8.79899,11.94847 -1.85892,1.2539 -5.45784,2.82015 -8.76983,4.16654 -6.71374,1.40173 -12.98942,5.21196 -17.3916,11.18885 -9.29613,12.62318 -6.71144,30.13462 5.77316,39.11208 12.48461,8.97746 30.14242,6.02162 39.43855,-6.60157 3.63422,-4.93525 5.45247,-10.61724 5.57369,-16.24388 0.34754,-4.0225 0.93138,-9.51724 1.74844,-12.26081 1.36331,-4.58122 4.61009,-7.92749 8.79899,-11.94847 8.13766,-7.8115 14.92659,-9.57788 20.56626,-11.04557 1.21831,-0.31689 2.38215,-0.62013 3.49458,-0.96658 z m 21.98405,-27.581327 c -9.93061,13.48439 -28.80827,16.629757 -42.16364,7.0261 -13.35614,-9.60365 -16.13262,-28.32047 -6.20202,-41.80486 9.92983,-13.48439 28.80749,-16.63052 42.16286,-7.02686 13.35614,9.60441 16.13263,28.32123 6.2028,41.80562 z M 223.5543,156.63553 c -5.17628,7.02913 -15.1391,8.58097 -22.25256,3.46604 -7.11345,-5.11568 -8.68391,-14.96041 -3.50762,-21.98955 5.17704,-7.02913 15.13987,-8.58021 22.25332,-3.46529 7.11346,5.11493 8.68314,14.95966 3.50686,21.9888 z"
     fill="#dcb253"
     id="path4"
     style="stroke-width:0.762637" />
  <path
     fill-rule="evenodd"
     clip-rule="evenodd"
     d="m 266.64687,222.71092 c -1.04044,0.17995 -2.70011,0.64218 -3.71606,1.02748 -1.88219,0.69371 -5.59825,2.59485 -6.6142,3.41697 l -0.59405,0.46224 1.01526,1.69578 c 0.54506,0.95057 0.89211,1.72119 0.76826,1.72119 -0.44639,0 -0.27287,2.05498 0.27218,3.10858 0.27288,0.56527 1.31332,1.87504 2.27892,2.90253 6.91156,7.24465 16.89479,9.27423 30.99011,6.29408 2.79946,-0.59066 4.26112,-1.25825 4.65715,-2.15801 0.34704,-0.77062 0.0749,-1.84963 -0.49538,-1.97806 -0.22251,-0.0769 0.4464,-0.38531 1.51133,-0.74451 l 1.93186,-0.61678 -2.3034,-2.08109 c -8.96795,-8.04068 -15.40863,-11.81756 -22.3447,-13.07651 -2.62594,-0.46223 -4.8055,-0.46223 -7.35728,0.0261 z m -72.55818,13.89865 c 8.62091,-8.0668 16.32523,-12.71732 23.16262,-13.89865 5.00353,-0.89905 9.43817,-0.10304 14.56554,2.56872 2.42793,1.25896 3.64189,2.05498 3.64189,2.441 0,0.15384 -0.37154,0.84754 -0.81792,1.59275 -1.26297,2.05499 -1.26297,2.08039 -0.9656,1.87504 0.29737,-0.17996 0.42121,0.43682 0.29737,1.51582 -0.0994,1.0536 -1.1153,2.62024 -2.82465,4.39295 -6.98573,7.19314 -16.89411,9.19731 -30.96493,6.24257 -2.79947,-0.59066 -4.26113,-1.25825 -4.65716,-2.15731 -0.34705,-0.77132 -0.0742,-1.85033 0.49538,-2.00417 0.2232,-0.0515 -0.42121,-0.3599 -1.43716,-0.6937 l -1.83251,-0.59066 z m -7.13408,-24.81715 c -4.78102,0.64218 -10.77598,3.1855 -16.52326,7.0393 -2.67562,1.7727 -7.77849,5.60039 -7.80298,5.80574 0,0.10303 0.6934,0.41071 1.56031,0.74521 1.63519,0.61607 2.27891,1.0275 1.61001,1.0275 -0.24769,0 -0.47021,0.30839 -0.56956,0.77062 -0.34704,1.66967 1.11462,2.69787 5.59894,3.95611 14.16949,3.98224 24.32624,2.38949 31.46033,-4.98361 1.85836,-1.90113 2.50209,-3.36545 2.0067,-4.46986 -0.22319,-0.53985 -0.14834,-0.79673 0.71858,-1.97877 0.51988,-0.74451 0.9656,-1.4128 0.9656,-1.48972 0,-0.0769 -0.61923,-0.61677 -1.36231,-1.18204 -5.67243,-4.28992 -11.61772,-6.06262 -17.66236,-5.24048 z M 198.573,189.21021 c 1.28814,3.31393 1.70868,4.599 1.46098,4.44445 -0.14834,-0.10232 -0.24769,0.3084 -0.24769,1.079 0,2.00419 2.84914,8.0414 6.24266,13.20496 5.32606,8.14371 13.10456,13.07652 20.61086,13.07652 3.07165,0 4.11209,-0.6937 4.45913,-2.87712 0.0245,-0.28298 0.19803,-0.59137 0.37154,-0.69369 0.2477,-0.17996 0.2722,-0.69371 0.0497,-2.51792 -1.63518,-14.00097 -9.93423,-21.4771 -28.83506,-25.99848 -2.40343,-0.59067 -4.43464,-1.0536 -4.50881,-1.0536 -0.0742,0 0.12384,0.61677 0.39671,1.33588 z M 92.027215,118.69018 c 0,0.0515 0.44591,1.0275 1.01567,2.15801 1.16429,2.44029 1.5359,3.39086 1.2386,3.21162 -0.37161,-0.25687 -0.44592,1.00138 -0.14862,2.23493 0.76792,3.10859 6.564665,12.02292 10.206155,15.61984 3.07179,3.05707 6.96104,5.70271 9.48777,6.44793 0.89183,0.25687 1.21383,0.41141 0.74321,0.33378 -0.3043,-0.0494 -1.02275,-0.16372 -1.84074,-0.29356 l -0.0358,-0.005 -0.0768,-0.0127 c -0.41414,-0.0657 -0.84971,-0.13489 -1.26704,-0.20193 -2.89834,-0.43682 -8.74463,-0.89905 -11.816364,-0.89905 h -2.303871 l 1.31297,2.10649 c 1.340871,2.16366 1.673695,2.7 1.619465,2.74657 -0.0179,0.0149 -0.078,-0.0233 -0.15794,-0.0748 -0.445854,-0.28228 -0.644074,1.0536 -0.322004,2.15801 0.619304,2.15801 6.465524,9.65954 10.007994,12.89657 2.35335,2.1326 5.49945,4.31602 7.53073,5.26659 2.42772,1.10511 4.80585,1.87573 5.99491,1.90114 l 1.13951,0.0262 -1.11474,0.20537 c -0.61931,0.12843 -3.07173,0.53914 -5.44992,0.92446 -2.37811,0.38601 -4.38469,0.74521 -4.459,0.79673 -0.0495,0.0515 0,0.17995 0.12391,0.28227 0.66884,0.48835 3.41856,3.69996 3.04696,3.57152 -0.44592,-0.15455 -0.69361,0.25687 -0.69361,1.20744 0,0.97598 1.31291,2.77409 3.49287,4.80367 8.64555,8.04137 15.63129,11.56067 23.26117,11.6383 1.56093,0 3.24511,-0.0515 3.716,-0.17996 0.4702,-0.10302 -0.86693,0.43683 -2.97285,1.18134 -5.84623,2.1072 -7.67942,2.82631 -7.67942,3.00625 0,0.0769 0.71844,0.7191 1.61019,1.3874 1.36252,1.02749 2.52681,2.15731 1.65975,1.59275 -0.322,-0.20606 -0.79268,0.61607 -0.79268,1.38669 0,2.54332 12.0394,9.27424 19.57021,10.94461 3.09615,0.69371 8.10035,0.64218 10.99849,-0.10302 2.79947,-0.7191 6.46586,-2.51793 7.65464,-3.72537 0.96627,-1.02749 1.38749,-2.36337 0.94178,-3.18551 -0.19802,-0.43682 -0.0994,-0.61606 0.71789,-1.25895 0.54507,-0.41071 0.99145,-0.82143 0.99145,-0.92446 0,-0.10303 -0.6444,-1.02749 -1.43715,-2.05498 -4.01276,-5.21579 -9.11631,-8.42669 -15.0616,-9.48029 -2.20473,-0.38531 -9.1163,-0.15385 -11.74157,0.3853 -3.24517,0.6683 -3.64189,0.6683 -1.46165,0.0776 1.26296,-0.3345 2.5266,-0.87365 3.02198,-1.28507 0.94109,-0.7445 1.51132,-2.15801 1.26364,-3.15939 -0.12385,-0.46294 0.0245,-0.66829 0.61923,-1.0021 0.42121,-0.20535 0.76757,-0.48833 0.76757,-0.59066 0,-0.10302 -0.39603,-0.97667 -0.86691,-1.92725 -4.03793,-8.14371 -10.50332,-12.87045 -19.34702,-14.07789 -2.79927,-0.38531 -3.1461,-0.48833 -2.25427,-0.77132 1.26336,-0.35919 2.08088,-1.48972 2.20472,-3.03096 0.0248,-0.51375 0.22293,-0.84825 0.49546,-0.95057 l 0.0142,-0.005 h 7e-5 c 0.14501,-0.0452 0.25171,-0.0791 0.31485,-0.15314 0.17563,-0.20466 0.0147,-0.71981 -0.59378,-2.66682 l -0.0326,-0.10374 c -2.67542,-8.4521 -7.5555,-13.71869 -15.85421,-17.00723 -1.01567,-0.38531 -1.46159,-0.64219 -0.9909,-0.53986 0.47068,0.12844 2.03127,0.20606 3.4681,0.20606 2.00657,0 2.79926,-0.10303 3.51764,-0.46293 0.96613,-0.51375 1.80842,-1.95195 1.61019,-2.74868 -0.0743,-0.30839 0.0495,-0.51375 0.34684,-0.59066 0.56976,-0.15455 0.56976,-0.53986 0.0991,-3.18551 -1.51113,-8.22134 -6.16829,-14.59235 -13.47609,-18.44614 -3.88925,-2.02957 -9.7603,-3.77616 -16.498355,-4.88129 -2.17996,-0.33379 -4.21125,-0.66758 -4.50854,-0.7445 -0.32207,-0.0515 -0.56976,-0.0515 -0.56976,0.0254 z m 253.717875,-2.56872 c -0.0993,-6.654 0.39604,-11.38144 1.98153,-18.548467 l 0.27288,-1.25896 3.17033,3.39086 c 6.5897,7.064697 10.80115,14.001687 12.53499,20.552637 0.56955,2.18341 0.66891,2.98014 0.66891,6.3456 0.0245,7.11622 -0.39671,10.30173 -1.73385,13.15344 -1.09012,2.31185 -2.82464,2.92862 -5.05387,1.7727 -3.66639,-1.92725 -7.5553,-6.29479 -9.43817,-10.63623 -1.01594,-2.31185 -2.00671,-6.26867 -2.05638,-8.06679 0,-0.79602 -0.0742,-1.41279 -0.14835,-1.36128 -0.0742,0.0515 -0.14834,-2.36407 -0.19802,-5.34351 z M 140.55605,99.165753 c -9.85937,10.763947 -14.26884,20.141207 -13.72385,29.235487 0.0335,0.6937 0.077,1.52289 0.11922,2.32808 v 7.1e-4 c 0.0516,0.98303 0.10125,1.93078 0.12854,2.5525 0.17339,3.5193 1.43675,7.32158 2.7745,8.22063 1.70928,1.18203 3.66625,0.56526 6.83712,-2.1065 2.99741,-2.56872 5.15261,-5.47195 6.53989,-8.88892 1.01594,-2.51792 1.83319,-5.72883 1.93254,-7.75841 0.049,-0.84753 0.22251,-2.92863 0.37154,-4.62441 0.29669,-3.10858 0.19802,-7.45001 -0.27287,-11.17537 -0.37153,-3.05707 -1.78352,-10.533197 -1.98167,-10.533197 -0.0991,0 -1.31297,1.23356 -2.72496,2.7494 z M 96.387205,85.806243 c 0.12385,1.95266 0.22299,4.31603 0.22299,5.2666 0,0.92517 0.0495,1.61886 0.12385,1.49042 0.0743,-0.10302 0.14862,0.56527 0.17338,1.48973 0.0495,2.31256 1.13952,7.989867 2.204741,11.329917 2.625884,8.37447 7.183964,14.12941 13.773394,17.36642 4.58285,2.26105 6.71328,1.0529 7.08489,-4.05915 0.0991,-1.15592 0.17338,-4.08455 0.14861,-6.47404 0,-4.2391 -0.0248,-4.44446 -0.81752,-6.80783 -2.25427,-6.833937 -6.96097,-12.485837 -15.18538,-18.188557 -2.13042,-1.49043 -7.580335,-4.9328 -7.778495,-4.9328 -0.0991,0 -0.0495,1.59274 0.0495,3.51929 z m 61.162785,-49.91657 c -5.30157,1.85033 -7.43213,2.74938 -10.47861,4.39365 -8.52183,4.67522 -13.72399,10.61012 -15.65626,17.85477 -0.59453,2.31186 -1.16429,7.65537 -0.86699,8.37518 0.24769,0.61607 0.29723,0.77062 0.34677,1.25825 0.0495,0.82214 1.36251,1.92726 2.50203,2.13261 1.26337,0.23146 5.30123,-0.0769 6.14352,-0.46223 0.29723,-0.12843 0.54499,-0.20606 0.54499,-0.15454 0,0.0515 -1.26337,1.079 -2.7745,2.28645 -8.67031,6.80783 -13.32747,13.05111 -15.21021,20.34727 -0.34677,1.38669 -0.47061,2.72257 -0.47061,5.78034 0,2.18343 0.0991,4.315327 0.19815,4.752147 0.12385,0.56526 0.12385,0.66829 -0.0743,0.38531 -0.17345,-0.28227 -0.19822,0.0515 -0.0991,1.15664 0.54499,5.26659 3.24511,5.83114 9.76023,2.00345 2.42772,-1.41279 4.53331,-3.18549 6.01967,-5.08664 1.33768,-1.721187 3.51764,-5.985687 4.45901,-8.734367 0.86706,-2.51792 1.98208,-7.78452 1.78359,-8.55513 -0.0991,-0.43683 -0.0496,-0.56526 0.14882,-0.41143 0.22251,0.12844 0.24769,0 0.14834,-0.46223 -0.0987,-0.33379 0,-1.90113 0.19802,-3.44236 0.1987,-1.54124 0.42121,-4.64982 0.49537,-6.91088 0.17354,-4.57289 0.29738,-5.80574 0.59474,-5.70341 0.42122,0.10303 3.49288,-2.4657 5.30158,-4.44447 3.02197,-3.31393 5.27639,-7.19314 7.60496,-13.10192 1.75902,-4.46986 2.74979,-8.32366 2.00672,-7.83532 -0.2477,0.12844 0.64373,-3.49388 1.33781,-5.52346 0.42053,-1.25896 0.42053,-1.28437 0.19801,-1.28437 -0.12384,0 -1.98221,0.61608 -4.16177,1.38669 z m -31.53517,-24.20001 c -3.96362,7.68148 -6.21789,13.92426 -7.13443,19.73028 -0.54499,3.39143 -0.32206,11.30367 0.39632,14.30922 0.91659,4.00835 2.97271,8.0414 5.07836,10.07097 0.91653,0.87364 1.26337,1.0536 2.13036,1.0536 2.08089,0 4.50861,-2.4664 6.44082,-6.55166 1.33767,-2.8256 2.55158,-7.24466 2.35335,-8.47751 -0.12385,-0.59066 -0.0991,-0.6937 0.12385,-0.38531 0.19822,0.30839 0.24775,0.25687 0.12391,-0.25687 -0.0496,-0.35991 -0.0248,-1.7473 0.0743,-3.08318 0.3716,-4.41849 -0.27253,-9.14559 -1.98182,-14.38642 -1.01567,-3.18558 -3.24517,-8.42641 -4.97922,-11.76619 l -1.36244,-2.6718197 z m 13.79816,14.36101 c 2.72496,-9.65961 9.80949,-16.3904497 24.54924,-23.3268597 1.28813,-0.59095 2.42792,-1.1047 2.55176,-1.1047 0.2477,0 0.2477,0.0257 -0.34704,3.08283 -0.27218,1.49 -0.54505,3.62233 -0.59473,4.77839 -0.0742,2.1580197 -1.26296,7.3217997 -2.47692,10.8927497 -0.9166,2.62046 -2.84914,6.70523 -4.13728,8.73473 -1.36231,2.15801 -4.38429,5.42058 -6.26717,6.80797 -4.08759,3.00555 -10.05746,4.77826 -12.38611,3.67384 -0.34675,-0.15454 -0.86698,-0.69369 -1.13951,-1.15592 -0.49545,-0.82213 -0.52023,-1.13053 -0.39632,-5.67781 0.0991,-3.90496 0.22294,-5.16377 0.64408,-6.70522 z M 325.30775,9.1463333 c 0.19802,0.12844 -0.54505,-5.18946 -1.01594,-7.09053 -0.0497,-0.23126 -0.0245,-0.43676 0.0994,-0.43676 0.0987,0 1.31262,0.51382 2.70011,1.15607 18.20742,8.3750397 25.96141,18.1888497 25.19316,31.9586297 -0.24769,4.5221 -0.99077,5.36963 -4.55782,5.08665 -4.43463,-0.33379 -9.14147,-2.87712 -12.93102,-7.01319 -3.12133,-3.39115 -5.49959,-7.73279 -7.28311,-13.23056 -1.56101,-4.88115 -2.82397,-10.8156897 -2.20474,-10.4303097 z m 30.76693,21.1432297 c 0.9166,-5.24083 3.31934,-11.92037 6.63938,-18.36865 l 1.3868,-2.6461397 1.56101,3.0315197 c 5.4744,10.61011 7.90233,20.01279 7.03541,27.07798 -0.14902,1.38668 -0.2232,2.67176 -0.0993,2.851 0.0993,0.20607 0.0742,0.25688 -0.0994,0.12844 -0.19802,-0.12844 -0.24769,0.0515 -0.14834,0.53986 0.19802,1.10441 -0.99077,5.47195 -2.13056,7.80991 -2.05572,4.21299 -3.76506,6.14025 -5.47441,6.14025 -0.61923,0 -1.36299,-0.23147 -1.85837,-0.53986 -2.45243,-1.56734 -5.2764,-6.44793 -6.44069,-11.14926 -0.94109,-3.80228 -1.11461,-10.55931 -0.37153,-14.87505 z m -24.82163,10.48139 c -0.81724,-2.90251 -1.65967,-5.98569 -1.65967,-6.13953 0,-0.10303 0.14834,-0.12844 0.34704,-0.0515 0.17283,0.0769 1.16429,0.38531 2.15506,0.6937 8.62092,2.64565 16.3994,6.85935 20.88304,11.30381 4.31011,4.26451 6.51486,8.42599 7.45595,14.104 0.39671,2.28645 0.49607,5.72883 0.1987,6.03721 -0.1987,0.20537 -0.22319,0.3338 -0.29737,1.0529 -0.0497,0.82214 -1.36231,1.92725 -2.5021,2.13261 -1.48616,0.25687 -5.6976,-0.15455 -6.36651,-0.61677 -1.43648,-0.95058 -0.27219,0.0515 2.84915,2.4918 5.67242,4.44447 10.75079,10.17399 12.88135,14.54083 1.8577,3.77687 2.60077,7.16773 2.5266,11.63831 -0.0245,1.90113 -0.0497,4.033037 -0.0497,4.701327 -0.0245,0.7191 -0.0987,1.10441 -0.22251,0.92446 -0.0994,-0.17995 -0.12385,0.12843 -0.0497,0.71911 0.17352,1.4389 -0.61923,3.23701 -1.68486,3.80228 -1.56031,0.84824 -3.93857,0.20606 -7.90233,-2.10651 -2.42725,-1.41279 -4.53331,-3.1855 -6.01946,-5.08663 -1.46166,-1.901137 -3.64122,-6.268687 -4.60749,-9.274237 -1.04045,-3.23702 -2.08089,-8.70897 -1.93255,-10.12177 0.0994,-0.71981 0.0742,-0.97668 -0.0742,-0.64218 -0.12386,0.35919 -0.19802,0.0769 -0.17354,-0.89976 0.0252,-2.02887 -0.54505,-13.17884 -0.69339,-13.30727 -0.0742,-0.0769 -0.12385,0 -0.12385,0.17994 0,0.51374 -3.76573,-2.62024 -5.64793,-4.72744 -0.99145,-1.10442 -2.35375,-2.87712 -3.04716,-3.95612 -2.62595,-4.11067 -6.31683,-12.97348 -6.6142,-15.92823 -0.0993,-1.07901 -0.0497,-1.33588 0.19802,-1.18133 0.22319,0.12843 0.27287,0.0515 0.17352,-0.28298 z m -221.9595,3.87921 c -1.51113,5.24119 -1.95705,6.91087 -2.50204,9.5057 -1.11475,5.39503 -1.46152,9.04277 -1.26336,13.3588 0.0991,2.10649 0.17338,4.13607 0.17338,4.49597 0.0248,2.80019 1.13952,7.34768 2.47726,10.14788 1.43676,2.95404 4.03787,6.29409 6.11875,7.86144 1.51106,1.12981 2.70019,1.30976 4.01309,0.61607 0.89183,-0.48764 2.13043,-2.46641 3.02219,-4.77826 1.46159,-3.80228 1.78366,-6.19105 1.75889,-12.81964 0,-3.23702 -0.0992,-4.36683 -0.54499,-6.08873 -1.48636,-5.72882 -4.50855,-11.45765 -9.78507,-18.44544 -0.25654,-0.33873 -0.49314,-0.65205 -0.71144,-0.94139 l -0.013,-0.0169 c -2.01243,-2.66329 -2.46366,-3.2603 -2.62241,-3.1862 -0.0459,0.0218 -0.0674,0.0995 -0.095,0.1997 -0.008,0.029 -0.0165,0.0593 -0.0263,0.091 z m 265.18725,9.76258 c 1.51065,-2.38949 2.32858,-3.5193 5.89562,-8.29826 0.74308,-1.00139 1.41198,-1.82352 1.48615,-1.82352 0.2477,-0.0261 2.5021,8.63205 3.14652,12.07443 0.54437,2.95404 0.64371,4.18759 0.66822,8.70897 0.0252,7.62997 -0.22252,10.2248 -1.46098,14.05249 -0.9166,2.8002 -2.10606,5.03512 -3.96375,7.47613 -2.15507,2.74867 -4.26113,4.41835 -5.64794,4.41835 -1.43715,0 -2.42793,-0.7191 -3.46837,-2.49181 -1.56032,-2.69716 -3.171,-8.4267 -2.79946,-9.99333 0.0993,-0.35991 0.0749,-0.61678 -0.0245,-0.53986 -0.0994,0.0776 -0.24769,-1.28437 -0.27287,-3.00555 -0.19802,-6.88476 1.80869,-13.23036 6.44136,-20.57804 z m -3.171,54.078037 c 1.51133,-8.991247 7.82816,-16.390447 20.85786,-24.534157 1.48684,-0.92446 2.77497,-1.66967 2.87364,-1.66967 0.0994,0 0.14903,0.66759 0.0748,1.46431 -0.032,0.35285 -0.0823,0.97456 -0.14289,1.72684 l -6.8e-4,0.0127 -6.8e-4,0.008 c -0.0803,0.99644 -0.17897,2.21729 -0.27696,3.33934 -0.17351,1.97805 -0.29736,4.13607 -0.32254,4.80436 0,0.69371 -0.0742,1.0529 -0.19802,0.89906 -0.12384,-0.17995 -0.14834,0.10232 -0.0742,0.61677 0.27218,1.69508 -1.41199,9.042767 -3.02198,13.127327 -2.62595,6.65399 -6.71356,11.35533 -12.31181,14.23244 -3.51805,1.79881 -5.57376,1.7473 -6.63938,-0.15384 -0.51988,-0.92517 -1.23846,-4.44447 -0.84242,-4.18759 0.17352,0.10303 0.19869,0 0.0749,-0.30838 -0.42122,-1.18205 -0.4464,-6.93627 -0.0497,-9.37727 z m 15.63114,12.46045 c 2.74979,-0.74522 5.2764,-1.23355 11.02367,-2.15802 0.61923,-0.10303 1.1398,-0.10303 1.18879,0 0.0497,0.10233 -0.37154,1.12982 -0.9411,2.28645 -1.18879,2.4657 -1.56032,3.41627 -1.26363,3.23702 0.12384,-0.0776 0.27286,0.0508 0.32254,0.30769 0.59406,2.33796 -6.19299,13.41101 -10.97467,17.88088 -2.99681,2.82559 -6.73805,5.24048 -9.04145,5.90877 h -6.8e-4 c -0.58453,0.16372 -0.95062,0.26605 -0.94518,0.29498 0.009,0.048 1.04793,-0.10867 3.81949,-0.52644 3.12134,-0.48764 9.83421,-0.95057 12.08862,-0.84754 l 1.78352,0.0769 -1.23846,1.97806 c -1.68418,2.74939 -1.8332,3.05707 -1.43649,2.98015 0.51989,-0.12844 0.51989,1.20744 0,2.41488 -0.59473,1.3874 -3.59221,5.54958 -6.16849,8.55514 -3.29485,3.85379 -7.72881,7.45001 -11.17269,9.04275 -2.40275,1.10513 -4.781,1.87575 -5.96979,1.90115 -0.94109,0.0262 -0.76825,0.0776 0.96627,0.38531 6.24267,1.02819 8.79376,1.49042 8.89311,1.54194 0.0497,0.0509 -0.64441,0.89905 -1.53583,1.92654 -1.41198,1.59276 -1.5855,1.90114 -1.26364,2.20953 1.21397,1.25896 -0.59405,3.67385 -6.56453,8.78589 -4.92935,4.213 -10.60245,7.16774 -15.75499,8.27215 -1.70936,0.35991 -6.21817,0.46293 -7.67983,0.15455 -0.84173,-0.15455 0.96628,0.51374 9.61169,3.59622 0.64441,0.23146 1.16428,0.48834 1.16428,0.56526 0,0.0769 -0.84173,0.77062 -1.85768,1.51582 -1.01595,0.77062 -1.85769,1.43892 -1.85769,1.51584 0,0.0515 0.0987,0.0515 0.22251,-0.0515 0.32254,-0.17996 0.76826,0.69369 0.76826,1.4389 0,2.49182 -12.13829,9.27424 -19.57042,10.9185 -3.09615,0.69371 -8.10035,0.64218 -10.99849,-0.10302 -2.79946,-0.7191 -6.46585,-2.51792 -7.65464,-3.72536 -0.96628,-1.0275 -1.3623,-2.36338 -0.94177,-3.21091 0.22319,-0.41143 0.0993,-0.61679 -0.74309,-1.31048 l -0.99076,-0.82214 1.01595,-1.33587 c 3.81473,-5.03513 8.15003,-8.16912 13.50059,-9.76187 2.45243,-0.71981 8.4229,-0.89976 12.23763,-0.3345 1.56032,0.23147 2.87364,0.35991 2.92331,0.30838 0.0742,-0.0515 -0.34704,-0.17994 -0.8921,-0.28227 -1.33782,-0.23146 -2.87364,-1.4128 -3.22,-2.4918 -0.32254,-1.00208 -0.27287,-2.00418 0.0987,-2.00418 0.12384,0 -0.14834,-0.25687 -0.64373,-0.56525 -0.48586,-0.28581 -0.71382,-0.41989 -0.76961,-0.60903 -0.0497,-0.16795 0.0367,-0.37965 0.19938,-0.77837 0.19869,-0.48764 0.86691,-1.77271 1.48682,-2.85171 3.98826,-7.01319 9.71036,-10.99542 17.68686,-12.30519 1.43716,-0.23147 2.87365,-0.48834 3.22069,-0.56527 0.27764,-0.06 0.4253,-0.0924 0.42597,-0.12772 0.002,-0.0403 -0.18984,-0.0847 -0.59949,-0.18066 -1.31263,-0.30839 -1.95704,-1.0536 -2.32859,-2.74868 -0.0993,-0.56526 -0.0742,-0.84824 0.12386,-0.87365 0.14902,0 0.0252,-0.10303 -0.27219,-0.23147 -0.71858,-0.30838 -0.71858,-0.53915 0.0742,-3.13398 1.36231,-4.52138 3.56704,-8.19523 6.73804,-11.27841 2.25441,-2.18342 5.07838,-4.00764 8.44741,-5.42044 1.31263,-0.56526 2.05571,-0.92516 1.63517,-0.79673 -0.39671,0.10303 -1.95703,0.20607 -3.46838,0.20607 -3.09683,0 -4.33529,-0.43683 -4.95452,-1.69579 -0.44571,-0.87364 -0.47089,-1.69578 -0.0497,-1.84962 0.14901,-0.0769 0.0497,-0.15454 -0.2477,-0.15454 -0.29737,-0.0254 -0.59473,-0.10233 -0.64373,-0.23077 -0.22319,-0.3345 0.54506,-4.52138 1.18879,-6.55096 2.94781,-9.40267 9.8097,-15.15761 21.79964,-18.29159 z m -12.55949,28.31033 c 0.17351,0.0776 0.39604,0.0515 0.47089,-0.0254 0.0987,-0.0769 -0.0497,-0.15385 -0.32255,-0.12844 -0.27218,0 -0.34636,0.0769 -0.14834,0.15384 z m -31.95638,47.78467 c 0.17352,0.0769 0.39671,0.0509 0.47088,-0.0262 0.0987,-0.0769 -0.0497,-0.15384 -0.32186,-0.12843 -0.27288,0 -0.34704,0.0769 -0.14902,0.15454 z m 0.99076,0.25687 c 0.17352,0.0769 0.39671,0.0515 0.47089,-0.0262 0.0994,-0.0769 -0.0497,-0.15383 -0.32187,-0.12843 -0.27286,0 -0.34704,0.0769 -0.14902,0.15454 z m -2.62594,-66.51238 c -1.13912,3.59622 -2.27891,8.19523 -2.92264,11.73992 -0.44639,2.41489 -0.69408,13.33339 -0.29736,13.07653 0.0993,-0.0769 0.12384,0.20535 0.0497,0.64218 -0.1987,1.02819 0.51988,4.599 1.43647,7.03929 1.85838,5.00973 7.35729,11.22689 9.90906,11.22689 1.41198,0 3.07166,-1.7981 4.38497,-4.75285 1.31263,-2.87711 1.65967,-5.75423 1.61,-13.10192 -0.0252,-3.08317 -0.12384,-4.2645 -0.56956,-5.9857 -1.63517,-6.47403 -5.10355,-13.23105 -10.47929,-20.42419 -0.70769,-0.96045 -1.36299,-1.82422 -1.69165,-2.25752 -0.11909,-0.15808 -0.19598,-0.25829 -0.21572,-0.28581 -0.0987,-0.10303 -0.64372,1.28436 -1.21396,3.08318 z m -204.54422,27.92503 c -0.52022,-7.96376 2.89833,-16.9296 10.45417,-27.41128 1.38681,-1.95266 2.62528,-3.54541 2.74912,-3.54541 0.22319,0 2.30408,6.88475 3.12132,10.40475 1.04045,4.39294 1.43716,7.70689 1.41199,11.68912 0,2.05498 -0.12385,4.34143 -0.24769,5.06053 -0.14835,0.74522 -0.19802,1.51583 -0.12385,1.7473 0.2232,0.59067 -0.59405,4.39295 -1.43647,6.62788 -2.0564,5.52348 -7.92685,11.79215 -10.45391,11.12386 -0.99091,-0.25687 -2.08089,-1.3874 -3.17087,-3.28783 -1.31292,-2.28644 -1.93221,-4.62441 -2.05612,-7.52764 -0.0378,-0.98091 -0.11902,-2.48616 -0.18836,-3.77194 l -7e-5,-0.002 c -0.0215,-0.39731 -0.0417,-0.77344 -0.0593,-1.10724 z m 24.40048,-7.55305 c -4.68166,9.89101 -6.29166,16.23661 -6.14332,24.17497 0.0497,2.20953 0.14835,3.8792 0.2477,3.72536 0.12384,-0.17995 0.12384,0.0508 0.0497,0.48763 -0.47089,2.51792 1.90736,9.09429 4.48364,12.51126 1.88287,2.46639 3.49287,3.08317 5.20222,1.97806 1.73385,-1.10442 4.83067,-6.16565 5.9208,-9.63344 0.49537,-1.61886 1.13911,-5.06124 0.99076,-5.31811 -0.0742,-0.10303 0,-1.3874 0.14835,-2.8517 0.6444,-6.60249 -1.26296,-14.20705 -5.9453,-23.68663 -1.04045,-2.13191 -2.15506,-4.23911 -2.42724,-4.72674 l -0.52057,-0.89906 z m 160.15279,14.18163 c 1.13979,-4.52209 3.76574,-10.86769 6.83739,-16.49348 l 1.04045,-1.92655 1.48615,3.08247 c 5.20222,10.71315 7.23344,18.72842 6.58971,26.12691 -0.12386,1.43892 -0.27287,3.36547 -0.32186,4.29064 -0.2477,3.59692 -2.15575,8.52901 -4.48432,11.6376 -3.02199,3.95612 -5.42474,3.28853 -8.79376,-2.49181 -2.40275,-4.11067 -3.19551,-7.19315 -3.36903,-13.28187 -0.14901,-4.93281 0.0497,-7.06471 1.01527,-10.94391 z m -143.43152,0.23076 c -0.049,0.17996 -0.34636,2.00418 -0.66892,4.05915 -0.4702,3.1601 -0.54437,4.82978 -0.56955,11.04694 -0.0497,7.93836 0.17353,10.30173 1.23847,14.25786 1.63517,5.96028 5.05387,11.04692 9.61167,14.18162 2.973,2.05498 4.68235,1.79811 6.06916,-0.87365 0.89209,-1.7727 1.83319,-5.2666 1.93254,-7.27007 0.0245,-0.77131 0.12385,-2.80089 0.2232,-4.49597 0.22251,-3.46849 -0.0252,-5.47195 -1.01596,-8.70897 -1.63518,-5.34352 -4.90484,-10.43087 -10.62763,-16.57041 -3.64121,-3.90531 -6.04396,-6.08872 -6.19298,-5.6265 z m 119.77418,22.27383 c 1.95705,-6.16565 5.57376,-11.50917 12.73302,-18.80534 2.05571,-2.08109 3.81474,-3.77688 3.88891,-3.77688 0.42121,0 1.43716,8.32367 1.61067,13.23106 0.0987,2.69718 0.0245,4.82977 -0.22319,7.11623 -0.22319,1.7981 -0.32186,3.49389 -0.24769,3.77617 0.0742,0.33379 0.0245,0.53985 -0.17352,0.53985 -0.17352,0 -0.2232,0.20535 -0.12385,0.48764 0.19802,0.7198 -0.54505,4.18758 -1.46165,6.73091 -1.21397,3.39156 -2.74979,5.9857 -5.07837,8.50361 -3.74057,4.08456 -6.68838,5.60039 -8.59574,4.36755 -1.56101,-1.0275 -3.02199,-5.6265 -3.1955,-9.94253 -0.0497,-1.4128 -0.17353,-3.10858 -0.2477,-3.75076 -0.24769,-1.77271 0.32186,-5.90878 1.11461,-8.47751 z m -35.10221,18.47155 c 3.86441,-8.70898 12.0641,-14.00168 27.1502,-17.5471 0.48859,-0.11361 0.96015,-0.2244 1.39633,-0.32673 1.33169,-0.31333 2.32519,-0.5462 2.4184,-0.5462 0.29738,-0.0262 0.2232,0.30838 -0.4702,2.05497 -1.38749,3.54541 -1.5855,4.11068 -1.31331,3.93072 0.22319,-0.12843 0.24768,0.20536 0.17352,1.23285 -0.14903,1.79881 -2.92332,7.70759 -5.64793,11.94599 -5.6731,8.91504 -13.32775,13.95017 -21.15592,13.95017 -2.9723,0 -4.1121,-0.66829 -4.43396,-2.59485 -0.0497,-0.33378 -0.17352,-0.82212 -0.29736,-1.079 -0.54507,-1.33588 0.71858,-7.7584 2.18023,-11.02082 z m 24.8713,10.584 c 3.1955,-2.44029 7.20826,-4.26451 11.04816,-5.03513 2.13056,-0.41071 5.6976,-0.28228 8.49707,0.30839 5.69761,1.23285 11.79124,4.41835 19.32204,10.14788 l 3.12133,2.36337 -1.95704,0.77062 c -1.06494,0.43682 -1.73384,0.84754 -1.51064,0.89905 0.22251,0.0515 0.49538,0.43682 0.56955,0.84753 0.34704,1.64428 -1.13979,2.67248 -5.59826,3.93072 -14.17018,3.98224 -24.32691,2.38949 -31.46099,-4.98361 -1.88288,-1.92654 -2.50211,-3.34005 -1.98223,-4.52137 0.27287,-0.61678 0.1987,-0.79673 -0.7179,-2.05569 l -0.99077,-1.3867 z m -43.17807,0.79672 c -1.18947,0.35921 -2.97299,2.13191 -3.4432,3.44239 -0.32254,0.87364 -0.39671,1.54123 -0.27287,2.87711 0.0994,0.95057 0.14902,2.15801 0.14902,2.64635 -0.0497,2.44028 1.53583,4.95821 3.59154,5.6519 3.4187,1.18204 7.06059,-1.33587 7.23344,-5.00972 0.0252,-0.71909 0.19869,-1.82422 0.34704,-2.4918 0.24769,-0.95058 0.24769,-1.54124 0,-2.59484 -0.76826,-3.57082 -4.13728,-5.57498 -7.60497,-4.52139 z m -11.14888,12.18382 c -13.26106,16.09547 -35.08315,8.36176 -35.08315,8.36176 0,0 18.20401,-17.74961 35.08315,-8.36176 z M 228.226,217.32083 c -20.24749,-2.69787 -25.95258,-25.87004 -25.95258,-25.87004 0,0 24.28813,6.08237 25.95258,25.87004 z m -37.57779,-9.82186 c -16.29801,-12.74837 -10.18124,-35.80763 -10.18124,-35.80763 0,0 18.19042,17.76445 10.18124,35.80763 z M 162.397,190.66252 c -11.7266,-17.32973 0.93293,-37.31923 0.93293,-37.31923 0,0 12.03962,22.70571 -0.93293,37.31923 z m -20.25973,-18.96411 c -8.95353,-19.02623 6.57881,-36.70316 6.57881,-36.70316 0,0 8.44741,24.38597 -6.57881,36.70316 z m -18.59523,-24.46572 c -20.32451,-1.9823 -26.785745,-24.93994 -26.785745,-24.93994 0,0 24.473225,5.22285 26.785745,24.93994 z M 116.34985,119.9449 C 97.832735,111.03269 99.140876,87.155543 99.140876,87.155543 c 0,0 21.383274,13.403947 17.208974,32.789357 z m 8.08375,-15.08703 c -2.7012,-20.984517 17.41978,-32.669407 17.41978,-32.669407 0,0 0.58827,25.90462 -17.41978,32.669407 z m -8.07885,-16.693197 c -14.30382,-15.10538 -4.97052,-36.97414 -4.97052,-36.97414 0,0 15.46097,20.35505 4.97052,36.97414 z m 9.9773,-35.81821 c -11.72659,-17.32973 0.93293,-37.31923 0.93293,-37.31923 0,0 12.03921,22.70571 -0.93293,37.31923 z m 15.71002,-15.79556 c -7e-5,-21.17082 21.43485,-29.9919997 21.43485,-29.9919997 0,0 -2.7219,25.7578497 -21.43485,29.9919997 z m -8.58288,31.0689 c 1.44206,-21.1179 23.42394,-28.34703 23.42394,-28.34703 0,0 -4.46935,25.4939 -23.42394,28.34703 z m -2.66738,71.251117 c -6.709,-19.99514 10.73991,-35.63191 10.73991,-35.63191 0,0 5.59206,25.25468 -10.73991,35.63191 z m 132.03421,78.72866 c 2.95121,-20.94853 25.39049,-26.46354 25.39049,-26.46354 0,0 -6.28417,25.07897 -25.39049,26.46354 z m 37.41174,-10.1613 c -5.75408,-20.312 12.41456,-35.04124 12.41456,-35.04124 0,0 4.38837,25.50943 -12.41456,35.04124 z m 27.0495,-16.80187 c -11.39861,-17.56332 1.63449,-37.29312 1.63449,-37.29312 0,0 11.61024,22.94495 -1.63449,37.29312 z m 20.93476,-18.62045 c -14.16746,-15.24229 -4.63811,-37.02071 -4.63811,-37.02071 0,0 15.2773,20.50395 4.63811,37.02071 z m 10.33775,-33.21773 c -15.70056,-13.53027 -8.54335,-36.26491 -8.54335,-36.26491 0,0 17.36296,18.63314 8.54335,36.26491 z m 8.37867,6.78102 c 5.37981,-20.42279 28.29816,-23.07409 28.29816,-23.07409 0,0 -9.17074,24.10369 -28.29816,23.07409 z m 6.96191,-25.10366 c -2.03257,-21.065677 18.449,-32.056157 18.449,-32.056157 0,0 -0.23545,25.910967 -18.449,32.056157 z m -7.50358,-15.16537 c -18.351,-9.274937 -16.60627,-33.121757 -16.60627,-33.121757 0,0 21.13415,13.82173 16.60627,33.121757 z m 7.37021,-17.701627 c -8.6631,-19.17018 7.13681,-36.59096 7.13681,-36.59096 0,0 8.07518,24.52147 -7.13681,36.59096 z m -15.80399,-20.63309 c -20.08281,-3.79805 -24.60524,-27.24897 -24.60524,-27.24897 0,0 23.94586,7.39779 24.60524,27.24897 z m 5.38934,-13.24376 c -11.39859,-17.56332 1.6345,-37.29312 1.6345,-37.29312 0,0 11.61024,22.94494 -1.6345,37.29312 z M 348.91814,36.803553 C 329.45592,30.413983 327.81598,6.5589733 327.81598,6.5589733 c 0,0 22.85778,10.4653097 21.10216,30.2445797 z M 258.74318,231.235 c 12.92899,-12.26214 35.51186,6.11131 35.51186,6.11131 0,0 -23.34635,9.23048 -35.51186,-6.11131 z m 29.65366,-12.25721 c 18.65994,-11.29604 35.05254,8.49656 35.05254,8.49656 0,0 -23.87713,7.63421 -35.05254,-8.49656 z m 26.14515,-11.30168 c 15.31065,-17.28387 35.87863,-3.02744 35.87863,-3.02744 0,0 -19.54727,16.44127 -35.87863,3.02744 z m 23.81656,-16.86045 c 12.18387,-16.98677 34.45917,-10.79641 34.45917,-10.79641 0,0 -17.00843,18.98176 -34.45917,10.79641 z m 21.09468,-20.59992 c 7.01908,-19.88011 30.07147,-20.52018 30.07147,-20.52018 0,0 -11.0958,23.21664 -30.07147,20.52018 z M 150.9181,190.93986 c -17.04171,9.68494 -33.71344,-13.08569 -33.71344,-13.08569 0,0 24.62347,-4.39789 33.71344,13.08569 z m 25.23263,16.80328 c -15.05547,14.75818 -35.80998,-3.80651 -35.80998,-3.80651 0,0 22.74762,-10.7202 35.80998,3.80651 z m 27.01139,10.52402 c -12.96097,16.35588 -34.9219,9.05759 -34.9219,9.05759 0,0 17.87264,-18.10811 34.9219,-9.05759 z m -71.53734,-46.93431 c -20.4091,0.47212 -29.39053,-21.55543 -29.39053,-21.55543 0,0 24.89178,2.24834 29.39053,21.55543 z"
     fill="#dcb253"
     fill-opacity="0.7"
     id="path6"
     style="stroke-width:0.692969" />
  <path
     d="m -0.02359502,257.96376 c 1.47826652,0.11524 2.86810392,0.20832 4.17118082,0.27703 1.3214301,0.0465 2.4943661,0.0687 3.5204766,0.0687 1.0594804,0 2.2407584,-0.0221 3.5455036,-0.0687 1.319763,-0.0687 2.841409,-0.16179 4.561604,-0.27703 v 3.11594 c -0.105114,0 -0.251939,-0.0111 -0.443814,-0.0332 -0.190205,-0.0243 -0.320346,-0.0354 -0.390422,-0.0354 -1.459913,0 -2.450986,0.57841 -2.97155,1.73083 -0.522232,1.15462 -0.782513,3.76305 -0.782513,7.82751 0,0.59836 0.0083,1.68429 0.0267,3.25334 0.01668,1.57127 0.02503,2.85222 0.02503,3.84506 l 0.05339,24.30697 0.155168,0.0354 c 2.242428,0.18395 3.937595,0.27702 5.083836,0.27702 4.363055,0 7.221148,-0.60058 8.577616,-1.79952 1.3548,-1.20117 2.467671,-3.48604 3.336945,-6.85684 l 2.397594,0.96847 c -0.538916,2.10093 -1.024441,4.21294 -1.459913,6.33825 -0.417118,2.12309 -0.782513,4.27056 -1.094517,6.44019 -3.076664,-0.1374 -5.934756,-0.24156 -8.577617,-0.31248 -2.641191,-0.0687 -5.057139,-0.10416 -7.246175,-0.10416 -2.172352,0 -4.3630565,0.0355 -6.5704454,0.10416 -2.1890357,0.0709 -4.3713974,0.17508 -6.54374838,0.31248 v -3.04724 h 0.73078476 c 0.93768152,0 1.66013002,-0.12632 2.16400872,-0.38117 0.5038786,-0.25265 0.8676056,-0.66929 1.0945177,-1.2455 0.487194,-1.26986 0.7474757,-6.01468 0.7825136,-14.23225 0.016685,-1.06155 0.025027,-1.87045 0.025027,-2.42449 l 0.053391,-7.54828 c 0,-1.01722 0.00835,-2.34471 0.025027,-3.98246 0.018353,-1.66212 0.026695,-2.81675 0.026695,-3.46388 0,-4.15531 -0.2619501,-6.86791 -0.7825135,-8.13556 -0.5038786,-1.26986 -1.4682556,-1.9059 -2.89313102,-1.9059 h -0.60065 z M 47.658008,290.86061 c -0.382081,0.1374 -0.937682,0.34572 -1.668473,0.62274 -4.970379,1.82391 -7.454734,3.98246 -7.454734,6.47565 0,1.38511 0.3387,2.55082 1.016099,3.49712 0.677401,0.92415 1.52999,1.38511 2.554432,1.38511 0.660715,0 1.408191,-0.2194 2.242427,-0.65821 0.85092,-0.43879 1.955449,-1.18786 3.310249,-2.24941 z m 10.402925,10.63097 0.964377,2.6306 c -1.581713,1.3851 -3.006587,2.42449 -4.276295,3.11815 -1.251355,0.66929 -2.372568,1.00393 -3.361972,1.00393 -1.199631,0 -2.120628,-0.40556 -2.764658,-1.21225 -0.624009,-0.83107 -0.989404,-2.07877 -1.094518,-3.7409 -1.893716,1.75521 -3.493782,3.02508 -4.796858,3.8096 -1.303077,0.76236 -2.476013,1.14355 -3.518809,1.14355 -1.825308,0 -3.380324,-0.93523 -4.666716,-2.80568 -1.286393,-1.89261 -1.928755,-4.15532 -1.928755,-6.78813 0,-4.43234 3.727368,-7.78984 11.183771,-10.07472 1.616749,-0.50971 2.884788,-0.91306 3.805784,-1.21224 0.01835,-0.57842 0.0267,-1.13247 0.0267,-1.66213 0.01669,-0.55405 0.02502,-1.08593 0.02502,-1.59343 0,-2.47103 -0.363728,-4.27056 -1.094518,-5.40302 -0.712438,-1.13025 -1.858678,-1.69537 -3.440391,-1.69537 -1.02611,0 -1.912068,0.27702 -2.659545,0.83106 -0.73079,0.55404 -1.121212,1.20117 -1.172935,1.93915 -0.01835,0.11524 -0.0267,0.26594 -0.0267,0.44988 -0.103445,2.30925 -1.199632,3.46166 -3.285222,3.46166 -0.780844,0 -1.381494,-0.17286 -1.798613,-0.51858 -0.417118,-0.34573 -0.625677,-0.85323 -0.625677,-1.52251 0,-1.84829 1.27805,-3.91376 3.832481,-6.19863 2.572785,-2.30926 5.265699,-3.46388 8.08208,-3.46388 2.746305,0 4.831895,0.9596 6.256771,2.87438 1.424875,1.89261 2.137313,4.67612 2.137313,8.3461 0,1.10809 -0.07008,3.40404 -0.208559,6.89008 -0.121799,3.46387 -0.181863,6.38257 -0.181863,8.76052 0,1.40948 0.138483,2.42449 0.417118,3.04723 0.276966,0.62275 0.712438,0.93523 1.303077,0.93523 0.330357,0 0.739132,-0.11524 1.224658,-0.34572 0.487195,-0.23049 1.034453,-0.56513 1.643446,-1.00393 z m 11.939588,-29.33103 c -0.121799,4.111 -0.216902,7.82753 -0.286977,11.15178 -0.05172,3.32426 -0.07841,6.09447 -0.07841,8.31064 0,4.0157 0.357053,6.82138 1.069491,8.4148 0.712437,1.59122 1.903726,2.38903 3.572199,2.38903 0.834236,0 1.771918,-0.25486 2.814712,-0.76236 1.042796,-0.5075 2.16401,-1.2477 3.363641,-2.21617 0.05172,-3.3021 0.08676,-6.10555 0.103445,-8.4148 0.03504,-2.30926 0.05172,-4.14424 0.05172,-5.50497 v -1.55797 c 0,-2.86329 -0.190206,-4.65174 -0.572286,-5.36757 -0.383749,-0.71582 -1.112871,-1.07484 -2.190704,-1.07484 -0.190206,0 -0.38208,0.0111 -0.573955,0.0354 -0.190206,0 -0.390422,0.0111 -0.598981,0.0332 l -0.156838,-2.77012 c 1.825309,-0.23048 3.607238,-0.5075 5.344117,-0.82885 1.738548,-0.32356 3.442059,-0.70474 5.11053,-1.14354 -0.121798,5.35648 -0.208558,9.42981 -0.260281,12.2244 -0.03504,2.77021 -0.05339,5.35427 -0.05339,7.7566 v 3.18464 c 0,3.00069 0.140152,4.8933 0.417118,5.68004 0.278635,0.76014 0.834237,1.14133 1.668472,1.14133 0.208559,0 0.435472,-0.0221 0.679069,-0.0687 0.260282,-0.0466 0.528905,-0.11524 0.80754,-0.20831 l 0.260282,2.83892 -9.984138,2.97852 v -5.33211 c -1.99883,1.93916 -3.710683,3.31318 -5.135558,4.11987 -1.424875,0.8089 -2.808039,1.21224 -4.146154,1.21224 -2.606154,0 -4.553261,-1.07262 -5.839653,-3.22009 -1.268039,-2.16964 -1.902058,-5.44735 -1.902058,-9.83537 0,-0.92192 0,-1.68429 0,-2.28487 0.01668,-0.60059 0.03504,-1.19895 0.05172,-1.79953 l 0.103445,-4.70937 c 0,-0.46318 0.01001,-1.05046 0.02669,-1.76628 0.01835,-0.73799 0.02669,-1.25879 0.02669,-1.55797 0,-2.28709 -0.148493,-3.82068 -0.443813,-4.60521 -0.29532,-0.8089 -0.825894,-1.21225 -1.590054,-1.21225 -0.330358,0 -0.790856,0.0333 -1.381495,0.10417 -0.07008,0.0221 -0.121798,0.0332 -0.156837,0.0332 l -0.156836,-2.83891 c 1.651787,-0.27702 3.311918,-0.62275 4.98039,-1.03939 1.668472,-0.4388 3.353629,-0.93522 5.05714,-1.48927 z m 33.629729,-0.44988 c -0.1218,2.16964 -0.2169,4.029 -0.28698,5.57589 -0.0684,1.54688 -0.11178,2.89653 -0.13014,4.05116 1.54668,-3.4395 2.87645,-5.79529 3.98932,-7.06515 1.11287,-1.29203 2.32918,-1.93693 3.64895,-1.93693 0.921,0 1.72186,0.44988 2.39927,1.34964 0.67739,0.89977 1.01609,1.98569 1.01609,3.25555 0,1.1768 -0.2169,2.11202 -0.6507,2.80346 -0.41712,0.69367 -0.98273,1.03939 -1.69517,1.03939 -0.40043,0 -0.95603,-0.18394 -1.66848,-0.55405 -0.71243,-0.39226 -1.27804,-0.5895 -1.69516,-0.5895 -0.78085,0 -1.56336,0.39226 -2.34587,1.179 -0.78251,0.78453 -1.69517,2.10094 -2.7363,3.94701 0,0.73798 -0.01,1.87045 -0.0267,3.39295 -0.0184,1.52473 -0.0267,2.67714 -0.0267,3.46388 v 3.84284 c 0,3.99354 0.27028,6.5089 0.8092,7.54828 0.53892,1.01723 1.59006,1.52473 3.15341,1.52473 0.10512,0 0.27029,-0.0111 0.49554,-0.0354 0.24359,-0.0221 0.43547,-0.0332 0.57396,-0.0332 v 2.90762 h -0.0784 c -3.87586,-0.32356 -6.39525,-0.48534 -7.55984,-0.48534 -0.921004,0 -3.258531,0.15069 -7.012594,0.44988 h -0.522261 v -2.94307 h 0.704095 c 1.303076,0 2.189035,-0.42551 2.659545,-1.28095 0.468841,-0.85323 0.704095,-2.88546 0.704095,-6.09448 v -4.18856 -7.51504 c 0,-3.46387 -0.165178,-5.59804 -0.495536,-6.40694 -0.313673,-0.83107 -0.912654,-1.24549 -1.798613,-1.24549 -0.105114,0 -0.29532,0.0332 -0.573954,0.10416 -0.278635,0.0443 -0.503879,0.0798 -0.677401,0.10416 l -0.208558,-2.77021 c 1.650118,-0.34794 3.301906,-0.79783 4.952025,-1.35187 1.651787,-0.55405 3.346967,-1.23441 5.083837,-2.04331 z m 37.20193,17.21079 -10.87177,0.0354 c -1.85867,0 -3.24852,0.0221 -4.17118,0.0687 -0.921,0.0221 -1.77192,0.0909 -2.55443,0.20611 0,4.13315 0.76583,7.37763 2.29415,9.7312 1.54668,2.35579 3.67565,3.53258 6.38691,3.53258 1.30475,0 2.58947,-0.26594 3.85918,-0.7956 1.28639,-0.55405 2.58112,-1.38733 3.8842,-2.49542 l 1.17294,2.97854 c -2.01552,2.12531 -3.99766,3.71652 -5.9431,4.77807 -1.94711,1.03938 -3.87586,1.56018 -5.78793,1.56018 -3.63226,0 -6.61383,-1.60451 -8.94134,-4.81353 -2.32919,-3.23339 -3.49379,-7.37542 -3.49379,-12.43272 0,-5.49389 1.2597,-10.07471 3.7791,-13.7469 2.52106,-3.69214 5.6144,-5.54044 9.28171,-5.54044 3.28522,0 5.9431,1.5469 7.97696,4.64067 2.03387,3.06939 3.07667,7.16709 3.12839,12.2931 z m -6.17836,-4.22403 c -0.36539,-2.70151 -1.03445,-4.80244 -2.00716,-6.30279 -0.95604,-1.52472 -2.10395,-2.28487 -3.44206,-2.28487 -1.5984,0 -2.91983,0.81777 -3.96263,2.45774 -1.04279,1.63996 -1.6935,3.93592 -1.95544,6.89007 h 1.64344 c 2.13731,0 3.99765,-0.0577 5.57937,-0.17286 1.58171,-0.13741 2.96321,-0.33464 4.14448,-0.58729 z m -3.2068,-31.85746 5.08383,3.77414 -9.30673,11.53074 -2.55443,-1.2477 z m 28.46915,38.02064 c -0.38376,0.1374 -0.93935,0.34572 -1.66848,0.62274 -4.97205,1.82391 -7.4564,3.98246 -7.4564,6.47565 0,1.38511 0.3387,2.55082 1.0161,3.49712 0.6774,0.92415 1.52999,1.38511 2.55609,1.38511 0.65905,0 1.40654,-0.2194 2.24077,-0.65821 0.85259,-0.43879 1.95544,-1.18786 3.31192,-2.24941 z m 10.40126,10.63097 0.96437,2.6306 c -1.58172,1.3851 -3.00659,2.42449 -4.27463,3.11815 -1.25136,0.66929 -2.37257,1.00393 -3.36364,1.00393 -1.19963,0 -2.12062,-0.40556 -2.76299,-1.21225 -0.62568,-0.83107 -0.99107,-2.07877 -1.09452,-3.7409 -1.89538,1.75521 -3.49377,3.02508 -4.79852,3.8096 -1.30308,0.76236 -2.47601,1.14355 -3.51881,1.14355 -1.82531,0 -3.38033,-0.93523 -4.66672,-2.80568 -1.28639,-1.89261 -1.92875,-4.15532 -1.92875,-6.78813 0,-4.43234 3.72737,-7.78984 11.18377,-10.07472 1.61675,-0.50971 2.88479,-0.91306 3.80579,-1.21224 0.0184,-0.57842 0.0267,-1.13247 0.0267,-1.66213 0.0167,-0.55405 0.0267,-1.08593 0.0267,-1.59343 0,-2.47103 -0.3654,-4.27056 -1.09619,-5.40302 -0.71244,-1.13025 -1.85868,-1.69537 -3.44039,-1.69537 -1.02611,0 -1.91207,0.27702 -2.65955,0.83106 -0.72912,0.55404 -1.12121,1.20117 -1.17293,1.93915 -0.0167,0.11524 -0.0267,0.26594 -0.0267,0.44988 -0.10344,2.30925 -1.19796,3.46166 -3.28355,3.46166 -0.78252,0 -1.3815,-0.17286 -1.79861,-0.51858 -0.41712,-0.34573 -0.62735,-0.85323 -0.62735,-1.52251 0,-1.84829 1.27805,-3.91376 3.83248,-6.19863 2.57278,-2.30926 5.26737,-3.46388 8.08208,-3.46388 2.7463,0 4.8319,0.9596 6.25677,2.87438 1.42488,1.89261 2.13732,4.67612 2.13732,8.3461 0,1.10809 -0.0685,3.40404 -0.20857,6.89008 -0.1218,3.46387 -0.18186,6.38257 -0.18186,8.76052 0,1.40948 0.13849,2.42449 0.41712,3.04723 0.27864,0.62275 0.71244,0.93523 1.30308,0.93523 0.33036,0 0.73913,-0.11524 1.22632,-0.34572 0.48554,-0.23049 1.03279,-0.56513 1.64179,-1.00393 z m 10.16767,-35.52966 2.29414,0.86652 c -0.10511,1.29203 -0.20021,2.52866 -0.28698,3.70545 -0.07,1.15462 -0.11345,2.25163 -0.13013,3.2888 2.27579,0 3.97096,-0.0221 5.08383,-0.0687 1.11121,-0.0466 2.13731,-0.11524 3.07499,-0.20832 l -0.6774,4.74482 c -1.09452,-0.11524 -2.2758,-0.19724 -3.5455,-0.24156 -1.25135,-0.0709 -2.56277,-0.0931 -3.93592,-0.0709 -0.0518,3.04723 -0.0968,5.65566 -0.13014,7.82751 -0.0184,2.14526 -0.0267,3.83177 -0.0267,5.05509 0,5.05508 0.26862,8.35719 0.80754,9.90407 0.55727,1.52251 1.52999,2.28487 2.91982,2.28487 0.55728,0 1.19129,-0.1507 1.90373,-0.44988 0.71244,-0.3014 1.51998,-0.76236 2.42429,-1.38511 l 1.0161,2.90762 c -1.9104,1.43165 -3.61391,2.51757 -5.10886,3.25556 -1.49495,0.76236 -2.72795,1.14354 -3.70234,1.14354 -2.22408,0 -3.86585,-0.92414 -4.927,-2.77021 -1.05948,-1.87045 -1.59005,-4.75591 -1.59005,-8.65859 0,-0.76015 0.0434,-3.26663 0.13013,-7.51281 0.10512,-4.24841 0.15684,-8.12671 0.15684,-11.6349 -0.0351,0 -0.45215,0.0221 -1.25136,0.0687 -0.78251,0.0466 -1.7035,0.0931 -2.76298,0.13741 v -3.32426 c 2.01551,-0.39226 3.70067,-1.31419 5.05714,-2.77021 1.37315,-1.47597 2.44097,-3.5082 3.20681,-6.09447 z m 41.45152,19.08124 c -1.68682,1.36072 -2.93818,2.85 -3.75406,4.4678 -0.80087,1.59121 -1.19964,3.41512 -1.19964,5.46951 0,2.70151 0.63403,4.91769 1.90206,6.64852 1.26971,1.70866 2.91148,2.56188 4.927,2.56188 1.82531,0 3.34696,-0.80668 4.56327,-2.42226 1.233,-1.63997 1.85034,-3.6722 1.85034,-6.09448 0,-2.33141 -0.60733,-4.29494 -1.82531,-5.88837 -1.21632,-1.61558 -3.37031,-3.19572 -6.46366,-4.7426 z m 6.30849,-4.95093 c 2.93651,1.70645 5.07383,3.64561 6.41194,5.81523 1.35647,2.14747 2.03387,4.72267 2.03387,7.72336 0,4.15532 -1.30308,7.6879 -3.90923,10.59552 -2.59114,2.90983 -5.79628,4.36364 -9.62041,4.36364 -3.54551,0 -6.44865,-1.24771 -8.70776,-3.7409 -2.25911,-2.49319 -3.38867,-5.66675 -3.38867,-9.52289 0,-2.72368 0.69576,-5.15924 2.0856,-7.3045 1.38983,-2.17185 3.397,-3.92483 6.02151,-5.2634 -2.38091,-1.45603 -4.14448,-3.18685 -5.2924,-5.19471 -1.12955,-2.03223 -1.6935,-4.41018 -1.6935,-7.13386 0,-3.73868 1.14625,-6.92553 3.44039,-9.55613 2.3125,-2.65497 5.09219,-3.98246 8.34237,-3.98246 3.33694,0 6.04821,1.09701 8.1338,3.2888 2.08559,2.19402 3.12839,4.99747 3.12839,8.4148 0,2.44666 -0.58231,4.62958 -1.74689,6.54436 -1.1646,1.91699 -2.90982,3.56582 -5.23901,4.95314 z m -2.71126,-2.14747 c 1.45991,-1.2477 2.55442,-2.63281 3.28355,-4.15532 0.73078,-1.54689 1.09619,-3.25555 1.09619,-5.126 0,-2.21617 -0.54727,-4.01571 -1.64345,-5.40081 -1.07616,-1.40949 -2.47602,-2.11201 -4.19621,-2.11201 -1.58171,0 -2.91982,0.68036 -4.01601,2.04109 -1.09452,1.36295 -1.64178,3.04945 -1.64178,5.0573 0,1.96131 0.56561,3.71652 1.69517,5.26341 1.12956,1.54689 2.93651,3.02286 5.42254,4.43234 z m 51.27883,1.34965 c -0.95604,-0.73799 -1.87704,-1.28095 -2.763,-1.62667 -0.88596,-0.3701 -1.76358,-0.55404 -2.63285,-0.55404 -2.36422,0 -4.20621,1.03717 -5.52764,3.11593 -1.30308,2.0544 -1.95546,4.98639 -1.95546,8.79598 0,4.04009 0.66072,7.27127 1.98215,9.69576 1.32143,2.42448 3.06665,3.63452 5.24068,3.63452 0.76415,0 1.59838,-0.20611 2.5027,-0.62275 0.921,-0.41442 1.95378,-1.06155 3.10169,-1.93915 z m 6.54375,-25.59013 c -0.10345,5.10163 -0.20023,10.38941 -0.28698,15.86113 -0.0867,5.44735 -0.16519,11.25372 -0.23359,17.4169 v 8.76052 1.48927 c 0,2.88545 0.13848,4.72044 0.41712,5.50497 0.29531,0.78452 0.81588,1.17901 1.56336,1.17901 0.26028,0 0.53057,-0.0355 0.80753,-0.10417 0.29533,-0.0931 0.61734,-0.2194 0.96605,-0.38118 l 0.46884,2.73475 c -1.54667,0.80891 -3.12839,1.40949 -4.74513,1.80176 -1.61675,0.41441 -3.32861,0.63381 -5.13556,0.65598 -0.10512,-0.69145 -0.19188,-1.45381 -0.26029,-2.28488 -0.07,-0.83106 -0.1318,-1.77736 -0.18353,-2.8389 -1.58171,1.54688 -3.04996,2.69042 -4.40476,3.4284 -1.33812,0.71583 -2.64287,1.07264 -3.9109,1.07264 -3.19847,0 -5.83132,-1.55797 -7.90021,-4.67391 -2.06724,-3.14031 -3.10169,-7.1804 -3.10169,-12.12024 0,-5.51605 1.29472,-9.99494 3.8842,-13.43443 2.58947,-3.4395 5.96145,-5.16146 10.11594,-5.16146 0.88596,0 1.78026,0.10416 2.68457,0.31248 0.90431,0.20832 1.86035,0.53188 2.86811,0.97068 0,-0.13962 0.008,-0.35902 0.0267,-0.6582 0.0518,-3.20902 0.0768,-5.51827 0.0768,-6.92553 0,-3.25556 -0.17352,-5.26342 -0.52056,-6.02578 -0.34704,-0.76236 -0.99107,-1.14354 -1.92875,-1.14354 -0.15684,0 -0.3654,0.0243 -0.62568,0.0709 -0.26195,0.0221 -0.5823,0.0687 -0.96604,0.13741 l -0.23359,-2.80568 c 1.63343,-0.27481 3.31859,-0.64491 5.05713,-1.10809 1.75524,-0.48312 3.58889,-1.06155 5.50097,-1.73083 z m 12.64367,2.04331 c 1.77359,1.54689 2.96321,2.86329 3.5722,3.947 0.60733,1.08593 0.91266,2.32033 0.91266,3.70544 0,2.05439 -0.73913,4.36364 -2.21573,6.92553 -1.47827,2.56411 -3.52882,5.07946 -6.15333,7.5505 l -1.87703,-2.63281 c 1.32143,-1.29203 2.37257,-2.66606 3.15508,-4.11986 0.7992,-1.45603 1.3281,-3.014 1.59006,-4.67612 -1.33812,-0.92193 -2.23409,-1.70868 -2.68624,-2.35358 -0.4505,-0.64712 -0.67741,-1.39619 -0.67741,-2.25162 0,-0.66929 0.16518,-1.31642 0.49554,-1.93916 0.33036,-0.62274 0.8943,-1.32748 1.69516,-2.11201 z m 23.12503,20.7766 c -2.13898,0 -3.79911,1.06155 -4.98038,3.18686 -1.1646,2.10093 -1.7469,5.07724 -1.7469,8.93339 0,4.68498 0.66906,8.40372 2.00717,11.14955 1.33811,2.74805 3.1384,4.12209 5.39751,4.12209 2.154,0 3.84917,-1.10809 5.08383,-3.32426 1.25136,-2.21618 1.87703,-5.25234 1.87703,-9.10847 0,-4.59412 -0.69575,-8.22864 -2.08558,-10.90799 -1.37315,-2.6993 -3.22516,-4.05117 -5.55268,-4.05117 z m 0.52057,-4.5365 c 4.08441,0 7.4297,1.67321 10.03752,5.02185 2.60616,3.32425 3.90923,7.5372 3.90923,12.63882 0,5.35648 -1.36314,9.83537 -4.09276,13.43444 -2.71127,3.57911 -6.09993,5.36756 -10.16767,5.36756 -4.06606,0 -7.38632,-1.68429 -9.95744,-5.05509 -2.57279,-3.3708 -3.85918,-7.6879 -3.85918,-12.9513 0,-5.17033 1.37315,-9.53397 4.11946,-13.08871 2.76299,-3.5769 6.09994,-5.36757 10.01084,-5.36757 z m 27.06095,-0.27702 c -0.1218,2.16964 -0.2169,4.029 -0.28698,5.57589 -0.07,1.54688 -0.11345,2.89653 -0.13014,4.05116 1.54668,-3.4395 2.87644,-5.79529 3.98765,-7.06515 1.11287,-1.29203 2.32918,-1.93693 3.65062,-1.93693 0.921,0 1.72019,0.44988 2.39759,1.34964 0.67907,0.89977 1.01777,1.98569 1.01777,3.25555 0,1.1768 -0.2169,2.11202 -0.65237,2.80346 -0.41712,0.69367 -0.98107,1.03939 -1.6935,1.03939 -0.40043,0 -0.95604,-0.18394 -1.66848,-0.55405 -0.7141,-0.39226 -1.27805,-0.5895 -1.69517,-0.5895 -0.78251,0 -1.56502,0.39226 -2.34587,1.179 -0.78251,0.78453 -1.69517,2.10094 -2.73796,3.94701 0,0.73798 -0.008,1.87045 -0.0267,3.39295 -0.0167,1.52473 -0.025,2.67714 -0.025,3.46388 v 3.84284 c 0,3.99354 0.26863,6.5089 0.80755,7.54828 0.53891,1.01723 1.59005,1.52473 3.15508,1.52473 0.10344,0 0.26862,-0.0111 0.49554,-0.0354 0.24192,-0.0221 0.4338,-0.0332 0.57228,-0.0332 v 2.90762 h -0.0784 c -3.87419,-0.32356 -6.39525,-0.48534 -7.55984,-0.48534 -0.921,0 -3.25853,0.15069 -7.01259,0.44988 h -0.52056 v -2.94307 h 0.70409 c 1.30307,0 2.18903,-0.42551 2.65787,-1.28095 0.46884,-0.85323 0.7041,-2.88546 0.7041,-6.09448 v -4.18856 -7.51504 c 0,-3.46387 -0.16518,-5.59804 -0.49554,-6.40694 -0.312,-0.83107 -0.91265,-1.24549 -1.79861,-1.24549 -0.10345,0 -0.29532,0.0332 -0.57396,0.10416 -0.27696,0.0443 -0.50388,0.0798 -0.67739,0.10416 l -0.20856,-2.77021 c 1.65179,-0.34794 3.3019,-0.79783 4.95369,-1.35187 1.65012,-0.55405 3.34528,-1.23441 5.08384,-2.04331 z m 37.14853,27.7376 c 1.60006,0.0221 3.33695,0.0576 5.21398,0.10416 1.89538,0.0221 2.97322,0.0332 3.23349,0.0332 h 0.78252 c 3.14507,0 5.1439,-0.36788 5.99482,-1.10808 0.8526,-0.73799 1.46993,-2.16963 1.85201,-4.29273 l 2.29414,0.86653 c -0.57394,2.09871 -1.06114,4.17748 -1.45991,6.23187 -0.38208,2.05439 -0.67906,4.08662 -0.88596,6.09447 -3.09501,-0.18394 -5.65779,-0.31248 -7.69165,-0.38118 -2.01551,-0.0687 -3.84083,-0.10416 -5.47426,-0.10416 -1.52999,0 -3.2068,0.0355 -5.03211,0.10416 -1.80696,0.0687 -4.01435,0.19724 -6.62217,0.38118 l -1.0161,-3.11594 c 5.59605,-5.97922 9.89738,-11.67035 12.90564,-17.07116 3.00658,-5.42519 4.50987,-10.18109 4.50987,-14.26771 0,-2.86329 -0.60899,-5.13709 -1.8253,-6.82138 -1.19964,-1.70867 -2.81638,-2.56189 -4.84858,-2.56189 -1.35647,0 -2.65121,0.58728 -3.88588,1.76629 -1.233,1.15241 -2.41428,2.90762 -3.54383,5.2634 l -2.65955,-2.18292 c 1.56336,-3.78523 3.38033,-6.62414 5.44756,-8.51897 2.08559,-1.89261 4.41478,-2.83891 6.98757,-2.83891 3.11003,0 5.76957,1.42056 7.97697,4.25948 2.22407,2.81676 3.33694,6.19863 3.33694,10.14563 0,3.78744 -1.08618,7.6879 -3.25853,11.7036 -2.17235,4.01792 -6.28347,9.45419 -12.33168,16.31102 z m 37.20193,-37.95193 c -2.25911,0 -3.93593,1.59342 -5.03045,4.77806 -1.09618,3.18686 -1.64344,8.09124 -1.64344,14.7176 0,7.64135 0.61734,13.40119 1.852,17.27948 1.23301,3.85392 3.075,5.78199 5.52599,5.78199 2.27746,0 3.96261,-1.6045 5.05713,-4.81352 1.11288,-3.23118 1.66848,-8.15994 1.66848,-14.7863 0,-7.54827 -0.62568,-13.26156 -1.87703,-17.13986 -1.25136,-3.8783 -3.10169,-5.81745 -5.55268,-5.81745 z m 0.52223,-4.5365 c 4.27463,0 7.62993,2.18071 10.06256,6.54435 2.45099,4.36364 3.67565,10.38941 3.67565,18.07509 0,8.17324 -1.32144,14.7176 -3.96263,19.63528 -2.64119,4.91768 -6.14331,7.37542 -10.50637,7.37542 -4.08442,0 -7.35129,-2.21617 -9.80228,-6.64852 -2.43263,-4.45672 -3.64894,-10.44702 -3.64894,-17.97093 0,-7.96492 1.32976,-14.45165 3.98765,-19.46242 2.67789,-5.03292 6.0749,-7.54827 10.19436,-7.54827 z m 25.78291,42.48843 c 1.5984,0.0221 3.33694,0.0576 5.21397,0.10416 1.89371,0.0221 2.97155,0.0332 3.23183,0.0332 h 0.78252 c 3.14673,0 5.14389,-0.36788 5.99648,-1.10808 0.85093,-0.73799 1.46826,-2.16963 1.85034,-4.29273 l 2.29415,0.86653 c -0.57395,2.09871 -1.05948,4.17748 -1.45992,6.23187 -0.38208,2.05439 -0.67739,4.08662 -0.88596,6.09447 -3.09334,-0.18394 -5.65779,-0.31248 -7.68998,-0.38118 -2.01718,-0.0687 -3.84083,-0.10416 -5.47593,-0.10416 -1.52832,0 -3.20513,0.0355 -5.03044,0.10416 -1.80862,0.0687 -4.01435,0.19724 -6.62217,0.38118 l -1.0161,-3.11594 c 5.59605,-5.97922 9.89738,-11.67035 12.90397,-17.07116 3.00659,-5.42519 4.50988,-10.18109 4.50988,-14.26771 0,-2.86329 -0.60733,-5.13709 -1.82531,-6.82138 -1.19797,-1.70867 -2.81471,-2.56189 -4.84858,-2.56189 -1.3548,0 -2.64953,0.58728 -3.88421,1.76629 -1.23466,1.15241 -2.41595,2.90762 -3.5455,5.2634 l -2.65955,-2.18292 c 1.56503,-3.78523 3.38033,-6.62414 5.44923,-8.51897 2.0856,-1.89261 4.41478,-2.83891 6.9859,-2.83891 3.11171,0 5.77125,1.42056 7.97864,4.25948 2.22407,2.81676 3.33694,6.19863 3.33694,10.14563 0,3.78744 -1.08618,7.6879 -3.25853,11.7036 -2.17402,4.01792 -6.28347,9.45419 -12.33167,16.31102 z m 38.97384,-19.21864 c 0.33035,-0.0221 0.64403,-0.0354 0.93935,-0.0354 0.29531,-0.0221 0.59898,-0.0332 0.91266,-0.0332 2.55442,0 4.63168,1.05046 6.23007,3.15139 1.61675,2.07656 2.42429,4.77807 2.42429,8.10233 0,4.7559 -1.49495,8.79598 -4.48319,12.12024 -2.9899,3.32426 -6.6572,4.98638 -11.0019,4.98638 -2.81638,0 -5.19729,-0.79781 -7.14274,-2.38903 -1.93041,-1.59342 -2.89479,-3.45279 -2.89479,-5.57589 0,-1.13246 0.32202,-2.10092 0.96438,-2.90983 0.66071,-0.83106 1.42653,-1.24549 2.29415,-1.24549 0.88762,0 1.76524,0.88869 2.63452,2.66606 0.15517,0.32356 0.26862,0.55404 0.3387,0.69144 0.65904,1.34078 1.33811,2.28709 2.03219,2.84113 0.71244,0.52967 1.57337,0.79561 2.58113,0.79561 2.15566,0 3.95428,-0.96847 5.39751,-2.90761 1.45991,-1.93916 2.18903,-4.35256 2.18903,-7.23803 0,-2.79237 -0.59063,-4.99746 -1.77192,-6.61305 -1.16459,-1.63996 -2.7463,-2.45995 -4.74513,-2.45995 -0.57396,0 -1.21632,0.10416 -1.92875,0.31249 -0.69576,0.20831 -1.66013,0.5762 -2.89481,1.10808 l -0.88595,-3.11594 c 3.4237,-1.84829 5.9531,-3.77636 7.58654,-5.78421 1.63344,-2.00784 2.45099,-4.18856 2.45099,-6.54435 0,-2.12309 -0.49554,-3.84284 -1.48661,-5.15925 -0.99107,-1.33857 -2.27747,-2.00785 -3.85751,-2.00785 -1.35647,0 -2.62451,0.48535 -3.80746,1.45381 -1.16459,0.96847 -2.33752,2.51535 -3.5188,4.64067 l -2.45099,-2.11202 c 1.40819,-3.27993 3.10336,-5.74875 5.08384,-7.41087 1.98047,-1.68651 4.20621,-2.52865 6.67388,-2.52865 2.88479,0 5.2924,1.10808 7.22115,3.32425 1.94711,2.21617 2.91983,4.96423 2.91983,8.24194 0,2.5619 -0.66072,4.80244 -1.98048,6.71722 -1.30474,1.89261 -3.31192,3.53257 -6.02318,4.91768 z"
     fill="#dcb253"
     id="path8"
     style="stroke-width:1.92292" />
</svg>
