<svg fill="none" height="40" viewBox="0 0 125 40" width="125" xmlns="http://www.w3.org/2000/svg"><path d="m23.1025 17.533s7.4353-13.73473 7.9328-14.52046c.4975-.78229.929-1.71212 1.924-1.71212.9986 0 1.51 1.03619 2.1015 2.09984s13.8754 26.88624 13.8754 26.88624l-7.2752-.5833s-6.3879-12.0672-6.8437-12.8049c-.755-1.2215-1.3743-1.2215-1.9415-1.2215-.6645 0-1.3186 0-2.9643 2.8444-1.6735 2.8959-3.2323 5.7917-3.2323 5.7917z" fill="#46bfe0"/><path d="m24.5117 30.4478s6.054-11.0928 6.5306-11.9506c.4767-.8578.9429-1.7876 1.7988-1.7876.8524 0 1.2873.8852 1.8997 2.0175.6123 1.1357 5.7443 10.9521 5.7443 10.9521s-6.7533-.3122-15.9734.7686z" fill="#706f6f"/><path d="m23.2067 30.6604s-10.2917 1.2284-20.23893 5.1741c0 0 11.76693-21.4479 12.29233-22.3606.5288-.9092 1.2838-2.5939 2.3554-2.5767 1.0195.0171 1.4405 1.0739 2.0563 2.2542 2.1084 4.0384 6.4053 12.3074 6.4053 12.3074z" fill="#00a6d0"/><path d="m41.8939 31.5389c-21.5193-1.3416-39.51067 6.0285-39.51067 6.0285l-1.38128 2.4258.02088.0068-.00348-.0103s.62975-.1544.66454-.1715c.03132-.0172.70282-.2128.84895-.278.14612-.0651.91852-.3259.97767-.3534.05915-.0274.65411-.1921.73413-.2196.08002-.0274.32705-.0789.37576-.096.04871-.0172.10438-.0275.13221-.0412.02784-.0172.03132-.0412.01044-.0412-.02087 0 .01044-.0068.04871-.0068s.11482-.0481.14265-.0858c.02784-.0378.09742-.1029.13221-.0961.03132.0069.26443.0275.29226.0275.02784 0 .06959.0103.09394-.0103.02088-.0206.01044-.0275.0174-.0412.00696-.0172-.02087-.0549-.02087-.0549s.01043-.0309.10437-.0583c.09394-.0275.7898-.2093.84895-.2265.05914-.0171.50449-.1235.57756-.1544.06958-.0309.24355-.0858.28878-.0961.04175-.0102.0661-.0171.08002-.0068.0174.0103.03131.0309.05915.048.02783.0172.05915.0103.05915.0103s-.03132-.0103-.01044-.0412c.02087-.0308.05915-.0549.12525-.0789.06611-.0274.25399-.096.29226-.1132s.04871-.048.04871-.048.02784-.0206.04175-.0172c.0174.0069.05567-.0069.08699 0 .03131.0069.06958 0 .11829 0s.17396-.0549.25051-.0583c.07654-.0069.12525-.0172.17048-.0172s.06611-.0068.08003.0069c.01739.0103.02783.0377.03131.0549.00696.0171.03131.0274.06959.0171.03827-.0103.05566-.0103.06958-.0411.0174-.0309-.01044-.0687-.01044-.0687s.00696-.0205.03827-.0308c.03132-.0103.588-.1716.63671-.2128.04871-.0411.06959-.0789.11482-.0754.04175.0068.11481-.0275.17396-.0309.05915-.0069.61934-.1784.69584-.199.0766-.0206.4662-.1304.5393-.1304.0696 0 .1183-.0309.1705-.0275.0487.0069.0557.0069.0661-.0206.0104-.0274.08-.0411.1183-.0583.0383-.0171.0696-.0274.087-.0377s-.0209-.0412-.0383-.0412-.087-.0206-.087-.0206.0174-.0103.0696-.0309c.0557-.0205.261-.0686.3375-.0857.0765-.0172.1183-.0412.1426-.0206.0209.0206.0314.0309.0801.0309s.2226-.0412.2679-.0755c.0417-.0309.1252-.0789.1531-.0927.0278-.0103.0278-.0411.0278-.0411s.0174-.0103.0557-.0275c.0382-.0172.1635-.0412.1635-.0412s-.1183.0789-.1427.103c-.0208.0206-.0487.0377-.0069.048.0417.0103.087.0069.1078 0 .0209-.0069.1079-.0961.1462-.1167.0382-.0205.1531-.0754.1913-.0789.0383-.0068-.0661.0378-.0765.0687-.0105.0308-.0209.0583.0417.0377.0661-.0206.181-.048.2053-.0549.0278-.0069.0174-.0275 0-.0412-.0174-.0171-.0696-.048-.0209-.0755.0487-.0274.6089-.1544.6089-.1544l2.2233-.5901s.087-.0412.1043-.0275c.0174.0172.0314.0412.1183.0275.087-.0172.2053-.0309.2679-.0583.0592-.0275.1462-.0412.1844-.0378.0383.0069.0592.0069.0696.0275.0105.0205-.0696.0308-.0696.0583 0 .0274.0383.0206.0766.0309s.087.0103.1357 0 .0209-.0103.0661-.0549.0591-.0755.0765-.0927c.0174-.0171-.0278-.0274-.0765-.0274s-.1531.0206-.1079-.0069c.0418-.0274.2505-.1029.2923-.1304.0417-.0274.1148-.1063.1357-.1132s.2609-.1544.4419-.1784c.1774-.0206.908-.1441.995-.1647s.2018-.0583.181-.0377c-.0209.0205.0278 0 .1043-.0206.0766-.0206.5985-.0858.668-.103.0696-.0171.3306-.0377.3897-.048.0592-.0103.1148-.048.1462-.0309.0313.0172-.0383.0549.0556.0549.094 0 .1427-.0377.174-.0686s.2505-.1132.3062-.1167c.0556-.0068.2992-.0686.3653-.0754.0661-.0035.2018-.0103.2018-.0103s-.0418.0754-.007.0652c.0383-.0103.167-.0927.2053-.1133s.2436-.0755.2818-.0858c.0313-.0308.1949-.0446.1949-.0446l-.0174.0412s.1322-.0274.1809-.0274.3758-.079.3758-.079-.007.0206.0661.0309c.0695.0103.2539-.0206.3375-.0411.08-.0206.3862-.103.4279-.1133.0418-.0103.2227-.048.2888-.0308.0661.0171.1426.0583.1426.0583s.2053-.1064.2888-.1304c.0835-.0206.3445-.0549.3758-.0686.0313-.0172.1078-.0858.1252-.0755s0 .0309 0 .0583c0 .0275.0209.0378.0696 0 .0487-.0377.174-.0652.2401-.0652s.3062.0206.4245.0172c.1183-.0069.167-.0069.2052-.0309.0383-.0274-.0104-.0377-.0104-.0652 0-.0274.0035-.0549.0696-.048.0661.0068.3549-.0378.414-.0652.0592-.0275.3166-.0961.3584-.1167.0417-.0206.1566-.0377.2122-.0309.0557.0069.0974-.0102.1044.0309.007.0412-.0591.1613.007.1235.0661-.0377.1148-.0549.1252-.0789.0104-.0274-.0174-.0549.0313-.0789.0487-.0274.1531-.0412.1914-.0309s.0069.0206-.0209.0412.087.0412.1322.0549c.0418.0103.2436.1064.3097.1167s.1357.0206.1565.0206c.0209 0-.0278-.0069-.0278-.0309 0-.0275.0209-.0309.0766-.0412.0556-.0103.1948-.0103.2609 0s.0418.0274.1566.0206c.0452-.0034.1043-.0069.1565-.0103.0522-.0069.1009-.0137.1531-.0206 0-.0103 0-.0377.007-.0583.0035-.0206.0313-.0309.087-.0275.0556.0069.2296.0275.2713.0103.0418-.0171.1914-.048.261-.048s.1357 0 .2783-.0172c.1427-.0171.2505-.0274.3062-.0274s.0557-.0309.0557-.0309.0383-.0274.1078-.0206c.0592.0034.341-.0137.4489-.024.0139 0 .0278-.0034.0452-.0034.0313-.0069.1426-.0481.174-.0481.0313 0 .1078.0069.1078.0069s.0974-.0549.1357-.0583c.0383-.0069.2331-.0275.3062-.0309.0696-.0069.341-.0206.3897-.0172.0243.0035.0139.0103 0 .0206.1009-.0103.2018-.0206.3061-.0309.0487-.0103.094-.0137.1357-.0274.0661-.0206.1044-.1167.167-.1441.0661-.0275.167-.0755.2401-.0824.0696-.0034.0383.0275.0209.0412-.0174.0172.0104.0275.0661 0 .0557-.0274.0974-.048.087-.0103-.0105.0378-.0592.0549-.0557.0686.007.0172 0 .0172.0696-.0103.0696-.0274.0974-.048.1809-.0411.08.0068.2505 0 .3862-.0103s.2401-.0206.2401-.0206-.0592.0068-.0279.0412c.0209.024.0244.0411.0383.0411h.0105c.0069-.0034.0139-.0068.0243-.0137.0487-.0377.1148-.0206.1566-.0103.0174.0034.0417.0034.0661.0034.0487-.0034.1009-.0102.1496-.0137 0-.0034.0035-.0034.0035-.0068-.007-.0275-.0557-.0687-.007-.0584s.0209.0309.1079.0378c.087.0034.3409-.0069.3792-.0103.007 0 .08-.0069.1949-.0137.3862-.0309.7689-.0549 1.1481-.0824.4245-.0309.7898-.0549.7898-.0549l2.5608-.1132.5149-.0069s.0104-.0068.0313-.048.0487-.0686.1183-.0412c.0696.0275.1357.0858.167.0858.0174 0 .0626 0 .1113.0034.6785-.0137 1.3465-.0171 2.0041-.0137.254-.0034.4314-.0034.4314-.0034l1.0125.0103s.0209-.0103.0557-.0481c.0313-.0377.0765-.0206.1044-.0206.0278 0 .6958-.0103.7515-.0171.0556-.0069.2818.0103.3479.0309.0661.0205.0974.0652.1357.0652s.174-.0172.2331-.0103c.0592.0068.3793.048.4245.0308.0452-.0171.0591-.0068.0939.0206.0139.0103.0348.0172.0626.0172.0731.0034.1462.0068.2227.0103.087 0 .1879-.0035.2018 0 .0209.0068.0313-.0035.08-.0206.0487-.0172.2819 0 .3062.0171.0209.0138.0313.0378.0557.0344h.0139c.0313-.0103.0522-.0206.0835-.0206s.1322.0274.1322.0274.6854.0412.7933.0412.3271.0309.4349 0c.1079-.0309.3097-.0275.2783-.0206-.0313.0069.0488.0103.1079.0069.0592-.0069.1914-.0206.254-.0069.0661.0172.2331.0412.2609.048.0279.0069.1949.0172.2575.0172.0592 0 .1774.0172.1253.0309-.0348.0103-.0661.0274-.0661.0377.0487.0034.0974.0069.1461.0103.0035-.0034.0069-.0034.0139-.0103.0313-.0412.1148-.048.1461-.0549.0313-.0068.1636-.0652.1357-.0206-.0278.0412-.0591.0755-.0591.0755s-.0105.024.0278.0309c.0174 0 .0383.0034.0557.0034h.0208c.0801.0069.1566.0138.2366.0206.0522 0 .1149-.0034.1288 0 .0209.0069-.0279-.0068-.1044-.0377s.0278-.0927.0487-.0584c.0209.0309.0278.0309.0418.0378.0173.0068.0382-.0172.0382-.0172s.0209-.0274.0383-.0103c.0174.0172-.0278.0103.0174.0172.0417.0069 0 .0171.0417.0069.0418-.0103.0662-.0481.1044-.0275.0383.0206.2436.0686.2888.0858.0418.0171.1357.0549.174.0583.0382.0069.08.0206.1183 0 .0382-.0206.0869-.0274.1322-.0206.0417.0069.1565.0378.24.0275l.0801-.0103s.0174-.0686.0661-.0412c.0487.0275.0209.048.0974.0652s.1044.0377.1044.0377 0 .0275-.0661.0172-.087-.0103-.1079-.0103-.0974-.0069-.0487.0103c.087.0069.1705.0172.254.024.0174-.0034.0417-.0034.0904.0034.0453.0035.1288.0138.2123.0275.1218.0103.247.024.3653.0343.007-.0034.0139-.0069.0244-.0137.0382-.0309.0208-.0549.0591-.0275.0383.0275.0418.0549.0835.0549.0383 0 .5393.0515.595.0652h.0139c.0452.0069.1252-.0068.1566-.0171.0313-.0103.0278-.0412.08-.0206.0557.0206.0417.0309.0765.0549.0139.0103.0139.0171.0209.0206.5289.0583 1.0473.1132 1.5483.1715.0522.0035.1113-.0103.1496-.0068.0383.0068.0278-.0103.0939-.0069.0661.0069.087-.0069.1183.0172.0244.0171.0418.0308.0661.0446.1148.0137.2331.0274.348.0411h.0069c.0696 0 .1461.0172.1461.0172l.0348.0068c-.0208-.0171-2.672-1.2729-13.677-1.9591zm8.5695 1.3038c-.0209-.0103-.0279-.0137-.0348-.0137.0313 0 .0695-.0035.0835-.0035.0278 0 .0313.0378.0313.0378s-.0348.0034-.08-.0206zm1.0124.0824s-.0174.0377-.0382.0308c-.0209-.0068-.0696-.0308-.0696-.0308s.0661-.0172.1044-.0206c.0347-.0069.0034.0206.0034.0206zm.4767.048c-.0418.0171-.08.0103-.1044.0171-.0209.0069-.0487 0-.0487 0s.087-.0377.1253-.0411c.0382-.0069.0591-.0206.0591-.0206s.0139.0274-.0313.0446zm.4801.1132c-.1078-.0171-.1809-.0274-.2226-.0274-.0418 0-.1323-.0172-.1323-.0172l-.0278-.0377c.0557-.0206.0905-.0309.1357-.0309s.0383.0068.0835.0206c.0418.0171.1461.0549.1461.0549s.1253.0514.0174.0377zm.3584.024c-.0487.0069-.174-.0274-.174-.0274.0661 0 .1636-.0103.2053-.0069.0418.0069.1427.0069.1427.0069s-.1253.024-.174.0274zm.5706-.1235c.0278-.0171.2018 0 .2505-.0069.0487-.0068.1531.0412.167.0652.0174.0206.0174.0378-.0696 0-.087-.0377-.4036-.0377-.4036-.0377s.0279-.0034.0557-.0206zm.2505.199c-.0209.0103-.0487.0206-.08.0103s-.261-.0206-.3166-.0309c-.0557-.0103-.1914-.0583-.1914-.0583.0487.0103.1531.0206.1914.0274.0382.0035.0974 0 .1635.0035.0661.0068.1461 0 .1914.0103.0417.0103.0626.0274.0417.0377zm.3201.0343c-.0487 0-.1148.0172-.1531.0172s-.08-.0309-.08-.0309c.0174 0 .1044-.0103.1566-.0172.0556-.0068.0661-.0274.0939-.0171s.0487.0377.0487.0377-.0174.0103-.0661.0103zm.6367.0618c-.0278-.0069-.08-.0652-.08-.0652.1148-.0069.1183.0412.1566.0686.0382.0309-.0488.0034-.0766-.0034z" fill="#cc3024"/><g fill="#585857"><path d="m50.0107 14.277c-1.0125 0-2.2685-.5387-2.2685-2.5665 0-2.02781 1.256-2.5562 2.2685-2.5562.7028 0 1.2282.21273 1.677.6725l-.8559.8441c-.2644-.278-.4871-.3946-.8176-.3946-.3027 0-.5359.1063-.7203.3259-.1948.2402-.2818.5765-.2818 1.1048 0 .5284.087.875.2818 1.1152.1844.2196.4176.3259.7203.3259.3305 0 .5566-.1166.8176-.3946l.8559.8372c-.4488.4667-.9742.6863-1.677.6863z"/><path d="m53.8201 14.2186c-1.0438 0-1.4822-.7205-1.4822-1.4308v-5.40743h1.2664v5.33193c0 .2985.1253.4529.4489.4529h.4871v1.0568h-.7202z"/><path d="m58.1833 14.2186v-.4598c-.3305.3465-.8002.5181-1.2664.5181-.508 0-.9151-.1647-1.1969-.4426-.4105-.4049-.5149-.8749-.5149-1.4205v-3.1978h1.2664v3.0263c0 .6827.4384.9126.8385.9126.4002 0 .849-.2299.849-.9126v-3.0263h1.2664v5.006h-1.2421z"/><path d="m64.2928 13.8274c-.2818.278-.7411.453-1.2386.453-.5358 0-.915-.1442-1.2664-.5284v.47h-1.2282v-6.84163h1.2664v2.27826c.3306-.36369.7098-.50094 1.2282-.50094.4975 0 .9533.17156 1.2386.45291.508.5009.515 1.3553.515 2.1033s-.0105 1.6126-.515 2.1135zm-1.6074-3.5477c-.7585 0-.8559.6141-.8559 1.4307 0 .8167.0974 1.4411.8559 1.4411s.8559-.6244.8559-1.4411c0-.8131-.0974-1.4307-.8559-1.4307z"/><path d="m70.3021 14.2186v-.4323c-.341.3362-.661.4803-1.2456.4803-.574 0-.995-.1441-1.2943-.4426-.2713-.2779-.4175-.6828-.4175-1.1254 0-.796.5567-1.4514 1.7327-1.4514h1.1969v-.2504c0-.549-.2714-.7892-.9464-.7892-.4871 0-.7098.1167-.9742.4118l-.8072-.77891c.4976-.53869.9847-.69309 1.8301-.69309 1.4231 0 2.1641.59701 2.1641 1.767v3.2939h-1.2386zm-.0278-2.1136h-1.002c-.4593 0-.7098.2128-.7098.5662 0 .3465.2331.5764.7306.5764.3514 0 .5741-.0275.8003-.2402.1357-.1235.1844-.3259.1844-.6347v-.2677z"/><path d="m74.0525 14.2186c-1.0438 0-1.4822-.7205-1.4822-1.4308v-5.40743h1.2665v5.33193c0 .2985.1252.4529.4488.4529h.4871v1.0568h-.7202z"/><path d="m79.2264 13.8274c-.2818.2779-.7411.4529-1.2386.4529-.5149 0-.8976-.1338-1.2282-.5009v2.2782h-1.2664v-6.84162h1.2281v.47007c.3515-.38429.7307-.5284 1.2665-.5284.4975 0 .9533.17156 1.2386.45291.508.50094.515 1.35534.515 2.10324 0 .748-.007 1.6127-.515 2.1136zm-1.6074-3.5478c-.7585 0-.8559.6142-.8559 1.4308s.0974 1.4411.8559 1.4411.8559-.6245.8559-1.4411c.0035-.8132-.0939-1.4308-.8559-1.4308z"/><path d="m80.6494 8.3582v-1.01561h1.2943v1.01904h-1.2943zm.0209 5.8604v-5.00262h1.2665v5.00602h-1.2665z"/><path d="m86.0076 14.2186v-3.0263c0-.6828-.4384-.9127-.8385-.9127s-.8489.2299-.8489.9127v3.0263h-1.2665v-5.00262h1.2386v.45977c.3306-.34654.8003-.5181 1.2665-.5181.508 0 .915.1647 1.1969.44262.4105.40483.5149.87493.5149 1.42053v3.1978z"/><path d="m91.745 10.3105v3.9115h-1.2665v-3.9115h-.5254v-.95039h.5254v-.62446c0-.71024.4488-1.43078 1.4822-1.43078h.7202v1.05679h-.4976c-.3027 0-.4383.16469-.4383.4529v.54898h.9359v.95046h-.9359z"/><path d="m96.1286 10.5781c-.1948-.1921-.3618-.2985-.6715-.2985-.3896 0-.8176.2882-.8176.923v3.016h-1.2665v-5.00262h1.2387v.48036c.2435-.28821.7306-.53869 1.2769-.53869.4975 0 .8489.12352 1.1968.47007z"/><path d="m100.026 14.2186v-.4323c-.3412.3362-.6613.4803-1.2458.4803-.5741 0-.9951-.1441-1.2943-.4426-.2714-.2779-.4175-.6828-.4175-1.1254 0-.796.5566-1.4514 1.7326-1.4514h1.1969v-.2504c0-.549-.2714-.7892-.9463-.7892-.4871 0-.7098.1167-.9742.4118l-.8072-.77891c.4975-.53869.9846-.69309 1.8301-.69309 1.4227 0 2.1637.59701 2.1637 1.767v3.2939h-1.238zm-.0281-2.1136h-1.002c-.4593 0-.7098.2128-.7098.5662 0 .3465.2331.5764.7307.5764.3514 0 .574-.0275.8002-.2402.1357-.1235.184-.3259.184-.6347v-.2677z"/><path d="m105.297 14.2186v-3.0263c0-.6828-.439-.9127-.839-.9127s-.849.2299-.849.9127v3.0263h-1.266v-5.00262h1.238v.45977c.331-.34654.801-.5181 1.267-.5181.508 0 .915.1647 1.197.44262.41.40483.515.87493.515 1.42053v3.1978z"/><path d="m109.652 14.277c-1.012 0-2.268-.5387-2.268-2.5665 0-2.02781 1.256-2.5562 2.268-2.5562.703 0 1.228.21273 1.677.6725l-.856.8441c-.264-.278-.487-.3946-.817-.3946-.303 0-.536.1063-.72.3259-.195.2402-.282.5765-.282 1.1048 0 .5284.087.875.282 1.1152.184.2196.417.3259.72.3259.33 0 .556-.1166.817-.3946l.856.8372c-.452.4667-.977.6863-1.677.6863zm.007 1.9214h-1.179l.671-1.4033h.936z"/><path d="m114.611 14.2186v-.4323c-.341.3362-.661.4803-1.246.4803-.574 0-.995-.1441-1.294-.4426-.272-.2779-.418-.6828-.418-1.1254 0-.796.557-1.4514 1.733-1.4514h1.197v-.2504c0-.549-.272-.7892-.946-.7892-.488 0-.71.1167-.975.4118l-.807-.77891c.498-.53869.985-.69309 1.83-.69309 1.423 0 2.164.59701 2.164 1.767v3.2939h-1.238zm-.032-2.1136h-1.002c-.459 0-.709.2128-.709.5662 0 .3465.233.5764.73.5764.352 0 .574-.0275.8-.2402.136-.1235.185-.3259.185-.6347v-.2677z"/><path d="m116.899 8.3582v-1.01561h1.295v1.01904h-1.295zm.018 5.8604v-5.00262h1.266v5.00602h-1.266z"/><path d="m120.971 14.2769c-.8 0-1.521-.0858-2.164-.7206l.828-.8166c.417.4118.963.4701 1.353.4701.439 0 .898-.1441.898-.5181 0-.2505-.136-.422-.536-.4598l-.8-.0754c-.915-.0858-1.482-.4804-1.482-1.4034 0-1.03617.925-1.59545 1.958-1.59545.79 0 1.451.13382 1.938.58672l-.779.77883c-.292-.2607-.741-.3362-1.179-.3362-.508 0-.721.2299-.721.4803 0 .1819.077.3946.526.4324l.8.0755c1.002.096 1.51.6244 1.51 1.4685.003 1.1048-.95 1.6332-2.15 1.6332z"/></g><g fill="#00a6d1"><path d="m61.2694 27.5965-.6123-1.815h-3.6985l-.6298 1.815h-2.1188l3.7854-10.2625h1.5935l3.7994 10.2625zm-2.425-7.2328-1.3152 3.7331h2.5886z"/><path d="m68.8231 27.5965v-4.5393c0-1.0225-.6576-1.369-1.256-1.369-.5985 0-1.27.3465-1.27 1.369v4.5393h-1.8996v-7.5072h1.8544v.693c.4976-.5181 1.1969-.7788 1.8997-.7788.7585 0 1.3743.2436 1.7988.6622.6123.6039.7759 1.3107.7759 2.1341v4.8002h-1.9032z"/><path d="m77.0512 27.5965v-4.5393c0-1.0225-.6576-1.369-1.256-1.369-.5985 0-1.2734.3465-1.2734 1.369v4.5393h-1.8997v-7.5072h1.8544v.693c.4976-.5181 1.1969-.7788 1.8997-.7788.7585 0 1.3743.2436 1.7988.6622.6123.6039.7759 1.3107.7759 2.1341v4.8002h-1.8997z"/><path d="m82.3401 24.4262c0 .9641.5984 1.6709 1.6665 1.6709.8316 0 1.2421-.2299 1.7258-.7068l1.1551 1.1083c-.7759.7651-1.5205 1.1803-2.8948 1.1803-1.7988 0-3.521-.8064-3.521-3.8498 0-2.4498 1.343-3.8325 3.3192-3.8325 2.1189 0 3.3192 1.5268 3.3192 3.5889v.8372h-4.77zm2.7173-2.0896c-.2053-.446-.6298-.7789-1.2734-.7789-.6437 0-1.0682.3329-1.27.7789-.1183.2745-.16.4769-.1739.8063h2.8947c-.0139-.3294-.0591-.5318-.1774-.8063z"/><path d="m91.7373 27.6858c-1.5205 0-3.4062-.8064-3.4062-3.8498 0-3.0399 1.8857-3.8325 3.4062-3.8325 1.0542 0 1.8405.3156 2.5155 1.0087l-1.2873 1.2695c-.3932-.4186-.7307-.5901-1.2282-.5901-.4523 0-.8037.1578-1.0821.4906-.2922.3603-.4245.8647-.4245 1.6573s.1323 1.3107.4245 1.6709c.2784.3328.6298.4907 1.0821.4907.4975 0 .8315-.1716 1.2282-.5902l1.2873 1.2524c-.675.6896-1.4648 1.0225-2.5155 1.0225z"/><path d="m98.4145 28.8077c-.1601.4186-.3375.7343-.5706.9642-.4384.4323-1.009.5764-1.6387.5764h-.7446v-1.6881h.4384c.5393 0 .7584-.1304.9498-.6759l.3201-.923-2.6025-6.9755h2.0006l1.5796 4.6423 1.5204-4.6423h2.001z"/></g></svg>