<?xml version="1.0" encoding="UTF-8" standalone="no"?>
<svg
   xmlns:dc="http://purl.org/dc/elements/1.1/"
   xmlns:cc="http://creativecommons.org/ns#"
   xmlns:rdf="http://www.w3.org/1999/02/22-rdf-syntax-ns#"
   xmlns:svg="http://www.w3.org/2000/svg"
   xmlns="http://www.w3.org/2000/svg"
   xmlns:sodipodi="http://sodipodi.sourceforge.net/DTD/sodipodi-0.dtd"
   xmlns:inkscape="http://www.inkscape.org/namespaces/inkscape"
   inkscape:version="1.0 (4035a4fb49, 2020-05-01)"
   sodipodi:docname="logo-caf-annecy.svg"
   id="svg58"
   version="1.1"
   width="125"
   viewBox="0 0 125 40"
   height="40"
   fill="none">
  <metadata
     id="metadata64">
    <rdf:RDF>
      <cc:Work
         rdf:about="">
        <dc:format>image/svg+xml</dc:format>
        <dc:type
           rdf:resource="http://purl.org/dc/dcmitype/StillImage" />
      </cc:Work>
    </rdf:RDF>
  </metadata>
  <defs
     id="defs62" />
  <sodipodi:namedview
     inkscape:current-layer="svg58"
     inkscape:window-maximized="1"
     inkscape:window-y="-8"
     inkscape:window-x="-8"
     inkscape:cy="10.874764"
     inkscape:cx="74.850826"
     inkscape:zoom="5.712"
     showgrid="false"
     id="namedview60"
     inkscape:window-height="1017"
     inkscape:window-width="1920"
     inkscape:pageshadow="2"
     inkscape:pageopacity="0"
     guidetolerance="10"
     gridtolerance="10"
     objecttolerance="10"
     borderopacity="1"
     bordercolor="#666666"
     pagecolor="#ffffff" />
  <path
     id="path2"
     fill="#46bfe0"
     d="m23.1025 17.533s7.4353-13.73473 7.9328-14.52046c.4975-.78229.929-1.71212 1.924-1.71212.9986 0 1.51 1.03619 2.1015 2.09984s13.8754 26.88624 13.8754 26.88624l-7.2752-.5833s-6.3879-12.0672-6.8437-12.8049c-.755-1.2215-1.3743-1.2215-1.9415-1.2215-.6645 0-1.3186 0-2.9643 2.8444-1.6735 2.8959-3.2323 5.7917-3.2323 5.7917z" />
  <path
     id="path4"
     fill="#706f6f"
     d="m24.5117 30.4478s6.054-11.0928 6.5306-11.9506c.4767-.8578.9429-1.7876 1.7988-1.7876.8524 0 1.2873.8852 1.8997 2.0175.6123 1.1357 5.7443 10.9521 5.7443 10.9521s-6.7533-.3122-15.9734.7686z" />
  <path
     id="path6"
     fill="#00a6d0"
     d="m23.2067 30.6604s-10.2917 1.2284-20.23893 5.1741c0 0 11.76693-21.4479 12.29233-22.3606.5288-.9092 1.2838-2.5939 2.3554-2.5767 1.0195.0171 1.4405 1.0739 2.0563 2.2542 2.1084 4.0384 6.4053 12.3074 6.4053 12.3074z" />
  <path
     id="path8"
     fill="#cc3024"
     d="m41.8939 31.5389c-21.5193-1.3416-39.51067 6.0285-39.51067 6.0285l-1.38128 2.4258.02088.0068-.00348-.0103s.62975-.1544.66454-.1715c.03132-.0172.70282-.2128.84895-.278.14612-.0651.91852-.3259.97767-.3534.05915-.0274.65411-.1921.73413-.2196.08002-.0274.32705-.0789.37576-.096.04871-.0172.10438-.0275.13221-.0412.02784-.0172.03132-.0412.01044-.0412-.02087 0 .01044-.0068.04871-.0068s.11482-.0481.14265-.0858c.02784-.0378.09742-.1029.13221-.0961.03132.0069.26443.0275.29226.0275.02784 0 .06959.0103.09394-.0103.02088-.0206.01044-.0275.0174-.0412.00696-.0172-.02087-.0549-.02087-.0549s.01043-.0309.10437-.0583c.09394-.0275.7898-.2093.84895-.2265.05914-.0171.50449-.1235.57756-.1544.06958-.0309.24355-.0858.28878-.0961.04175-.0102.0661-.0171.08002-.0068.0174.0103.03131.0309.05915.048.02783.0172.05915.0103.05915.0103s-.03132-.0103-.01044-.0412c.02087-.0308.05915-.0549.12525-.0789.06611-.0274.25399-.096.29226-.1132s.04871-.048.04871-.048.02784-.0206.04175-.0172c.0174.0069.05567-.0069.08699 0 .03131.0069.06958 0 .11829 0s.17396-.0549.25051-.0583c.07654-.0069.12525-.0172.17048-.0172s.06611-.0068.08003.0069c.01739.0103.02783.0377.03131.0549.00696.0171.03131.0274.06959.0171.03827-.0103.05566-.0103.06958-.0411.0174-.0309-.01044-.0687-.01044-.0687s.00696-.0205.03827-.0308c.03132-.0103.588-.1716.63671-.2128.04871-.0411.06959-.0789.11482-.0754.04175.0068.11481-.0275.17396-.0309.05915-.0069.61934-.1784.69584-.199.0766-.0206.4662-.1304.5393-.1304.0696 0 .1183-.0309.1705-.0275.0487.0069.0557.0069.0661-.0206.0104-.0274.08-.0411.1183-.0583.0383-.0171.0696-.0274.087-.0377s-.0209-.0412-.0383-.0412-.087-.0206-.087-.0206.0174-.0103.0696-.0309c.0557-.0205.261-.0686.3375-.0857.0765-.0172.1183-.0412.1426-.0206.0209.0206.0314.0309.0801.0309s.2226-.0412.2679-.0755c.0417-.0309.1252-.0789.1531-.0927.0278-.0103.0278-.0411.0278-.0411s.0174-.0103.0557-.0275c.0382-.0172.1635-.0412.1635-.0412s-.1183.0789-.1427.103c-.0208.0206-.0487.0377-.0069.048.0417.0103.087.0069.1078 0 .0209-.0069.1079-.0961.1462-.1167.0382-.0205.1531-.0754.1913-.0789.0383-.0068-.0661.0378-.0765.0687-.0105.0308-.0209.0583.0417.0377.0661-.0206.181-.048.2053-.0549.0278-.0069.0174-.0275 0-.0412-.0174-.0171-.0696-.048-.0209-.0755.0487-.0274.6089-.1544.6089-.1544l2.2233-.5901s.087-.0412.1043-.0275c.0174.0172.0314.0412.1183.0275.087-.0172.2053-.0309.2679-.0583.0592-.0275.1462-.0412.1844-.0378.0383.0069.0592.0069.0696.0275.0105.0205-.0696.0308-.0696.0583 0 .0274.0383.0206.0766.0309s.087.0103.1357 0 .0209-.0103.0661-.0549.0591-.0755.0765-.0927c.0174-.0171-.0278-.0274-.0765-.0274s-.1531.0206-.1079-.0069c.0418-.0274.2505-.1029.2923-.1304.0417-.0274.1148-.1063.1357-.1132s.2609-.1544.4419-.1784c.1774-.0206.908-.1441.995-.1647s.2018-.0583.181-.0377c-.0209.0205.0278 0 .1043-.0206.0766-.0206.5985-.0858.668-.103.0696-.0171.3306-.0377.3897-.048.0592-.0103.1148-.048.1462-.0309.0313.0172-.0383.0549.0556.0549.094 0 .1427-.0377.174-.0686s.2505-.1132.3062-.1167c.0556-.0068.2992-.0686.3653-.0754.0661-.0035.2018-.0103.2018-.0103s-.0418.0754-.007.0652c.0383-.0103.167-.0927.2053-.1133s.2436-.0755.2818-.0858c.0313-.0308.1949-.0446.1949-.0446l-.0174.0412s.1322-.0274.1809-.0274.3758-.079.3758-.079-.007.0206.0661.0309c.0695.0103.2539-.0206.3375-.0411.08-.0206.3862-.103.4279-.1133.0418-.0103.2227-.048.2888-.0308.0661.0171.1426.0583.1426.0583s.2053-.1064.2888-.1304c.0835-.0206.3445-.0549.3758-.0686.0313-.0172.1078-.0858.1252-.0755s0 .0309 0 .0583c0 .0275.0209.0378.0696 0 .0487-.0377.174-.0652.2401-.0652s.3062.0206.4245.0172c.1183-.0069.167-.0069.2052-.0309.0383-.0274-.0104-.0377-.0104-.0652 0-.0274.0035-.0549.0696-.048.0661.0068.3549-.0378.414-.0652.0592-.0275.3166-.0961.3584-.1167.0417-.0206.1566-.0377.2122-.0309.0557.0069.0974-.0102.1044.0309.007.0412-.0591.1613.007.1235.0661-.0377.1148-.0549.1252-.0789.0104-.0274-.0174-.0549.0313-.0789.0487-.0274.1531-.0412.1914-.0309s.0069.0206-.0209.0412.087.0412.1322.0549c.0418.0103.2436.1064.3097.1167s.1357.0206.1565.0206c.0209 0-.0278-.0069-.0278-.0309 0-.0275.0209-.0309.0766-.0412.0556-.0103.1948-.0103.2609 0s.0418.0274.1566.0206c.0452-.0034.1043-.0069.1565-.0103.0522-.0069.1009-.0137.1531-.0206 0-.0103 0-.0377.007-.0583.0035-.0206.0313-.0309.087-.0275.0556.0069.2296.0275.2713.0103.0418-.0171.1914-.048.261-.048s.1357 0 .2783-.0172c.1427-.0171.2505-.0274.3062-.0274s.0557-.0309.0557-.0309.0383-.0274.1078-.0206c.0592.0034.341-.0137.4489-.024.0139 0 .0278-.0034.0452-.0034.0313-.0069.1426-.0481.174-.0481.0313 0 .1078.0069.1078.0069s.0974-.0549.1357-.0583c.0383-.0069.2331-.0275.3062-.0309.0696-.0069.341-.0206.3897-.0172.0243.0035.0139.0103 0 .0206.1009-.0103.2018-.0206.3061-.0309.0487-.0103.094-.0137.1357-.0274.0661-.0206.1044-.1167.167-.1441.0661-.0275.167-.0755.2401-.0824.0696-.0034.0383.0275.0209.0412-.0174.0172.0104.0275.0661 0 .0557-.0274.0974-.048.087-.0103-.0105.0378-.0592.0549-.0557.0686.007.0172 0 .0172.0696-.0103.0696-.0274.0974-.048.1809-.0411.08.0068.2505 0 .3862-.0103s.2401-.0206.2401-.0206-.0592.0068-.0279.0412c.0209.024.0244.0411.0383.0411h.0105c.0069-.0034.0139-.0068.0243-.0137.0487-.0377.1148-.0206.1566-.0103.0174.0034.0417.0034.0661.0034.0487-.0034.1009-.0102.1496-.0137 0-.0034.0035-.0034.0035-.0068-.007-.0275-.0557-.0687-.007-.0584s.0209.0309.1079.0378c.087.0034.3409-.0069.3792-.0103.007 0 .08-.0069.1949-.0137.3862-.0309.7689-.0549 1.1481-.0824.4245-.0309.7898-.0549.7898-.0549l2.5608-.1132.5149-.0069s.0104-.0068.0313-.048.0487-.0686.1183-.0412c.0696.0275.1357.0858.167.0858.0174 0 .0626 0 .1113.0034.6785-.0137 1.3465-.0171 2.0041-.0137.254-.0034.4314-.0034.4314-.0034l1.0125.0103s.0209-.0103.0557-.0481c.0313-.0377.0765-.0206.1044-.0206.0278 0 .6958-.0103.7515-.0171.0556-.0069.2818.0103.3479.0309.0661.0205.0974.0652.1357.0652s.174-.0172.2331-.0103c.0592.0068.3793.048.4245.0308.0452-.0171.0591-.0068.0939.0206.0139.0103.0348.0172.0626.0172.0731.0034.1462.0068.2227.0103.087 0 .1879-.0035.2018 0 .0209.0068.0313-.0035.08-.0206.0487-.0172.2819 0 .3062.0171.0209.0138.0313.0378.0557.0344h.0139c.0313-.0103.0522-.0206.0835-.0206s.1322.0274.1322.0274.6854.0412.7933.0412.3271.0309.4349 0c.1079-.0309.3097-.0275.2783-.0206-.0313.0069.0488.0103.1079.0069.0592-.0069.1914-.0206.254-.0069.0661.0172.2331.0412.2609.048.0279.0069.1949.0172.2575.0172.0592 0 .1774.0172.1253.0309-.0348.0103-.0661.0274-.0661.0377.0487.0034.0974.0069.1461.0103.0035-.0034.0069-.0034.0139-.0103.0313-.0412.1148-.048.1461-.0549.0313-.0068.1636-.0652.1357-.0206-.0278.0412-.0591.0755-.0591.0755s-.0105.024.0278.0309c.0174 0 .0383.0034.0557.0034h.0208c.0801.0069.1566.0138.2366.0206.0522 0 .1149-.0034.1288 0 .0209.0069-.0279-.0068-.1044-.0377s.0278-.0927.0487-.0584c.0209.0309.0278.0309.0418.0378.0173.0068.0382-.0172.0382-.0172s.0209-.0274.0383-.0103c.0174.0172-.0278.0103.0174.0172.0417.0069 0 .0171.0417.0069.0418-.0103.0662-.0481.1044-.0275.0383.0206.2436.0686.2888.0858.0418.0171.1357.0549.174.0583.0382.0069.08.0206.1183 0 .0382-.0206.0869-.0274.1322-.0206.0417.0069.1565.0378.24.0275l.0801-.0103s.0174-.0686.0661-.0412c.0487.0275.0209.048.0974.0652s.1044.0377.1044.0377 0 .0275-.0661.0172-.087-.0103-.1079-.0103-.0974-.0069-.0487.0103c.087.0069.1705.0172.254.024.0174-.0034.0417-.0034.0904.0034.0453.0035.1288.0138.2123.0275.1218.0103.247.024.3653.0343.007-.0034.0139-.0069.0244-.0137.0382-.0309.0208-.0549.0591-.0275.0383.0275.0418.0549.0835.0549.0383 0 .5393.0515.595.0652h.0139c.0452.0069.1252-.0068.1566-.0171.0313-.0103.0278-.0412.08-.0206.0557.0206.0417.0309.0765.0549.0139.0103.0139.0171.0209.0206.5289.0583 1.0473.1132 1.5483.1715.0522.0035.1113-.0103.1496-.0068.0383.0068.0278-.0103.0939-.0069.0661.0069.087-.0069.1183.0172.0244.0171.0418.0308.0661.0446.1148.0137.2331.0274.348.0411h.0069c.0696 0 .1461.0172.1461.0172l.0348.0068c-.0208-.0171-2.672-1.2729-13.677-1.9591zm8.5695 1.3038c-.0209-.0103-.0279-.0137-.0348-.0137.0313 0 .0695-.0035.0835-.0035.0278 0 .0313.0378.0313.0378s-.0348.0034-.08-.0206zm1.0124.0824s-.0174.0377-.0382.0308c-.0209-.0068-.0696-.0308-.0696-.0308s.0661-.0172.1044-.0206c.0347-.0069.0034.0206.0034.0206zm.4767.048c-.0418.0171-.08.0103-.1044.0171-.0209.0069-.0487 0-.0487 0s.087-.0377.1253-.0411c.0382-.0069.0591-.0206.0591-.0206s.0139.0274-.0313.0446zm.4801.1132c-.1078-.0171-.1809-.0274-.2226-.0274-.0418 0-.1323-.0172-.1323-.0172l-.0278-.0377c.0557-.0206.0905-.0309.1357-.0309s.0383.0068.0835.0206c.0418.0171.1461.0549.1461.0549s.1253.0514.0174.0377zm.3584.024c-.0487.0069-.174-.0274-.174-.0274.0661 0 .1636-.0103.2053-.0069.0418.0069.1427.0069.1427.0069s-.1253.024-.174.0274zm.5706-.1235c.0278-.0171.2018 0 .2505-.0069.0487-.0068.1531.0412.167.0652.0174.0206.0174.0378-.0696 0-.087-.0377-.4036-.0377-.4036-.0377s.0279-.0034.0557-.0206zm.2505.199c-.0209.0103-.0487.0206-.08.0103s-.261-.0206-.3166-.0309c-.0557-.0103-.1914-.0583-.1914-.0583.0487.0103.1531.0206.1914.0274.0382.0035.0974 0 .1635.0035.0661.0068.1461 0 .1914.0103.0417.0103.0626.0274.0417.0377zm.3201.0343c-.0487 0-.1148.0172-.1531.0172s-.08-.0309-.08-.0309c.0174 0 .1044-.0103.1566-.0172.0556-.0068.0661-.0274.0939-.0171s.0487.0377.0487.0377-.0174.0103-.0661.0103zm.6367.0618c-.0278-.0069-.08-.0652-.08-.0652.1148-.0069.1183.0412.1566.0686.0382.0309-.0488.0034-.0766-.0034z" />
  <text
     id="text68"
     y="29.130186"
     x="56.135387"
     style="font-style:normal;font-weight:normal;font-size:22.7946px;line-height:1.25;font-family:sans-serif;letter-spacing:0px;word-spacing:0px;fill:#000000;fill-opacity:1;stroke:none;stroke-width:0.569864"
     xml:space="preserve"><tspan
       style="stroke-width:0.569864"
       y="29.130186"
       x="56.135387"
       id="tspan66"
       sodipodi:role="line">LOGO</tspan></text>
</svg>
