<svg width="125" height="40" viewBox="0 0 125 40" fill="none" xmlns="http://www.w3.org/2000/svg">
<path d="M23.1025 17.533C23.1025 17.533 30.5378 3.79827 31.0353 3.01254C31.5328 2.23025 31.9643 1.30042 32.9593 1.30042C33.9579 1.30042 34.4693 2.33661 35.0608 3.40026C35.6523 4.46391 48.9362 30.2865 48.9362 30.2865L41.661 29.7032C41.661 29.7032 35.2731 17.636 34.8173 16.8983C34.0623 15.6768 33.443 15.6768 32.8758 15.6768C32.2113 15.6768 31.5572 15.6768 29.9115 18.5212C28.238 21.4171 26.6792 24.3129 26.6792 24.3129L23.1025 17.533Z" fill="#46BFE0"/>
<path d="M24.5117 30.4478C24.5117 30.4478 30.5657 19.355 31.0423 18.4972C31.519 17.6394 31.9852 16.7096 32.8411 16.7096C33.6935 16.7096 34.1284 17.5948 34.7408 18.7271C35.3531 19.8628 40.4851 29.6792 40.4851 29.6792C40.4851 29.6792 33.7318 29.367 24.5117 30.4478Z" fill="#706F6F"/>
<path d="M23.2067 30.6604C23.2067 30.6604 12.915 31.8888 2.96777 35.8345C2.96777 35.8345 14.7347 14.3866 15.2601 13.4739C15.7889 12.5647 16.5439 10.88 17.6155 10.8972C18.635 10.9143 19.056 11.9711 19.6718 13.1514C21.7802 17.1898 26.0771 25.4588 26.0771 25.4588L23.2067 30.6604Z" fill="#00A6D0"/>
<path d="M41.8939 31.5389C20.3746 30.1973 2.38323 37.5674 2.38323 37.5674L1.00195 39.9932L1.02283 40L1.01935 39.9897C1.01935 39.9897 1.6491 39.8353 1.68389 39.8182C1.71521 39.801 2.38671 39.6054 2.53284 39.5402C2.67896 39.4751 3.45136 39.2143 3.51051 39.1868C3.56966 39.1594 4.16462 38.9947 4.24464 38.9672C4.32466 38.9398 4.57169 38.8883 4.6204 38.8712C4.66911 38.854 4.72478 38.8437 4.75261 38.83C4.78045 38.8128 4.78393 38.7888 4.76305 38.7888C4.74218 38.7888 4.77349 38.782 4.81176 38.782C4.85003 38.782 4.92658 38.7339 4.95441 38.6962C4.98225 38.6584 5.05183 38.5933 5.08662 38.6001C5.11794 38.607 5.35105 38.6276 5.37888 38.6276C5.40672 38.6276 5.44847 38.6379 5.47282 38.6173C5.4937 38.5967 5.48326 38.5898 5.49022 38.5761C5.49718 38.5589 5.46935 38.5212 5.46935 38.5212C5.46935 38.5212 5.47978 38.4903 5.57372 38.4629C5.66766 38.4354 6.36352 38.2536 6.42267 38.2364C6.48181 38.2193 6.92716 38.1129 7.00023 38.082C7.06981 38.0511 7.24378 37.9962 7.28901 37.9859C7.33076 37.9757 7.35511 37.9688 7.36903 37.9791C7.38643 37.9894 7.40034 38.01 7.42818 38.0271C7.45601 38.0443 7.48733 38.0374 7.48733 38.0374C7.48733 38.0374 7.45601 38.0271 7.47689 37.9962C7.49776 37.9654 7.53604 37.9413 7.60214 37.9173C7.66825 37.8899 7.85613 37.8213 7.8944 37.8041C7.93267 37.7869 7.94311 37.7561 7.94311 37.7561C7.94311 37.7561 7.97095 37.7355 7.98486 37.7389C8.00226 37.7458 8.04053 37.732 8.07185 37.7389C8.10316 37.7458 8.14143 37.7389 8.19014 37.7389C8.23885 37.7389 8.3641 37.684 8.44065 37.6806C8.51719 37.6737 8.5659 37.6634 8.61113 37.6634C8.65636 37.6634 8.67724 37.6566 8.69116 37.6703C8.70855 37.6806 8.71899 37.708 8.72247 37.7252C8.72943 37.7423 8.75378 37.7526 8.79206 37.7423C8.83033 37.732 8.84772 37.732 8.86164 37.7012C8.87904 37.6703 8.8512 37.6325 8.8512 37.6325C8.8512 37.6325 8.85816 37.612 8.88947 37.6017C8.92079 37.5914 9.47747 37.4301 9.52618 37.3889C9.57489 37.3478 9.59577 37.31 9.641 37.3135C9.68275 37.3203 9.75581 37.286 9.81496 37.2826C9.87411 37.2757 10.4343 37.1042 10.5108 37.0836C10.5874 37.063 10.977 36.9532 11.0501 36.9532C11.1197 36.9532 11.1684 36.9223 11.2206 36.9257C11.2693 36.9326 11.2763 36.9326 11.2867 36.9051C11.2971 36.8777 11.3667 36.864 11.405 36.8468C11.4433 36.8297 11.4746 36.8194 11.492 36.8091C11.5094 36.7988 11.4711 36.7679 11.4537 36.7679C11.4363 36.7679 11.3667 36.7473 11.3667 36.7473C11.3667 36.7473 11.3841 36.737 11.4363 36.7164C11.492 36.6959 11.6973 36.6478 11.7738 36.6307C11.8503 36.6135 11.8921 36.5895 11.9164 36.6101C11.9373 36.6307 11.9478 36.641 11.9965 36.641C12.0452 36.641 12.2191 36.5998 12.2644 36.5655C12.3061 36.5346 12.3896 36.4866 12.4175 36.4728C12.4453 36.4625 12.4453 36.4317 12.4453 36.4317C12.4453 36.4317 12.4627 36.4214 12.501 36.4042C12.5392 36.387 12.6645 36.363 12.6645 36.363C12.6645 36.363 12.5462 36.4419 12.5218 36.466C12.501 36.4866 12.4731 36.5037 12.5149 36.514C12.5566 36.5243 12.6019 36.5209 12.6227 36.514C12.6436 36.5071 12.7306 36.4179 12.7689 36.3973C12.8071 36.3768 12.922 36.3219 12.9602 36.3184C12.9985 36.3116 12.8941 36.3562 12.8837 36.3871C12.8732 36.4179 12.8628 36.4454 12.9254 36.4248C12.9915 36.4042 13.1064 36.3768 13.1307 36.3699C13.1585 36.363 13.1481 36.3424 13.1307 36.3287C13.1133 36.3116 13.0611 36.2807 13.1098 36.2532C13.1585 36.2258 13.7187 36.0988 13.7187 36.0988L15.942 35.5087C15.942 35.5087 16.029 35.4675 16.0463 35.4812C16.0637 35.4984 16.0777 35.5224 16.1646 35.5087C16.2516 35.4915 16.3699 35.4778 16.4325 35.4504C16.4917 35.4229 16.5787 35.4092 16.6169 35.4126C16.6552 35.4195 16.6761 35.4195 16.6865 35.4401C16.697 35.4606 16.6169 35.4709 16.6169 35.4984C16.6169 35.5258 16.6552 35.519 16.6935 35.5293C16.7318 35.5396 16.7805 35.5396 16.8292 35.5293C16.8779 35.519 16.8501 35.519 16.8953 35.4744C16.9405 35.4298 16.9544 35.3989 16.9718 35.3817C16.9892 35.3646 16.944 35.3543 16.8953 35.3543C16.8466 35.3543 16.7422 35.3749 16.7874 35.3474C16.8292 35.32 17.0379 35.2445 17.0797 35.217C17.1214 35.1896 17.1945 35.1107 17.2154 35.1038C17.2363 35.0969 17.4763 34.9494 17.6573 34.9254C17.8347 34.9048 18.5653 34.7813 18.6523 34.7607C18.7393 34.7401 18.8541 34.7024 18.8333 34.723C18.8124 34.7435 18.8611 34.723 18.9376 34.7024C19.0142 34.6818 19.5361 34.6166 19.6056 34.5994C19.6752 34.5823 19.9362 34.5617 19.9953 34.5514C20.0545 34.5411 20.1101 34.5034 20.1415 34.5205C20.1728 34.5377 20.1032 34.5754 20.1971 34.5754C20.2911 34.5754 20.3398 34.5377 20.3711 34.5068C20.4024 34.4759 20.6216 34.3936 20.6773 34.3901C20.7329 34.3833 20.9765 34.3215 21.0426 34.3147C21.1087 34.3112 21.2444 34.3044 21.2444 34.3044C21.2444 34.3044 21.2026 34.3798 21.2374 34.3696C21.2757 34.3593 21.4044 34.2769 21.4427 34.2563C21.481 34.2357 21.6863 34.1808 21.7245 34.1705C21.7558 34.1397 21.9194 34.1259 21.9194 34.1259L21.902 34.1671C21.902 34.1671 22.0342 34.1397 22.0829 34.1397C22.1316 34.1397 22.4587 34.0607 22.4587 34.0607C22.4587 34.0607 22.4517 34.0813 22.5248 34.0916C22.5943 34.1019 22.7787 34.071 22.8623 34.0505C22.9423 34.0299 23.2485 33.9475 23.2902 33.9372C23.332 33.9269 23.5129 33.8892 23.579 33.9064C23.6451 33.9235 23.7216 33.9647 23.7216 33.9647C23.7216 33.9647 23.9269 33.8583 24.0104 33.8343C24.0939 33.8137 24.3549 33.7794 24.3862 33.7657C24.4175 33.7485 24.494 33.6799 24.5114 33.6902C24.5288 33.7005 24.5114 33.7211 24.5114 33.7485C24.5114 33.776 24.5323 33.7863 24.581 33.7485C24.6297 33.7108 24.755 33.6833 24.8211 33.6833C24.8872 33.6833 25.1273 33.7039 25.2456 33.7005C25.3639 33.6936 25.4126 33.6936 25.4508 33.6696C25.4891 33.6422 25.4404 33.6319 25.4404 33.6044C25.4404 33.577 25.4439 33.5495 25.51 33.5564C25.5761 33.5632 25.8649 33.5186 25.924 33.4912C25.9832 33.4637 26.2406 33.3951 26.2824 33.3745C26.3241 33.3539 26.439 33.3368 26.4946 33.3436C26.5503 33.3505 26.592 33.3334 26.599 33.3745C26.606 33.4157 26.5399 33.5358 26.606 33.498C26.6721 33.4603 26.7208 33.4431 26.7312 33.4191C26.7416 33.3917 26.7138 33.3642 26.7625 33.3402C26.8112 33.3128 26.9156 33.299 26.9539 33.3093C26.9922 33.3196 26.9608 33.3299 26.933 33.3505C26.9052 33.3711 27.02 33.3917 27.0652 33.4054C27.107 33.4157 27.3088 33.5118 27.3749 33.5221C27.441 33.5324 27.5106 33.5427 27.5314 33.5427C27.5523 33.5427 27.5036 33.5358 27.5036 33.5118C27.5036 33.4843 27.5245 33.4809 27.5802 33.4706C27.6358 33.4603 27.775 33.4603 27.8411 33.4706C27.9072 33.4809 27.8829 33.498 27.9977 33.4912C28.0429 33.4878 28.102 33.4843 28.1542 33.4809C28.2064 33.474 28.2551 33.4672 28.3073 33.4603C28.3073 33.45 28.3073 33.4226 28.3143 33.402C28.3178 33.3814 28.3456 33.3711 28.4013 33.3745C28.4569 33.3814 28.6309 33.402 28.6726 33.3848C28.7144 33.3677 28.864 33.3368 28.9336 33.3368C29.0032 33.3368 29.0693 33.3368 29.2119 33.3196C29.3546 33.3025 29.4624 33.2922 29.5181 33.2922C29.5738 33.2922 29.5738 33.2613 29.5738 33.2613C29.5738 33.2613 29.6121 33.2339 29.6816 33.2407C29.7408 33.2441 30.0226 33.227 30.1305 33.2167C30.1444 33.2167 30.1583 33.2133 30.1757 33.2133C30.207 33.2064 30.3183 33.1652 30.3497 33.1652C30.381 33.1652 30.4575 33.1721 30.4575 33.1721C30.4575 33.1721 30.5549 33.1172 30.5932 33.1138C30.6315 33.1069 30.8263 33.0863 30.8994 33.0829C30.969 33.076 31.2404 33.0623 31.2891 33.0657C31.3134 33.0692 31.303 33.076 31.2891 33.0863C31.39 33.076 31.4909 33.0657 31.5952 33.0554C31.6439 33.0451 31.6892 33.0417 31.7309 33.028C31.797 33.0074 31.8353 32.9113 31.8979 32.8839C31.964 32.8564 32.0649 32.8084 32.138 32.8015C32.2076 32.7981 32.1763 32.829 32.1589 32.8427C32.1415 32.8599 32.1693 32.8702 32.225 32.8427C32.2807 32.8153 32.3224 32.7947 32.312 32.8324C32.3015 32.8702 32.2528 32.8873 32.2563 32.901C32.2633 32.9182 32.2563 32.9182 32.3259 32.8907C32.3955 32.8633 32.4233 32.8427 32.5068 32.8496C32.5868 32.8564 32.7573 32.8496 32.893 32.8393C33.0287 32.829 33.1331 32.8187 33.1331 32.8187C33.1331 32.8187 33.0739 32.8255 33.1052 32.8599C33.1261 32.8839 33.1296 32.901 33.1435 32.901C33.147 32.901 33.1505 32.901 33.154 32.901C33.1609 32.8976 33.1679 32.8942 33.1783 32.8873C33.227 32.8496 33.2931 32.8667 33.3349 32.877C33.3523 32.8804 33.3766 32.8804 33.401 32.8804C33.4497 32.877 33.5019 32.8702 33.5506 32.8667C33.5506 32.8633 33.5541 32.8633 33.5541 32.8599C33.5471 32.8324 33.4984 32.7912 33.5471 32.8015C33.5958 32.8118 33.568 32.8324 33.655 32.8393C33.742 32.8427 33.9959 32.8324 34.0342 32.829C34.0412 32.829 34.1142 32.8221 34.2291 32.8153C34.6153 32.7844 34.998 32.7604 35.3772 32.7329C35.8017 32.702 36.167 32.678 36.167 32.678L38.7278 32.5648L39.2427 32.5579C39.2427 32.5579 39.2531 32.5511 39.274 32.5099C39.2949 32.4687 39.3227 32.4413 39.3923 32.4687C39.4619 32.4962 39.528 32.5545 39.5593 32.5545C39.5767 32.5545 39.6219 32.5545 39.6706 32.5579C40.3491 32.5442 41.0171 32.5408 41.6747 32.5442C41.9287 32.5408 42.1061 32.5408 42.1061 32.5408L43.1186 32.5511C43.1186 32.5511 43.1395 32.5408 43.1743 32.503C43.2056 32.4653 43.2508 32.4824 43.2787 32.4824C43.3065 32.4824 43.9745 32.4721 44.0302 32.4653C44.0858 32.4584 44.312 32.4756 44.3781 32.4962C44.4442 32.5167 44.4755 32.5614 44.5138 32.5614C44.5521 32.5614 44.6878 32.5442 44.7469 32.5511C44.8061 32.5579 45.1262 32.5991 45.1714 32.5819C45.2166 32.5648 45.2305 32.5751 45.2653 32.6025C45.2792 32.6128 45.3001 32.6197 45.3279 32.6197C45.401 32.6231 45.4741 32.6265 45.5506 32.63C45.6376 32.63 45.7385 32.6265 45.7524 32.63C45.7733 32.6368 45.7837 32.6265 45.8324 32.6094C45.8811 32.5922 46.1143 32.6094 46.1386 32.6265C46.1595 32.6403 46.1699 32.6643 46.1943 32.6609C46.1978 32.6609 46.2012 32.6609 46.2082 32.6609C46.2395 32.6506 46.2604 32.6403 46.2917 32.6403C46.323 32.6403 46.4239 32.6677 46.4239 32.6677C46.4239 32.6677 47.1093 32.7089 47.2172 32.7089C47.3251 32.7089 47.5443 32.7398 47.6521 32.7089C47.76 32.678 47.9618 32.6814 47.9304 32.6883C47.8991 32.6952 47.9792 32.6986 48.0383 32.6952C48.0975 32.6883 48.2297 32.6746 48.2923 32.6883C48.3584 32.7055 48.5254 32.7295 48.5532 32.7363C48.5811 32.7432 48.7481 32.7535 48.8107 32.7535C48.8699 32.7535 48.9881 32.7707 48.936 32.7844C48.9012 32.7947 48.8699 32.8118 48.8699 32.8221C48.9186 32.8255 48.9673 32.829 49.016 32.8324C49.0195 32.829 49.0229 32.829 49.0299 32.8221C49.0612 32.7809 49.1447 32.7741 49.176 32.7672C49.2073 32.7604 49.3396 32.702 49.3117 32.7466C49.2839 32.7878 49.2526 32.8221 49.2526 32.8221C49.2526 32.8221 49.2421 32.8461 49.2804 32.853C49.2978 32.853 49.3187 32.8564 49.3361 32.8564C49.343 32.8564 49.35 32.8564 49.3569 32.8564C49.437 32.8633 49.5135 32.8702 49.5935 32.877C49.6457 32.877 49.7084 32.8736 49.7223 32.877C49.7432 32.8839 49.6944 32.8702 49.6179 32.8393C49.5414 32.8084 49.6457 32.7466 49.6666 32.7809C49.6875 32.8118 49.6944 32.8118 49.7084 32.8187C49.7257 32.8255 49.7466 32.8015 49.7466 32.8015C49.7466 32.8015 49.7675 32.7741 49.7849 32.7912C49.8023 32.8084 49.7571 32.8015 49.8023 32.8084C49.844 32.8153 49.8023 32.8255 49.844 32.8153C49.8858 32.805 49.9102 32.7672 49.9484 32.7878C49.9867 32.8084 50.192 32.8564 50.2372 32.8736C50.279 32.8907 50.3729 32.9285 50.4112 32.9319C50.4494 32.9388 50.4912 32.9525 50.5295 32.9319C50.5677 32.9113 50.6164 32.9045 50.6617 32.9113C50.7034 32.9182 50.8182 32.9491 50.9017 32.9388L50.9818 32.9285C50.9818 32.9285 50.9992 32.8599 51.0479 32.8873C51.0966 32.9148 51.0688 32.9353 51.1453 32.9525C51.2218 32.9697 51.2497 32.9902 51.2497 32.9902C51.2497 32.9902 51.2497 33.0177 51.1836 33.0074C51.1175 32.9971 51.0966 32.9971 51.0757 32.9971C51.0548 32.9971 50.9783 32.9902 51.027 33.0074C51.114 33.0143 51.1975 33.0246 51.281 33.0314C51.2984 33.028 51.3227 33.028 51.3714 33.0348C51.4167 33.0383 51.5002 33.0486 51.5837 33.0623C51.7055 33.0726 51.8307 33.0863 51.949 33.0966C51.956 33.0932 51.9629 33.0897 51.9734 33.0829C52.0116 33.052 51.9942 33.028 52.0325 33.0554C52.0708 33.0829 52.0743 33.1103 52.116 33.1103C52.1543 33.1103 52.6553 33.1618 52.711 33.1755C52.7145 33.1755 52.7214 33.1755 52.7249 33.1755C52.7701 33.1824 52.8501 33.1687 52.8815 33.1584C52.9128 33.1481 52.9093 33.1172 52.9615 33.1378C53.0172 33.1584 53.0032 33.1687 53.038 33.1927C53.0519 33.203 53.0519 33.2098 53.0589 33.2133C53.5878 33.2716 54.1062 33.3265 54.6072 33.3848C54.6594 33.3883 54.7185 33.3745 54.7568 33.378C54.7951 33.3848 54.7846 33.3677 54.8507 33.3711C54.9168 33.378 54.9377 33.3642 54.969 33.3883C54.9934 33.4054 55.0108 33.4191 55.0351 33.4329C55.1499 33.4466 55.2682 33.4603 55.3831 33.474C55.3831 33.474 55.3865 33.474 55.39 33.474C55.4596 33.474 55.5361 33.4912 55.5361 33.4912L55.5709 33.498C55.5501 33.4809 52.8989 32.2251 41.8939 31.5389ZM50.4634 32.8427C50.4425 32.8324 50.4355 32.829 50.4286 32.829C50.4599 32.829 50.4981 32.8255 50.5121 32.8255C50.5399 32.8255 50.5434 32.8633 50.5434 32.8633C50.5434 32.8633 50.5086 32.8667 50.4634 32.8427ZM51.4758 32.9251C51.4758 32.9251 51.4584 32.9628 51.4376 32.9559C51.4167 32.9491 51.368 32.9251 51.368 32.9251C51.368 32.9251 51.4341 32.9079 51.4724 32.9045C51.5071 32.8976 51.4758 32.9251 51.4758 32.9251ZM51.9525 32.9731C51.9107 32.9902 51.8725 32.9834 51.8481 32.9902C51.8272 32.9971 51.7994 32.9902 51.7994 32.9902C51.7994 32.9902 51.8864 32.9525 51.9247 32.9491C51.9629 32.9422 51.9838 32.9285 51.9838 32.9285C51.9838 32.9285 51.9977 32.9559 51.9525 32.9731ZM52.4326 33.0863C52.3248 33.0692 52.2517 33.0589 52.21 33.0589C52.1682 33.0589 52.0777 33.0417 52.0777 33.0417L52.0499 33.004C52.1056 32.9834 52.1404 32.9731 52.1856 32.9731C52.2308 32.9731 52.2239 32.9799 52.2691 32.9937C52.3109 33.0108 52.4152 33.0486 52.4152 33.0486C52.4152 33.0486 52.5405 33.1 52.4326 33.0863ZM52.791 33.1103C52.7423 33.1172 52.617 33.0829 52.617 33.0829C52.6831 33.0829 52.7806 33.0726 52.8223 33.076C52.8641 33.0829 52.965 33.0829 52.965 33.0829C52.965 33.0829 52.8397 33.1069 52.791 33.1103ZM53.3616 32.9868C53.3894 32.9697 53.5634 32.9868 53.6121 32.9799C53.6608 32.9731 53.7652 33.0211 53.7791 33.0451C53.7965 33.0657 53.7965 33.0829 53.7095 33.0451C53.6225 33.0074 53.3059 33.0074 53.3059 33.0074C53.3059 33.0074 53.3338 33.004 53.3616 32.9868ZM53.6121 33.1858C53.5912 33.1961 53.5634 33.2064 53.5321 33.1961C53.5008 33.1858 53.2711 33.1755 53.2155 33.1652C53.1598 33.1549 53.0241 33.1069 53.0241 33.1069C53.0728 33.1172 53.1772 33.1275 53.2155 33.1343C53.2537 33.1378 53.3129 33.1343 53.379 33.1378C53.4451 33.1446 53.5251 33.1378 53.5704 33.1481C53.6121 33.1584 53.633 33.1755 53.6121 33.1858ZM53.9322 33.2201C53.8835 33.2201 53.8174 33.2373 53.7791 33.2373C53.7408 33.2373 53.6991 33.2064 53.6991 33.2064C53.7165 33.2064 53.8035 33.1961 53.8557 33.1892C53.9113 33.1824 53.9218 33.1618 53.9496 33.1721C53.9774 33.1824 53.9983 33.2098 53.9983 33.2098C53.9983 33.2098 53.9809 33.2201 53.9322 33.2201ZM54.5689 33.2819C54.5411 33.275 54.4889 33.2167 54.4889 33.2167C54.6037 33.2098 54.6072 33.2579 54.6455 33.2853C54.6837 33.3162 54.5967 33.2887 54.5689 33.2819Z" fill="#CC3024"/>
<path d="M50.0107 14.277C48.9982 14.277 47.7422 13.7383 47.7422 11.7105C47.7422 9.68269 48.9982 9.1543 50.0107 9.1543C50.7135 9.1543 51.2389 9.36703 51.6877 9.8268L50.8318 10.6709C50.5674 10.3929 50.3447 10.2763 50.0142 10.2763C49.7115 10.2763 49.4783 10.3826 49.2939 10.6022C49.0991 10.8424 49.0121 11.1787 49.0121 11.707C49.0121 12.2354 49.0991 12.582 49.2939 12.8222C49.4783 13.0418 49.7115 13.1481 50.0142 13.1481C50.3447 13.1481 50.5708 13.0315 50.8318 12.7535L51.6877 13.5907C51.2389 14.0574 50.7135 14.277 50.0107 14.277Z" fill="#585857"/>
<path d="M53.8201 14.2186C52.7763 14.2186 52.3379 13.4981 52.3379 12.7878V7.38037H53.6043V12.7123C53.6043 13.0108 53.7296 13.1652 54.0532 13.1652H54.5403V14.222H53.8201V14.2186Z" fill="#585857"/>
<path d="M58.1833 14.2186V13.7588C57.8528 14.1053 57.3831 14.2769 56.9169 14.2769C56.4089 14.2769 56.0018 14.1122 55.72 13.8343C55.3095 13.4294 55.2051 12.9594 55.2051 12.4138V9.216H56.4715V12.2423C56.4715 12.925 56.9099 13.1549 57.31 13.1549C57.7102 13.1549 58.159 12.925 58.159 12.2423V9.216H59.4254V14.222H58.1833V14.2186Z" fill="#585857"/>
<path d="M64.2928 13.8274C64.011 14.1054 63.5517 14.2804 63.0542 14.2804C62.5184 14.2804 62.1392 14.1362 61.7878 13.752V14.222H60.5596V7.38037H61.826V9.65863C62.1566 9.29494 62.5358 9.15769 63.0542 9.15769C63.5517 9.15769 64.0075 9.32925 64.2928 9.6106C64.8008 10.1115 64.8078 10.9659 64.8078 11.7139C64.8078 12.4619 64.7973 13.3265 64.2928 13.8274ZM62.6854 10.2797C61.9269 10.2797 61.8295 10.8938 61.8295 11.7104C61.8295 12.5271 61.9269 13.1515 62.6854 13.1515C63.4439 13.1515 63.5413 12.5271 63.5413 11.7104C63.5413 10.8973 63.4439 10.2797 62.6854 10.2797Z" fill="#585857"/>
<path d="M70.3021 14.2186V13.7863C69.9611 14.1225 69.6411 14.2666 69.0565 14.2666C68.4825 14.2666 68.0615 14.1225 67.7622 13.824C67.4909 13.5461 67.3447 13.1412 67.3447 12.6986C67.3447 11.9026 67.9014 11.2472 69.0774 11.2472H70.2743V10.9968C70.2743 10.4478 70.0029 10.2076 69.3279 10.2076C68.8408 10.2076 68.6181 10.3243 68.3537 10.6194L67.5465 9.84049C68.0441 9.3018 68.5312 9.1474 69.3766 9.1474C70.7997 9.1474 71.5407 9.74441 71.5407 10.9144V14.2083H70.3021V14.2186ZM70.2743 12.105H69.2723C68.813 12.105 68.5625 12.3178 68.5625 12.6712C68.5625 13.0177 68.7956 13.2476 69.2931 13.2476C69.6445 13.2476 69.8672 13.2201 70.0934 13.0074C70.2291 12.8839 70.2778 12.6815 70.2778 12.3727V12.105H70.2743Z" fill="#585857"/>
<path d="M74.0525 14.2186C73.0087 14.2186 72.5703 13.4981 72.5703 12.7878V7.38037H73.8368V12.7123C73.8368 13.0108 73.962 13.1652 74.2856 13.1652H74.7727V14.222H74.0525V14.2186Z" fill="#585857"/>
<path d="M79.2264 13.8274C78.9446 14.1053 78.4853 14.2803 77.9878 14.2803C77.4729 14.2803 77.0902 14.1465 76.7596 13.7794V16.0576H75.4932V9.21598H76.7213V9.68605C77.0728 9.30176 77.452 9.15765 77.9878 9.15765C78.4853 9.15765 78.9411 9.32921 79.2264 9.61056C79.7344 10.1115 79.7414 10.9659 79.7414 11.7138C79.7414 12.4618 79.7344 13.3265 79.2264 13.8274ZM77.619 10.2796C76.8605 10.2796 76.7631 10.8938 76.7631 11.7104C76.7631 12.527 76.8605 13.1515 77.619 13.1515C78.3775 13.1515 78.4749 12.527 78.4749 11.7104C78.4784 10.8972 78.381 10.2796 77.619 10.2796Z" fill="#585857"/>
<path d="M80.6494 8.3582V7.34259H81.9437V8.36163H80.6494V8.3582ZM80.6703 14.2186V9.21598H81.9368V14.222H80.6703V14.2186Z" fill="#585857"/>
<path d="M86.0076 14.2186V11.1923C86.0076 10.5095 85.5692 10.2796 85.1691 10.2796C84.769 10.2796 84.3202 10.5095 84.3202 11.1923V14.2186H83.0537V9.21598H84.2923V9.67575C84.6229 9.32921 85.0926 9.15765 85.5588 9.15765C86.0668 9.15765 86.4738 9.32235 86.7557 9.60027C87.1662 10.0051 87.2706 10.4752 87.2706 11.0208V14.2186H86.0076Z" fill="#585857"/>
<path d="M91.745 10.3105V14.222H90.4785V10.3105H89.9531V9.36011H90.4785V8.73565C90.4785 8.02541 90.9273 7.30487 91.9607 7.30487H92.6809V8.36166H92.1833C91.8806 8.36166 91.745 8.52635 91.745 8.81456V9.36354H92.6809V10.314H91.745V10.3105Z" fill="#585857"/>
<path d="M96.1286 10.5781C95.9338 10.386 95.7668 10.2796 95.4571 10.2796C95.0675 10.2796 94.6395 10.5678 94.6395 11.2026V14.2186H93.373V9.21598H94.6117V9.69634C94.8552 9.40813 95.3423 9.15765 95.8886 9.15765C96.3861 9.15765 96.7375 9.28117 97.0854 9.62772L96.1286 10.5781Z" fill="#585857"/>
<path d="M100.026 14.2186V13.7863C99.6848 14.1225 99.3647 14.2666 98.7802 14.2666C98.2061 14.2666 97.7851 14.1225 97.4859 13.824C97.2145 13.5461 97.0684 13.1412 97.0684 12.6986C97.0684 11.9026 97.625 11.2472 98.801 11.2472H99.9979V10.9968C99.9979 10.4478 99.7265 10.2076 99.0516 10.2076C98.5645 10.2076 98.3418 10.3243 98.0774 10.6194L97.2702 9.84049C97.7677 9.3018 98.2548 9.1474 99.1003 9.1474C100.523 9.1474 101.264 9.74441 101.264 10.9144V14.2083H100.026V14.2186ZM99.9979 12.105H98.9959C98.5366 12.105 98.2861 12.3178 98.2861 12.6712C98.2861 13.0177 98.5192 13.2476 99.0168 13.2476C99.3682 13.2476 99.5908 13.2201 99.817 13.0074C99.9527 12.8839 100.001 12.6815 100.001 12.3727V12.105H99.9979Z" fill="#585857"/>
<path d="M105.297 14.2186V11.1923C105.297 10.5095 104.858 10.2796 104.458 10.2796C104.058 10.2796 103.609 10.5095 103.609 11.1923V14.2186H102.343V9.21598H103.581V9.67575C103.912 9.32921 104.382 9.15765 104.848 9.15765C105.356 9.15765 105.763 9.32235 106.045 9.60027C106.455 10.0051 106.56 10.4752 106.56 11.0208V14.2186H105.297Z" fill="#585857"/>
<path d="M109.652 14.277C108.64 14.277 107.384 13.7383 107.384 11.7105C107.384 9.68269 108.64 9.1543 109.652 9.1543C110.355 9.1543 110.88 9.36703 111.329 9.8268L110.473 10.6709C110.209 10.3929 109.986 10.2763 109.656 10.2763C109.353 10.2763 109.12 10.3826 108.936 10.6022C108.741 10.8424 108.654 11.1787 108.654 11.707C108.654 12.2354 108.741 12.582 108.936 12.8222C109.12 13.0418 109.353 13.1481 109.656 13.1481C109.986 13.1481 110.212 13.0315 110.473 12.7535L111.329 13.5907C110.877 14.0574 110.352 14.277 109.652 14.277ZM109.659 16.1984H108.48L109.151 14.7951H110.087L109.659 16.1984Z" fill="#585857"/>
<path d="M114.611 14.2186V13.7863C114.27 14.1225 113.95 14.2666 113.365 14.2666C112.791 14.2666 112.37 14.1225 112.071 13.824C111.799 13.5461 111.653 13.1412 111.653 12.6986C111.653 11.9026 112.21 11.2472 113.386 11.2472H114.583V10.9968C114.583 10.4478 114.311 10.2076 113.637 10.2076C113.149 10.2076 112.927 10.3243 112.662 10.6194L111.855 9.84049C112.353 9.3018 112.84 9.1474 113.685 9.1474C115.108 9.1474 115.849 9.74441 115.849 10.9144V14.2083H114.611V14.2186ZM114.579 12.105H113.577C113.118 12.105 112.868 12.3178 112.868 12.6712C112.868 13.0177 113.101 13.2476 113.598 13.2476C113.95 13.2476 114.172 13.2201 114.398 13.0074C114.534 12.8839 114.583 12.6815 114.583 12.3727V12.105H114.579Z" fill="#585857"/>
<path d="M116.899 8.3582V7.34259H118.194V8.36163H116.899V8.3582ZM116.917 14.2186V9.21598H118.183V14.222H116.917V14.2186Z" fill="#585857"/>
<path d="M120.971 14.2769C120.171 14.2769 119.45 14.1911 118.807 13.5563L119.635 12.7397C120.052 13.1515 120.598 13.2098 120.988 13.2098C121.427 13.2098 121.886 13.0657 121.886 12.6917C121.886 12.4412 121.75 12.2697 121.35 12.2319L120.55 12.1565C119.635 12.0707 119.068 11.6761 119.068 10.7531C119.068 9.71693 119.993 9.15765 121.026 9.15765C121.816 9.15765 122.477 9.29147 122.964 9.74437L122.185 10.5232C121.893 10.2625 121.444 10.187 121.006 10.187C120.498 10.187 120.285 10.4169 120.285 10.6673C120.285 10.8492 120.362 11.0619 120.811 11.0997L121.611 11.1752C122.613 11.2712 123.121 11.7996 123.121 12.6437C123.124 13.7485 122.171 14.2769 120.971 14.2769Z" fill="#585857"/>
<path d="M61.2694 27.5965L60.6571 25.7815H56.9586L56.3288 27.5965H54.21L57.9954 17.334H59.5889L63.3883 27.5965H61.2694ZM58.8444 20.3637L57.5292 24.0968H60.1178L58.8444 20.3637Z" fill="#00A6D1"/>
<path d="M68.8231 27.5965V23.0572C68.8231 22.0347 68.1655 21.6882 67.5671 21.6882C66.9686 21.6882 66.2971 22.0347 66.2971 23.0572V27.5965H64.3975V20.0893H66.2519V20.7823C66.7495 20.2642 67.4488 20.0035 68.1516 20.0035C68.9101 20.0035 69.5259 20.2471 69.9504 20.6657C70.5627 21.2696 70.7263 21.9764 70.7263 22.7998V27.6H68.8231V27.5965Z" fill="#00A6D1"/>
<path d="M77.0512 27.5965V23.0572C77.0512 22.0347 76.3936 21.6882 75.7952 21.6882C75.1967 21.6882 74.5218 22.0347 74.5218 23.0572V27.5965H72.6221V20.0893H74.4765V20.7823C74.9741 20.2642 75.6734 20.0035 76.3762 20.0035C77.1347 20.0035 77.7505 20.2471 78.175 20.6657C78.7873 21.2696 78.9509 21.9764 78.9509 22.7998V27.6H77.0512V27.5965Z" fill="#00A6D1"/>
<path d="M82.3401 24.4262C82.3401 25.3903 82.9385 26.0971 84.0066 26.0971C84.8382 26.0971 85.2487 25.8672 85.7324 25.3903L86.8875 26.4986C86.1116 27.2637 85.367 27.6789 83.9927 27.6789C82.1939 27.6789 80.4717 26.8725 80.4717 23.8291C80.4717 21.3793 81.8147 19.9966 83.7909 19.9966C85.9098 19.9966 87.1101 21.5234 87.1101 23.5855V24.4227H82.3401V24.4262ZM85.0574 22.3366C84.8521 21.8906 84.4276 21.5577 83.784 21.5577C83.1403 21.5577 82.7158 21.8906 82.514 22.3366C82.3957 22.6111 82.354 22.8135 82.3401 23.1429H85.2348C85.2209 22.8135 85.1757 22.6111 85.0574 22.3366Z" fill="#00A6D1"/>
<path d="M91.7373 27.6858C90.2168 27.6858 88.3311 26.8794 88.3311 23.836C88.3311 20.7961 90.2168 20.0035 91.7373 20.0035C92.7915 20.0035 93.5778 20.3191 94.2528 21.0122L92.9655 22.2817C92.5723 21.8631 92.2348 21.6916 91.7373 21.6916C91.285 21.6916 90.9336 21.8494 90.6552 22.1822C90.363 22.5425 90.2307 23.0469 90.2307 23.8395C90.2307 24.6321 90.363 25.1502 90.6552 25.5104C90.9336 25.8432 91.285 26.0011 91.7373 26.0011C92.2348 26.0011 92.5688 25.8295 92.9655 25.4109L94.2528 26.6633C93.5778 27.3529 92.788 27.6858 91.7373 27.6858Z" fill="#00A6D1"/>
<path d="M98.4145 28.8077C98.2544 29.2263 98.077 29.542 97.8439 29.7719C97.4055 30.2042 96.8349 30.3483 96.2052 30.3483H95.4606V28.6602H95.899C96.4383 28.6602 96.6574 28.5298 96.8488 27.9843L97.1689 27.0613L94.5664 20.0858H96.567L98.1466 24.7281L99.667 20.0858H101.668L98.4145 28.8077Z" fill="#00A6D1"/>
</svg>
