<?xml version="1.0" encoding="UTF-8"?>
<svg id="Calque_1" data-name="Calque 1" xmlns="http://www.w3.org/2000/svg" viewBox="0 0 99.21 99.21">
  <defs>
    <style>
      .cls-1 {
        fill: #fdfcf9;
      }

      .cls-1, .cls-2, .cls-3, .cls-4 {
        stroke-width: 0px;
      }

      .cls-1, .cls-4 {
        fill-rule: evenodd;
      }

      .cls-2 {
        fill: #59bdde;
      }

      .cls-3 {
        fill: #1e6688;
      }
    </style>
  </defs>
  <rect class="cls-3" x="-.45" width="99.21" height="99.21" rx="5.67" ry="5.67"/>
  <g>
    <g>
      <polygon class="cls-2" points="80.25 49.61 80.13 52.62 80.05 52.61 80.25 49.61"/>
      <path class="cls-2" d="M79.38,57.6c-.28.97-.54,1.95-.79,2.96l-.94-.39c.42-.89.82-1.8,1.21-2.72l.52.15Z"/>
      <path class="cls-2" d="M76.69,65.38c-.48.93-1,1.84-1.49,2.81l-2.35-1.9c.69-.66,1.35-1.37,2.04-2.07l1.8,1.16Z"/>
      <path class="cls-2" d="M72.13,72.65l-2.22,2.52-3.46-4.97c.83-.37,1.67-.77,2.53-1.17l3.15,3.63Z"/>
      <path class="cls-2" d="M65.59,79l-2.98,1.99-3.15-9.45c.85-.05,1.72-.14,2.61-.21l3.51,7.67Z"/>
      <path class="cls-2" d="M57.06,83.69c-1.18.4-2.39.79-3.64,1.17l-.51-14.35,2.35.64,1.79,12.54Z"/>
      <path class="cls-2" d="M46.96,85.92c-1.33.05-2.68.05-4.06.03l4.63-18.23c.59.37,1.2.77,1.84,1.2l-2.42,17Z"/>
      <path class="cls-2" d="M36.04,84.92c-1.34-.4-2.7-.83-4.06-1.29l11.7-19.69c.41.47.83.97,1.27,1.5l-8.91,19.49Z"/>
      <path class="cls-2" d="M25.55,80.32c-1.19-.83-2.36-1.72-3.54-2.63l19.18-17.88c.27.49.54.99.79,1.55l-16.43,18.96Z"/>
      <path class="cls-2" d="M16.85,72.34c-.89-1.2-1.73-2.47-2.56-3.74l25.49-12.8c.16.47.32.95.42,1.48l-23.35,15.05Z"/>
      <path class="cls-2" d="M11.08,61.69c-.44-1.46-.87-2.94-1.22-4.44l29.28-5.27c.11.46.14.93.16,1.41l-28.22,8.29Z"/>
      <path class="cls-2" d="M9.06,49.64c.05-1.53.15-3.06.27-4.59l29.76,3.14c.01.48.01.95-.04,1.42l-29.99.02Z"/>
      <path class="cls-2" d="M11.04,37.57c.54-1.44,1.11-2.86,1.74-4.25l26.82,11.1c-.04.5-.13.97-.26,1.43l-28.3-8.28Z"/>
      <path class="cls-2" d="M16.77,26.88c.98-1.15,1.95-2.29,2.97-3.37l21.05,16.96c-.15.55-.35,1.03-.55,1.51l-23.48-15.1Z"/>
      <path class="cls-2" d="M25.46,18.85c1.27-.75,2.52-1.48,3.79-2.16l13.72,19.68c-.31.56-.64,1.06-.95,1.54l-16.56-19.07Z"/>
      <path class="cls-2" d="M35.96,14.24c1.39-.3,2.76-.59,4.12-.81l6.36,19.04c-.5.52-1,.96-1.47,1.4l-9-19.64Z"/>
      <path class="cls-2" d="M46.9,13.21c1.34.15,2.66.31,3.95.5l.56,15.64-2.05,1.03-2.46-17.17Z"/>
      <polygon class="cls-2" points="57.03 15.44 60.45 16.96 57.71 27.78 55.23 28.13 57.03 15.44"/>
      <path class="cls-2" d="M65.58,20.15c.92.75,1.82,1.5,2.69,2.25l-3.59,6.06-2.64-.54,3.54-7.77Z"/>
      <path class="cls-2" d="M72.12,26.51l1.94,2.65-2.72,2.54c-.82-.52-1.6-1.03-2.4-1.52l3.18-3.68Z"/>
      <path class="cls-2" d="M76.69,33.8c.39.98.82,1.93,1.22,2.88l-1.28.64c-.6-.79-1.16-1.59-1.77-2.34l1.82-1.18Z"/>
      <path class="cls-2" d="M79.37,41.57c.16,1.01.34,2,.54,2.98l-.22.04c-.26-.97-.55-1.92-.85-2.87l.53-.16Z"/>
    </g>
    <g>
      <path class="cls-4" d="M47.59,51.72s-13,5.07-34.44,2.35c0,0-1.15-.16-1.2.79-.03.53,2.49,2.91,7.42,5.13,3.58.61,12.7,1.28,19.28-1.08,0,0-4.59,2.73-12.19,3.61,1.49.43,3.1.84,4.86,1.24,1.5.34,2.9.63,4.21.87,1.18-.52,2.89-1.4,3.82-2.42,0,0-.86,1.45-1.92,2.76,9.97,1.63,13.96.45,14.75-.9.94-1.59.47-9.78-4.6-12.35Z"/>
      <g>
        <path class="cls-1" d="M41.36,46.31c7.57,10.96,1.1,22.76,20.57,25.49,5.65.79-1.06,7.1,1.5,7.6,3.7.71,8.77.67,11.77-1.19-1.35-1.45-1.89-2.75-1.89-2.75.96.92,1.88,1.64,2.72,2.2,2.08-1.47,4.16-3.65,5.64-6.87-3.68-.17-6.02-1.97-6.02-1.97,2.99.73,5.23.65,6.66.42.39-.95,1.68-7.18.3-7.77-.37-.16-11.98,3.96-16.16-.06-6.51-6.26-10.72-12.76-16.55-18.68-2.6-2.65-7.69-3.05-9.07.57-.81.12-1.97.42-2.71,1.11,0,0-.14.14.19.35.8.51,2.82,1.15,3.05,1.56Z"/>
        <path class="cls-4" d="M41.36,46.31c2.88,4.17,3.73,8.47,4.75,12.33-1.71-7.01-.91-10.93-1.95-11.38-1.04-.45-3.19-1.24-3.19-1.25.19.09.33.17.4.29h0ZM60.93,71.65c.33.05.66.11,1,.15,5.65.79-1.06,7.1,1.5,7.6,1.29.25,2.74.41,4.22.43-1.93-5.95,2.77-9.66,2.88-10.22.13-.67-.41-.28-.41-.28-3.32,2.74-8.9,2.35-9.19,2.33Z"/>
        <path class="cls-4" d="M44.79,42.23c.41.2.58.69.39,1.1-.2.41-.69.58-1.1.39-.41-.2-.58-.69-.39-1.1.2-.41.69-.58,1.1-.39Z"/>
        <path class="cls-1" d="M54.43,54.18c-.27,4.72,6.66,7.53,6.66,7.53,7.65,2.7,13.26-1.51,17.52-7.15-3.8-1.19-5.78-4.06-5.78-4.06,2.19,1.41,4.85,2.04,7.03,2.32,1.24-1.82,2.36-3.73,3.38-5.56-4.89.8-8.69-1.34-8.69-1.34,3.78.44,7.7-.68,10.37-1.73,5.43-19.41-5.92-26.81-10.49-28.7,0,0-1.36-.59-1.36.91,0,1.49-4.19,27.54-20.22,33.45,0,0-1.7,2.69,1.59,4.32Z"/>
      </g>
    </g>
  </g>
</svg>