<?xml version="1.0" encoding="UTF-8"?>
<svg id="Calque_1" data-name="Calque 1" xmlns="http://www.w3.org/2000/svg" viewBox="0 0 99.21 99.8">
  <defs>
    <style>
      .cls-1 {
        letter-spacing: .02em;
      }

      .cls-2 {
        letter-spacing: .03em;
      }

      .cls-3 {
        fill: #1d1d1b;
        font-family: DIN2014-Bold, 'DIN 2014';
        font-size: 1.61px;
        font-weight: 700;
      }

      .cls-4 {
        letter-spacing: .02em;
      }

      .cls-5, .cls-6, .cls-7, .cls-8, .cls-9, .cls-10, .cls-11, .cls-12 {
        stroke-width: 0px;
      }

      .cls-5, .cls-6, .cls-7, .cls-12 {
        fill-rule: evenodd;
      }

      .cls-5, .cls-10 {
        fill: #1e6688;
      }

      .cls-6, .cls-9 {
        fill: #59bdde;
      }

      .cls-7 {
        fill: #fdfcf9;
      }

      .cls-11 {
        fill: #fff;
      }
    </style>
  </defs>
  <rect class="cls-10" width="99.21" height="99.21" rx="5.67" ry="5.67"/>
  <text class="cls-3" transform="translate(31.56 73.57)"><tspan class="cls-1" x="0" y="0">SUPPO</tspan><tspan class="cls-4" x="5.11" y="0">R</tspan><tspan class="cls-2" x="6.12" y="0">T TECHNIQUE</tspan></text>
  <polygon class="cls-11" points="49.61 12.84 40.49 12.84 12.09 12.84 12.09 71.32 12.09 99.8 49.61 99.8 87.12 99.8 87.12 12.84 49.61 12.84"/>
  <rect class="cls-10" x="19.28" y="23.06" width="60.66" height="34.59"/>
  <rect class="cls-9" x="19.28" y="47.26" width="60.66" height="10.39"/>
  <rect class="cls-9" x="19.28" y="77.12" width="60.66" height="16.59"/>
  <g>
    <rect class="cls-10" x="19.57" y="62.4" width="30.92" height="1.1"/>
    <rect class="cls-9" x="19.28" y="66.81" width="60.66" height="1.1"/>
    <rect class="cls-9" x="19.28" y="71.26" width="60.66" height="1.1"/>
  </g>
  <g>
    <path class="cls-11" d="M30.24,82.78c-1.22,0-2.25.82-2.57,1.93h5.13c-.32-1.12-1.35-1.93-2.57-1.93Z"/>
    <path class="cls-11" d="M37.23,82.78c-1.22,0-2.25.82-2.57,1.93h5.13c-.32-1.12-1.35-1.93-2.57-1.93Z"/>
    <path class="cls-11" d="M33.9,81.95c-1.74,0-3.21,1.17-3.66,2.76h7.33c-.46-1.59-1.92-2.76-3.66-2.76Z"/>
  </g>
  <path class="cls-5" d="M18.95,89.18s5.87-.08,10.91,1.12c5.04,1.21,18.98-3.65,18.98-3.65,0,0,9.18-3.45,17.23,1.45,8.05,4.89,13.23,2.45,13.23,2.45l.04,4.27-60.2,2.03-.19-7.67Z"/>
  <path class="cls-12" d="M18.99,89.19s3.01-.86,10.61,2.1c0,0,2.03.29,4.74-.24,0,0,3.58-.41,5.93.36,0,0,3.06,1.62,4.31,1.84l5.51.43c.87.14-30.99-.28-30.99-.28l-.12-4.21Z"/>
  <path class="cls-6" d="M19,93.72h60.38v3.67H19v-3.67Z"/>
  <path class="cls-5" d="M19.04,92.46s15-1.09,24.83,4.4l-24.76.6-.07-5Z"/>
  <path class="cls-5" d="M49.26,95.51s14.25-3.18,17.84-2.97c3.59.21,7.56-1.33,7.56-1.33,0,0,2.97-.7,4.63.28l.04,5.07-30.08-1.05Z"/>
  <path class="cls-12" d="M19.12,95.92s19.05-.15,29.28-2.28c0,0,12.17-3.23,19.79-1.73,0,0,9.52,1.52,11.15,1.52l.09,6.37-60.25-.08-.06-3.8Z"/>
  <path id="Tracé_37426" data-name="Tracé 37426" class="cls-11" d="M66.96,82.56c-.59.13-1.11.47-1.46.95-.8-1.1-2.33-1.34-3.43-.54-.24.17-.44.38-.6.63.74-.38,1.59-.48,2.4-.29.5.11.97.31,1.38.61.08.06.16.12.24.19.08-.07.15-.13.24-.19.41-.29.89-.5,1.38-.61.81-.19,1.66-.09,2.4.29-.56-.84-1.58-1.26-2.57-1.04"/>
  <path id="Tracé_37427" data-name="Tracé 37427" class="cls-11" d="M74.4,81.56c-.59-.14-1.2-.05-1.73.24-.25-1.33-1.54-2.21-2.87-1.95-.29.05-.56.16-.81.31.83-.03,1.65.24,2.3.76.4.31.74.7.99,1.14.05.09.09.18.13.27.1-.03.2-.05.3-.07.5-.09,1.02-.08,1.51.04.82.17,1.54.63,2.05,1.29-.15-1-.89-1.81-1.88-2.04"/>
  <g>
    <path class="cls-6" d="M34.28,34.23h0s-1.13,2.71-2.35,3.53l1.68-.63s-1.57,4.1-2.69,4.94l1.68-.58s-1.68,3.06-2.82,3.85l2.26-.6s-.74,2.73-2.71,4.48h9.92c-1.97-1.75-2.71-4.48-2.71-4.48l2.26.6c-1.14-.8-2.82-3.85-2.82-3.85l1.68.58c-1.13-.83-2.69-4.94-2.69-4.94l1.69.63c-1.24-.81-2.33-3.48-2.35-3.53h0Z"/>
    <path class="cls-5" d="M29.29,41.57h0s-.85,2.04-1.77,2.63l1.27-.47s-1.18,3.09-2.02,3.71l1.25-.44s-1.25,2.29-2.11,2.88l1.69-.45s-.55,2.05-2.04,3.37h7.44c-1.49-1.32-2.04-3.37-2.04-3.37l1.69.45c-.86-.6-2.12-2.88-2.12-2.88l1.25.44c-.85-.63-2.01-3.71-2.01-3.71l1.25.47c-.92-.6-1.74-2.6-1.75-2.63h0Z"/>
    <path class="cls-12" d="M35.22,52.59h28.92s-14.37-3.37-28.92,0h0Z"/>
    <path class="cls-6" d="M64.94,34.23h0s1.13,2.71,2.35,3.53l-1.68-.63s1.55,4.1,2.69,4.94l-1.69-.58s1.69,3.06,2.82,3.85l-2.24-.6s.72,2.73,2.71,4.48h-9.93c1.99-1.75,2.73-4.48,2.73-4.48l-2.26.6c1.13-.8,2.82-3.85,2.82-3.85l-1.69.58c1.14-.83,2.69-4.94,2.69-4.94l-1.68.63c1.22-.81,2.33-3.48,2.35-3.53h0Z"/>
    <path class="cls-5" d="M69.92,41.57h0s.85,2.04,1.77,2.63l-1.27-.47s1.18,3.09,2.02,3.71l-1.25-.44s1.25,2.29,2.1,2.88l-1.68-.45s.55,2.05,2.04,3.37h-7.44c1.49-1.32,2.04-3.37,2.04-3.37l-1.69.45c.85-.6,2.12-2.88,2.12-2.88l-1.27.44c.85-.63,2.02-3.71,2.02-3.71l-1.25.47c.91-.6,1.74-2.6,1.75-2.63h0Z"/>
  </g>
  <g>
    <path class="cls-8" d="M29.77,52.81l-1.2-4.16c-.3-.02-.55-.25-.55-.57s.27-.57.58-.57.57.25.57.57c0,.19-.09.36-.24.47l1.23,4.25h-.39Z"/>
    <path class="cls-8" d="M69.45,52.81l1.2-4.16c.3-.02.54-.25.54-.57s-.25-.57-.57-.57-.57.25-.57.57c0,.19.09.36.24.47l-1.23,4.25h.39Z"/>
    <path class="cls-5" d="M49.64,28.67v.09c3.89,5.95,9.14,11.75,16.7,17.31-.65,2.24-1.29,4.47-1.94,6.73-9.88-.08-19.71-.08-29.58,0-.65-2.25-1.29-4.49-1.94-6.73,7.58-5.56,12.81-11.36,16.7-17.31v-.09l.03.05.03-.05Z"/>
    <path class="cls-12" d="M49.64,28.67v.09c3.89,5.95,9.14,11.75,16.7,17.31l-.22.79c-5.5-3.39-10.99-8.38-16.51-14.76h0c-5.5,6.38-10.99,11.37-16.49,14.76l-.24-.79c7.58-5.56,12.81-11.36,16.7-17.31v-.09l.03.05.03-.05Z"/>
    <path class="cls-12" d="M64.85,51.23l-.46,1.58c-9.88-.08-19.71-.08-29.58,0l-.44-1.58h30.48Z"/>
    <path class="cls-7" d="M45.83,52.76c-1.01-1.4-2.14-2.54-3.53-3.04.95-.33,1.87-.68,2.5-1.37.46.5.91,1.01,1.37,1.51-.11.96-.24,1.94-.35,2.9h0Z"/>
    <path class="cls-6" d="M53.39,52.76c-2.52-.02-5.04-.02-7.56,0l3.78-12.43,3.78,12.43Z"/>
    <path class="cls-12" d="M49.61,40.33c-2.28,4.11-4.6,7.53-7.07,7.84,1.8.99,2.84,2.57,3.29,4.58,1.26-4.14,2.52-8.29,3.78-12.43h0Z"/>
    <path class="cls-7" d="M53.42,52.76c1.01-1.4,2.13-2.54,3.53-3.04-.95-.33-1.87-.68-2.5-1.37-.46.5-.91,1.01-1.37,1.51.11.96.22,1.94.35,2.9h0Z"/>
    <path class="cls-12" d="M49.64,40.33c2.27,4.11,4.6,7.53,7.07,7.84-1.8.99-2.84,2.57-3.29,4.58-1.26-4.14-2.52-8.29-3.78-12.43h0Z"/>
    <path class="cls-8" d="M28.7,49.64c-.13.09-.3.06-.39-.06s-.06-.3.06-.39c4.76-3.48,8.77-6.82,12.22-10.22,3.43-3.39,6.3-6.84,8.74-10.57t.02-.02l.02-.05c.09-.13.27-.17.39-.08.03.02.06.05.08.08h0l.05.06c2.43,3.73,5.29,7.18,8.74,10.57,3.43,3.4,7.47,6.74,12.22,10.22.13.09.14.27.06.39-.09.13-.27.16-.39.06-4.79-3.5-8.84-6.85-12.29-10.27-3.39-3.34-6.21-6.73-8.63-10.38-2.41,3.65-5.25,7.04-8.62,10.38-3.47,3.42-7.51,6.77-12.29,10.27h0Z"/>
  </g>
</svg>