<?xml version="1.0" encoding="UTF-8"?>
<svg id="Calque_1" data-name="Calque 1" xmlns="http://www.w3.org/2000/svg" viewBox="0 0 116.22 116.22">
  <defs>
    <style>
      .cls-1 {
        fill: #1d1d1b;
      }

      .cls-1, .cls-2, .cls-3 {
        stroke-width: 0px;
      }

      .cls-2 {
        fill: #d76c60;
      }

      .cls-3 {
        fill: #fdfcf9;
      }
    </style>
  </defs>
  <path class="cls-2" d="M95.93,108.13c-12.37,15.23-62.39,9.12-81.95-22.92C-5.58,53.18,31.15,5.64,67.88,1.07c36.72-4.57,52.48,76.99,28.05,107.06Z"/>
  <path class="cls-1" d="M64.25,15.47c-4.12,0-7.46,3.34-7.46,7.46s3.34,7.46,7.46,7.46,7.46-3.34,7.46-7.46-3.34-7.46-7.46-7.46ZM64.25,28.27c-2.95,0-5.34-2.39-5.34-5.34s2.39-5.34,5.34-5.34,5.34,2.39,5.34,5.34-2.39,5.34-5.34,5.34Z"/>
  <rect class="cls-3" x="59.71" y=".13" width="9.07" height="20.86"/>
  <rect class="cls-1" x="62.53" y="29.09" width="3.44" height="19.64"/>
  <rect class="cls-3" x="62.95" y="50.32" width="2.59" height="20.86"/>
  <g>
    <path class="cls-3" d="M56.67,76.32v18.05c2.36.74,4.87,1.15,7.48,1.15,13.74,0,24.87-11.13,24.87-24.87h-26.68c-3.13,0-5.67,2.54-5.67,5.67Z"/>
    <circle class="cls-2" cx="64.39" cy="76.74" r="3.03"/>
    <path class="cls-1" d="M39.48,74.71c1.21,9.6,8.05,16.79,17.18,19.66v-19.66h-17.18Z"/>
  </g>
  <rect class="cls-1" x="54.36" y="46.87" width="19.78" height="4.87"/>
  <path class="cls-2" d="M63.12,97.7c-1.46-.05-2.93-.21-4.36-.49l.95-4.91c1.17.23,2.38.36,3.58.4l-.16,5ZM67.5,97.49l-.62-4.96c1.19-.15,2.37-.4,3.52-.73l1.41,4.8c-1.4.41-2.85.71-4.3.9ZM54.52,96.03c-1.38-.5-2.72-1.12-3.99-1.84l2.45-4.36c1.04.59,2.14,1.09,3.26,1.5l-1.72,4.69ZM75.91,95.03l-2.16-4.51c1.08-.52,2.12-1.12,3.11-1.8l2.85,4.11c-1.2.83-2.48,1.58-3.8,2.21ZM46.88,91.74c-1.14-.91-2.22-1.92-3.21-3l3.69-3.37c.81.89,1.7,1.71,2.63,2.46l-3.11,3.91ZM83.11,90.04l-3.46-3.61c.86-.83,1.67-1.73,2.39-2.69l3.99,3.01c-.88,1.17-1.86,2.27-2.92,3.29ZM40.97,85.27c-.8-1.23-1.51-2.53-2.11-3.86l4.57-2.03c.48,1.09,1.06,2.15,1.72,3.15l-4.18,2.74ZM88.38,83.04l-4.42-2.33c.56-1.06,1.03-2.17,1.41-3.3l4.74,1.58c-.46,1.38-1.04,2.75-1.73,4.05ZM37.41,77.26c-.21-.8-.38-1.61-.52-2.43l4.93-.82c.11.67.25,1.33.42,1.98l-4.84,1.27ZM91.16,74.72l-4.94-.8c.19-1.18.29-2.38.29-3.58h5c0,1.47-.12,2.94-.35,4.38Z"/>
</svg>