<?xml version="1.0" encoding="UTF-8"?>
<svg id="Calque_1" data-name="Calque 1" xmlns="http://www.w3.org/2000/svg" viewBox="0 0 99.21 99.21">
  <defs>
    <style>
      .cls-1 {
        fill: #1e6688;
      }

      .cls-1, .cls-2 {
        stroke-width: 0px;
      }

      .cls-2 {
        fill: #fff;
      }
    </style>
  </defs>
  <rect class="cls-1" width="99.21" height="99.21" rx="5.67" ry="5.67"/>
  <g>
    <path class="cls-2" d="M41.61,44.72s11.49-21.53,12.26-22.76c.77-1.23,1.44-2.69,2.98-2.69s2.33,1.62,3.25,3.29c.92,1.67,21.44,42.14,21.44,42.14l-11.24-.92s-9.87-18.92-10.58-20.07c-1.17-1.92-2.12-1.92-3-1.92-1.03,0-2.04,0-4.58,4.46-2.59,4.54-5,9.08-5,9.08l-5.54-10.62Z"/>
    <path class="cls-2" d="M43.79,64.96s9.36-17.39,10.1-18.73c.74-1.34,1.46-2.8,2.78-2.8s1.99,1.39,2.94,3.16c.95,1.78,8.88,17.17,8.88,17.17,0,0-10.44-.49-24.69,1.21"/>
    <path class="cls-2" d="M41.77,65.3s-15.91,1.93-31.28,8.11c0,0,18.19-33.62,19-35.05.81-1.43,1.98-4.06,3.64-4.04,1.58.03,2.23,1.68,3.18,3.53,3.25,6.32,9.89,19.28,9.89,19.28l-4.44,8.16Z"/>
    <path class="cls-2" d="M70.65,66.67c-33.26-2.1-61.07,9.45-61.07,9.45l-2.14,3.8h.03s0,0,0,0c0,0,.97-.24,1.03-.27.05-.03,1.08-.34,1.31-.44.23-.1,1.42-.51,1.51-.55.09-.04,1.01-.3,1.13-.34.13-.04.5-.13.58-.15.08-.03.16-.04.2-.07.04-.03.05-.07.02-.07s.02,0,.08,0,.18-.08.22-.13c.04-.06.15-.16.2-.15.05,0,.41.04.45.04s.11.02.14-.02c.03-.03.02-.04.03-.07,0-.03-.03-.08-.03-.08,0,0,.02-.05.16-.09.14-.04,1.22-.33,1.31-.35.09-.03.78-.19.89-.24.11-.05.38-.13.45-.15.07-.02.1-.03.13,0,.02.02.05.05.09.08.04.02.09.02.09.02,0,0-.05-.02-.02-.07.03-.05.09-.08.19-.13.1-.04.4-.15.45-.18.06-.03.08-.08.08-.08,0,0,.04-.03.07-.03.03,0,.08,0,.13,0,.05,0,.11,0,.19,0s.27-.08.39-.09c.12,0,.19-.03.26-.03s.1,0,.13,0c.03.02.04.06.05.08,0,.03.05.04.11.03.06-.02.08-.02.11-.07.03-.05-.02-.11-.02-.11,0,0,0-.03.06-.05.05-.02.91-.27.98-.34.08-.07.11-.13.18-.12.07,0,.18-.04.27-.05.09,0,.96-.28,1.08-.31.12-.03.72-.2.83-.2s.19-.05.26-.04c.08,0,.08,0,.1-.03.02-.04.13-.07.18-.09.06-.03.11-.04.13-.06.03-.02-.03-.07-.06-.07s-.13-.03-.13-.03c0,0,.03-.02.11-.05.08-.03.4-.11.52-.13.12-.03.19-.07.22-.03.03.03.05.05.13.05s.34-.07.41-.12c.07-.05.19-.13.24-.14.04-.02.04-.07.04-.07,0,0,.03-.02.08-.04.06-.03.25-.07.25-.07,0,0-.18.13-.22.16-.03.03-.08.06,0,.08.07.02.13,0,.17,0,.03,0,.17-.15.23-.18.06-.03.24-.12.29-.13.06,0-.1.06-.12.11-.02.05-.03.09.07.06.1-.03.28-.08.32-.08.04,0,.02-.04,0-.07-.03-.03-.11-.08-.03-.12.08-.04.94-.24.94-.24l3.44-.92s.13-.07.16-.04c.02.03.05.07.18.04.13-.03.32-.05.41-.09.09-.04.23-.07.29-.06.06,0,.09,0,.11.04.02.03-.11.05-.11.09s.06.03.12.05c.06.02.13.02.21,0,.08-.02.03-.02.1-.08s.09-.12.12-.14-.04-.04-.12-.04-.24.03-.17,0c.07-.04.39-.16.45-.2.07-.04.18-.17.21-.18.03,0,.4-.24.68-.28.28-.03,1.4-.23,1.54-.26s.31-.09.28-.06c-.03.03.04,0,.16-.03.12-.03.92-.13,1.03-.16.11-.03.51-.06.61-.08.09-.02.18-.08.23-.05.05.02-.06.08.08.08s.22-.06.27-.11c.05-.05.39-.18.47-.18.08,0,.46-.11.56-.12.1,0,.31-.02.31-.02,0,0-.07.12,0,.1.06-.02.26-.14.32-.18.06-.03.38-.12.44-.13.06-.02.31-.04.31-.04l-.03.07s.2-.04.28-.04.58-.13.58-.13c0,0,0,.03.1.05.11.02.39-.03.52-.07.13-.03.6-.16.66-.18.07-.02.34-.08.45-.05.1.03.22.09.22.09,0,0,.32-.17.45-.2.13-.03.53-.08.58-.11.05-.03.17-.13.19-.12.03.02,0,.05,0,.09s.03.06.11,0c.08-.06.27-.1.37-.1s.47.03.66.03c.18,0,.26,0,.32-.05.06-.04-.02-.06-.02-.1s0-.08.11-.08c.1,0,.55-.06.64-.1.09-.04.49-.15.55-.18s.24-.06.33-.05c.08,0,.15-.02.16.05,0,.07-.09.25,0,.19.1-.06.18-.08.19-.13.02-.04-.03-.08.05-.13.08-.04.24-.07.29-.05.06.02,0,.03-.03.07-.04.03.13.07.2.08.07.02.38.17.48.18.1.02.21.03.24.03s-.04,0-.04-.05.03-.05.12-.07c.08-.02.3-.02.4,0,.1.02.07.04.24.03.07,0,.16-.01.24-.02.08-.01.16-.02.24-.03,0-.01,0-.06,0-.09,0-.03.05-.05.13-.04.08,0,.35.04.42.02.07-.03.29-.08.4-.08s.21,0,.43-.03c.22-.03.39-.04.47-.04s.08-.05.08-.05c0,0,.06-.04.17-.03.09,0,.53-.02.69-.04.02,0,.05,0,.07,0,.05-.01.22-.07.27-.07s.17,0,.17,0c0,0,.15-.08.21-.09.06,0,.36-.04.47-.05.11,0,.53-.03.61-.03.04,0,.02.02,0,.03.16-.02.31-.03.47-.05.07-.01.14-.02.21-.04.1-.03.16-.18.26-.23.1-.04.26-.12.37-.13.11,0,.06.04.03.07-.02.03.02.04.1,0,.08-.04.15-.08.13-.02-.02.06-.09.08-.08.11,0,.03,0,.03.11-.02.11-.04.15-.08.28-.07.13,0,.39,0,.6-.02.21-.02.37-.03.37-.03,0,0-.09,0-.04.07.03.04.04.06.06.07,0,0,0,0,.01,0,0,0,.02,0,.04-.02.08-.06.18-.03.24-.02.03,0,.07,0,.1,0,.08,0,.15-.01.23-.02,0,0,0,0,0,0,0-.04-.08-.11,0-.09.08.02.03.05.17.06.13,0,.53,0,.59-.02.01,0,.13,0,.3-.02.6-.05,1.19-.09,1.77-.13.66-.05,1.22-.09,1.22-.09l3.96-.18h.8s.02-.02.05-.08c.03-.07.08-.11.18-.07.11.04.21.13.26.13.02,0,.1,0,.17,0,1.05-.02,2.08-.03,3.1-.02.39,0,.66,0,.66,0l1.56.02s.03-.02.08-.08c.05-.06.12-.03.16-.03s1.08-.02,1.16-.03c.08,0,.44.02.54.05.1.03.15.1.21.1s.27-.03.36-.02c.09,0,.59.08.66.05s.09,0,.14.03c.02.02.06.02.1.03.11,0,.23,0,.34.01.13,0,.29,0,.31,0,.03,0,.05,0,.13-.03.08-.03.44,0,.47.03.03.02.05.06.09.06,0,0,.01,0,.02,0,.05-.02.08-.03.13-.03.05,0,.2.04.2.04,0,0,1.06.07,1.23.07s.5.05.67,0c.17-.05.48-.04.43-.03-.05,0,.08.02.17,0,.09,0,.29-.03.39,0,.1.03.36.07.4.08.04,0,.3.03.4.03s.28.02.19.05c-.05.02-.1.04-.1.06.08,0,.15.01.23.02,0,0,.01,0,.02-.02.05-.07.18-.08.23-.08.05,0,.25-.1.21-.03-.04.07-.09.12-.09.12,0,0-.02.04.04.05.03,0,.06,0,.09,0,.01,0,.02,0,.03,0,.12,0,.24.02.36.03.08,0,.18,0,.2,0,.03,0-.04,0-.16-.06-.12-.05.04-.14.08-.09.03.05.04.05.07.06.03,0,.06-.03.06-.03,0,0,.03-.04.06-.02.03.03-.04.02.03.03.07,0,0,.03.07,0,.07-.02.1-.08.16-.04.06.03.38.11.45.13.07.03.21.08.27.09.06,0,.13.03.19,0,.06-.03.13-.04.2-.03.07,0,.24.06.37.04l.13-.02s.03-.11.1-.07c.08.04.03.08.15.1.12.03.16.06.16.06,0,0,0,.04-.1.03-.1-.02-.13-.02-.17-.02s-.15,0-.08.02c0,0,0,0,0,0,.13.01.26.03.39.04.03,0,.07,0,.14,0,.07,0,.2.02.33.04.19.02.38.04.57.05.01,0,.02,0,.04-.02.06-.05.03-.08.09-.04.06.04.07.08.13.08s.83.08.92.1c0,0,.01,0,.02,0,.07.01.2-.01.24-.03.05-.02.04-.07.13-.03.08.03.07.05.12.08.02.01.02.02.03.03.82.09,1.62.18,2.39.27.08,0,.17-.02.23,0,.06,0,.04-.02.14,0,.1,0,.13,0,.18.03.04.02.06.05.1.07.18.02.36.04.54.06,0,0,0,0,0,0,.11,0,.23.03.23.03h.05s-4.1-1.96-21.11-3.04M83.9,68.72s-.04-.02-.05-.02c.05,0,.11,0,.13,0,.04,0,.05.06.05.06,0,0-.06,0-.13-.03M85.46,68.84s-.03.06-.06.05c-.03,0-.11-.05-.11-.05,0,0,.1-.03.16-.03.06,0,0,.03,0,.03M86.2,68.92c-.07.03-.13.02-.16.03-.03,0-.08,0-.08,0,0,0,.13-.06.19-.07.06,0,.09-.03.09-.03,0,0,.02.05-.05.08M86.94,69.1c-.17-.03-.28-.04-.34-.04s-.2-.03-.2-.03l-.04-.06c.08-.03.14-.05.21-.05s.06,0,.13.03c.07.03.23.08.23.08,0,0,.19.08.02.06M87.5,69.14c-.08,0-.27-.04-.27-.04.1,0,.25-.02.32,0,.07,0,.22,0,.22,0,0,0-.19.03-.27.04M88.38,68.95s.31,0,.39,0c.08,0,.24.07.26.1.03.03.03.06-.11,0-.13-.06-.62-.06-.62-.06,0,0,.04,0,.08-.03M88.77,69.26s-.08.03-.13.02c-.05-.02-.4-.03-.49-.05-.08-.02-.29-.09-.29-.09.08.02.24.03.29.04.06,0,.15,0,.25,0,.1,0,.23,0,.29.02.07.02.1.04.07.06M89.26,69.31c-.08,0-.18.02-.24.02s-.13-.05-.13-.05c.03,0,.16-.02.24-.03.08,0,.1-.04.14-.03.04.02.08.06.08.06,0,0-.02.02-.1.02M90.25,69.41s-.13-.1-.13-.1c.18,0,.18.07.24.11.06.04-.08,0-.12,0"/>
  </g>
</svg>