<?xml version="1.0" encoding="UTF-8"?>
<svg id="Calque_1" data-name="Calque 1" xmlns="http://www.w3.org/2000/svg" xmlns:xlink="http://www.w3.org/1999/xlink" viewBox="0 0 99.21 99.21">
  <defs>
    <style>
      .cls-1 {
        clip-path: url(#clippath);
      }

      .cls-2 {
        fill: none;
      }

      .cls-2, .cls-3, .cls-4, .cls-5 {
        stroke-width: 0px;
      }

      .cls-3 {
        fill: #59bdde;
      }

      .cls-4 {
        fill: #1e6688;
      }

      .cls-5 {
        fill: #fdfcf9;
      }
    </style>
    <clipPath id="clippath">
      <rect class="cls-2" y="-.08" width="99.21" height="99.21" rx="5.67" ry="5.67"/>
    </clipPath>
  </defs>
  <g class="cls-1">
    <rect class="cls-4" y="-.08" width="99.21" height="99.21" rx="5.67" ry="5.67"/>
    <g>
      <path class="cls-3" d="M33.71,147.97c.44-2.78.9-5.56,1.38-8.34,1.83-10.71,1.61-21,1.98-31.73.31-8.96-.02-17.89-2.65-26.52-1.25-4.09-3.86-7.61-5.72-11.48-2.05-4.26-3.75-8.7-5.08-13.24-1.51-5.16-2.54-10.46-4.19-15.57-2.7-8.36-7.03-16.1-9.72-24.46-.85-2.65-3.76-7.56-.83-9.84.77-.6,1.81-.82,2.75-.59,1,.24,1.83.95,2.43,1.78.74,1.03,1.21,2.26,1.63,3.45,3.17,8.89,6.2,17.92,11.14,25.97.25.41.56.86,1.03.96,2.45.56-.4-6.5-.6-7.07-4.11-11.88-6.48-24.45-10.59-36.37-.53-1.54-1.08-3.16-.84-4.77.24-1.59,1.54-3.07,3.22-3.14,2.24-.1,3.18,2.22,3.97,3.92,2.35,5.04,3.18,10.59,5.18,15.76,2.54,6.56,5.06,13.08,6.67,19.95.12.52.3,1.11.79,1.31,1.51.61-.08-5.12-.23-5.72-2.11-8.35-3.23-16.84-4.86-25.28-.98-5.1-2.92-9.97-3.84-15.1-.2-1.22-.37-2.51.09-3.66.43-1.07,1.4-1.91,2.52-2.16,1.79-.41,3.27.6,4.1,2.12,3.89,7.16,5.72,15.79,7.9,23.59,1.04,3.71,2.04,7.45,2.75,11.24.35,1.9.65,3.81.81,5.73.16,1.93-.13,3.97.52,5.82.24.68.62,1.32,1.22,1.72.59.4,1.42.5,2.03.11.46-.29.72-.82.82-1.35.42-2.18-.22-4.86-.57-7.02-.41-2.49-.93-4.95-1.29-7.45-.6-4.2-1.18-8.41-1.77-12.61-.43-3.04-.85-6.07-1.28-9.11-.22-1.54-.43-3.13-.02-4.62.66-2.38,3.13-3.59,5.11-1.83,2.31,2.05,3.49,5.76,4.39,8.61,2.94,9.32,3.79,19.04,5.38,28.62.75,4.54,1.16,8.93,2.62,13.37,1.26,3.8,2.44,7.76,4.39,11.29.35.63,1.28.52,1.48-.17,1.76-6.19,1.34-12.93,3.59-19.04.57-1.55,1.33-3.07,2.53-4.21,1.4-1.33,3.27-2.02,5.12-2.55,1.9-.54,3.55.29,4.21,2.15.8,2.27-.34,4.64-.82,6.84-1.07,4.95-2.15,9.9-3.22,14.85-.49,2.26-1.29,4.57-1.17,6.88.13,2.51.1,5.02-.12,7.53-.26,2.89-.77,5.75-1.31,8.6-.83,4.39-1.76,8.77-3.06,13.05-1.28,4.19-3.32,8.05-4.67,12.2-2.76,8.48-4.01,17.39-4.59,26.26-.31,4.75-.43,9.51-.45,14.27-.04,9.18-.05,18.36-.06,27.54,0,7.57.84,15.12.61,22.7-.03.93.24,3.18-.41,3.96-1.51,1.83-9.12,2.07-11.56,2.55-.02,0-.05.01-.07.02-5.9,1.74-11.92,3.12-18,4.04-1.35.2-2.87.59-4.24.55-2.36-.07-1.72.49-2.14-1.62-.56-2.86.77-7.22,1.1-10.13,1.26-10.89,2.75-21.74,4.48-32.57Z"/>
      <path class="cls-5" d="M65.34,48.65c-.67-2.67-2.66-5.16-5.36-5.71-3.17-.65-6.37,1.53-7.95,4.35-1.58,2.82-1.91,6.15-2.2,9.36-1.3-2.87-2.67-5.84-5.08-7.88s-6.16-2.85-8.71-1c-1.92,1.39-2.72,3.97-2.46,6.32.26,2.35,1.42,4.52,2.78,6.46,4.06,5.8,10.13,10.16,16.92,12.17,4.58-5.04,9.83-9.32,11.58-15.91.7-2.66,1.15-5.49.48-8.16Z"/>
    </g>
  </g>
</svg>