<?xml version="1.0" encoding="UTF-8"?>
<svg id="Calque_1" data-name="Calque 1" xmlns="http://www.w3.org/2000/svg" xmlns:xlink="http://www.w3.org/1999/xlink" viewBox="0 0 116.22 116.22">
  <defs>
    <style>
      .cls-1 {
        clip-path: url(#clippath);
      }

      .cls-2, .cls-3 {
        fill: none;
      }

      .cls-2, .cls-4, .cls-5 {
        stroke-width: 0px;
      }

      .cls-6 {
        stroke: #000;
      }

      .cls-6, .cls-3 {
        stroke-miterlimit: 10;
      }

      .cls-3 {
        stroke: #fdfcf9;
        stroke-width: 2.05px;
      }

      .cls-4 {
        fill: #76b2b8;
      }

      .cls-5 {
        fill: #fdfcf9;
      }
    </style>
    <clipPath id="clippath">
      <path class="cls-2" d="M95.93,107.76c-12.37,15.23-62.39,9.12-81.95-22.92C-5.58,52.8,31.15,5.27,67.88.69c36.72-4.57,52.48,76.99,28.05,107.06Z"/>
    </clipPath>
  </defs>
  <g class="cls-1">
    <path class="cls-4" d="M95.93,107.76c-12.37,15.23-62.39,9.12-81.95-22.92C-5.58,52.8,31.15,5.27,67.88.69c36.72-4.57,52.48,76.99,28.05,107.06Z"/>
    <path class="cls-3" d="M7.76,60.72c10.91,0,10.92,8.13,21.83,8.12s10.9-8.14,21.81-8.15c10.91,0,10.92,8.13,21.83,8.12,10.91,0,10.91-8.14,21.82-8.15s10.92,8.13,21.83,8.12"/>
    <path class="cls-3" d="M7.76,40.37c10.91,0,10.92,8.13,21.83,8.12s10.9-8.14,21.81-8.15,10.92,8.13,21.83,8.12,10.91-8.14,21.82-8.15,10.92,8.13,21.83,8.12"/>
    <path class="cls-3" d="M7.76,81.08c10.91,0,10.92,8.13,21.83,8.12s10.9-8.14,21.81-8.15,10.92,8.13,21.83,8.12,10.91-8.14,21.82-8.15c10.91,0,10.92,8.13,21.83,8.12"/>
    <g>
      <path class="cls-6" d="M39.78,43.56c.66,5.45,3.34,10.18,7.21,13.51-.78-1-1.28-1.62-1.28-1.62,1.09,1.84,17.41,4.58,17.41,4.58,0,0,15.21-6.54,15.82-8.58,0,0-.34.72-.86,1.88,2.97-4.15,4.45-9.38,3.8-14.83-1.4-11.61-11.97-19.91-23.58-18.51-11.61,1.4-19.91,11.97-18.51,23.58ZM58.78,24.07c9.35-1.12,17.87,5.57,19,14.92,1.13,9.35-5.57,17.87-14.92,19-9.35,1.12-17.87-5.57-19-14.92-1.12-9.35,5.57-17.87,14.92-19Z"/>
      <path class="cls-6" d="M65.31,78.36l-9.14,4.14s.01-.05.02-.08c-1.08,2.03-1.58,4.39-1.28,6.83.77,6.37,6.57,10.92,12.93,10.16,6.37-.77,10.92-6.57,10.16-12.94-.29-2.45-1.34-4.62-2.86-6.33.01.02.02.05.04.07l-9.86-1.85ZM73.91,86.97c.49,4.11-2.45,7.86-6.56,8.35-4.11.49-7.86-2.45-8.35-6.56-.49-4.11,2.45-7.86,6.56-8.35,4.11-.49,7.86,2.45,8.35,6.56Z"/>
      <path class="cls-6" d="M63.11,60.03s-16.32-2.75-17.41-4.58c0,0,.5.62,1.28,1.62,2.17,2.79,6.53,8.56,8.36,12.25,2.47,4.97,1.75,9.54.85,13.1,0,.03-.01.05-.02.08l9.14-4.14,9.86,1.85s-.02-.05-.04-.07c-1.72-3.24-3.5-7.52-2.28-12.93.9-4.01,3.77-10.65,5.21-13.88.52-1.16.86-1.88.86-1.88-.62,2.04-15.82,8.58-15.82,8.58ZM69.51,62.05c-2.77,5.66-.44,12.5-.66,13.37-.22.87-8.14,1.82-8,.31.66-6.94-3.32-11.98-3.32-11.98-.7-2.06,12.56-2.87,11.98-1.7Z"/>
      <path class="cls-5" d="M57.53,63.75s3.98,5.05,3.32,11.98c-.14,1.51,7.78.55,8-.31.22-.87-2.11-7.71.66-13.37.57-1.17-12.68-.35-11.98,1.7Z"/>
    </g>
  </g>
</svg>