<?xml version="1.0" encoding="UTF-8"?>
<svg id="Calque_1" data-name="Calque 1" xmlns="http://www.w3.org/2000/svg" xmlns:xlink="http://www.w3.org/1999/xlink" viewBox="0 0 116.22 116.22">
  <defs>
    <style>
      .cls-1 {
        clip-path: url(#clippath);
      }

      .cls-2, .cls-3 {
        fill: #9b8e90;
      }

      .cls-4, .cls-3, .cls-5, .cls-6, .cls-7, .cls-8 {
        stroke-width: 0px;
      }

      .cls-5 {
        fill: #949398;
      }

      .cls-6 {
        fill: #c2cbc8;
      }

      .cls-7 {
        fill: #7c7c7f;
      }

      .cls-8 {
        fill: #fdfcf9;
      }
    </style>
    <clipPath id="clippath">
      <path class="cls-3" d="M41.9,3.33c17.25-9.34,61.14,15.44,66.95,52.52,5.81,37.08-46.31,66.95-81.99,57.13C-8.82,103.16,7.82,21.77,41.9,3.33Z"/>
    </clipPath>
  </defs>
  <g>
    <path class="cls-2" d="M41.9,3.33c17.25-9.34,61.14,15.44,66.95,52.52,5.81,37.08-46.31,66.95-81.99,57.13C-8.82,103.16,7.82,21.77,41.9,3.33Z"/>
    <g class="cls-1">
      <path class="cls-6" d="M41.9,3.33c17.25-9.34,61.14,15.44,66.95,52.52,5.81,37.08-46.31,66.95-81.99,57.13C-8.82,103.16,7.82,21.77,41.9,3.33Z"/>
      <g>
        <path class="cls-4" d="M54.22,38.97l1.13-1.26c-.38.42-.76.83-1.13,1.26Z"/>
        <path class="cls-7" d="M52.89,40.46c.49-.48.91-1,1.33-1.49l-1.33,1.49Z"/>
        <path class="cls-4" d="M93.77,72.57c-3.03-4.55-7.74-13.1-8.55-18.56-1.24-8.32-4.98-23.43-20.7-26.24l-6.65,7.21-2.51,2.72-1.13,1.26c-.43.49-.84,1.01-1.26,1.52,1.77.57,3.48,1.28,5.14,2.06,1.74.81,3.43,1.72,5.04,2.72,4.65,2.9,8.72,6.49,11.98,10.36,5.37,6.37,8.26,13.63,18.18,21.4.61-1.53.73-3.09.46-4.45ZM68.4,41.61c-2.18-.87-3.23-3.35-2.36-5.52.87-2.18,3.35-3.23,5.52-2.36,2.18.87,3.23,3.35,2.36,5.52-.87,2.18-3.35,3.23-5.52,2.36Z"/>
        <path class="cls-8" d="M31.17,92.25c6.04-18.32,15.54-36.48,26.93-49.7-1.66-.78-3.37-1.49-5.14-2.06-11.1,13.31-20.18,31.33-25.91,49.78,1.2.77,2.62,1.45,4.11,1.97Z"/>
        <path class="cls-4" d="M27.06,90.27c-3.21,10.34-5.38,20.82-6.23,30.67,1.19.89,2.85,1.47,3.73,1.58.9-9.58,3.21-19.95,6.61-30.27-1.5-.52-2.91-1.2-4.11-1.97Z"/>
        <path class="cls-4" d="M24.56,122.52c2.27.41,3.63-.25,4.68-1.04.78-9,3.08-18.67,6.42-28.25-1.48-.12-3.02-.47-4.49-.98-3.4,10.32-5.71,20.7-6.61,30.27Z"/>
        <path class="cls-8" d="M63.14,45.27c-1.61-1-3.29-1.91-5.04-2.72-11.39,13.21-20.9,31.37-26.93,49.7,1.47.51,3.01.86,4.49.98,6.31-18.04,16.4-35.74,27.47-47.96Z"/>
      </g>
    </g>
  </g>
  <circle class="cls-6" cx="88.43" cy="73.94" r="2.2"/>
  <circle class="cls-6" cx="84.8" cy="69.84" r="2.2"/>
  <circle class="cls-6" cx="81.69" cy="65.39" r="2.2"/>
  <circle class="cls-5" cx="52.86" cy="46.6" r="1.56"/>
  <circle class="cls-5" cx="49.56" cy="50.91" r="1.56"/>
  <polyline class="cls-4" points="60.31 33.46 43.82 15.71 45.6 13.9 64.52 27.78"/>
</svg>