<?xml version="1.0" encoding="UTF-8"?>
<svg id="Calque_1" data-name="Calque 1" xmlns="http://www.w3.org/2000/svg" viewBox="0 0 99.21 99.21">
  <defs>
    <style>
      .cls-1, .cls-2, .cls-3, .cls-4 {
        stroke-width: 0px;
      }

      .cls-2 {
        fill: #1e6688;
      }

      .cls-3 {
        fill: #00a2ce;
      }

      .cls-4 {
        fill: #fdfcf9;
      }
    </style>
  </defs>
  <rect class="cls-2" width="99.21" height="99.21" rx="5.67" ry="5.67"/>
  <g>
    <polygon class="cls-4" points="33.5 34.1 37.1 40.7 39.65 36.5 42.95 41.3 45.94 38.13 35.45 12.96 26.46 36.52 29.01 40.25 33.5 34.1"/>
    <polygon class="cls-4" points="62.9 45.65 65.3 50.3 66.65 45.95 69.65 50.75 72.43 48.22 63.95 29.3 57.35 48.1 60.2 51.05 62.9 45.65"/>
    <path class="cls-1" d="M69.65,50.75l-3-4.8-1.35,4.35-2.4-4.65-2.7,5.4-2.85-2.95-3.32,9.44,11.89,28.53c8.05-.88,15.33-2.57,21.31-4.85l-14.79-33-2.78,2.53Z"/>
    <path class="cls-3" d="M54.03,57.54l-8.09-19.41-2.99,3.17-3.3-4.8-2.55,4.2-3.6-6.6-4.5,6.15-2.54-3.74-15.54,40.73c9.13,5.73,24.64,9.5,42.23,9.5.84,0,1.68,0,2.52-.03,3.52-.07,6.95-.3,10.25-.66l-11.89-28.53Z"/>
  </g>
</svg>