<?xml version="1.0" encoding="UTF-8"?>
<svg id="Calque_1" data-name="Calque 1" xmlns="http://www.w3.org/2000/svg" xmlns:xlink="http://www.w3.org/1999/xlink" viewBox="0 0 116.22 116.22">
  <defs>
    <style>
      .cls-1 {
        fill: #7c7c7e;
      }

      .cls-2 {
        fill: #5c988b;
      }

      .cls-3 {
        fill: #5d978b;
      }

      .cls-4 {
        clip-path: url(#clippath);
      }

      .cls-5 {
        fill: #fcfbf8;
      }
    </style>
    <clipPath id="clippath">
      <path class="cls-3" d="M41.9,3.33c17.25-9.34,61.14,15.44,66.95,52.52,5.81,37.08-46.31,66.95-81.99,57.13C-8.82,103.16,7.82,21.77,41.9,3.33Z"/>
    </clipPath>
  </defs>
  <path class="cls-3" d="M41.9,3.33c17.25-9.34,61.14,15.44,66.95,52.52,5.81,37.08-46.31,66.95-81.99,57.13C-8.82,103.16,7.82,21.77,41.9,3.33Z"/>
  <g class="cls-4">
    <g>
      <g>
        <path d="M46,42.09l.35-1.66c-.12.55-.24,1.1-.35,1.66Z"/>
        <path class="cls-1" d="M45.58,44.04c.19-.66.29-1.32.41-1.96l-.41,1.96Z"/>
        <path d="M97.02,51.52c-4.9-2.44-13.24-7.51-16.66-11.83-5.22-6.59-15.99-17.83-31.02-12.44l-2.17,9.57-.82,3.61-.35,1.66c-.13.64-.22,1.3-.34,1.94,1.82-.39,3.65-.62,5.48-.78,1.92-.16,3.83-.22,5.72-.15,5.48.19,10.8,1.28,15.55,3.01,7.83,2.85,13.96,7.7,26.42,9.49-.23-1.63-.91-3.04-1.82-4.09ZM59.6,37.31c-2.32.33-4.47-1.29-4.8-3.61-.33-2.32,1.29-4.47,3.61-4.8,2.32-.33,4.47,1.29,4.8,3.61.33,2.32-1.29,4.47-3.61,4.8Z"/>
        <path class="cls-5" d="M52.55,99.76c-3.9-18.9-4.7-39.38-1.41-56.51-1.83.16-3.66.39-5.48.78-2.99,17.06-1.88,37.22,2.34,56.07,1.42.07,2.99-.05,4.55-.34Z"/>
        <path d="M48,100.1c2.37,10.57,5.71,20.73,9.88,29.69,1.48.18,3.21-.15,4.02-.49-3.99-8.75-7.16-18.9-9.35-29.54-1.56.29-3.13.41-4.55.34Z"/>
        <path d="M61.9,129.3c2.17-.78,3.02-2.03,3.54-3.24-3.81-8.19-6.64-17.72-8.5-27.69-1.35.63-2.86,1.1-4.39,1.39,2.19,10.64,5.36,20.79,9.35,29.54Z"/>
        <path class="cls-5" d="M56.87,43.1c-1.89-.07-3.81-.01-5.72.15-3.29,17.13-2.49,37.61,1.41,56.51,1.53-.29,3.04-.76,4.39-1.39-3.52-18.78-3.59-39.15-.07-55.27Z"/>
      </g>
      <circle class="cls-2" cx="93.08" cy="55.36" r="2.2"/>
      <circle class="cls-2" cx="87.89" cy="53.62" r="2.2"/>
      <circle class="cls-2" cx="82.97" cy="51.31" r="2.2"/>
      <circle class="cls-2" cx="48.61" cy="49.38" r="1.56"/>
      <circle class="cls-2" cx="47.9" cy="54.76" r="1.56"/>
      <polyline points="48.53 34.27 25.38 27.11 26.02 24.64 49.34 27.25"/>
    </g>
  </g>
</svg>