<?xml version="1.0" encoding="UTF-8"?>
<svg id="Calque_1" data-name="Calque 1" xmlns="http://www.w3.org/2000/svg" viewBox="0 0 99.21 99.21">
  <defs>
    <style>
      .cls-1 {
        fill: #59bdde;
      }

      .cls-1, .cls-2, .cls-3, .cls-4, .cls-5, .cls-6 {
        stroke-width: 0px;
      }

      .cls-1, .cls-2, .cls-6 {
        fill-rule: evenodd;
      }

      .cls-2, .cls-5 {
        fill: #fdfcf9;
      }

      .cls-4 {
        fill: #1e6688;
      }
    </style>
  </defs>
  <rect class="cls-4" x="-.45" y="0" width="99.21" height="99.21" rx="5.67" ry="5.67"/>
  <g>
    <g>
      <polygon class="cls-2" points="30.75 26 34.56 23.81 38.25 30.22 34.44 32.41 30.75 26"/>
      <path class="cls-6" d="M30.27,26.29l4.76-2.75c.38-.24.5-.71.3-1.09l-1.39-2.36c-.21-.35-.68-.5-1.06-.27l-4.76,2.72c-.35.24-.5.71-.27,1.09l1.36,2.36c.21.38.71.5,1.06.3h0Z"/>
      <polygon class="cls-2" points="67.57 26 63.76 23.81 60.06 30.22 63.87 32.41 67.57 26"/>
      <path class="cls-6" d="M68.04,26.29l-4.76-2.75c-.38-.24-.5-.71-.3-1.09l1.39-2.36c.21-.35.68-.5,1.06-.27l4.76,2.72c.35.24.5.71.27,1.09l-1.36,2.36c-.21.38-.71.5-1.06.3h0Z"/>
      <rect class="cls-5" x="46.61" y="16.75" width="5.08" height="8.6"/>
      <path class="cls-6" d="M49.16,22.54c16.99,0,30.76,13.77,30.76,30.76s-13.77,30.73-30.76,30.73-30.76-13.77-30.76-30.73,13.77-30.76,30.76-30.76h0Z"/>
      <path class="cls-2" d="M49.16,26.68c14.69,0,26.63,11.91,26.63,26.63s-11.94,26.6-26.63,26.6-26.63-11.91-26.63-26.6,11.94-26.63,26.63-26.63h0Z"/>
      <path class="cls-2" d="M62.96,30.55c1.39.83,2.66,1.77,3.87,2.84,4.34,4.02,7.09,9.78,7.09,16.19,0,12.18-9.87,22.02-22.05,22.02s-22.02-9.84-22.02-22.02,9.87-22.05,22.02-22.05c4.05,0,7.83,1.09,11.08,3.01h0Z"/>
      <path class="cls-6" d="M43.78,18.73h10.75c.55,0,1.01-.46,1.01-1.01v-3.54c0-.55-.46-1.01-1.01-1.01h-10.75c-.55,0-1.01.46-1.01,1.01v3.54c0,.55.46,1.01,1.01,1.01h0Z"/>
      <path class="cls-1" d="M49.16,53.31h-26.6c0-14.69,11.91-26.6,26.6-26.6v26.6Z"/>
      <path class="cls-1" d="M49.16,53.31h-19c-.18-1.21-.3-2.45-.3-3.72,0-11.23,8.42-20.51,19.3-21.87v25.59Z"/>
      <g>
        <path class="cls-4" d="M31.99,62.47l-4.49,2.6c-.3.18-.38.56-.21.86.15.3.53.41.86.24l4.46-2.6c.33-.18.41-.56.24-.86-.18-.3-.56-.38-.86-.24Z"/>
        <path class="cls-4" d="M39.73,69.59c-.3-.15-.68-.06-.86.24l-2.57,4.49c-.18.3-.09.68.24.86.3.18.68.06.86-.24l2.57-4.49c.18-.3.09-.68-.24-.86Z"/>
        <path class="cls-4" d="M32.61,43.02l-4.46-2.6c-.33-.18-.71-.06-.86.24-.18.3-.09.68.21.86l4.49,2.6c.3.18.68.06.86-.24.18-.3.09-.68-.24-.86Z"/>
        <path class="cls-3" d="M66.33,44.11l4.49-2.6c.3-.18.38-.56.21-.86-.15-.3-.56-.41-.86-.24l-4.46,2.6c-.33.18-.41.56-.24.86.18.3.56.41.86.24Z"/>
        <path class="cls-4" d="M30.33,53.31c0-.35-.3-.65-.62-.65h-5.2c-.33,0-.62.3-.62.65,0,.33.3.62.62.62h5.2c.33,0,.62-.3.62-.62Z"/>
        <path class="cls-4" d="M37.39,31.64c-.18-.3-.56-.41-.86-.24-.33.18-.41.56-.24.86l2.57,4.49c.18.3.56.41.86.24.33-.18.41-.56.24-.86l-2.57-4.49Z"/>
        <path class="cls-4" d="M70.82,65.07l-4.49-2.6c-.3-.15-.68-.06-.86.24-.18.3-.09.68.24.86l4.46,2.6c.3.18.71.06.86-.24.18-.3.09-.68-.21-.86Z"/>
        <path class="cls-3" d="M61.78,31.41c-.3-.18-.68-.06-.86.24l-2.57,4.49c-.18.3-.09.68.24.86.3.18.68.06.86-.24l2.57-4.49c.18-.3.09-.68-.24-.86Z"/>
        <path class="cls-4" d="M73.8,52.65h-5.2c-.33,0-.62.3-.62.65,0,.33.3.62.62.62h5.2c.33,0,.62-.3.62-.62,0-.35-.3-.65-.62-.65Z"/>
        <path class="cls-4" d="M59.44,69.82c-.18-.3-.56-.38-.86-.24-.33.18-.41.56-.24.86l2.57,4.49c.18.3.56.41.86.24.33-.18.41-.56.24-.86l-2.57-4.49Z"/>
        <path class="cls-4" d="M49.16,72.13c-.35,0-.62.27-.62.62v5.17c0,.35.27.62.62.62s.62-.27.62-.62v-5.17c0-.35-.27-.62-.62-.62Z"/>
        <path class="cls-3" d="M49.16,28.04c-.35,0-.62.27-.62.62v5.17c0,.35.27.62.62.62s.62-.27.62-.62v-5.17c0-.35-.27-.62-.62-.62Z"/>
      </g>
      <g>
        <path class="cls-4" d="M32.61,43.02l-1.48-.86c-.15.41-.27.8-.38,1.21l1.24.74c.3.18.68.06.86-.24.18-.3.09-.68-.24-.86Z"/>
        <path class="cls-4" d="M37.9,32.56c-.33.27-.65.53-.95.83l1.92,3.37c.18.3.56.41.86.24.33-.18.41-.56.24-.86l-2.07-3.58Z"/>
        <path class="cls-4" d="M49.16,28.04c-.35,0-.62.27-.62.62v5.17c0,.35.27.62.62.62s.62-.27.62-.62v-5.17c0-.35-.27-.62-.62-.62Z"/>
        <path class="cls-4" d="M66.33,44.11l4.49-2.6c.3-.18.38-.56.21-.86-.15-.3-.56-.41-.86-.24l-4.46,2.6c-.33.18-.41.56-.24.86.18.3.56.41.86.24Z"/>
        <path class="cls-4" d="M30.21,53.63c.09-.09.12-.21.12-.33,0-.21-.09-.38-.24-.5.03.27.09.56.12.83Z"/>
        <path class="cls-4" d="M65.47,62.7c-.18.3-.09.68.24.86l2.13,1.24c.3-.33.56-.65.86-.98l-2.36-1.36c-.3-.15-.68-.06-.86.24Z"/>
        <path class="cls-4" d="M68.6,52.65c-.33,0-.62.3-.62.65,0,.33.3.62.62.62h4.88c.09-.41.18-.83.24-1.27h-5.11Z"/>
        <path class="cls-4" d="M58.58,69.59c-.33.18-.41.56-.24.86l.09.18c.41-.12.8-.27,1.21-.41l-.21-.38c-.18-.3-.56-.38-.86-.24Z"/>
        <path class="cls-4" d="M61.78,31.41c-.3-.18-.68-.06-.86.24l-2.57,4.49c-.18.3-.09.68.24.86.3.18.68.06.86-.24l2.57-4.49c.18-.3.09-.68-.24-.86Z"/>
      </g>
      <path class="cls-6" d="M49.16,48.72c2.51,0,4.58,2.04,4.58,4.58s-2.07,4.55-4.58,4.55-4.58-2.04-4.58-4.55,2.07-4.58,4.58-4.58h0Z"/>
      <path class="cls-2" d="M49.16,51.41c1.03,0,1.86.86,1.86,1.89s-.83,1.86-1.86,1.86-1.86-.86-1.86-1.86.83-1.89,1.86-1.89h0Z"/>
    </g>
    <g>
      <polygon class="cls-3" points="34.78 38.17 45.75 51.92 47.14 50.53 34.78 38.17"/>
      <polygon class="cls-3" points="34.78 38.17 48.52 49.14 47.14 50.53 34.78 38.17"/>
    </g>
  </g>
</svg>