<?xml version="1.0" encoding="UTF-8"?>
<svg id="Calque_1" data-name="Calque 1" xmlns="http://www.w3.org/2000/svg" xmlns:xlink="http://www.w3.org/1999/xlink" viewBox="0 0 116.22 116.22">
  <defs>
    <style>
      .cls-1 {
        clip-path: url(#clippath);
      }

      .cls-2, .cls-3 {
        fill: none;
      }

      .cls-2, .cls-4, .cls-5, .cls-6, .cls-7, .cls-8 {
        stroke-width: 0px;
      }

      .cls-3 {
        stroke: #fff;
      }

      .cls-3, .cls-9 {
        stroke-miterlimit: 10;
      }

      .cls-4, .cls-6 {
        fill: #fdfcf9;
      }

      .cls-4, .cls-8 {
        fill-rule: evenodd;
      }

      .cls-5 {
        fill: #1d1d1b;
      }

      .cls-7 {
        fill: #448657;
      }

      .cls-9 {
        stroke: #1d1d1b;
        stroke-width: 1.77px;
      }
    </style>
    <clipPath id="clippath">
      <path class="cls-2" d="M95.93,107.76c-12.37,15.23-62.39,9.12-81.95-22.92C-5.58,52.8,31.15,5.27,67.88.69c36.72-4.57,52.48,76.99,28.05,107.06Z"/>
    </clipPath>
  </defs>
  <g class="cls-1">
    <path class="cls-7" d="M95.93,107.76c-12.37,15.23-62.39,9.12-81.95-22.92C-5.58,52.8,31.15,5.27,67.88.69c36.72-4.57,52.48,76.99,28.05,107.06Z"/>
    <g>
      <path class="cls-9" d="M53.95,22.72h16.37c1.96,0,3.79.51,5.4,1.37,1.69.91,3.12,2.23,4.25,3.82,1.02,1.48,1.77,3.2,2.18,5.03.38,1.77.46,3.66.13,5.59l-2.82,18.22-1.61,10.35-2.66,17.15c-.54,3.49-3.04,5.89-6.34,7.23-2.02.83-4.35,1.24-6.72,1.24s-4.68-.4-6.69-1.24c-3.31-1.34-5.78-3.74-6.34-7.23l-2.66-17.15-3.6-23.22-.83-5.35c-.3-1.94-.24-3.82.13-5.59h0c.4-1.83,1.13-3.55,2.18-5.03,1.13-1.59,2.55-2.9,4.22-3.82,1.64-.86,3.47-1.37,5.43-1.37h0ZM62.12,27.56h-8.17c-1.16,0-2.2.27-3.14.78-.99.54-1.88,1.34-2.55,2.31-.67.97-1.16,2.07-1.42,3.31h0c-.24,1.21-.3,2.53-.08,3.84l.83,5.35,3.6,23.22,2.66,17.12c.24,1.61,1.59,2.8,3.39,3.52,1.45.59,3.17.89,4.89.89s3.44-.3,4.92-.89c1.8-.73,3.15-1.91,3.39-3.52l2.66-17.12,1.61-10.38,2.85-18.2c.19-1.32.16-2.61-.11-3.84-.27-1.24-.75-2.34-1.42-3.31-.7-.97-1.56-1.77-2.55-2.31-.94-.51-1.99-.78-3.14-.78h-8.2Z"/>
      <path class="cls-6" d="M78.09,65.49l-.24,1.61-1.08,7.02c-2.47.16-3.87-.7-4.65-1.51l.97-6.24.13-.81,4.87-.08Z"/>
      <g>
        <path class="cls-6" d="M72.77,82.93c-.11.65-.32,1.21-.62,1.72-.32.56-.75,1.08-1.26,1.51l.97,1.1c.62-.54,1.16-1.18,1.56-1.88.38-.67.65-1.4.78-2.2l.7-4.44-1.42-.21-.7,4.41Z"/>
        <path class="cls-6" d="M80.75,31.78c-.35-1.08-.89-2.07-1.51-2.96-.19-.27-.38-.51-.56-.75-.21-.24-.43-.46-.65-.67l-1.02,1.02c.22.19.38.38.56.59.16.19.32.4.48.65.56.78,1.02,1.67,1.34,2.61.32.91.51,1.94.59,2.96l1.42-.08c-.05-1.16-.3-2.28-.67-3.36Z"/>
      </g>
      <path class="cls-4" d="M77.07,39.38l5.05.78c1.1.19,1.85,1.21,1.67,2.31l-4.01,26.02c-.4,2.47-2.74,4.19-5.24,3.82h0c-2.47-.38-4.19-2.74-3.82-5.21l4.03-26.02c.19-1.1,1.21-1.85,2.31-1.69h0Z"/>
      <path class="cls-4" d="M77.07,39.38l2.53.4-5.05,32.53c-2.47-.38-4.19-2.74-3.82-5.21l4.03-26.02c.19-1.1,1.21-1.85,2.31-1.69h0Z"/>
      <g>
        <path class="cls-4" d="M75.27,64.52c1.77,0,3.23,1.42,3.23,3.23s-1.45,3.25-3.23,3.25-3.25-1.45-3.25-3.25,1.45-3.23,3.25-3.23h0Z"/>
        <path class="cls-8" d="M75.27,65.46c1.26,0,2.28,1.02,2.28,2.28s-1.02,2.28-2.28,2.28-2.28-1.02-2.28-2.28,1.02-2.28,2.28-2.28h0Z"/>
        <path class="cls-4" d="M75.27,66.53c.67,0,1.21.54,1.21,1.21s-.54,1.21-1.21,1.21-1.21-.54-1.21-1.21.54-1.21,1.21-1.21h0Z"/>
      </g>
    </g>
    <rect class="cls-5" x="56.3" y="82.31" width="12.02" height="35.63"/>
    <line class="cls-3" x1="62.06" y1="82.31" x2="62.06" y2="119.04"/>
  </g>
</svg>