<?xml version="1.0" encoding="UTF-8"?>
<svg id="Calque_1" data-name="Calque 1" xmlns="http://www.w3.org/2000/svg" xmlns:xlink="http://www.w3.org/1999/xlink" viewBox="0 0 99.21 99.21">
  <defs>
    <style>
      .cls-1 {
        clip-path: url(#clippath);
      }

      .cls-2 {
        fill: none;
      }

      .cls-2, .cls-3, .cls-4, .cls-5, .cls-6 {
        stroke-width: 0px;
      }

      .cls-4 {
        fill: #59bdde;
      }

      .cls-5 {
        fill: #1e6688;
      }

      .cls-6 {
        fill: #fdfcf9;
      }
    </style>
    <clipPath id="clippath">
      <rect class="cls-2" y="0" width="99.21" height="99.21" rx="5.67" ry="5.67"/>
    </clipPath>
  </defs>
  <g class="cls-1">
    <rect class="cls-5" y="0" width="99.21" height="99.21" rx="5.67" ry="5.67"/>
    <g>
      <g>
        <path class="cls-6" d="M47.81,100.89v-15.92c0-14.9-12.08-26.99-26.99-26.99h0c-14.9,0-26.99,12.08-26.99,26.99v15.92h53.97Z"/>
        <circle class="cls-6" cx="20.82" cy="45.35" r="9.47" transform="translate(-25.97 28) rotate(-45)"/>
      </g>
      <g>
        <path class="cls-4" d="M105.09,100.89v-15.92c0-14.9-12.08-26.99-26.99-26.99h0c-14.9,0-26.99,12.08-26.99,26.99v15.92h53.97Z"/>
        <circle class="cls-4" cx="78.11" cy="45.35" r="9.47" transform="translate(21.27 115.53) rotate(-81.13)"/>
      </g>
      <g>
        <path class="cls-3" d="M69.18,105.73v-11.63c0-10.89-8.83-19.72-19.72-19.72h0c-10.89,0-19.72,8.83-19.72,19.72v11.63h39.44Z"/>
        <path class="cls-3" d="M56.38,65.15c0,3.82-3.1,6.92-6.92,6.92s-6.92-3.1-6.92-6.92,3.1-6.92,6.92-6.92,6.92,3.1,6.92,6.92Z"/>
      </g>
    </g>
    <path class="cls-4" d="M62.32,20.36c-.3-1.9-1.54-3.76-3.39-4.31-2.17-.65-4.54.68-5.81,2.55-1.28,1.87-1.71,4.17-2.11,6.4-.73-2.08-1.51-4.24-3.06-5.81-1.55-1.57-4.12-2.37-6.02-1.23-1.42.85-2.14,2.6-2.1,4.26.04,1.66.72,3.24,1.54,4.67,2.48,4.29,6.44,7.71,11.06,9.53,3.51-3.24,7.43-5.9,9.05-10.39.65-1.81,1.14-3.76.84-5.66Z"/>
  </g>
</svg>