<?xml version="1.0" encoding="UTF-8"?>
<svg id="Calque_1" data-name="Calque 1" xmlns="http://www.w3.org/2000/svg" xmlns:xlink="http://www.w3.org/1999/xlink" viewBox="0 0 99.21 99.21">
  <defs>
    <style>
      .cls-1 {
        clip-path: url(#clippath);
      }

      .cls-2, .cls-3, .cls-4 {
        fill: none;
      }

      .cls-2, .cls-5, .cls-6, .cls-7, .cls-8, .cls-9 {
        stroke-width: 0px;
      }

      .cls-3 {
        stroke-width: 1.27px;
      }

      .cls-3, .cls-4 {
        stroke: #fff;
        stroke-miterlimit: 10;
      }

      .cls-4 {
        stroke-width: 1.79px;
      }

      .cls-6 {
        fill: #1e6688;
      }

      .cls-7 {
        fill: #00a2ce;
      }

      .cls-8 {
        fill: #fdfcf9;
      }

      .cls-9 {
        fill: #fff;
      }
    </style>
    <clipPath id="clippath">
      <rect class="cls-2" width="99.21" height="99.21" rx="5.67" ry="5.67"/>
    </clipPath>
  </defs>
  <g class="cls-1">
    <rect class="cls-6" width="99.21" height="99.21" rx="5.67" ry="5.67"/>
    <g>
      <g>
        <path class="cls-8" d="M119.57,74.23l-50.03,16.74c-2.12.71-4.41-.43-5.12-2.55l-2.85-8.53-3.13-9.37-1.83-5.46-3.14-9.4-1.74-5.21-3.14-9.38-4.84-14.46c-.71-2.12.43-4.41,2.55-5.12l11.61-3.88,24.16-8.08,14.27-4.77c2.12-.71,4.41.43,5.12,2.55l20.68,61.81c.71,2.12-.43,4.41-2.55,5.12Z"/>
        <path class="cls-7" d="M83.06,15.15l-2.6-7.77c-.14-.42-.7-.61-1.24-.43l-2.88.96c-1.52-2.59-5.35-3.67-9.11-2.42-3.76,1.26-6.17,4.43-5.82,7.41l-2.88.96c-.54.18-.87.67-.73,1.09l2.6,7.77c.14.41.68.6,1.2.42l20.76-6.94c.53-.18.84-.65.71-1.06Z"/>
      </g>
      <g>
        <rect class="cls-5" x="32.9" y="27.21" width="69.17" height="13.04" rx="6.52" ry="6.52" transform="translate(-6.12 17.16) rotate(-13.87)"/>
        <g>
          <g>
            <path class="cls-3" d="M48.9,41.82c.12.47-.18.95-.65,1.07l-6.57,1.62c-.47.11-.95-.18-1.07-.65l-1.61-6.57c-.12-.47.17-.95.65-1.07l6.57-1.61c.47-.12.95.17,1.07.65l1.62,6.57Z"/>
            <path class="cls-9" d="M43.68,42.17c-.15.04-.31.03-.46-.05l-1.84-.99c-.3-.16-.41-.53-.25-.82.16-.3.53-.41.82-.25l1.3.7,2.11-3.9c.16-.3.53-.41.82-.25.3.16.41.53.25.82l-2.4,4.44c-.08.15-.21.25-.36.29Z"/>
          </g>
          <g>
            <line class="cls-4" x1="52.62" y1="34.99" x2="73.07" y2="29.94"/>
            <line class="cls-4" x1="53.75" y1="39.48" x2="97.62" y2="28.65"/>
          </g>
        </g>
      </g>
      <g>
        <rect class="cls-7" x="28.38" y="47.84" width="69.17" height="13.04" rx="6.52" ry="6.52" transform="translate(-11.2 16.68) rotate(-13.87)"/>
        <g>
          <path class="cls-3" d="M44.38,62.46c.12.47-.18.95-.65,1.07l-6.57,1.62c-.47.11-.95-.18-1.07-.65l-1.61-6.57c-.12-.47.17-.95.65-1.07l6.57-1.61c.47-.12.95.17,1.07.65l1.62,6.57Z"/>
          <g>
            <line class="cls-4" x1="48.1" y1="55.62" x2="68.55" y2="50.58"/>
            <line class="cls-4" x1="49.23" y1="60.11" x2="93.1" y2="49.28"/>
          </g>
        </g>
      </g>
      <g>
        <rect class="cls-7" x="23.86" y="68.48" width="69.17" height="13.04" rx="6.52" ry="6.52" transform="translate(-16.27 16.2) rotate(-13.87)"/>
        <g>
          <path class="cls-3" d="M39.86,83.09c.12.47-.18.95-.65,1.07l-6.57,1.62c-.47.11-.95-.18-1.07-.65l-1.61-6.57c-.12-.47.17-.95.65-1.07l6.57-1.61c.47-.12.95.17,1.07.65l1.62,6.57Z"/>
          <g>
            <line class="cls-4" x1="43.58" y1="76.26" x2="64.03" y2="71.21"/>
            <line class="cls-4" x1="44.71" y1="80.75" x2="88.58" y2="69.91"/>
          </g>
        </g>
      </g>
    </g>
  </g>
</svg>