<?xml version="1.0" encoding="UTF-8" standalone="no"?>
<svg
   xmlns:dc="http://purl.org/dc/elements/1.1/"
   xmlns:cc="http://creativecommons.org/ns#"
   xmlns:rdf="http://www.w3.org/1999/02/22-rdf-syntax-ns#"
   xmlns:svg="http://www.w3.org/2000/svg"
   xmlns="http://www.w3.org/2000/svg"
   xmlns:sodipodi="http://sodipodi.sourceforge.net/DTD/sodipodi-0.dtd"
   xmlns:inkscape="http://www.inkscape.org/namespaces/inkscape"
   inkscape:version="1.0 (4035a4fb49, 2020-05-01)"
   sodipodi:docname="handicaf.svg"
   version="1.1"
   viewBox="0 0 99.21 99.21"
   data-name="Calque 1"
   id="Calque_1">
  <metadata
     id="metadata41">
    <rdf:RDF>
      <cc:Work
         rdf:about="">
        <dc:format>image/svg+xml</dc:format>
        <dc:type
           rdf:resource="http://purl.org/dc/dcmitype/StillImage" />
        <dc:title></dc:title>
      </cc:Work>
    </rdf:RDF>
  </metadata>
  <sodipodi:namedview
     inkscape:current-layer="Calque_1"
     inkscape:window-maximized="0"
     inkscape:window-y="0"
     inkscape:window-x="0"
     inkscape:cy="48.071988"
     inkscape:cx="10.004686"
     inkscape:zoom="2.61931"
     showgrid="false"
     id="namedview39"
     inkscape:window-height="926"
     inkscape:window-width="1013"
     inkscape:pageshadow="2"
     inkscape:pageopacity="0"
     guidetolerance="10"
     gridtolerance="10"
     objecttolerance="10"
     borderopacity="1"
     bordercolor="#666666"
     pagecolor="#ffffff" />
  <defs
     id="defs4">
    <style
       id="style2">
      .cls-1 {
        stroke-width: 3.61px;
      }

      .cls-1, .cls-2 {
        fill: none;
        stroke: #1e6688;
        stroke-miterlimit: 10;
      }

      .cls-2 {
        stroke-width: 1.65px;
      }

      .cls-3, .cls-4, .cls-5 {
        stroke-width: 0px;
      }

      .cls-4 {
        fill: #ded4d0;
      }

      .cls-5 {
        fill: #fdfcf9;
      }
    </style>
    <clipPath
       id="clippath">
      <path
         class="cls-2"
         d="M 95.93,107.76 C 83.56,122.99 33.54,116.88 13.98,84.84 -5.58,52.8 31.15,5.27 67.88,0.69 104.6,-3.88 120.36,77.68 95.93,107.75 Z"
         id="path94" />
    </clipPath>
  </defs>
  <g
     style="fill:none;stroke:#1e6688;stroke-width:3.61px;stroke-miterlimit:10"
     transform="matrix(0.98653106,0,0,0.86092122,-7.6944182,-0.77857505)"
     class="cls-1"
     clip-path="url(#clippath)"
     id="g117">
    <path
       style="fill:#ded4d0;fill-opacity:1"
       class="cls-4"
       d="M 95.93,107.76 C 83.56,122.99 33.54,116.88 13.98,84.84 -5.58,52.8 31.15,5.27 67.88,0.69 104.6,-3.88 120.36,77.68 95.93,107.75 Z"
       id="path99" />
    <g
       id="g115" />
  </g>
  <g
     transform="matrix(0.90983939,0,0,0.90983939,4.431845,4.471968)"
     id="g34">
    <g
       id="g20">
      <path
         id="path8"
         d="m 27.28,64.44 c 0,12.85 10.42,23.27 23.27,23.27 12.85,0 23.27,-10.42 23.27,-23.27 0,-12.85 -10.42,-23.27 -23.27,-23.27 -12.85,0 -23.27,10.42 -23.27,23.27 z m 2.99,0 c 0,-11.2 9.08,-20.28 20.28,-20.28 11.2,0 20.28,9.08 20.28,20.28 0,11.2 -9.08,20.28 -20.28,20.28 -11.2,0 -20.28,-9.08 -20.28,-20.28 z"
         class="cls-3" />
      <path
         id="path10"
         d="m 48.15,64.44 c 0,1.32 1.07,2.4 2.4,2.4 1.33,0 2.4,-1.07 2.4,-2.4 0,-1.33 -1.07,-2.4 -2.4,-2.4 -1.33,0 -2.4,1.07 -2.4,2.4 z"
         class="cls-3" />
      <path
         id="path12"
         d="m 50.55,86.45 c -0.08,0 -0.15,-0.07 -0.15,-0.15 V 41.98 c 0,-0.08 0.07,-0.15 0.15,-0.15 0.08,0 0.15,0.07 0.15,0.15 V 86.3 c 0,0.08 -0.07,0.15 -0.15,0.15 z"
         class="cls-3" />
      <path
         id="path14"
         d="M 72.71,64.28 H 28.39 c -0.08,0 -0.15,-0.07 -0.15,-0.15 0,-0.08 0.07,-0.15 0.15,-0.15 h 44.32 c 0.08,0 0.15,0.07 0.15,0.15 0,0.08 -0.07,0.15 -0.15,0.15 z"
         class="cls-3" />
      <path
         id="path16"
         d="m 34.88,79.96 c 0,0 -0.08,-0.01 -0.11,-0.04 -0.06,-0.06 -0.06,-0.15 0,-0.21 L 66.11,48.37 c 0.06,-0.06 0.15,-0.06 0.21,0 0.06,0.06 0.06,0.15 0,0.21 L 34.98,79.92 c 0,0 -0.07,0.04 -0.11,0.04 z"
         class="cls-3" />
      <path
         id="path18"
         d="m 66.22,79.96 c 0,0 -0.08,-0.01 -0.11,-0.04 L 34.77,48.58 c -0.06,-0.06 -0.06,-0.15 0,-0.21 0.06,-0.06 0.15,-0.06 0.21,0 l 31.34,31.34 c 0.06,0.06 0.06,0.15 0,0.21 -0.03,0.03 -0.07,0.04 -0.11,0.04 z"
         class="cls-3" />
    </g>
    <g
       id="g30">
      <path
         id="path22"
         d="M 52.47,53.51 H 19.62 V 45.2 c 0,-3.84 3.11,-6.95 6.95,-6.95 h 34.51 v 6.65 c 0,4.75 -3.85,8.61 -8.61,8.61 z"
         class="cls-3" />
      <path
         id="path24"
         d="m 60.66,41.1 -6.49,-0.95 1.58,-27.48 c 0.04,-0.73 0.69,-1.26 1.41,-1.17 l 6.68,0.83 c 0.7,0.09 1.2,0.74 1.09,1.44 L 60.67,41.1 Z"
         class="cls-3" />
      <polyline
         id="polyline26"
         points="-.45 52.03 41.66 52.03 60.15 33.55 98.76 33.55"
         class="cls-1" />
      <path
         id="path28"
         d="M 64.5,33.61 H 41.6 c -8.94,0 -16.18,7.24 -16.18,16.18 v 3.09"
         class="cls-1" />
    </g>
    <polyline
       id="polyline32"
       points="33.23 51.88 50.68 64.06 79.33 34.05"
       class="cls-2" />
  </g>
  <circle
     id="circle36"
     r="3.04"
     cy="64.42"
     cx="50.61"
     class="cls-5" />
</svg>
