<?xml version="1.0" encoding="UTF-8"?>
<svg id="Calque_1" data-name="Calque 1" xmlns="http://www.w3.org/2000/svg" viewBox="0 0 99.21 99.21">
  <defs>
    <style>
      .cls-1 {
        fill: none;
        stroke: #fff;
        stroke-linecap: round;
        stroke-miterlimit: 10;
        stroke-width: 1.83px;
      }

      .cls-2, .cls-3, .cls-4, .cls-5, .cls-6 {
        stroke-width: 0px;
      }

      .cls-3 {
        fill: #59bdde;
      }

      .cls-4 {
        fill: #1e6688;
      }

      .cls-5 {
        fill: #00a2ce;
      }

      .cls-6 {
        fill: #fdfcf9;
      }
    </style>
  </defs>
  <rect class="cls-4" x="-.45" width="99.21" height="99.21" rx="5.67" ry="5.67"/>
  <g>
    <g>
      <g id="calendar">
        <path class="cls-6" d="M98.66,79.93H25.53V17.49h73.13c0,20.82,0,41.63,0,62.45Z"/>
        <path class="cls-2" d="M98.66,31.9H25.53v-14.41h73.13c0,4.8,0,9.61,0,14.41Z"/>
        <path class="cls-3" d="M55.13,43.49h-6.02v-6.02h6.02v6.02Z"/>
        <path class="cls-3" d="M65.04,43.49h-6.02c0-2.01,0-4.01,0-6.02h6.02c0,2.01,0,4.01,0,6.02Z"/>
        <path class="cls-3" d="M75.04,43.49h-6.02c0-2.01,0-4.01,0-6.02h6.02v6.02Z"/>
        <path class="cls-5" d="M85.03,43.49h-6.02v-6.02h6.02v6.02Z"/>
        <path class="cls-5" d="M95.03,43.49h-6.02v-6.02h6.02v6.02Z"/>
        <path class="cls-3" d="M35.13,52.98h-6.02v-6.02h6.02c0,2.01,0,4.01,0,6.02Z"/>
        <path class="cls-2" d="M45.13,52.98h-6.02v-6.02h6.02v6.02Z"/>
        <path class="cls-3" d="M55.13,52.98h-6.02v-6.02h6.02v6.02Z"/>
        <path class="cls-3" d="M65.04,52.98h-6.02c0-2.01,0-4.01,0-6.02h6.02c0,2.01,0,4.01,0,6.02Z"/>
        <path class="cls-3" d="M75.04,52.98h-6.02c0-2.01,0-4.01,0-6.02h6.02v6.02Z"/>
        <path class="cls-5" d="M85.03,52.98h-6.02v-6.02h6.02v6.02Z"/>
        <path class="cls-5" d="M95.03,52.98h-6.02v-6.02h6.02v6.02Z"/>
        <path class="cls-3" d="M35.13,62.48c-2.01,0-4.01,0-6.02,0v-6.02h6.02c0,2.01,0,4.01,0,6.02Z"/>
        <path class="cls-3" d="M45.13,62.48c-2.01,0-4.01,0-6.02,0v-6.02h6.02v6.02Z"/>
        <path class="cls-3" d="M55.13,62.48c-2.01,0-4.01,0-6.02,0v-6.02h6.02v6.02Z"/>
        <path class="cls-3" d="M65.04,62.48c-2.01,0-4.01,0-6.02,0,0-2.01,0-4.01,0-6.02h6.02c0,2.01,0,4.01,0,6.02Z"/>
        <path class="cls-3" d="M75.04,62.48c-2.01,0-4.01,0-6.02,0,0-2.01,0-4.01,0-6.02h6.02v6.02Z"/>
        <path class="cls-5" d="M85.03,62.48c-2.01,0-4.01,0-6.02,0v-6.02h6.02v6.02Z"/>
        <path class="cls-5" d="M95.03,62.48c-2.01,0-4.01,0-6.02,0v-6.02h6.02v6.02Z"/>
        <path class="cls-3" d="M35.13,71.97c-2.01,0-4.01,0-6.02,0v-6.02c2.01,0,4.01,0,6.02,0,0,2.01,0,4.01,0,6.02Z"/>
        <path class="cls-3" d="M45.13,71.97c-2.01,0-4.01,0-6.02,0v-6.02c2.01,0,4.01,0,6.02,0v6.02Z"/>
        <path class="cls-3" d="M55.13,71.97c-2.01,0-4.01,0-6.02,0v-6.02c2.01,0,4.01,0,6.02,0v6.02Z"/>
        <path class="cls-3" d="M65.04,71.97c-2.01,0-4.01,0-6.02,0,0-2.01,0-4.01,0-6.02,2.01,0,4.01,0,6.02,0,0,2.01,0,4.01,0,6.02Z"/>
        <path class="cls-3" d="M75.04,71.97c-2.01,0-4.01,0-6.02,0,0-2.01,0-4.01,0-6.02,2.01,0,4.01,0,6.02,0v6.02Z"/>
      </g>
      <path class="cls-2" d="M48.44,42.58c-4.29-2.63-10.01-1.29-13.79,1.65-3.65,2.84-3.8,8.6.11,11.3,3.89,2.69,10.42,3.2,14.31.16,1.75-1.36,3.86-4.1,3.12-6.51-.85-2.74-3.32-3.89-5.92-4.64-.73-.21-1.04.92-.31,1.13,2.74.79,5.78,2.28,4.93,5.68-.56,2.28-2.75,3.79-4.8,4.55-3.57,1.31-8.2.7-11.14-1.73-3.94-3.25-1.38-8.12,2.15-10.21,3.12-1.85,7.58-2.31,10.74-.37.65.4,1.23-.62.59-1.01h0Z"/>
    </g>
    <g>
      <g>
        <circle class="cls-3" cx="39.03" cy="24.65" r="2.4"/>
        <line class="cls-1" x1="39.03" y1="24.39" x2="39.03" y2="14.4"/>
      </g>
      <g>
        <circle class="cls-3" cx="85.15" cy="24.65" r="2.4"/>
        <line class="cls-1" x1="85.15" y1="24.39" x2="85.15" y2="14.4"/>
      </g>
    </g>
  </g>
</svg>