<?xml version="1.0" encoding="UTF-8"?>
<svg id="Calque_1" data-name="Calque 1" xmlns="http://www.w3.org/2000/svg" viewBox="0 0 99.21 99.21">
  <defs>
    <style>
      .cls-1 {
        stroke-linecap: round;
      }

      .cls-1, .cls-2 {
        stroke-width: 1.06px;
      }

      .cls-1, .cls-2, .cls-3 {
        stroke: #fdfcf9;
      }

      .cls-1, .cls-2, .cls-3, .cls-4 {
        fill: none;
      }

      .cls-1, .cls-4 {
        stroke-miterlimit: 10;
      }

      .cls-2 {
        stroke-dasharray: 0 0 1.06 1.58;
      }

      .cls-2, .cls-3 {
        stroke-linejoin: round;
      }

      .cls-3 {
        stroke-width: .85px;
      }

      .cls-3, .cls-5, .cls-6, .cls-7, .cls-4, .cls-8 {
        fill-rule: evenodd;
      }

      .cls-5, .cls-6, .cls-7, .cls-9, .cls-10, .cls-11, .cls-8 {
        stroke-width: 0px;
      }

      .cls-5, .cls-10 {
        fill: #1e6688;
      }

      .cls-6 {
        fill: #fdfcf9;
      }

      .cls-7, .cls-11 {
        fill: #00a2ce;
      }

      .cls-4 {
        stroke: #1e6688;
        stroke-width: 1.14px;
      }
    </style>
  </defs>
  <rect class="cls-10" width="99.21" height="99.21" rx="5.67" ry="5.67"/>
  <g>
    <g>
      <rect class="cls-9" x="33.45" y="16.42" width="9.57" height="12.1" rx="1.67" ry="1.67"/>
      <rect class="cls-9" x="56.04" y="16.42" width="9.57" height="12.1" rx="1.67" ry="1.67"/>
    </g>
    <path class="cls-8" d="M73.4,38.03v35.32c0,4.88-4,8.88-8.91,8.88h-29.74c-4.91,0-8.91-4-8.91-8.88v-35.32"/>
    <path class="cls-7" d="M72.43,77.36c-1.47,2.91-4.5,4.88-7.94,4.88h-29.74c-3.44,0-6.47-1.97-7.94-4.88h45.62Z"/>
    <path class="cls-11" d="M73.29,42.69v-9.66c0-7.07-6.13-12.8-13.69-12.8h-20.14c-7.56,0-13.69,5.73-13.69,12.8v9.66c6.43,2.54,14.7,4.06,23.78,4.06s17.31-1.52,23.74-4.05Z"/>
    <path class="cls-4" d="M75.38,41.52c-6.66,3.25-15.74,5.23-25.75,5.23s-19.12-1.98-25.78-5.23"/>
    <path class="cls-10" d="M33.63,60.01h31.98v7.06c0,3.3-2.68,5.98-5.98,5.98h-20.02c-3.3,0-5.98-2.68-5.98-5.98v-7.06h0Z"/>
    <path class="cls-7" d="M34.08,59.28h31.09c.44,0,.79.35.79.76h0c0,.41-.35.76-.79.76h-31.09c-.44,0-.79-.35-.79-.76h0c0-.41.35-.76.79-.76h0Z"/>
    <g>
      <path class="cls-6" d="M20.52,47.15h5.32v21.24h-1.97c-1.85,0-3.35-1.53-3.35-3.38v-17.85Z"/>
      <path class="cls-6" d="M78.72,47.15h-5.32v21.24h1.97c1.85,0,3.35-1.53,3.35-3.38v-17.85Z"/>
      <path class="cls-7" d="M25.84,45.18h-6.15v3c0,1.32,1.09,2.41,2.41,2.41h3.74v-5.41Z"/>
      <path class="cls-7" d="M73.4,45.18h6.15v3c0,1.32-1.09,2.41-2.41,2.41h-3.74v-5.41Z"/>
    </g>
    <g>
      <g>
        <polygon class="cls-5" points="56.42 38.01 62.16 38.01 62.16 53.97 59.31 56.83 59.31 56.83 56.42 53.97 56.42 38.01"/>
        <path class="cls-3" d="M56.18,48.19h6.21v2.77h-6.21v-2.77Z"/>
        <rect class="cls-9" x="55.11" y="35.15" width="8.37" height="3.56" rx=".64" ry=".64"/>
        <line class="cls-2" x1="59.29" y1="41.19" x2="59.29" y2="54.24"/>
      </g>
      <g>
        <polygon class="cls-5" points="37.08 38.01 42.82 38.01 42.82 53.97 39.97 56.83 39.97 56.83 37.08 53.97 37.08 38.01"/>
        <path class="cls-3" d="M36.84,48.19h6.21v2.77h-6.21v-2.77Z"/>
        <rect class="cls-9" x="35.77" y="35.15" width="8.37" height="3.56" rx=".64" ry=".64"/>
        <line class="cls-2" x1="39.95" y1="41.19" x2="39.95" y2="54.24"/>
      </g>
    </g>
    <path class="cls-6" d="M59.15,58.61c.88,0,1.59.71,1.59,1.59s-.71,1.59-1.59,1.59-1.59-.71-1.59-1.59.71-1.59,1.59-1.59h0Z"/>
    <path class="cls-6" d="M59.15,61.16h0c.21,0,.42.05.58.13.13.08.26.21.26.34.05.42.11.87.18,1.4.08.61.16,1.32.26,2.13.05.34-.05.68-.29.95-.24.29-.61.45-1,.45h0c-.4,0-.76-.16-1-.45-.24-.26-.34-.61-.29-.95.11-.82.18-1.53.26-2.13.08-.53.13-.97.18-1.4.03-.13.13-.26.29-.34.13-.08.34-.13.55-.13h0Z"/>
    <line class="cls-1" x1="38.03" y1="27.71" x2="62.66" y2="27.71"/>
  </g>
</svg>