<?xml version="1.0" encoding="UTF-8"?>
<svg id="Calque_1" data-name="Calque 1" xmlns="http://www.w3.org/2000/svg" xmlns:xlink="http://www.w3.org/1999/xlink" viewBox="0 0 116.22 116.22">
  <defs>
    <style>
      .cls-1 {
        clip-path: url(#clippath);
      }

      .cls-2 {
        fill: none;
      }

      .cls-2, .cls-3, .cls-4, .cls-5, .cls-6 {
        stroke-width: 0px;
      }

      .cls-3, .cls-5 {
        fill: #fdfcf9;
      }

      .cls-3, .cls-6 {
        fill-rule: evenodd;
      }

      .cls-4 {
        fill: #acb69e;
      }
    </style>
    <clipPath id="clippath">
      <path class="cls-2" d="M41.9,3.33c17.25-9.34,61.14,15.44,66.95,52.52,5.81,37.08-46.31,66.95-81.99,57.13C-8.82,103.16,7.82,21.77,41.9,3.33Z"/>
    </clipPath>
  </defs>
  <g class="cls-1">
    <path class="cls-4" d="M41.9,3.33c17.25-9.34,61.14,15.44,66.95,52.52,5.81,37.08-46.31,66.95-81.99,57.13C-8.82,103.16,7.82,21.77,41.9,3.33Z"/>
    <g>
      <path class="cls-5" d="M67.57,29.58c1.01,2.28,1.79,4.86,2.58,7.49,1.49,4.95,3.02,9.89,5.87,11.64,1.18.74,2.5.79,3.68.35.61-.22,1.27-.57,1.79-1.01.57-.48,1.05-1.05,1.44-1.66.88-1.44,1.23-3.2.61-4.9-1.09-3.24-5.73-6.22-10.37-9.19-2.67-1.66-5.3-3.37-7.4-5.21l1.49-1.71c1.97,1.71,4.55,3.37,7.14,5.03,4.99,3.15,9.94,6.35,11.29,10.33.83,2.41.39,4.86-.83,6.83-.53.83-1.18,1.62-1.93,2.23-.74.61-1.62,1.14-2.49,1.44-1.79.61-3.81.53-5.6-.61-3.63-2.19-5.25-7.53-6.87-12.91-.74-2.54-1.53-5.08-2.5-7.18l2.1-.96Z"/>
      <path class="cls-5" d="M42.13,29.58c-1.01,2.28-1.79,4.86-2.58,7.49-1.49,4.95-3.02,9.89-5.87,11.64-1.18.74-2.5.79-3.68.35-.61-.22-1.27-.57-1.79-1.01-.57-.48-1.05-1.05-1.44-1.66-.88-1.44-1.23-3.2-.61-4.9,1.09-3.24,5.73-6.22,10.37-9.19,2.67-1.66,5.3-3.37,7.4-5.21l-1.49-1.71c-1.97,1.71-4.55,3.37-7.14,5.03-4.99,3.15-9.94,6.35-11.29,10.33-.83,2.41-.39,4.86.83,6.83.53.83,1.18,1.62,1.93,2.23s1.62,1.14,2.49,1.44c1.79.61,3.81.53,5.6-.61,3.63-2.19,5.25-7.53,6.87-12.91.74-2.54,1.53-5.08,2.5-7.18l-2.1-.96Z"/>
      <path class="cls-6" d="M61.79,21.74h2.45c1.97,0,3.59,1.66,3.59,3.63v20.05c0,.61-.48,1.09-1.14,1.09h-4.9c-.61,0-1.14-.48-1.14-1.09v-22.54c0-.61.53-1.14,1.14-1.14h0Z"/>
      <path class="cls-6" d="M61.79,21.74h1.36v24.78h-1.36c-.61,0-1.14-.48-1.14-1.09v-22.54c0-.61.53-1.14,1.14-1.14h0Z"/>
      <path class="cls-6" d="M61.04,46.52h6.39c.44,0,.79.35.79.79h0c0,.44-.35.79-.79.79h-6.39c-.39,0-.79-.35-.79-.79h0c0-.44.39-.79.79-.79h0Z"/>
      <path class="cls-6" d="M61.66,48.09h4.99v41.63c0,.53-.44.92-.96.92h-3.06c-.53,0-.96-.39-.96-.92v-41.63Z"/>
      <path class="cls-3" d="M65.47,138.57v-47.93h-2.63v47.93c0,.88,2.63.88,2.63,0h0Z"/>
      <polygon class="cls-6" points="61.66 48.09 66.65 48.09 66.65 53.7 61.66 49.45 61.66 48.09"/>
      <path class="cls-6" d="M47.87,21.74h-2.41c-2.01,0-3.63,1.66-3.63,3.63v20.05c0,.61.53,1.09,1.14,1.09h4.9c.61,0,1.14-.48,1.14-1.09v-22.54c0-.61-.53-1.14-1.14-1.14h0Z"/>
      <path class="cls-6" d="M47.87,21.74h-1.36v24.78h1.36c.61,0,1.14-.48,1.14-1.09v-22.54c0-.61-.53-1.14-1.14-1.14h0Z"/>
      <path class="cls-6" d="M48.61,46.52h-6.39c-.44,0-.79.35-.79.79h0c0,.44.35.79.79.79h6.39c.44,0,.79-.35.79-.79h0c0-.44-.35-.79-.79-.79h0Z"/>
      <path class="cls-6" d="M48,48.09h-4.95v41.63c0,.53.44.92.96.92h3.06c.53,0,.92-.39.92-.92v-41.63Z"/>
      <path class="cls-3" d="M44.23,138.57v-47.93h2.63v47.93c0,.88-2.63.88-2.63,0h0Z"/>
      <polygon class="cls-6" points="48 48.09 43.05 48.09 43.05 53.7 48 49.45 48 48.09"/>
    </g>
  </g>
</svg>