<?xml version="1.0" encoding="UTF-8"?>
<svg id="Calque_1" data-name="Calque 1" xmlns="http://www.w3.org/2000/svg" xmlns:xlink="http://www.w3.org/1999/xlink" viewBox="0 0 116.22 116.22">
  <defs>
    <style>
      .cls-1 {
        fill: #73b3bc;
      }

      .cls-2 {
        fill: #fff;
      }

      .cls-3 {
        clip-path: url(#clippath);
      }
    </style>
    <clipPath id="clippath">
      <path class="cls-1" d="M41.46,3.58c17.25-9.34,61.14,15.44,66.95,52.52,5.81,37.08-46.31,66.95-81.99,57.13C-9.26,103.41,7.38,22.02,41.46,3.58Z"/>
    </clipPath>
  </defs>
  <g>
    <path class="cls-1" d="M41.46,3.58c17.25-9.34,61.14,15.44,66.95,52.52,5.81,37.08-46.31,66.95-81.99,57.13C-9.26,103.41,7.38,22.02,41.46,3.58Z"/>
    <g class="cls-3">
      <g>
        <g>
          <path class="cls-2" d="M15.32,80.59c-.07-.26-.41-.44-.62-.58-.25-.16-.56-.36-.85-.45-.03-.03-.07-.04-.1-.03,0,0,0,0,0,0-.16-.03-.3.07-.31.24,0,.02,0,.03,0,.05-.12.15-.23.31-.28.5-.07.25-.11.67-.01.92.18.46.82.62,1.26.47.42-.15,1.08-.58.93-1.12ZM14.83,80.93c-.1.14-.33.26-.48.35-.26.15-.82.14-.92-.23-.04-.16-.02-.49.01-.64.03-.14.1-.27.18-.39.34.11.67.26.97.46.18.12.39.22.22.45Z"/>
          <path class="cls-2" d="M17.14,87.3c-.3.06-.61.07-.82.32-.19.23-.19.49,0,.73.21.26.52.27.82.32.45.08.9-.2.9-.69s-.45-.77-.9-.69Z"/>
          <path class="cls-2" d="M18.03,72.71c-.42,0-.42.65,0,.65s.42-.65,0-.65Z"/>
          <path class="cls-2" d="M40.38,28.17c-.42,0-.42.65,0,.65s.42-.65,0-.65Z"/>
          <path class="cls-2" d="M34.81,109.65c-.42,0-.42.65,0,.65s.42-.65,0-.65Z"/>
          <path class="cls-2" d="M30.29,76.04v.3c0,.42.65.42.65,0v-.3c0-.42-.65-.42-.65,0Z"/>
          <g>
            <path class="cls-2" d="M59.74,13.53c1.04.83,2.26,1.51,3.38,2.23,1.19.76,2.42,1.79,3.71,2.35.09.04.23-.05.15-.15-.77-1.06-2.04-1.89-3.09-2.65-1.16-.85-2.53-1.74-3.9-2.21-.24-.08-.46.27-.26.44Z"/>
            <path class="cls-2" d="M60.25,18.04c1.17-.31,2.19-1.05,3.24-1.65-.07,1.07-.21,2.23.2,3.21.02.04.08.04.1,0,.44-1.03.29-2.22.37-3.32,0-.09.02-.17.03-.26.97-.49,1.98-.93,2.74-1.69.2-.2,0-.54-.27-.47-.86.23-1.62.72-2.37,1.21.14-1.05.31-2.12.28-3.16,0-.36-.52-.44-.62-.09-.35,1.18-.38,2.49-.42,3.73-.08.05-.16.1-.23.15-1.08.65-2.31,1.15-3.21,2.05-.12.12,0,.33.17.29Z"/>
          </g>
          <g>
            <path class="cls-2" d="M95.66,76.39c-1.25-.45-2.63-.69-3.93-1-1.38-.33-2.88-.9-4.28-1-.1,0-.2.12-.09.19,1.08.75,2.54,1.11,3.79,1.49,1.38.42,2.96.81,4.41.81.25,0,.35-.41.1-.5Z"/>
            <path class="cls-2" d="M93.71,72.3c-1.01.67-1.73,1.71-2.53,2.62-.28-1.03-.53-2.17-1.24-2.96-.03-.03-.09,0-.09.03-.08,1.11.45,2.18.73,3.25.02.08.04.17.06.26-.76.77-1.57,1.52-2.05,2.49-.12.25.18.51.41.36.74-.49,1.3-1.2,1.85-1.92.21,1.04.4,2.1.76,3.07.12.33.63.24.62-.12-.05-1.23-.45-2.47-.82-3.66.06-.07.11-.15.17-.22.82-.96,1.82-1.84,2.38-2.98.08-.15-.11-.31-.25-.22Z"/>
          </g>
          <path class="cls-2" d="M49.18,99.81c.52,0,.52-.8,0-.8s-.52.8,0,.8Z"/>
          <path class="cls-2" d="M26.18,107.24c-.58,0-.58.9,0,.9s.58-.9,0-.9Z"/>
          <path class="cls-2" d="M22.78,28.77c-1.16,0-1.16,1.8,0,1.8s1.16-1.8,0-1.8Z"/>
          <path class="cls-2" d="M73.59,99.95c-1.16,0-1.16,1.8,0,1.8s1.16-1.8,0-1.8Z"/>
        </g>
        <g>
          <g>
            <path class="cls-2" d="M20.14,39.6c-.42,0-.42.65,0,.65s.42-.65,0-.65Z"/>
            <path class="cls-2" d="M20.14,33.9c-.42,0-.42.65,0,.65s.42-.65,0-.65Z"/>
            <g>
              <path class="cls-2" d="M26.35,43.41c-.64,1.16-1.1,2.48-1.62,3.71-.55,1.31-1.35,2.69-1.69,4.06-.02.09.09.21.18.12.91-.94,1.51-2.33,2.09-3.5.64-1.29,1.28-2.79,1.52-4.22.04-.25-.35-.41-.48-.18Z"/>
              <path class="cls-2" d="M22.01,44.67c.5,1.11,1.41,1.99,2.17,2.92-1.07.11-2.23.17-3.13.74-.03.02-.02.09.02.1,1.08.26,2.23-.09,3.33-.2.09,0,.17,0,.26-.02.64.87,1.25,1.8,2.13,2.43.23.16.53-.09.42-.35-.37-.81-.98-1.48-1.59-2.14,1.06-.04,2.13-.05,3.15-.25.35-.07.34-.58-.02-.63-1.22-.15-2.51.05-3.74.21-.06-.07-.13-.14-.19-.21-.82-.96-1.52-2.09-2.55-2.83-.14-.1-.33.06-.26.21Z"/>
            </g>
            <path class="cls-2" d="M97.99,48.89c-.01.05-.02.11-.04.16-.04.18.21.25.27.08.19-.55.31-1.1-.28-1.43-.46-.26-1.22-.4-1.66-.02-1.06.92,1.02,2,1.71,1.22ZM96.93,47.89c.26-.03.62.04.85.19.17.11.24.24.25.4-.05-.03-.1-.04-.16,0-.33.17-.58.23-.95.13-.11-.03-.3-.08-.38-.18-.25-.32.15-.5.39-.52Z"/>
            <path class="cls-2" d="M87.6,50.75c.52,0,.52-.8,0-.8s-.52.8,0,.8Z"/>
          </g>
          <g>
            <g>
              <path class="cls-2" d="M24.17,92.75c-.64-.86-1.45-1.64-2.18-2.43-.77-.84-1.52-1.9-2.41-2.6-.06-.05-.19,0-.15.09.38.99,1.2,1.89,1.87,2.71.73.9,1.62,1.88,2.59,2.53.17.11.42-.12.29-.29Z"/>
              <path class="cls-2" d="M24.69,89.13c-.98,0-1.92.37-2.87.62.28-.82.62-1.7.5-2.55,0-.03-.06-.05-.08-.02-.55.71-.68,1.67-.97,2.51-.02.07-.05.13-.08.2-.85.18-1.74.32-2.49.75-.19.11-.11.42.11.42.72,0,1.41-.22,2.1-.46-.32.79-.68,1.59-.87,2.41-.07.28.31.45.47.2.52-.85.8-1.86,1.09-2.83.07-.02.14-.05.21-.07.98-.28,2.04-.42,2.93-.94.12-.07.07-.26-.07-.26Z"/>
            </g>
            <path class="cls-2" d="M24.88,75.55c-.38-.05-.6.16-.71.45,0,0,0,0,0,0-.33.45-.44,1.01.16,1.26.28.12.58.19.86.04.28-.15.46-.42.55-.72.19-.63-.29-.96-.86-1.04ZM25.28,76.42c-.07.37-.36.57-.71.46-.06-.02-.11-.04-.15-.07.09-.19.13-.69.32-.77.08-.03.34.04.41.08.14.06.16.15.14.3Z"/>
            <path class="cls-2" d="M43.83,27.24c-.14-.05-.33-.07-.53-.05,0,0,.01-.02.02-.03.16-.17-.09-.43-.26-.26-.16.16-.3.33-.4.52-.12.1-.18.23-.16.4,0,.03-.02.05-.02.08-.08.36-.13.85.06,1.18.39.72,1.41.4,1.74-.2.32-.6.28-1.37-.43-1.64ZM43.8,28.69c-.16.26-.62.5-.86.16-.09-.13-.08-.36-.08-.5,0-.18.03-.34.07-.5.05-.05.1-.1.17-.13.17-.07.47-.04.63.05.33.2.24.63.06.92Z"/>
            <path class="cls-2" d="M32.22,27.93c-.55-.27-.85.44-.68.89.05.13.25.16.3,0,.06-.23.04-.63.38-.42.29.18.18.51-.02.73-.2.22-.34.26-.62.21-.44-.09-.33-.47-.28-.81.02-.13-.16-.18-.2-.05-.1.42-.22.96.32,1.12.23.06.44.14.67.02.21-.11.44-.31.55-.53.26-.5.05-.93-.42-1.16Z"/>
            <path class="cls-2" d="M71.39,92.59l-.25-.23c-.16-.15-.39-.23-.61-.16-.23.08-.36.2-.44.44-.07.22.01.45.16.61l.23.25c.56.6,1.5-.34.9-.9Z"/>
            <path class="cls-2" d="M61.24,13.98c.29,0,.38-.31.27-.5h-.54c-.11.19-.02.5.27.5Z"/>
            <path class="cls-2" d="M107.02,102.03s-.09,0-.09.03"/>
            <path class="cls-2" d="M68,31.8c.71,0,1.39-.62,1.35-1.36-.03-.73-.59-1.36-1.35-1.36-.71,0-1.39.62-1.35,1.36.03.73.59,1.36,1.35,1.36Z"/>
            <path class="cls-2" d="M74.85,22.9c.52,0,.52-.8,0-.8s-.52.8,0,.8Z"/>
            <path class="cls-2" d="M44.64,14.94c-1.16,0-1.16,1.8,0,1.8s1.16-1.8,0-1.8Z"/>
            <g>
              <path class="cls-2" d="M92.8,39.98c.14-1.32.05-2.72.05-4.05,0-1.42.2-3.01-.02-4.4-.02-.1-.16-.16-.21-.05-.48,1.22-.49,2.73-.57,4.03-.09,1.44-.1,3.07.24,4.48.06.25.48.24.51-.02Z"/>
              <path class="cls-2" d="M96.31,37.13c-.89-.83-2.07-1.28-3.13-1.85.94-.51,1.99-1.02,2.59-1.89.02-.03-.01-.09-.05-.08-1.1.18-2.02.95-2.99,1.47-.08.04-.16.08-.23.12-.93-.56-1.85-1.18-2.9-1.41-.27-.06-.45.29-.25.48.65.61,1.47.99,2.29,1.35-.96.45-1.94.87-2.81,1.45-.3.2-.09.67.26.57,1.19-.34,2.29-1.02,3.37-1.65.08.04.17.08.25.12,1.13.57,2.21,1.34,3.45,1.62.17.04.28-.18.15-.3Z"/>
            </g>
            <path class="cls-2" d="M90.12,45.93c-.06.15-.09.31-.11.46l.6-.25c-.06-.09-.12-.18-.19-.26-.08-.09-.27-.06-.31.05Z"/>
            <g>
              <path class="cls-2" d="M36.44,104.01c.98-.89,1.85-1.99,2.73-2.99.94-1.06,2.15-2.11,2.9-3.3.05-.08-.01-.23-.13-.17-1.17.59-2.18,1.72-3.1,2.63-1.02,1.02-2.11,2.23-2.8,3.5-.12.22.2.5.39.32Z"/>
              <path class="cls-2" d="M40.96,104.23c-.12-1.21-.69-2.33-1.11-3.47,1.04.24,2.16.56,3.2.31.04,0,.05-.08.02-.1-.94-.59-2.14-.64-3.21-.89-.08-.02-.17-.05-.25-.07-.32-1.03-.6-2.11-1.23-2.98-.16-.23-.53-.08-.51.19.08.89.45,1.72.82,2.54-1.02-.3-2.03-.64-3.07-.79-.35-.05-.51.44-.19.6,1.11.54,2.39.77,3.61,1.01.04.09.08.17.11.26.46,1.17.76,2.47,1.5,3.5.1.14.33.05.31-.12Z"/>
            </g>
            <path class="cls-2" d="M38.7,100.8v.37c0,.52.8.52.8,0v-.37c0-.52-.8-.52-.8,0Z"/>
          </g>
        </g>
      </g>
    </g>
  </g>
  <path d="M96.37,57.2h-8.02l2.75-2.75c.46-.46.46-1.19,0-1.65-.46-.46-1.19-.46-1.65,0l-4.4,4.4h-8.02l5.23-5.23c.46-.46.46-1.19,0-1.65-.46-.46-1.19-.46-1.65,0l-6.88,6.88h-6.94l-2.7-2.7h5.33c.64,0,1.17-.52,1.17-1.17,0-.64-.52-1.17-1.17-1.17h-3.89l2.69-2.69h6.23c.64,0,1.17-.52,1.17-1.17s-.52-1.17-1.17-1.17h-3.89l2.69-2.69h6.23c.64,0,1.17-.52,1.17-1.17s-.52-1.17-1.17-1.17h-3.89l2.69-2.69h6.23c.64,0,1.17-.52,1.17-1.17,0-.64-.52-1.17-1.17-1.17h-3.89l5.84-5.84c.46-.46.46-1.19,0-1.65-.46-.46-1.19-.46-1.65,0l-5.84,5.84v-3.89c0-.64-.52-1.17-1.17-1.17-.64,0-1.17.52-1.17,1.17v6.23l-2.69,2.69v-3.89c0-.64-.52-1.17-1.17-1.17s-1.17.52-1.17,1.17v6.23l-2.69,2.69v-3.89c0-.64-.52-1.17-1.17-1.17s-1.17.52-1.17,1.17v6.23s-2.69,2.69-2.69,2.69v-3.89c0-.64-.52-1.17-1.17-1.17-.64,0-1.17.52-1.17,1.17v5.33s-2.7-2.7-2.7-2.7v-6.94l6.88-6.88c.46-.46.46-1.19,0-1.65-.46-.46-1.19-.46-1.65,0l-5.23,5.23v-8.02l4.4-4.4c.46-.46.46-1.19,0-1.65-.46-.46-1.19-.46-1.65,0l-2.75,2.75v-8.02c0-.64-.52-1.17-1.17-1.17s-1.17.52-1.17,1.17v8.02l-2.75-2.75c-.46-.46-1.19-.46-1.65,0-.46.46-.46,1.19,0,1.65l4.4,4.4v8.02l-5.23-5.23c-.46-.46-1.19-.46-1.65,0-.46.46-.46,1.19,0,1.65l6.88,6.88v6.94l-2.7,2.7v-5.33c0-.64-.52-1.17-1.17-1.17-.64,0-1.17.52-1.17,1.17v3.89l-2.69-2.69v-6.23c0-.64-.52-1.17-1.17-1.17s-1.17.52-1.17,1.17v3.89s-2.69-2.69-2.69-2.69v-6.23c0-.64-.52-1.17-1.17-1.17s-1.17.52-1.17,1.17v3.89l-2.69-2.69v-6.23c0-.64-.52-1.17-1.17-1.17-.64,0-1.17.52-1.17,1.17v3.89l-5.84-5.84c-.46-.46-1.19-.46-1.65,0-.46.46-.46,1.19,0,1.65l5.84,5.84h-3.89c-.64,0-1.17.52-1.17,1.17,0,.64.52,1.17,1.17,1.17h6.23l2.69,2.69h-3.89c-.64,0-1.17.52-1.17,1.17s.52,1.17,1.17,1.17h6.23s2.69,2.69,2.69,2.69h-3.89c-.64,0-1.17.52-1.17,1.17s.52,1.17,1.17,1.17h6.23l2.69,2.69h-3.89c-.64,0-1.17.52-1.17,1.17,0,.64.52,1.17,1.17,1.17h5.34l-2.7,2.7h-6.94l-6.88-6.88c-.46-.46-1.19-.46-1.65,0-.46.46-.46,1.19,0,1.65l5.23,5.23h-8.02l-4.4-4.4c-.46-.46-1.19-.46-1.65,0-.46.46-.46,1.19,0,1.65l2.75,2.75h-8.02c-.64,0-1.17.52-1.17,1.17s.52,1.17,1.17,1.17h8.02l-2.75,2.75c-.46.46-.46,1.19,0,1.65.46.46,1.19.46,1.65,0l4.4-4.4h8.02l-5.23,5.23c-.46.46-.46,1.19,0,1.65.46.46,1.19.46,1.65,0l6.88-6.88h6.94l2.7,2.7h-5.34c-.64,0-1.17.52-1.17,1.17,0,.64.52,1.17,1.17,1.17h3.89l-2.69,2.69h-6.23c-.64,0-1.17.52-1.17,1.17s.52,1.17,1.17,1.17h3.89s-2.69,2.69-2.69,2.69h-6.23c-.64,0-1.17.52-1.17,1.17s.52,1.17,1.17,1.17h3.89s-2.69,2.69-2.69,2.69h-6.23c-.64,0-1.17.52-1.17,1.17,0,.64.52,1.17,1.17,1.17h3.89l-5.84,5.84c-.46.46-.46,1.19,0,1.65.46.46,1.19.46,1.65,0l5.84-5.84v3.89c0,.64.52,1.17,1.17,1.17.64,0,1.17-.52,1.17-1.17v-6.23l2.69-2.69v3.89c0,.64.52,1.17,1.17,1.17s1.17-.52,1.17-1.17v-6.23s2.69-2.69,2.69-2.69v3.89c0,.64.52,1.17,1.17,1.17s1.17-.52,1.17-1.17v-6.23l2.69-2.69v3.89c0,.64.52,1.17,1.17,1.17.64,0,1.17-.52,1.17-1.17v-5.33l2.7,2.7v6.94l-6.88,6.88c-.46.46-.46,1.19,0,1.65.46.46,1.19.46,1.65,0l5.23-5.23v8.02l-4.4,4.4c-.46.46-.46,1.19,0,1.65.46.46,1.19.46,1.65,0l2.75-2.75v8.02c0,.64.52,1.17,1.17,1.17s1.17-.52,1.17-1.17v-8.02l2.75,2.75c.46.46,1.19.46,1.65,0,.46-.46.46-1.19,0-1.65l-4.4-4.4v-8.02l5.23,5.23c.46.46,1.19.46,1.65,0,.46-.46.46-1.19,0-1.65l-6.88-6.88v-6.94l2.7-2.7v5.33c0,.64.52,1.17,1.17,1.17.64,0,1.17-.52,1.17-1.17v-3.89l2.69,2.69v6.23c0,.64.52,1.17,1.17,1.17s1.17-.52,1.17-1.17v-3.89s2.69,2.69,2.69,2.69v6.23c0,.64.52,1.17,1.17,1.17s1.17-.52,1.17-1.17v-3.89s2.69,2.69,2.69,2.69v6.23c0,.64.52,1.17,1.17,1.17.64,0,1.17-.52,1.17-1.17v-3.89l5.84,5.84c.46.46,1.19.46,1.65,0,.46-.46.46-1.19,0-1.65l-5.84-5.84h3.89c.64,0,1.17-.52,1.17-1.17,0-.64-.52-1.17-1.17-1.17h-6.23l-2.69-2.69h3.89c.64,0,1.17-.52,1.17-1.17s-.52-1.17-1.17-1.17h-6.23l-2.69-2.69h3.89c.64,0,1.17-.52,1.17-1.17s-.52-1.17-1.17-1.17h-6.23s-2.69-2.69-2.69-2.69h3.89c.64,0,1.17-.52,1.17-1.17,0-.64-.52-1.17-1.17-1.17h-5.33s2.7-2.7,2.7-2.7h6.94l6.88,6.88c.46.46,1.19.46,1.65,0,.46-.46.46-1.19,0-1.65l-5.23-5.23h8.02l4.4,4.4c.46.46,1.19.46,1.65,0,.46-.46.46-1.19,0-1.65l-2.75-2.75h8.02c.64,0,1.17-.52,1.17-1.17s-.52-1.17-1.17-1.17ZM58.43,64.3c-.21.21-.48.32-.76.35-.28-.02-.55-.14-.76-.35l-5.18-5.18c-.21-.21-.32-.48-.35-.76.02-.28.14-.55.35-.76l5.18-5.18c.21-.21.48-.32.76-.35.28.02.55.14.76.35l5.18,5.18c.21.21.32.48.35.76-.02.28-.14.55-.35.76l-5.18,5.18Z"/>
</svg>