<?xml version="1.0" encoding="UTF-8"?>
<svg id="Calque_1" data-name="Calque 1" xmlns="http://www.w3.org/2000/svg" xmlns:xlink="http://www.w3.org/1999/xlink" viewBox="0 0 116.22 116.22">
  <defs>
    <style>
      .cls-1 {
        clip-path: url(#clippath);
      }

      .cls-2, .cls-3 {
        fill: #f3eadc;
      }

      .cls-3, .cls-4, .cls-5, .cls-6 {
        stroke-width: 0px;
      }

      .cls-4 {
        fill: #1d1d1b;
      }

      .cls-5 {
        fill: #dcc887;
      }

      .cls-6 {
        fill: #fff;
      }
    </style>
    <clipPath id="clippath">
      <path class="cls-3" d="M95.93,107.76c-12.37,15.23-62.39,9.12-81.95-22.92C-5.58,52.8,31.15,5.27,67.88.69c36.72-4.57,52.48,76.99,28.05,107.06Z"/>
    </clipPath>
  </defs>
  <path class="cls-2" d="M95.93,107.76c-12.37,15.23-62.39,9.12-81.95-22.92C-5.58,52.8,31.15,5.27,67.88.69c36.72-4.57,52.48,76.99,28.05,107.06Z"/>
  <g class="cls-1">
    <path class="cls-5" d="M95.93,107.76c-12.37,15.23-62.39,9.12-81.95-22.92C-5.58,52.8,31.15,5.27,67.88.69c36.72-4.57,52.48,76.99,28.05,107.06Z"/>
    <g>
      <path class="cls-6" d="M40.28,12.05c-.04-.17,0,.04.03.15.04.25.08.51.13.76.14.87.28,1.73.42,2.6.43,2.74.85,5.47,1.25,8.22.82,5.62,1.77,11.32,2.02,17,.03.64.06,1.35-.02,1.95-.22,1.46-.78,2.87-.55,4.41.21,1.38.58,2.49.52,3.9-.08,1.88-.35,3.76-.68,5.61-.34,1.87-.76,3.74-1.33,5.55-.5,1.59-1.15,3.81-2.96,4.27-3.34.84-6.97.98-10.39,1.28-5.19.45-10.38.65-15.59.67-3.12.01-6.23,0-9.35-.04-.91,0-1.82-.02-2.73-.03-.19,0-.41.02-.6,0-.14-.02-.07.06-.31-.07-.52-.27-.4-.89.28-.89.39,0,.39-1.25,0-1.25-1.46,0-1.81,2.19-.92,3.07.81.8,2.94.42,3.93.43,5.7.06,11.41.14,17.11-.09,4.68-.19,9.37-.58,14.02-1.13,1.55-.18,3.17-.32,4.69-.72,1.66-.44,2.37-2.24,2.91-3.71,1.33-3.65,2.06-7.62,2.39-11.48.11-1.34.24-2.76-.04-4.08-.19-.92-.54-1.75-.42-2.71.11-.88.41-1.72.55-2.6.3-1.93-.04-4.05-.23-5.97-.32-3.28-.76-6.54-1.21-9.8-.5-3.61-1.04-7.21-1.6-10.8-.26-1.69-.43-3.45-.83-5.12-.19-.79-.57.23-.47.63h0Z"/>
      <path class="cls-6" d="M38.86,67.66c4.27,1.05,8.57,2,12.89,2.83,2.93.56,5.88,1.1,8.85,1.38,1.25.12,2.53.26,3.76-.05,1.77-.45,3.25-1.58,4.5-2.87,2.48-2.56,4.24-5.89,5.57-9.17.92-2.27,1.87-4.82,1.63-7.3-.35-3.63-.81-7.26-1.26-10.88-.2-1.58-.4-3.16-.77-4.71s-.76-3.07-.69-4.69c.09-1.8.51-3.74,1.29-5.38.33-.68.79-1.28,1.15-1.94,1.33-2.45,1.13-5.71,1.14-8.39,0-.74-.55-.75-.55,0,0,2.42.23,5.42-1.04,7.61-.88,1.5-1.59,2.86-2.01,4.59-.75,3.08-.49,5.79.23,8.83.82,3.45,1.05,7.08,1.45,10.59.18,1.6.43,3.21.54,4.82.08,1.14-.26,2.3-.58,3.38-1.03,3.42-2.66,6.78-4.78,9.65-1.19,1.61-2.62,3.15-4.42,4.06-1.36.69-2.73.77-4.21.67-2.72-.19-5.43-.65-8.11-1.14-4.88-.89-9.74-1.96-14.56-3.15-.31-.08-.42,1.15,0,1.25h0Z"/>
      <path class="cls-6" d="M40.79,98.84c-1.11-2.19-3.36-3.25-5.2-4.71-2.77-2.19-3.7-5.02-3.12-8.49.34-2.02.9-4.64-.28-6.5-.54-.85-1.41-1.41-2.28-1.88-1.44-.78-2.87-1.43-4.18-2.42-1.44-1.1-2.73-2.4-3.85-3.82-.58-.73-1.29-1.56-1.61-2.45-.22-.61-.51.56-.39.88.67,1.85,2.42,3.6,3.79,4.93,1.14,1.1,2.38,2.1,3.75,2.89,1.2.69,2.56,1.15,3.65,2.02,2.29,1.84.85,5.19.65,7.61-.21,2.66.54,5.25,2.38,7.21,1.91,2.02,5,3.06,6.3,5.62.3.6.55-.57.39-.88h0Z"/>
      <path class="cls-6" d="M48.04,113.51c2.01-3.61,4.05-7.21,6.25-10.71,1.1-1.74,2.2-3.66,3.66-5.13,1.94-1.95,4.65-1.83,7.1-2.49,1.5-.4,2.68-1.36,3.74-2.46,1.37-1.42,2.54-2.92,4.66-3.01,2.81-.12,5.71.67,8.38,1.45,2.41.7,4.63,1.94,7.04,2.68,7.46,2.3,15.38,2.75,23.08,1.63.41-.06.35-1.3,0-1.25-7.25,1.06-14.69.73-21.76-1.24-1.93-.54-3.84-1.19-5.68-2.02-.64-.29-1.23-.61-1.9-.82-2.59-.8-5.3-1.52-8.01-1.67-1.61-.09-2.97.14-4.21,1.23-1.32,1.16-2.32,2.66-3.85,3.58s-3.4.87-5.13,1.3c-1.08.27-2.26.84-3.16,1.49-1.37.99-2.35,2.73-3.26,4.12-2.65,4.02-5.01,8.24-7.36,12.45-.17.31.06,1.47.39.88h0Z"/>
      <path class="cls-6" d="M81.55,90.19c-.44-3.5-.85-7-1.14-10.52-.16-1.93-.09-3.8-.1-5.73,0-1.17-.16-2.34-.43-3.48-.32-1.34-.68-2.97-1.45-4.14-1.34-2.02-4.17-2.96-6.46-3.32-.34-.05-.41,1.18,0,1.25,1.3.21,2.6.61,3.77,1.21,1.88.95,2.65,2.18,3.26,4.17.51,1.65.81,3.3.74,5.03-.04,1.04-.08,2.05-.03,3.09.23,4.27.76,8.53,1.3,12.77.11.84.6.23.53-.33h0Z"/>
      <g>
        <path class="cls-6" d="M74.67,43.45c4.27-.16,8.56-.24,12.83-.1,2.01.07,4.26.02,6.19.67,1.46.49,2.74.87,4.3.89,1.65.03,3.29.06,4.94.08s3.38,0,5.07-.02c.51,0,1.03-.04,1.54-.02.09,0,.18-.02.27,0,.71.09.8.85.05.96-.41.06-.35,1.3,0,1.25,1.21-.18,1.67-1.55,1.18-2.61-.41-.9-1.2-.85-2.03-.84-3.36.05-6.72-.02-10.09-.04-.91,0-1.82,0-2.72-.14s-1.73-.53-2.6-.79-1.86-.37-2.79-.45c-2.98-.27-5.99-.27-8.98-.25-2.39.02-4.77.07-7.16.16-.39.01-.38,1.26,0,1.25h0Z"/>
        <path class="cls-6" d="M72.57,44.6c.39,0,.39-1.25,0-1.25s-.39,1.25,0,1.25h0Z"/>
      </g>
    </g>
    <g>
      <rect class="cls-4" x="68.58" y="26.73" width="7.44" height="27.67" transform="translate(56.67 -40.84) rotate(49.84)"/>
      <rect class="cls-4" x="68.58" y="26.73" width="7.44" height="27.67" transform="translate(153.71 24.94) rotate(139.84)"/>
    </g>
    <g>
      <path class="cls-4" d="M71.17,50.48c-.09,0-.18-.02-.27-.05-.4-.15-.6-.6-.45-.99.26-.69.42-1.09.42-1.09.16-.4.61-.59,1-.43.4.16.59.61.43,1,0,0-.15.39-.41,1.07-.12.31-.41.5-.72.5Z"/>
      <path class="cls-4" d="M40.41,75.79c-.42,0-.76-.33-.77-.75-.01-.43.32-.78.75-.79.76-.02,1.56-.06,2.36-.11.42-.03.79.29.82.72.03.42-.29.79-.72.82-.82.05-1.64.09-2.42.11,0,0-.01,0-.02,0ZM36.43,75.73s-.03,0-.05,0c-.9-.06-1.73-.15-2.46-.27-.42-.07-.7-.47-.63-.89.07-.42.47-.7.89-.63.68.11,1.45.2,2.3.25.42.03.75.39.72.82-.03.41-.37.72-.77.72ZM46.78,75.3c-.38,0-.72-.29-.76-.68-.05-.42.25-.81.67-.86.79-.1,1.58-.21,2.34-.33.42-.07.82.22.88.64.07.42-.22.82-.64.88-.78.13-1.59.24-2.4.34-.03,0-.06,0-.1,0ZM53.06,74.18c-.35,0-.66-.24-.75-.59-.1-.41.16-.83.57-.93.81-.19,1.57-.4,2.26-.62.41-.13.84.1.97.51.13.41-.1.84-.51.97-.72.23-1.52.44-2.36.65-.06.01-.12.02-.18.02ZM30.33,74.1c-.14,0-.28-.04-.41-.12-.65-.41-1.3-.92-1.99-1.54-.32-.28-.34-.77-.06-1.09.29-.32.77-.34,1.09-.06.63.56,1.21,1.02,1.79,1.38.36.23.46.71.24,1.06-.15.23-.4.36-.65.36ZM59.05,72.02c-.28,0-.55-.15-.68-.41-.2-.38-.05-.84.32-1.04.71-.37,1.37-.77,1.97-1.18.35-.24.83-.15,1.07.2.24.35.15.83-.2,1.07-.65.45-1.36.88-2.13,1.28-.11.06-.24.09-.36.09ZM25.66,69.78c-.21,0-.42-.09-.57-.25-.21-.24-.43-.48-.65-.72-.31-.35-.63-.7-.95-1.06-.29-.32-.26-.8.05-1.09.32-.29.8-.26,1.09.05.32.36.64.71.96,1.06.22.24.43.48.65.72.28.32.26.8-.06,1.09-.15.13-.33.2-.52.2ZM64.07,68.14c-.18,0-.35-.06-.5-.18-.32-.28-.36-.76-.09-1.09.49-.57.92-1.17,1.32-1.84.22-.36.69-.48,1.06-.26.36.22.48.69.26,1.06-.45.74-.93,1.41-1.47,2.04-.15.18-.37.27-.59.27ZM21.29,65.13c-.19,0-.38-.07-.53-.21-.6-.57-1.17-1.07-1.75-1.54-.33-.27-.38-.75-.11-1.08.27-.33.75-.38,1.08-.11.61.5,1.22,1.03,1.84,1.62.31.29.32.78.03,1.09-.15.16-.36.24-.56.24ZM67.14,62.59c-.09,0-.18-.01-.26-.05-.4-.14-.61-.59-.46-.99.24-.67.47-1.39.71-2.2.12-.41.55-.66.96-.54.41.12.65.53.53.94v.04c-.25.83-.5,1.59-.75,2.29-.11.31-.41.51-.73.51ZM16.21,61.29c-.13,0-.26-.03-.38-.1-.65-.37-1.34-.73-2.07-1.07-.39-.18-.55-.64-.37-1.03.18-.39.64-.55,1.03-.37.77.36,1.5.74,2.18,1.13.37.21.5.68.29,1.05-.14.25-.4.39-.67.39ZM10.39,58.69c-.09,0-.17-.01-.26-.04-.72-.26-1.48-.5-2.24-.73-.41-.12-.64-.55-.52-.96.12-.41.55-.64.96-.52.79.24,1.57.49,2.31.75.4.14.61.58.47.98-.11.32-.41.51-.73.51ZM69.05,56.5c-.08,0-.16-.01-.24-.04-.4-.13-.63-.57-.49-.97.24-.74.5-1.51.77-2.28.14-.4.58-.62.98-.48.4.14.62.58.48.98-.26.76-.52,1.52-.76,2.26-.11.33-.41.53-.73.53Z"/>
      <path class="cls-4" d="M4.24,56.95c-.05,0-.11,0-.16-.02-.69-.15-1.1-.22-1.1-.22-.42-.07-.7-.47-.63-.89.07-.42.47-.7.89-.63.02,0,.44.08,1.17.23.42.09.68.5.59.92-.08.36-.4.61-.75.61Z"/>
    </g>
  </g>
</svg>