<?xml version="1.0" encoding="UTF-8"?>
<svg id="Calque_1" data-name="Calque 1" xmlns="http://www.w3.org/2000/svg" xmlns:xlink="http://www.w3.org/1999/xlink" viewBox="0 0 116.22 116.22">
  <defs>
    <style>
      .cls-1 {
        clip-path: url(#clippath);
      }

      .cls-2, .cls-3 {
        fill: #ded4d0;
      }

      .cls-4 {
        fill: none;
        stroke: #1d1d1b;
        stroke-miterlimit: 10;
      }

      .cls-5, .cls-3, .cls-6 {
        stroke-width: 0px;
      }

      .cls-6 {
        fill: #fdfcf9;
      }
    </style>
    <clipPath id="clippath">
      <path class="cls-3" d="M41.9,3.33c17.25-9.34,61.14,15.44,66.95,52.52S62.55,122.8,26.86,112.98C-8.82,103.16,7.82,21.77,41.9,3.33Z"/>
    </clipPath>
  </defs>
  <path class="cls-2" d="M41.9,3.33c17.25-9.34,61.14,15.44,66.95,52.52S62.55,122.8,26.86,112.98C-8.82,103.16,7.82,21.77,41.9,3.33Z"/>
  <g class="cls-1">
    <path class="cls-3" d="M41.9,3.33c17.25-9.34,61.14,15.44,66.95,52.52S62.55,122.8,26.86,112.98C-8.82,103.16,7.82,21.77,41.9,3.33Z"/>
    <g>
      <line class="cls-4" x1="83.68" y1="68.87" x2="13.65" y2="126.33"/>
      <line class="cls-4" x1="53.07" y1="57.74" x2="12.15" y2="125.43"/>
      <line class="cls-4" x1="28.61" y1="48.17" x2="8.26" y2="122.44"/>
      <g>
        <path class="cls-6" d="M52.33,28.3C9.4,14.11-16.15,36.87-16.15,36.87c-4.03,2.72-3.59,7.91-.55,10.39,3.89-1.17,14.13-3.67,28.04-2.81,17.91,1.12,30.55,4.51,45.98,12.48,15.42,7.98,24.03,13.26,28.14,16.14,2.28,1.59,5.23,4.41,7.41,6.61,2.08-.6,4.52-1.65,4.8-2.77.47-1.84-2.41-34.43-45.34-48.62Z"/>
        <path class="cls-5" d="M55.81,55.38c-15.77-7.27-26.56-9.81-44.47-10.92-13.9-.87-24.15,1.64-28.04,2.81,1.43,1.16,3.44,1.72,5.84,1.14,7.49-1.83,37.57,2.51,51.06,7.12,25.59,8.74,48.84,24.41,49.75,24.67.36.1,1.57-.1,2.92-.49-2.18-2.2-16.79-14.96-37.06-24.31Z"/>
        <path class="cls-6" d="M51.68,33.83c11.28,3.22,25.95,11.86,31.94,18.94,4.54,5.37,11.01,18.49,13.88,24.52.08-.12.15-.25.18-.38.47-1.84-1.02-38.3-43.96-52.48C10.78,10.25-17.87,29.07-17.87,29.07c-1.45.98-.61,10.08-.98,11.46,4.75-2.68,13.98-7.08,26.69-9.49,19.1-3.61,32.56-.44,43.84,2.79Z"/>
      </g>
      <path class="cls-6" d="M-3.33,41.9c-.08,0-.17-.04-.22-.11-.1-.12-.08-.3.04-.4l18.9-15.26c.12-.1.3-.08.4.04.1.12.08.3-.04.4L-3.15,41.84c-.05.04-.12.06-.18.06Z"/>
      <path class="cls-5" d="M22.36,41.7c-.08,0-.16-.03-.21-.1-.1-.12-.09-.3.03-.4l15.02-15.58c.12-.1.3-.09.4.03.1.12.09.3-.03.4l-15.02,15.58c-.05.05-.12.07-.19.07Z"/>
      <path class="cls-5" d="M41.2,46.75c-.08,0-.16-.03-.21-.1-.1-.12-.09-.3.03-.4l16.86-14.59c.12-.1.3-.09.4.03.1.12.09.3-.03.4l-16.86,14.59c-.05.05-.12.07-.19.07Z"/>
      <path class="cls-5" d="M61.43,55.57c-.08,0-.16-.03-.21-.1-.1-.12-.09-.3.03-.4l14.9-12.89c.12-.1.3-.09.4.03.1.12.09.3-.03.4l-14.9,12.89c-.05.05-.12.07-.19.07Z"/>
      <path class="cls-5" d="M77.58,64.85c-.09,0-.18-.04-.23-.12-.09-.13-.06-.31.07-.4l11.69-8.17c.13-.09.31-.06.4.07.09.13.06.31-.07.4l-11.69,8.17s-.11.05-.16.05Z"/>
    </g>
  </g>
</svg>