<?xml version="1.0" encoding="UTF-8"?>
<svg id="Calque_1" data-name="Calque 1" xmlns="http://www.w3.org/2000/svg" viewBox="0 0 116.22 116.22">
  <defs>
    <style>
      .cls-1 {
        fill: #fff;
      }

      .cls-2 {
        fill: #af5a62;
      }
    </style>
  </defs>
  <path class="cls-2" d="M41.9,3.33c17.25-9.34,61.14,15.44,66.95,52.52S62.55,122.8,26.86,112.98C-8.82,103.16,7.82,21.77,41.9,3.33Z"/>
  <rect x="53.1" y="46.84" width="10.11" height="23.86" transform="translate(-24.28 52.43) rotate(-40.9)"/>
  <path d="M70.18,89.85c.93,1.08,2.44,1.53,3.92,1.18,2.71-.64,6.64-2.14,9.92-5.67,1.67-1.79,2.95-3.87,3.83-6.17.54-1.43.31-2.97-.61-4.04L45.99,27.54c-.73-.84-1.79-1.3-2.92-1.3-.38,0-.77.05-1.15.16-2.84.78-5.43,2.12-7.7,3.99-2.52,2.08-4.46,4.66-5.78,7.67-.65,1.48-.44,3.1.53,4.23l41.2,47.57ZM65.75,77.61c-.58.51-1.47.44-1.97-.14s-.44-1.47.14-1.97,1.47-.44,1.97.14c.51.58.44,1.47-.14,1.97ZM69.76,82.24c-.58.51-1.47.44-1.97-.14-.51-.58-.44-1.47.14-1.97.58-.51,1.47-.44,1.97.14.51.58.44,1.47-.14,1.97ZM70.86,73.25c-.58.51-1.47.44-1.97-.14-.51-.58-.44-1.47.14-1.97.58-.51,1.47-.44,1.97.14.51.58.44,1.47-.14,1.97ZM73.77,86.87c-.58.51-1.47.44-1.97-.14s-.44-1.47.14-1.97c.58-.51,1.47-.44,1.97.14.51.58.44,1.47-.14,1.97ZM82.16,76.04c.58-.51,1.47-.44,1.97.14.51.58.44,1.47-.14,1.97s-1.47.44-1.97-.14-.44-1.47.14-1.97ZM78.15,71.41c.58-.51,1.47-.44,1.97.14.51.58.44,1.47-.14,1.97-.58.51-1.47.44-1.97-.14-.51-.58-.44-1.47.14-1.97ZM77.05,80.4c.58-.51,1.47-.44,1.97.14s.44,1.47-.14,1.97c-.58.51-1.47.44-1.97-.14-.51-.58-.44-1.47.14-1.97ZM74.14,66.79c.58-.51,1.47-.44,1.97.14.51.58.44,1.47-.14,1.97-.58.51-1.47.44-1.97-.14s-.44-1.47.14-1.97ZM73.04,75.77c.58-.51,1.47-.44,1.97.14.51.58.44,1.47-.14,1.97-.58.51-1.47.44-1.97-.14-.51-.58-.44-1.47.14-1.97ZM49.8,38.69c.58-.51,1.47-.44,1.97.14s.44,1.47-.14,1.97c-.58.51-1.47.44-1.97-.14-.51-.58-.44-1.47.14-1.97ZM45.79,34.06c.58-.51,1.47-.44,1.97.14s.44,1.47-.14,1.97-1.47.44-1.97-.14c-.51-.58-.44-1.47.14-1.97ZM44.69,43.04c.58-.51,1.47-.44,1.97.14.51.58.44,1.47-.14,1.97-.58.51-1.47.44-1.97-.14-.51-.58-.44-1.47.14-1.97ZM44.21,52.11l9.34-8.09c.47-.41,1.18-.36,1.58.11l17.1,19.73c.41.47.36,1.18-.11,1.58l-9.34,8.09c-.2.18-.47.27-.73.27-.03,0-.05,0-.08,0-.3-.02-.57-.16-.77-.38l-17.1-19.73c-.19-.23-.29-.52-.27-.82.02-.3.16-.57.38-.77ZM41.78,29.43c.58-.51,1.47-.44,1.97.14.51.58.44,1.47-.14,1.97s-1.47.44-1.97-.14-.44-1.47.14-1.97ZM40.68,38.41c.58-.51,1.47-.44,1.97.14s.44,1.47-.14,1.97c-.58.51-1.47.44-1.97-.14-.51-.58-.44-1.47.14-1.97ZM39.58,47.4c.58-.51,1.47-.44,1.97.14.51.58.44,1.47-.14,1.97-.58.51-1.47.44-1.97-.14-.51-.58-.44-1.47.14-1.97ZM36.67,33.78c.58-.51,1.47-.44,1.97.14s.44,1.47-.14,1.97-1.47.44-1.97-.14c-.51-.58-.44-1.47.14-1.97ZM35.57,42.77c.58-.51,1.47-.44,1.97.14.51.58.44,1.47-.14,1.97-.58.51-1.47.44-1.97-.14-.51-.58-.44-1.47.14-1.97ZM31.56,38.14c.58-.51,1.47-.44,1.97.14.51.58.44,1.47-.14,1.97-.58.51-1.47.44-1.97-.14-.51-.58-.44-1.47.14-1.97Z"/>
  <path class="cls-1" d="M60.23,37.36c.47.41,1.18.36,1.58-.11l8.41-9.71c.97-1.12,2.53-1.56,4.07-1.14,2.84.78,5.43,2.12,7.7,3.99,2.52,2.08,4.46,4.66,5.78,7.67.65,1.48.44,3.1-.53,4.23l-9.75,11.26c-.41.47-.36,1.18.11,1.58.21.18.47.27.73.27.31,0,.63-.13.85-.39l9.75-11.26c1.55-1.79,1.89-4.32.89-6.6-1.44-3.29-3.66-6.23-6.41-8.5-2.51-2.08-5.39-3.57-8.54-4.43-2.38-.65-4.81.05-6.36,1.84l-8.41,9.71c-.41.47-.36,1.18.11,1.58Z"/>
  <path class="cls-1" d="M30.55,86.88c3.67,3.94,8.03,5.62,11.05,6.33.51.12,1.01.18,1.51.18,1.78,0,3.47-.74,4.62-2.07l8.53-9.85c.41-.47.36-1.18-.11-1.58-.47-.41-1.18-.36-1.58.11l-8.53,9.85c-.93,1.08-2.44,1.53-3.92,1.18-2.71-.64-6.64-2.14-9.92-5.67-1.67-1.79-2.95-3.87-3.83-6.17-.54-1.43-.31-2.97.61-4.04l10.42-12.03c.41-.47.36-1.18-.11-1.58-.47-.41-1.18-.36-1.58.11l-10.42,12.03c-1.46,1.69-1.85,4.1-1.01,6.3.98,2.58,2.42,4.9,4.28,6.9Z"/>
  <path class="cls-1" d="M84.8,40.11c.51-.58.44-1.47-.14-1.97-.58-.51-1.47-.44-1.97.14s-.44,1.47.14,1.97c.58.51,1.47.44,1.97-.14Z"/>
  <path class="cls-1" d="M79.54,33.78c-.58-.51-1.47-.44-1.97.14-.51.58-.44,1.47.14,1.97.58.51,1.47.44,1.97-.14.51-.58.44-1.47-.14-1.97Z"/>
  <path class="cls-1" d="M74.58,31.4c.51-.58.44-1.47-.14-1.97-.58-.51-1.47-.44-1.97.14-.51.58-.44,1.47.14,1.97s1.47.44,1.97-.14Z"/>
  <path class="cls-1" d="M78.68,42.91c-.51.58-.44,1.47.14,1.97.58.51,1.47.44,1.97-.14s.44-1.47-.14-1.97c-.58-.51-1.47-.44-1.97.14Z"/>
  <path class="cls-1" d="M73.71,40.53c.58.51,1.47.44,1.97-.14.51-.58.44-1.47-.14-1.97-.58-.51-1.47-.44-1.97.14-.51.58-.44,1.47.14,1.97Z"/>
  <path class="cls-1" d="M70.57,36.03c.51-.58.44-1.47-.14-1.97s-1.47-.44-1.97.14-.44,1.47.14,1.97,1.47.44,1.97-.14Z"/>
  <path class="cls-1" d="M74.81,49.51c.58.51,1.47.44,1.97-.14s.44-1.47-.14-1.97c-.58-.51-1.47-.44-1.97.14-.51.58-.44,1.47.14,1.97Z"/>
  <path class="cls-1" d="M69.7,45.15c.58.51,1.47.44,1.97-.14.51-.58.44-1.47-.14-1.97-.58-.51-1.47-.44-1.97.14-.51.58-.44,1.47.14,1.97Z"/>
  <path class="cls-1" d="M64.44,38.83c-.51.58-.44,1.47.14,1.97.58.51,1.47.44,1.97-.14.51-.58.44-1.47-.14-1.97-.58-.51-1.47-.44-1.97.14Z"/>
  <path class="cls-1" d="M50.32,75.64c-.51.58-.44,1.47.14,1.97s1.47.44,1.97-.14c.51-.58.44-1.47-.14-1.97-.58-.51-1.47-.44-1.97.14Z"/>
  <path class="cls-1" d="M47.32,73.11c.51-.58.44-1.47-.14-1.97-.58-.51-1.47-.44-1.97.14-.51.58-.44,1.47.14,1.97.58.51,1.47.44,1.97-.14Z"/>
  <path class="cls-1" d="M42.21,68.76c.51-.58.44-1.47-.14-1.97-.58-.51-1.47-.44-1.97.14s-.44,1.47.14,1.97c.58.51,1.47.44,1.97-.14Z"/>
  <path class="cls-1" d="M46.46,82.24c.58.51,1.47.44,1.97-.14.51-.58.44-1.47-.14-1.97s-1.47-.44-1.97.14c-.51.58-.44,1.47.14,1.97Z"/>
  <path class="cls-1" d="M41.34,77.88c.58.51,1.47.44,1.97-.14s.44-1.47-.14-1.97c-.58-.51-1.47-.44-1.97.14-.51.58-.44,1.47.14,1.97Z"/>
  <path class="cls-1" d="M38.2,73.38c.51-.58.44-1.47-.14-1.97-.58-.51-1.47-.44-1.97.14-.51.58-.44,1.47.14,1.97.58.51,1.47.44,1.97-.14Z"/>
  <path class="cls-1" d="M42.45,86.87c.58.51,1.47.44,1.97-.14.51-.58.44-1.47-.14-1.97-.58-.51-1.47-.44-1.97.14-.51.58-.44,1.47.14,1.97Z"/>
  <path class="cls-1" d="M37.33,82.51c.58.51,1.47.44,1.97-.14.51-.58.44-1.47-.14-1.97s-1.47-.44-1.97.14c-.51.58-.44,1.47.14,1.97Z"/>
  <path class="cls-1" d="M32.08,76.18c-.51.58-.44,1.47.14,1.97.58.51,1.47.44,1.97-.14.51-.58.44-1.47-.14-1.97s-1.47-.44-1.97.14Z"/>
</svg>