<?xml version="1.0" encoding="UTF-8"?>
<svg id="Calque_1" data-name="Calque 1" xmlns="http://www.w3.org/2000/svg" viewBox="0 0 116.22 116.22">
  <defs>
    <style>
      .cls-1, .cls-2, .cls-3 {
        fill: none;
        stroke: #fff;
        stroke-miterlimit: 10;
        stroke-width: .56px;
      }

      .cls-2 {
        stroke-dasharray: 0 0 1.24 1.24;
      }

      .cls-3 {
        stroke-dasharray: 0 0 1.11 1.11;
      }

      .cls-4, .cls-5, .cls-6, .cls-7, .cls-8 {
        stroke-width: 0px;
      }

      .cls-4, .cls-5, .cls-8 {
        fill-rule: evenodd;
      }

      .cls-4, .cls-6 {
        fill: #86a096;
      }

      .cls-5, .cls-7 {
        fill: #fdfcf9;
      }
    </style>
  </defs>
  <path class="cls-6" d="M41.9,3.33c17.25-9.34,61.14,15.44,66.95,52.52,5.81,37.08-46.31,66.95-81.99,57.13C-8.82,103.16,7.82,21.77,41.9,3.33Z"/>
  <path class="cls-7" d="M30.13,33.17c-.65-.98-2.35-1.36-3.33-1.96-1.45-.9-3.36.15-3.38,1.86,0,.03,0,.06,0,.09v11.07c-.09.28,23.66-8.76,23.66-8.76l-13.46-.5c-1.41.09-2.72-.62-3.49-1.8Z"/>
  <g>
    <path class="cls-8" d="M23.43,38.04v33.46h72.15c2.66-13.5-7.5-16.21-14.9-15.25-16.29,2.08-22.1-8.13-26.53-20.95-16.84.85-31.57-3.67-30.72,2.74h0Z"/>
    <path class="cls-5" d="M73.02,56.24c-9.58-1.42-14.24-8.71-17.74-17.85-2.14.22-5.7.52-5.56,1.94,1.01,10.1,9.47,20.54,19.85,19.96,1.01-.08,2.3-2.03,3.45-4.05h0Z"/>
    <path class="cls-5" d="M23.43,38.04v3.67c6.3-.57,13.01-.57,20.21.11,1.89,0,3.45-1.53,3.45-3.42v-3.01c-13.69-.3-24.4-2.82-23.66,2.66h0Z"/>
    <path class="cls-5" d="M23.43,50v21.49h72.15c.16-.77.27-1.48.33-2.16h-35.4c-10.46-1.37-11.28-4.63-21.14-4.65-1.4-12.62-12.02-14.43-15.94-14.68h0Z"/>
    <path class="cls-5" d="M23.43,53.04v15.61l10.49-.55c4.41-8.52-5.2-14.48-10.49-15.06h0Z"/>
    <path class="cls-8" d="M23.08,66.24h17.36c4.79,0,13.94,4.27,22.37,4.27h33.32c2.08,0,1.64,9.88-.16,9.88h-1.78v-1.1c0-.71-.6-1.31-1.31-1.31h-.68c-.71,0-1.31.6-1.31,1.31v1.1h-2.55v-1.1c0-.71-.57-1.31-1.29-1.31h-.71c-.71,0-1.29.6-1.29,1.31v1.1h-2.55v-1.1c0-.71-.6-1.31-1.31-1.31h-.68c-.74,0-1.31.6-1.31,1.31v1.1h-2.55v-1.1c0-.71-.6-1.31-1.31-1.31h-.68c-.71,0-1.31.6-1.31,1.31v1.1h-2.55v-1.1c0-.71-.58-1.31-1.29-1.31h-.71c-.71,0-1.29.6-1.29,1.31v1.1h-1.23c-.44-.03-.88-.05-1.31-.08v-1.01c0-.71-.6-1.31-1.31-1.31h-.68c-.74,0-1.31.6-1.31,1.31v.77c-6.13-.63-12.79-6.16-12.49-.57h-2.63v-1.15c0-.74-.6-1.31-1.31-1.31h-.68c-.71,0-1.31.57-1.31,1.31v1.15h-2.55v-1.15c0-.74-.57-1.31-1.29-1.31h-.71c-.71,0-1.31.57-1.31,1.31v1.15h-2.52v-1.15c0-.74-.6-1.31-1.31-1.31h-.68c-.74,0-1.31.57-1.31,1.31v1.15h-2.55v-1.15c0-.74-.6-1.31-1.31-1.31h-.68c-.71,0-1.31.57-1.31,1.31v1.15h-2.6c-.08-3.94.11-9.31.03-13.25h0Z"/>
    <path class="cls-5" d="M97.39,72.84c.08.57.11,1.2.11,1.86h-37.05c-3.72,0-6.93-.93-10.1-1.86-3.01-.88-6-1.75-9.34-1.75h-17.93c.03-.6.03-1.23.03-1.83h17.91c3.59,0,6.71.9,9.86,1.81,3.04.88,6.11,1.78,9.58,1.78h36.94Z"/>
    <path class="cls-4" d="M52.62,41.59l4.19-1.51c.57-.19,1.2.11,1.42.68h0c.19.57-.11,1.2-.68,1.4l-4.19,1.51c-.57.22-1.2-.08-1.42-.66h0c-.19-.57.11-1.2.68-1.42h0Z"/>
    <path class="cls-4" d="M55.03,46.3c1.26-.68,2.49-1.37,3.72-2.05.52-.3,1.18-.11,1.45.38h0c.27.52.11,1.18-.41,1.45-1.23.68-2.49,1.4-3.72,2.08-.52.27-1.15.11-1.45-.41h0c-.27-.52-.08-1.15.41-1.45h0Z"/>
    <path class="cls-4" d="M58.56,50.58c1.07-.9,2.16-1.78,3.26-2.66.44-.38,1.1-.3,1.45.14h0c.36.44.3,1.1-.14,1.48-1.1.88-2.16,1.75-3.26,2.66-.44.36-1.1.27-1.48-.16h0c-.36-.44-.27-1.1.16-1.45h0Z"/>
    <path class="cls-4" d="M61.82,54.74c.93-1.07,1.83-2.16,2.77-3.23.38-.44,1.07-.49,1.51-.11h0c.44.36.49,1.04.11,1.48-.93,1.07-1.86,2.16-2.79,3.23-.36.44-1.04.49-1.48.11h0c-.44-.36-.49-1.04-.11-1.48h0Z"/>
    <path class="cls-4" d="M66.37,57.28l2.33-3.81c.3-.52.99-.68,1.51-.38h0c.52.33.68,1.01.38,1.53l-2.3,3.81c-.33.52-1.01.68-1.53.38h0c-.52-.33-.68-1.01-.38-1.53h0Z"/>
  </g>
  <g>
    <path class="cls-1" d="M43.26,39.68s.01.2.05.55"/>
    <path class="cls-3" d="M43.45,41.33c.68,4.96,3.59,19.53,14.22,21.22,9.31,1.48,14.26,1.72,16.28,1.74"/>
    <path class="cls-1" d="M74.5,64.29c.38,0,.56-.02.56-.02l.32-.46"/>
    <line class="cls-2" x1="76.09" y1="62.8" x2="80.01" y2="57.21"/>
    <line class="cls-1" x1="80.37" y1="56.7" x2="80.69" y2="56.24"/>
  </g>
</svg>