<?xml version="1.0" encoding="UTF-8"?>
<svg id="Calque_1" data-name="Calque 1" xmlns="http://www.w3.org/2000/svg" xmlns:xlink="http://www.w3.org/1999/xlink" viewBox="0 0 99.21 99.21">
  <defs>
    <style>
      .cls-1 {
        clip-path: url(#clippath);
      }

      .cls-2 {
        fill: none;
      }

      .cls-2, .cls-3, .cls-4, .cls-5 {
        stroke-width: 0px;
      }

      .cls-4 {
        fill: #1e6688;
      }

      .cls-5 {
        fill: #fdfcf9;
      }
    </style>
    <clipPath id="clippath">
      <rect class="cls-2" width="99.21" height="99.21" rx="5.67" ry="5.67"/>
    </clipPath>
  </defs>
  <g class="cls-1">
    <rect class="cls-4" width="99.21" height="99.21" rx="5.67" ry="5.67"/>
    <g>
      <path class="cls-5" d="M24.23,62.11l4.51,3.94-7.55-17.54-.27,16.86,2.06-3.1c.13-.2.35-.33.59-.37h0c.24-.03.48.04.66.2Z"/>
      <path class="cls-5" d="M47.17,32.82h0c.29.11.5.37.54.68l2.4,18.45,1.89-12.11c.05-.35.32-.63.67-.69.35-.07.7.09.88.39l6.37,10.71-8.63-33.16-5.7,3.22-3.3,16.31,4.03-3.65c.23-.21.56-.27.85-.16Z"/>
      <path class="cls-5" d="M79.47,55.56c.26.07.47.27.56.53l4.33,12.41,2.11-5.92-6.22-12.77-3.49,2.09-2.07,7.13h0l4.01-3.31c.21-.17.49-.23.76-.16Z"/>
      <path class="cls-3" d="M30.42,69.75h0s0,0,0,0l-6.57-5.75-3.11,4.67c-.21.31-.59.44-.95.33-.35-.11-.59-.44-.59-.81l.32-20.07-2.32,1.39-1.44,3.29-1.76,19.13c-.03.33-.25.61-.57.72-.31.1-.66.01-.89-.24l-3.89-4.37-12.92,12.09h46.65l-11.97-10.37Z"/>
      <path class="cls-3" d="M44.94,80.12h8.04l17.65-14.64-8.31-6.65c-.14-.11-.24-.27-.29-.44l-.6-2.32-8.14-13.69-2.43,15.59c-.06.41-.41.71-.83.71h-.01c-.42,0-.77-.32-.82-.73l-2.95-22.67-4.53,4.09-1.99,9.85c-.03.16-.11.3-.22.42l-11.13,11.36,3.27,7.59,13.28,11.51Z"/>
      <path class="cls-3" d="M88.52,66.75h0l-1.01-2.07-2.36,6.62c-.12.33-.43.56-.79.56h0c-.35,0-.67-.23-.79-.56l-4.71-13.52-4.98,4.11-1.11,3.82c-.05.16-.14.3-.27.41l-16.89,14h50.31l-17.16-13.07c-.1-.08-.19-.18-.24-.3Z"/>
      <polygon class="cls-5" points="13.64 57.67 9.7 66.69 12.52 69.85 13.64 57.67"/>
      <path class="cls-5" d="M82.01,42.42c-.13-.02-.43-.06-.64-.37-.19-.27-.2-.63-.03-.91.23-.37.26-.95.08-1.51-.17-.55-.52-.99-.91-1.16-.33-.14-1.33-.57-2.66.69-.23.22-.58.29-.88.17-.3-.12-.51-.4-.53-.72-.05-.71-.38-1.37-.92-1.83-.54-.47-1.24-.7-1.95-.64-.71.05-1.37.38-1.83.92-.47.54-.7,1.23-.64,1.95.03.45-.3.85-.75.89h0c-.29.03-.57-.1-.74-.31-.36-.15-1.4-.29-2.05.15-.52.36-.69,1.1-.5,2.2.05.31-.07.63-.33.81-.25.18-.57.22-.85.09-.21-.06-.95-.07-1.29.26-.16.16-.2.4-.19.65h19.08c-.11-.78-.59-1.21-1.47-1.34Z"/>
      <path class="cls-5" d="M33.9,27.61h0c-.13-.02-.43-.06-.64-.37-.19-.27-.2-.63-.03-.91.23-.37.26-.95.08-1.51-.17-.55-.52-.99-.91-1.16-.33-.14-1.33-.57-2.66.69-.23.22-.58.29-.88.17-.3-.12-.51-.4-.53-.72-.11-1.47-1.39-2.58-2.87-2.48-.71.05-1.37.38-1.83.92-.47.54-.7,1.23-.64,1.95.03.45-.3.85-.75.89-.29.03-.57-.1-.74-.31-.36-.15-1.4-.29-2.05.15-.52.36-.69,1.1-.5,2.2.05.31-.07.63-.33.81-.25.18-.57.22-.85.09-.21-.06-.95-.07-1.29.26-.16.16-.2.4-.19.65h19.08c-.11-.78-.59-1.21-1.47-1.34Z"/>
    </g>
  </g>
</svg>