<?xml version="1.0" encoding="UTF-8"?>
<svg id="Calque_1" data-name="Calque 1" xmlns="http://www.w3.org/2000/svg" viewBox="0 0 99.21 99.21">
  <defs>
    <style>
      .cls-1, .cls-2, .cls-3, .cls-4 {
        stroke-width: 0px;
      }

      .cls-2 {
        fill: #1e6688;
      }

      .cls-3 {
        fill: #ded4d0;
      }

      .cls-4 {
        fill: #fdfcf9;
      }
    </style>
  </defs>
  <rect class="cls-3" x="0" width="99.21" height="99.21" rx="5.67" ry="5.67"/>
  <g>
    <polygon class="cls-4" points="69.6 45.62 71.18 59.67 72.73 50.09 77.41 60.81 77.42 50.33 69.28 35.88 63.92 40.87 66.24 56.67 69.6 45.62"/>
    <polygon class="cls-1" points="47.97 35.45 37.48 59.46 53.7 37.35 49.66 53.61 63.92 40.87 52.82 21.42 43.53 36.45 41.08 42.79 47.97 35.45"/>
    <polygon class="cls-4" points="23.36 57.75 31.33 48.03 30.11 55.41 37.24 45.98 31.24 40.7 25.04 50.88 25.04 50.88 23.36 57.75"/>
    <polyline class="cls-2" points="79.11 77.8 5.99 77.8 25.04 50.88 25.04 50.88 23.36 57.75 31.33 48.03 30.11 55.41 37.24 45.98 43.53 36.45 41.08 42.79 47.97 35.45 37.48 59.46 53.7 37.35 49.66 53.61 63.92 40.87 63.92 40.87 66.24 56.67 69.6 45.62 71.18 59.67 72.73 50.09 77.41 60.81 77.42 50.33 93.22 77.8 79.11 77.8"/>
  </g>
</svg>