<?xml version="1.0" encoding="UTF-8"?>
<svg id="Calque_1" data-name="Calque 1" xmlns="http://www.w3.org/2000/svg" xmlns:xlink="http://www.w3.org/1999/xlink" viewBox="0 0 116.22 116.22">
  <defs>
    <style>
      .cls-1 {
        stroke-width: 2.98px;
      }

      .cls-1, .cls-2 {
        fill: none;
        stroke: #000;
        stroke-miterlimit: 10;
      }

      .cls-3 {
        clip-path: url(#clippath);
      }

      .cls-4, .cls-5 {
        fill: #d76c60;
      }

      .cls-2 {
        stroke-linecap: round;
        stroke-width: 1.18px;
      }

      .cls-6, .cls-5, .cls-7, .cls-8 {
        stroke-width: 0px;
      }

      .cls-7 {
        fill: #fdfcf9;
      }

      .cls-8 {
        fill: #ee738c;
      }
    </style>
    <clipPath id="clippath">
      <path class="cls-5" d="M95.93,107.76c-12.37,15.23-62.39,9.12-81.95-22.92C-5.58,52.8,31.15,5.27,67.88.69c36.72-4.57,52.48,76.99,28.05,107.06Z"/>
    </clipPath>
  </defs>
  <path class="cls-4" d="M95.93,107.76c-12.37,15.23-62.39,9.12-81.95-22.92C-5.58,52.8,31.15,5.27,67.88.69c36.72-4.57,52.48,76.99,28.05,107.06Z"/>
  <g class="cls-3">
    <path class="cls-8" d="M95.93,107.76c-12.37,15.23-62.39,9.12-81.95-22.92C-5.58,52.8,31.15,5.27,67.88.69c36.72-4.57,52.48,76.99,28.05,107.06Z"/>
    <g>
      <g>
        <path class="cls-7" d="M78.47,24.44s-4.56,8.86-16.6,1.81l-12.67,21.11s-.62,9.22-3.07,13.84-7.04,14.18-7.04,14.18c0,0,2.34,6.34-1.87,12.7l1.5,3.84,1.72,1.06L81.47,26.28s-2.96-1.91-3-1.84Z"/>
        <path class="cls-1" d="M82.82,24.08c-18.05-11.1-26.45,2.39-26.45,2.39l-9.64,15.67c-.9,1.47-1.51,3.1-1.78,4.8-1,6.35-1.81,9.88-4.88,17.01-1.22,2.82-4.16,8.6-5.59,11.33-3.84,7.33-5.31,14.7,3.94,21"/>
        <g>
          <line class="cls-2" x1="60.39" y1="22.67" x2="62.85" y2="27.92"/>
          <line class="cls-2" x1="52.52" y1="32.74" x2="55.91" y2="37.64"/>
          <line class="cls-2" x1="40.06" y1="75.46" x2="34.27" y2="75.63"/>
          <line class="cls-2" x1="45.35" y1="44.93" x2="50.16" y2="47.89"/>
          <line class="cls-2" x1="42.37" y1="58.88" x2="47.19" y2="61.84"/>
          <line class="cls-2" x1="37.94" y1="87.35" x2="32.4" y2="89.83"/>
        </g>
        <path class="cls-6" d="M72.44,40.95c-6.87-4.22-11.08-4.32-13.52,1.32-2.45,5.64-4.93,14.93-4.93,14.93l6.17,3.79,12.29-20.04Z"/>
        <path class="cls-6" d="M63.06,56.28s-.29-.18-3.44-2.12-4.55-.97-6.4,5.1c-1.85,6.07-5.98,14-5.98,14l1.22,3.78,1.3.8,13.31-21.56Z"/>
        <path class="cls-6" d="M79.23,29.92c-1.57-.97-2.21-3.11-1.25-4.68l1.72-2.8,3,1.84-3.47,5.64Z"/>
        <path class="cls-6" d="M41.74,90.86c-1.57-.97-3.71-.53-4.68,1.04l-1.72,2.8,2.93,1.8,3.47-5.64Z"/>
        <g>
          <path class="cls-7" d="M84.25,27.99s-5.85,8.06,5.87,15.63l-13.13,20.83s-7.95,4.71-10.97,8.99c-3.03,4.27-9.48,12.68-9.48,12.68,0,0-6.71.77-10.49,7.4l-4.1.4-1.75-1.08L81.23,26.13s3.07,1.8,3.03,1.86Z"/>
          <path class="cls-1" d="M82.58,23.94c18.05,11.1,9.83,24.71,9.83,24.71l-9.64,15.67c-.9,1.47-2.08,2.74-3.48,3.75-5.21,3.76-8.01,6.07-12.98,12.03-1.97,2.36-5.8,7.6-7.59,10.1-4.81,6.73-10.75,11.35-20.55,5.94"/>
          <g>
            <line class="cls-2" x1="93.98" y1="43.34" x2="88.19" y2="43.51"/>
            <line class="cls-2" x1="88.55" y1="54.9" x2="82.65" y2="54.09"/>
            <line class="cls-2" x1="56.04" y1="85.29" x2="58.5" y2="90.53"/>
            <line class="cls-2" x1="80.9" y1="66.8" x2="76.09" y2="63.84"/>
            <line class="cls-2" x1="69.79" y1="75.75" x2="64.98" y2="72.79"/>
            <line class="cls-2" x1="46.38" y1="92.55" x2="46.67" y2="98.61"/>
          </g>
          <path class="cls-6" d="M72.2,40.8c6.87,4.22,8.88,7.96,4.96,12.68s-11.1,11.14-11.1,11.14l-6.17-3.8,12.31-20.02Z"/>
          <path class="cls-6" d="M62.79,56.11s.29.18,3.44,2.12,2.92,3.63-1.67,8.01c-4.59,4.39-9.8,11.65-9.8,11.65l-3.93.62-1.33-.82,13.28-21.58Z"/>
          <path class="cls-6" d="M78.99,29.77c1.57.97,3.81.59,4.77-.98l1.72-2.8-3.03-1.86-3.47,5.64Z"/>
          <path class="cls-6" d="M41.5,90.72c1.57.97,2.18,3.09,1.22,4.66l-1.72,2.8-2.96-1.82,3.47-5.64Z"/>
        </g>
      </g>
      <circle class="cls-8" cx="80.56" cy="27.46" r=".8"/>
      <circle class="cls-7" cx="40.18" cy="93.12" r=".8"/>
    </g>
  </g>
</svg>