<?xml version="1.0" encoding="UTF-8"?>
<svg id="Calque_1" data-name="Calque 1" xmlns="http://www.w3.org/2000/svg" viewBox="0 0 99.21 99.21">
  <defs>
    <style>
      .cls-1, .cls-2, .cls-3, .cls-4, .cls-5 {
        stroke-width: 0px;
      }

      .cls-6 {
        fill: none;
        stroke: #f7efee;
        stroke-linecap: round;
        stroke-miterlimit: 10;
        stroke-width: 1.26px;
      }

      .cls-2 {
        fill: #59bdde;
      }

      .cls-3 {
        fill: #20658a;
      }

      .cls-4 {
        fill: #1e6688;
      }

      .cls-5 {
        fill: #fdfcf9;
      }
    </style>
  </defs>
  <rect class="cls-4" x="-.45" width="99.21" height="99.21" rx="5.67" ry="5.67"/>
  <g>
    <circle class="cls-4" cx="49.16" cy="49.61" r="49.61"/>
    <ellipse class="cls-1" cx="49.16" cy="73.48" rx="26.93" ry="3.28"/>
    <g>
      <g>
        <path class="cls-5" d="M19.39,47.81h6.47v10.92h-3.41c-1.68,0-3.05-1.37-3.05-3.05v-7.87h0Z"/>
        <ellipse class="cls-5" cx="46.52" cy="49.54" rx="24.28" ry="18.63"/>
        <polygon class="cls-5" points="37.72 72.85 34.43 71.59 31.14 72.85 31.14 63.04 37.72 63.04 37.72 72.85"/>
        <polygon class="cls-5" points="61.61 72.85 58.32 71.59 55.02 72.85 55.02 63.04 61.61 63.04 61.61 72.85"/>
        <path class="cls-6" d="M69.83,48.94c2.16.6,4.55,1.81,7.32-.54,1.69-1.44.99-3.74-1.64-4.11-4.97-.7-4.58,8.26,3.42,8.26"/>
        <path class="cls-5" d="M26.54,40.9v-14.05s10.53,1.09,10.53,10.54"/>
        <path class="cls-5" d="M59.42,33.76c.26,1.28.39,2.6.39,3.94,0,12.66-11.89,22.93-26.56,22.93-2.42,0-4.76-.28-6.99-.8,4.35,5.03,11.79,8.35,20.25,8.35,13.41,0,24.28-8.34,24.28-18.63,0-6.65-4.55-12.49-11.38-15.78Z"/>
      </g>
      <path class="cls-4" d="M27.01,45.38c0,.93-.33,1.68-.74,1.68s-.74-.75-.74-1.68.33-1.68.74-1.68.74.75.74,1.68Z"/>
    </g>
    <path class="cls-3" d="M42.61,36.11c4.25-1.25,8.83-1.26,13.08,0-4.25,1.26-8.83,1.25-13.08,0h0Z"/>
    <g>
      <path class="cls-2" d="M55.48,17.76c0,3.5-2.83,6.33-6.32,6.33s-6.33-2.84-6.33-6.33,2.83-6.32,6.33-6.32,6.32,2.83,6.32,6.32Z"/>
      <path class="cls-2" d="M49.16,22.5c-2.62,0-4.74-2.12-4.74-4.74s2.12-4.74,4.74-4.74,4.74,2.13,4.74,4.74-2.13,4.74-4.74,4.74Z"/>
      <path class="cls-4" d="M44.92,18.28c0-2.61,2.13-4.74,4.74-4.74,1.18,0,2.26.43,3.09,1.15-.87-1.01-2.16-1.66-3.59-1.66-2.62,0-4.74,2.13-4.74,4.74,0,1.44.64,2.73,1.65,3.59-.71-.83-1.15-1.9-1.15-3.08Z"/>
    </g>
  </g>
</svg>