<?xml version="1.0" encoding="UTF-8"?>
<svg id="Calque_1" data-name="Calque 1" xmlns="http://www.w3.org/2000/svg" viewBox="0 0 116.22 116.22">
  <defs>
    <style>
      .cls-1 {
        stroke-width: 2px;
      }

      .cls-1, .cls-2, .cls-3 {
        stroke: #1d1d1b;
      }

      .cls-1, .cls-2, .cls-3, .cls-4 {
        fill: none;
        stroke-miterlimit: 10;
      }

      .cls-5, .cls-6 {
        fill-rule: evenodd;
      }

      .cls-5, .cls-6, .cls-7, .cls-8, .cls-9, .cls-10 {
        stroke-width: 0px;
      }

      .cls-5, .cls-7 {
        fill: #1d1d1b;
      }

      .cls-6, .cls-9 {
        fill: #fdfcf9;
      }

      .cls-3 {
        stroke-width: 1.79px;
      }

      .cls-8 {
        fill: #bab8d0;
      }

      .cls-10 {
        fill: #fff;
      }

      .cls-4 {
        stroke: #bab8d0;
        stroke-width: .5px;
      }
    </style>
  </defs>
  <path class="cls-8" d="M41.9,3.33c17.25-9.34,61.14,15.44,66.95,52.52,5.81,37.08-46.31,66.95-81.99,57.13C-8.82,103.16,7.82,21.77,41.9,3.33Z"/>
  <path class="cls-10" d="M18.57,28.52c22.97-4.94,46.22-8.55,69.61-10.77-22.97,4.95-46.22,8.54-69.61,10.77h0Z"/>
  <g>
    <path class="cls-5" d="M71.05,43.03v-1.03c0-.86-.68-1.56-1.51-1.56h-29.05c-.83,0-1.51.7-1.51,1.56v1.03h32.08Z"/>
    <g>
      <path class="cls-3" d="M54.68,38.85h-2.78c-1.11,0-2.01-.78-2.01-1.73v-11.07c0-.95.91-1.73,2.01-1.73h2.78"/>
      <g>
        <circle class="cls-7" cx="55.88" cy="23.69" r="3.75"/>
        <circle class="cls-4" cx="55.88" cy="23.69" r="2"/>
      </g>
      <g>
        <circle class="cls-7" cx="55.4" cy="38.85" r="2.68"/>
        <circle class="cls-8" cx="55.4" cy="38.85" r=".85"/>
      </g>
    </g>
    <g>
      <path class="cls-5" d="M76.17,96.28h-42.32c-2.28.04-4.73-2.02-5.62-4.49-4.57-14.05-4.57-29.18,0-43.23.89-2.47,3.34-4.53,5.62-4.49h42.32c2.23.06,4.79,1.93,5.62,4.49,4.57,14.05,4.57,29.18,0,43.23-.83,2.56-3.39,4.43-5.62,4.49Z"/>
      <g>
        <path class="cls-6" d="M68.9,68.16v-21.52h7.33c.99,0,2.51,1.17,3.1,2.73,1.98,6.09,3.07,12.4,3.26,18.79h-13.69Z"/>
        <path class="cls-6" d="M41.12,68.16v-21.52h-7.23c-.53.02-1.19.3-1.77.76-.67.52-1.17,1.21-1.41,1.93-1.98,6.1-3.08,12.43-3.27,18.83h13.69Z"/>
      </g>
      <rect class="cls-8" x="43.67" y="46.6" width="22.68" height="47.13"/>
      <g>
        <rect class="cls-9" x="43.67" y="46.64" width="10.84" height="27.77"/>
        <rect class="cls-9" x="55.65" y="46.64" width="10.7" height="27.77"/>
      </g>
      <g>
        <line class="cls-2" x1="60.97" y1="78.11" x2="57.59" y2="78.11"/>
        <line class="cls-2" x1="52.43" y1="78.11" x2="49.06" y2="78.11"/>
      </g>
      <line class="cls-1" x1="55.01" y1="45.6" x2="55.01" y2="96.24"/>
    </g>
  </g>
  <g>
    <g>
      <g>
        <g>
          <g>
            <path class="cls-8" d="M36.24,54.51v.08c0,.27,0,.54,0,.82,0,.03,0,.06,0,.09,0,.12,0,.24,0,.36,0,.02,0,.04,0,.07,0,.14,0,.29,0,.43,0,.02,0,.04,0,.06,0,.13,0,.26,0,.39,0,.03,0,.06,0,.09,0,.3,0,.6.01.91,0,.03,0,.05,0,.08,0,.01,0,.03,0,.04,1-.51,2.07-.9,3.16-1.24,0-.04,0-.09,0-.13,0-.05,0-.1,0-.16,0-.08,0-.16,0-.24,0-.05,0-.1,0-.14,0-.1,0-.2,0-.3,0-.02,0-.05,0-.07,0-.12,0-.24,0-.36,0-.04,0-.07,0-.11,0-.08,0-.17,0-.25v-.35s0-.09,0-.13c0-.07,0-.15,0-.22,0-.04,0-.08,0-.12,0-.08,0-.17,0-.25,0-.03,0-.05,0-.08,0-.11,0-.22,0-.32,0-.02,0-.04,0-.06,0-.09,0-.17,0-.26,0-.03,0-.07,0-.1,0-.07,0-.14,0-.21,0-.04,0-.07,0-.11,0-.06,0-.13,0-.19,0-.04,0-.07,0-.11,0-.06,0-.13,0-.19,0-.03,0-.06,0-.09,0-.09,0-.18,0-.27-.09-2.35-.8-2.81-1.55-2.81-.76,0-1.49.47-1.57,2.81,0,.1,0,.2,0,.3,0,.03,0,.06,0,.09,0,.08,0,.17,0,.25,0,.02,0,.05,0,.07,0,.11,0,.22,0,.33,0,.02,0,.04,0,.06,0,.1,0,.2,0,.29,0,.03,0,.06,0,.09,0,.11,0,.21,0,.32,0,.01,0,.02,0,.04,0,.12,0,.25,0,.38,0,.03,0,.05,0,.08,0,.11,0,.22,0,.33Z"/>
            <path class="cls-8" d="M39.14,92.62c0-.09,0-.19,0-.29,0-.04,0-.09,0-.13,0-.26,0-.55,0-.88,0-.72,0-1.6-.01-2.58-.3.16-.6.31-.9.46-.52.26-1.05.52-1.59.72-.02,0-.03.01-.05.02,0,.93,0,1.73,0,2.32,0,.58.01.97.01,1.12v.06h2.56s0-.02,0-.07c0-.11,0-.38,0-.76Z"/>
          </g>
          <path class="cls-8" d="M36.27,57.87c0,.14,0,.28,0,.42,0,.02,0,.03,0,.05.1,5.23.33,11.36.33,14.18,0,2.99-.01,12.4-.02,17.52.85-.34,1.7-.69,2.55-1.04-.02-5.27-.06-13.68-.06-16.48,0-2.94.26-9.46.34-14.83,0-.05,0-.1,0-.15,0-.08,0-.15,0-.23,0-.06,0-.12,0-.18,0-.07,0-.14,0-.21,0-.06,0-.11,0-.17,0-.07,0-.15,0-.22,0,0,0-.02,0-.03-.75.24-1.5.48-2.24.74-.25.09-.62.19-.93.32,0,.07,0,.15,0,.22,0,.03,0,.05,0,.08Z"/>
        </g>
        <path class="cls-8" d="M36.29,51.88c0,.1-.02.2-.02.3,0,.03,0,.06,0,.09,0,.08,0,.17,0,.25,0,.02,0,.05,0,.07,0,.11,0,.22,0,.33,0,.02,0,.04,0,.06,0,.1,0,.2,0,.29,0,.03,0,.06,0,.09,0,.11,0,.21,0,.32,0,.01,0,.02,0,.04,0,.12,0,.25,0,.38,0,.03,0,.05,0,.08,0,.11,0,.22,0,.33v.08c0,.27,0,.54,0,.82,0,.03,0,.06,0,.09,0,.12,0,.24,0,.36,0,.02,0,.04,0,.07,0,.14,0,.29,0,.43,0,.02,0,.04,0,.06,0,.13,0,.26,0,.39,0,.03,0,.06,0,.09,0,.3,0,.6.01.91,0,.03,0,.05,0,.08,0,.01,0,.03,0,.04h0c0,.12,0,.25,0,.37,0,.02,0,.03,0,.05.1,5.23.33,11.36.33,14.18,0,2.99-.01,12.4-.02,17.52h0c0,.89,0,1.65,0,2.22,0,.58.01.97.01,1.12v.06h1.14v-44.37c-.69.07-1.36.62-1.44,2.8Z"/>
      </g>
      <g>
        <rect class="cls-7" x="34.06" y="74.38" width="7.58" height=".69" transform="translate(-37.11 112.11) rotate(-89.65)"/>
        <path class="cls-7" d="M37.13,71.26h1.52s.1-1.03-.77-1.03-.74,1.03-.74,1.03Z"/>
        <path class="cls-9" d="M37.05,78.58v1.24h1.6v-1.31c-.53.08-1.07.11-1.6.07Z"/>
        <path class="cls-7" d="M38.65,79.25v-1.06s-.43-.28-.83-.28-.77.31-.77.31v1.04h1.6Z"/>
      </g>
    </g>
    <g>
      <g>
        <g>
          <g>
            <path class="cls-8" d="M32.3,54.51v.08c0,.27,0,.54,0,.82,0,.03,0,.06,0,.09,0,.12,0,.24,0,.36,0,.02,0,.04,0,.07,0,.14,0,.29,0,.43,0,.02,0,.04,0,.06,0,.13,0,.26,0,.39,0,.03,0,.06,0,.09,0,.3,0,.6.01.91,0,.03,0,.05,0,.08,0,.01,0,.03,0,.04,1-.51,2.07-.9,3.16-1.24,0-.04,0-.09,0-.13,0-.05,0-.1,0-.16,0-.08,0-.16,0-.24,0-.05,0-.1,0-.14,0-.1,0-.2,0-.3,0-.02,0-.05,0-.07,0-.12,0-.24,0-.36,0-.04,0-.07,0-.11,0-.08,0-.17,0-.25v-.35s0-.09,0-.13c0-.07,0-.15,0-.22,0-.04,0-.08,0-.12,0-.08,0-.17,0-.25,0-.03,0-.05,0-.08,0-.11,0-.22,0-.32,0-.02,0-.04,0-.06,0-.09,0-.17,0-.26,0-.03,0-.07,0-.1,0-.07,0-.14,0-.21,0-.04,0-.07,0-.11,0-.06,0-.13,0-.19,0-.04,0-.07,0-.11,0-.06,0-.13,0-.19,0-.03,0-.06,0-.09,0-.09,0-.18,0-.27-.09-2.35-.8-2.81-1.55-2.81-.76,0-1.49.47-1.57,2.81,0,.1,0,.2,0,.3,0,.03,0,.06,0,.09,0,.08,0,.17,0,.25,0,.02,0,.05,0,.07,0,.11,0,.22,0,.33,0,.02,0,.04,0,.06,0,.1,0,.2,0,.29,0,.03,0,.06,0,.09,0,.11,0,.21,0,.32,0,.01,0,.02,0,.04,0,.12,0,.25,0,.38,0,.03,0,.05,0,.08,0,.11,0,.22,0,.33Z"/>
            <path class="cls-8" d="M35.2,92.62c0-.09,0-.19,0-.29,0-.04,0-.09,0-.13,0-.26,0-.55,0-.88,0-.72,0-1.6-.01-2.58-.3.16-.6.31-.9.46-.52.26-1.05.52-1.59.72-.02,0-.03.01-.05.02,0,.93,0,1.73,0,2.32,0,.58.01.97.01,1.12v.06h2.56s0-.02,0-.07c0-.11,0-.38,0-.76Z"/>
          </g>
          <path class="cls-8" d="M32.32,57.87c0,.14,0,.28,0,.42,0,.02,0,.03,0,.05.1,5.23.33,11.36.33,14.18,0,2.99-.01,12.4-.02,17.52.85-.34,1.7-.69,2.55-1.04-.02-5.27-.06-13.68-.06-16.48,0-2.94.26-9.46.34-14.83,0-.05,0-.1,0-.15,0-.08,0-.15,0-.23,0-.06,0-.12,0-.18,0-.07,0-.14,0-.21,0-.06,0-.11,0-.17,0-.07,0-.15,0-.22,0,0,0-.02,0-.03-.75.24-1.5.48-2.24.74-.25.09-.62.19-.93.32,0,.07,0,.15,0,.22,0,.03,0,.05,0,.08Z"/>
        </g>
        <path class="cls-8" d="M32.35,51.88c0,.1-.02.2-.02.3,0,.03,0,.06,0,.09,0,.08,0,.17,0,.25,0,.02,0,.05,0,.07,0,.11,0,.22,0,.33,0,.02,0,.04,0,.06,0,.1,0,.2,0,.29,0,.03,0,.06,0,.09,0,.11,0,.21,0,.32,0,.01,0,.02,0,.04,0,.12,0,.25,0,.38,0,.03,0,.05,0,.08,0,.11,0,.22,0,.33v.08c0,.27,0,.54,0,.82,0,.03,0,.06,0,.09,0,.12,0,.24,0,.36,0,.02,0,.04,0,.07,0,.14,0,.29,0,.43,0,.02,0,.04,0,.06,0,.13,0,.26,0,.39,0,.03,0,.06,0,.09,0,.3,0,.6.01.91,0,.03,0,.05,0,.08,0,.01,0,.03,0,.04h0c0,.12,0,.25,0,.37,0,.02,0,.03,0,.05.1,5.23.33,11.36.33,14.18,0,2.99-.01,12.4-.02,17.52h0c0,.89,0,1.65,0,2.22,0,.58.01.97.01,1.12v.06h1.14v-44.37c-.69.07-1.36.62-1.44,2.8Z"/>
      </g>
      <g>
        <rect class="cls-7" x="30.12" y="74.38" width="7.58" height=".69" transform="translate(-41.03 108.17) rotate(-89.65)"/>
        <path class="cls-7" d="M33.19,71.26h1.51s.1-1.03-.77-1.03-.74,1.03-.74,1.03Z"/>
        <path class="cls-9" d="M33.1,78.58v1.24h1.6v-1.31c-.53.08-1.07.11-1.6.07Z"/>
        <path class="cls-7" d="M34.71,79.25v-1.06s-.43-.28-.83-.28-.77.31-.77.31v1.04h1.6Z"/>
      </g>
    </g>
    <rect class="cls-9" x="31.8" y="81.48" width="7.86" height="12.08" rx=".26" ry=".26"/>
  </g>
</svg>