<?xml version="1.0" encoding="UTF-8" standalone="no"?>
<svg
   xmlns:dc="http://purl.org/dc/elements/1.1/"
   xmlns:cc="http://creativecommons.org/ns#"
   xmlns:rdf="http://www.w3.org/1999/02/22-rdf-syntax-ns#"
   xmlns:svg="http://www.w3.org/2000/svg"
   xmlns="http://www.w3.org/2000/svg"
   xmlns:sodipodi="http://sodipodi.sourceforge.net/DTD/sodipodi-0.dtd"
   xmlns:inkscape="http://www.inkscape.org/namespaces/inkscape"
   inkscape:version="1.0 (4035a4fb49, 2020-05-01)"
   height="113.52"
   width="113.52"
   sodipodi:docname="ski_rando.svg"
   version="1.1"
   viewBox="0 0 113.52 113.52"
   data-name="Calque 1"
   id="Calque_1">
  <metadata
     id="metadata113">
    <rdf:RDF>
      <cc:Work
         rdf:about="">
        <dc:format>image/svg+xml</dc:format>
        <dc:type
           rdf:resource="http://purl.org/dc/dcmitype/StillImage" />
        <dc:title></dc:title>
      </cc:Work>
    </rdf:RDF>
  </metadata>
  <sodipodi:namedview
     inkscape:current-layer="Calque_1"
     inkscape:window-maximized="1"
     inkscape:window-y="-8"
     inkscape:window-x="-8"
     inkscape:cy="64.836763"
     inkscape:cx="51.494999"
     inkscape:zoom="6.4746302"
     showgrid="false"
     id="namedview111"
     inkscape:window-height="1017"
     inkscape:window-width="1920"
     inkscape:pageshadow="2"
     inkscape:pageopacity="0"
     guidetolerance="10"
     gridtolerance="10"
     objecttolerance="10"
     borderopacity="1"
     bordercolor="#666666"
     pagecolor="#ffffff" />
  <defs
     id="defs10">
    <style
       id="style2">
      .cls-1 {
        clip-path: url(#clippath);
      }

      .cls-2 {
        fill: none;
      }

      .cls-2, .cls-3, .cls-4, .cls-5, .cls-6, .cls-7, .cls-8 {
        stroke-width: 0px;
      }

      .cls-9 {
        stroke: #000;
        stroke-miterlimit: 10;
      }

      .cls-10, .cls-4 {
        fill: #63959b;
      }

      .cls-11 {
        clip-path: url(#clippath-1);
      }

      .cls-5 {
        fill: #161617;
      }

      .cls-6 {
        fill: #abc9cf;
      }

      .cls-7 {
        fill: #97d6f5;
      }

      .cls-8 {
        fill: #fdfcf9;
      }
    </style>
    <clipPath
       id="clippath">
      <path
         id="path4"
         d="M 35.29,1.98 C 52.54,-7.36 96.43,17.42 102.24,54.5 108.05,91.58 55.93,121.45 20.25,111.63 -15.43,101.8 1.21,20.42 35.29,1.98 Z"
         class="cls-2" />
    </clipPath>
    <clipPath
       id="clippath-1">
      <path
         id="path7"
         d="M 35.29,1.98 C 52.54,-7.36 96.43,17.42 102.24,54.5 108.05,91.58 55.93,121.45 20.25,111.63 -15.43,101.8 1.21,20.42 35.29,1.98 Z"
         class="cls-4" />
    </clipPath>
  </defs>
  <g
     transform="translate(6)"
     id="g108"
     clip-path="url(#clippath)"
     class="cls-1">
    <g
       id="g18">
      <path
         id="path12"
         d="M 35.29,1.98 C 52.54,-7.36 96.43,17.42 102.24,54.5 108.05,91.58 55.93,121.45 20.25,111.63 -15.43,101.8 1.21,20.42 35.29,1.98 Z"
         class="cls-10" />
      <g
         id="g16"
         clip-path="url(#clippath-1)"
         class="cls-11">
        <path
           id="path14"
           d="M 35.29,1.98 C 52.54,-7.36 96.43,17.42 102.24,54.5 108.05,91.58 55.93,121.45 20.25,111.63 -15.43,101.8 1.21,20.42 35.29,1.98 Z"
           class="cls-6" />
      </g>
    </g>
    <g
       id="g106">
      <g
         id="g80">
        <path
           id="path20"
           d="m 48.79,27.9 c 0,0 7.41,-6.85 8.42,-7.2 1.01,-0.35 1.75,-1.11 2.31,1.42 0.57,2.53 6.78,15.34 8.06,17.58 l -3.09,4.17 z"
           class="cls-8" />
        <g
           id="g36">
          <path
             id="path22"
             d="m 49.61,26.95 c 0,0 -14.3,13.98 -23.09,26.3 0,0 -3.12,4.08 -2.56,7.12 l 9.51,5.85 c 0,0 1.63,-1.06 3.5,-0.16 1.87,0.91 4.25,4.92 7.25,6.77 l 16.73,10.29 c 0,0 3.44,1.91 6.04,0.84 1.58,-0.65 4.5,-3.76 1.75,-8.37 C 67.06,72.78 58.9,60.41 57.27,57.14 56.4,55.39 65.62,45.53 67.56,40.41 L 55.81,31.49 49.62,26.96 Z"
             class="cls-8" />
          <path
             id="path24"
             d="m 35.4,49.41 c 0.36,2.26 0.08,4.49 -0.1,6.73 0.25,0.03 0.5,0.16 0.67,0.41 0.13,0.02 0.27,0.02 0.39,0.03 0.4,0 0.8,0 1.2,-0.02 0.42,-0.03 0.83,-0.06 1.24,-0.11 0.45,-0.12 0.9,-0.23 1.35,-0.34 0.15,-0.18 0.38,-0.32 0.69,-0.37 6.04,-1.04 12.12,-1.81 18.21,-2.45 2.61,-3.82 7.21,-9.41 8.51,-12.86 L 55.81,31.51 49.62,26.97 c 0,0 -8.36,8.18 -16.22,17.53 0.99,1.52 1.77,3.41 2.01,4.93 z"
             class="cls-8" />
          <g
             id="g34">
            <path
               id="path26"
               d="M 48.12,69.25 C 43.7,65.19 43.14,55.6 43.1,51.77 c 1.43,-0.19 4.32,-0.57 8.7,-1.13 5.54,-0.72 13.02,-3.4 13.02,-3.4 0,0 2.45,-3.59 4.36,-6.3 0.34,-0.48 -7.29,-8.03 -12.24,-11.81 0.15,-3.79 -2.79,-7.84 -4.78,-6.18 -2,1.68 -6.08,5.82 -7.24,7.04 -4.57,4.8 -7.8,8.47 -10.33,11.53 0.5,0.92 1.42,2.29 2.45,3.73 0.84,2.64 1.64,6.26 0.53,8.3 -1.88,3.45 -13.49,3.03 -13.49,3.03 l -1.05,4.13 10.74,6.61 c 0,0 1.01,-1.24 2.59,-0.27 1.58,0.97 4.89,5.47 4.89,5.47 l 22.29,13.49 c 0,0 2.34,-0.25 4.59,-1.54 0,0 -14.43,-10.08 -20.02,-15.22 z"
               class="cls-3" />
            <path
               id="path28"
               d="m 40.08,39.6 c 4.76,-5.54 9.94,-10.72 14.65,-16.3 -0.84,-0.77 -1.78,-1.02 -2.57,-0.35 -2,1.68 -6.08,5.82 -7.24,7.04 -4.57,4.8 -7.8,8.47 -10.33,11.53 0.35,0.64 0.91,1.51 1.56,2.46 1.31,-1.46 2.66,-2.89 3.93,-4.37 z"
               class="cls-3" />
            <path
               id="path30"
               d="m 27.08,57.55 c -0.06,-0.3 -0.02,-0.63 0.15,-0.91 l 0.03,-0.05 c -1.86,0.08 -3.21,0.04 -3.21,0.04 l -1.09,4.19 2.4,1.48 c 0.56,-1.58 1.15,-3.16 1.72,-4.74 z"
               class="cls-3" />
            <path
               id="path32"
               d="m 44.78,47.05 c -0.66,1.07 -2.06,1.4 -3.13,0.75 -1.07,-0.65 -1.4,-2.06 -0.75,-3.13 0.65,-1.07 2.06,-1.4 3.13,-0.75 1.07,0.66 1.4,2.06 0.75,3.13 z"
               class="cls-8" />
          </g>
        </g>
        <g
           id="g78">
          <g
             id="g42">
            <path
               id="path38"
               d="m 64.05,48.18 -6.67,-5.15 c -0.88,1.6 -2.18,3 -3.21,4.52 l 6.68,5.16 c 0.25,0.19 0.57,0.03 0.79,-0.3 L 64,49.06 c 0.23,-0.33 0.28,-0.69 0.04,-0.88 z"
               class="cls-7" />
            <path
               id="path40"
               d="m 55.39,41.51 -2.38,-1.84 c -0.25,-0.19 -0.71,-0.14 -0.94,0.18 l -2.36,3.35 c -0.23,0.33 -0.14,0.8 0.11,0.99 l 2.4,1.85 c 1.09,-1.5 2.45,-2.91 3.18,-4.54 z"
               class="cls-7" />
          </g>
          <g
             id="g48">
            <path
               id="path44"
               d="m 49.68,60.4 -2.12,1.06 c -0.24,0.12 -0.36,0.54 -0.18,0.9 l 1.85,3.68 c 0.18,0.36 0.59,0.51 0.83,0.39 l 2.08,-1.04 C 51.21,63.8 50.33,62.12 49.69,60.4 Z"
               class="cls-7" />
            <path
               id="path46"
               d="M 60.74,60.26 58.89,56.58 C 58.71,56.22 58.44,56 58.2,56.12 l -6.3,3.16 c 0.6,1.72 1.5,3.4 2.45,4.99 l 6.34,-3.18 c 0.24,-0.12 0.22,-0.47 0.04,-0.83 z"
               class="cls-7" />
          </g>
          <g
             id="g76">
            <path
               id="path50"
               d="m 66.36,68.65 c 0.28,0.29 0.42,0.6 0.26,0.75 l -6.91,6.69 c -0.16,0.15 -0.55,0.08 -0.83,-0.2 L 56.02,72.93 C 55.74,72.64 55.69,72.25 55.85,72.1 l 6.91,-6.69 c 0.16,-0.15 0.46,0 0.74,0.29 l 2.86,2.96 z"
               class="cls-7" />
            <g
               id="g56">
              <path
                 id="path52"
                 d="m 55.39,41.51 -2.38,-1.84 c -0.25,-0.19 -0.71,-0.14 -0.94,0.18 l -2.36,3.35 c -0.23,0.33 -0.14,0.8 0.11,0.99 l 2.4,1.85 c 1.09,-1.5 2.45,-2.91 3.18,-4.54 z"
                 class="cls-6" />
              <path
                 id="path54"
                 d="m 64.05,48.18 -6.67,-5.15 c -0.88,1.6 -2.18,3 -3.21,4.52 l 6.68,5.16 c 0.25,0.19 0.57,0.03 0.79,-0.3 L 64,49.06 c 0.23,-0.33 0.28,-0.69 0.04,-0.88 z"
                 class="cls-3" />
            </g>
            <g
               id="g62">
              <path
                 id="path58"
                 d="m 49.68,60.4 -2.12,1.06 c -0.24,0.12 -0.36,0.54 -0.18,0.9 l 1.85,3.68 c 0.18,0.36 0.59,0.51 0.83,0.39 l 2.08,-1.04 C 51.21,63.8 50.33,62.12 49.69,60.4 Z"
                 class="cls-6" />
              <path
                 id="path60"
                 d="M 60.74,60.26 58.89,56.58 C 58.71,56.22 58.44,56 58.2,56.12 l -6.3,3.16 c 0.6,1.72 1.5,3.4 2.45,4.99 l 6.34,-3.18 c 0.24,-0.12 0.22,-0.47 0.04,-0.83 z"
                 class="cls-3" />
            </g>
            <path
               id="path64"
               d="m 62.98,72.92 3.64,-3.53 c 0.16,-0.15 0.01,-0.46 -0.26,-0.75 L 63.5,65.68 c -0.28,-0.29 -0.58,-0.44 -0.74,-0.29 l -3.83,3.7 c 1.21,1.39 2.66,2.59 4.05,3.81 z"
               class="cls-3" />
            <path
               id="path66"
               d="m 57.18,70.8 -1.34,1.3 c -0.16,0.15 -0.1,0.55 0.17,0.83 l 2.86,2.96 c 0.28,0.29 0.67,0.35 0.83,0.2 l 1.5,-1.45 C 59.82,73.4 58.41,72.18 57.17,70.8 Z"
               class="cls-6" />
            <rect
               id="rect68"
               transform="rotate(-44.47,59.958965,71.675443)"
               height="6.1999998"
               width="3.72"
               y="68.580002"
               x="58.110001"
               class="cls-5" />
            <rect
               id="rect70"
               transform="rotate(-55.54,54.738762,44.675477)"
               height="3.72"
               width="6.1999998"
               y="42.810001"
               x="51.639999"
               class="cls-3" />
            <rect
               id="rect72"
               transform="rotate(-26.82,52.049131,62.432826)"
               height="6.1999998"
               width="3.72"
               y="59.34"
               x="50.200001"
               class="cls-3" />
            <rect
               id="rect74"
               transform="rotate(-44.47,59.958965,71.675443)"
               height="6.1999998"
               width="3.72"
               y="68.580002"
               x="58.110001"
               class="cls-3" />
          </g>
        </g>
      </g>
      <rect
         id="rect82"
         height="6.2399998"
         width="93.68"
         y="84.580002"
         x="-0.31"
         class="cls-3" />
      <g
         id="g92">
        <rect
           id="rect84"
           height="4.21"
           width="9.8100004"
           y="75.199997"
           x="12.23"
           class="cls-3" />
        <rect
           id="rect86"
           height="2"
           width="6.0799999"
           y="81.32"
           x="14.1"
           class="cls-3" />
        <rect
           id="rect88"
           transform="rotate(90,17.14,83.98)"
           height="19.280001"
           width="1.3200001"
           y="74.339996"
           x="16.48"
           class="cls-3" />
        <polygon
           id="polygon90"
           points="22.05,79.41 20.18,81.32 14.1,81.32 12.23,79.41 "
           class="cls-3" />
      </g>
      <polygon
         id="polygon94"
         points="83.06,73.49 84.39,75.7 72.01,86 66.8,81.92 "
         class="cls-9" />
      <path
         id="path96"
         d="m 13.46,75.2 v -2.28 l 4.98,-2.12 h 6.42 c 0.39,0 0.71,0.32 0.71,0.71 v 2.98 c 0,0.39 -0.32,0.71 -0.71,0.71 z"
         class="cls-8" />
      <rect
         id="rect98"
         ry="0.34"
         rx="0.34"
         height="2.26"
         width="4.6399999"
         y="71.870003"
         x="19.51"
         class="cls-6" />
      <path
         id="path100"
         d="m 73.22,81.5 c 2.01,-2.38 4.72,-4.13 7.73,-4.96 -2,2.39 -4.72,4.12 -7.73,4.96 z"
         class="cls-6" />
      <circle
         id="circle102"
         r="3.8800001"
         cy="81.839996"
         cx="67.900002"
         class="cls-3" />
      <circle
         id="circle104"
         r="1.34"
         cy="81.839996"
         cx="67.900002"
         class="cls-6" />
    </g>
  </g>
</svg>
