<?xml version="1.0" encoding="UTF-8"?>
<svg id="Calque_1" data-name="Calque 1" xmlns="http://www.w3.org/2000/svg" xmlns:xlink="http://www.w3.org/1999/xlink" viewBox="0 0 116.22 116.22">
  <defs>
    <style>
      .cls-1 {
        clip-path: url(#clippath);
      }

      .cls-2, .cls-3 {
        fill: #e9e2c6;
      }

      .cls-4 {
        fill: none;
        stroke: #fff;
        stroke-miterlimit: 10;
        stroke-width: 2px;
      }

      .cls-5, .cls-6, .cls-7, .cls-8, .cls-3 {
        stroke-width: 0px;
      }

      .cls-6 {
        fill: #d4cebf;
      }

      .cls-7 {
        fill: #fdfcf9;
      }

      .cls-8 {
        fill: #f1f7ef;
      }
    </style>
    <clipPath id="clippath">
      <path class="cls-3" d="M41.9,3.33c17.25-9.34,61.14,15.44,66.95,52.52,5.81,37.08-46.31,66.95-81.99,57.13C-8.82,103.16,7.82,21.77,41.9,3.33Z"/>
    </clipPath>
  </defs>
  <path class="cls-2" d="M41.9,3.33c17.25-9.34,61.14,15.44,66.95,52.52,5.81,37.08-46.31,66.95-81.99,57.13C-8.82,103.16,7.82,21.77,41.9,3.33Z"/>
  <g class="cls-1">
    <path class="cls-6" d="M41.9,3.33c17.25-9.34,61.14,15.44,66.95,52.52,5.81,37.08-46.31,66.95-81.99,57.13C-8.82,103.16,7.82,21.77,41.9,3.33Z"/>
    <g>
      <path class="cls-5" d="M72.49,108.49l-.15-29.67.63-35.76.05-18.12v-1.23c0-1.35-.14-2.7-.43-4.01l-1.12-5.09c-.07-.3-.18-.59-.33-.85-.38-.67-.99-1.17-1.71-1.42h0c-.29-.1-.61-.1-.9,0h0c-.73.24-1.34.74-1.72,1.41-.15.27-.26.55-.33.85l-1.15,5.09c-.3,1.32-.45,2.66-.45,4.01v1.23s-.06,18.12-.06,18.12l.42,35.76-.32,29.67-.78,36.47v.35c0,1.64.2,3.28.61,4.87h3.83s3.83.02,3.83.02h0c.42-1.59.63-3.23.64-4.87v-.35s-.57-36.48-.57-36.48Z"/>
      <path class="cls-7" d="M66.69,86.23v-28.7s.04-16.67.04-16.67c0-1.04.14-2.08.42-3.1l1.2-4.39c.03-.1.07-.19.13-.28,0,0,0,0,0,0,.27-.39.76-.39,1.04,0,0,0,0,0,0,0,.06.09.1.18.13.28l1.17,4.39c.27,1.02.41,2.06.4,3.1l-.05,16.67-.16,27.48"/>
      <path class="cls-5" d="M68.8,75.62c-2.3,0-4.18,2.69-4.19,5.43v3.96s8.33.02,8.33.02v-3.96c.02-2.74-1.84-5.45-4.14-5.46Z"/>
      <rect class="cls-5" x="63.34" y="81.1" width="10.88" height="2.18" rx=".54" ry=".54" transform="translate(.24 -.2) rotate(.16)"/>
      <polygon class="cls-8" points="71.28 100.47 66.17 100.45 67.3 92.49 66.21 84.73 71.33 84.74 70.19 92.71 71.28 100.47"/>
      <path class="cls-5" d="M63.87,100.09v1.05c0,2.15,2.16,4.82,4.84,4.83s4.86-2.65,4.87-4.8v-1.05s-9.7-.03-9.7-.03Z"/>
    </g>
    <g>
      <path class="cls-5" d="M45.06,132.91l-.15-29.67.63-35.76.05-18.12v-1.23c0-1.35-.14-2.7-.43-4.01l-1.12-5.09c-.07-.3-.18-.59-.33-.85-.38-.67-.99-1.17-1.71-1.42h0c-.29-.1-.61-.1-.9,0h0c-.73.24-1.34.74-1.72,1.41-.15.27-.26.55-.33.85l-1.15,5.09c-.3,1.32-.45,2.66-.45,4.01v1.23s-.06,18.12-.06,18.12l.42,35.76-.32,29.67-.78,36.47v.35c0,1.64.2,3.28.61,4.87h3.83s3.83.02,3.83.02h0c.42-1.59.63-3.23.64-4.87v-.35s-.57-36.48-.57-36.48Z"/>
      <path class="cls-7" d="M39.26,110.65v-28.7s.04-16.67.04-16.67c0-1.04.14-2.08.42-3.1l1.2-4.39c.03-.1.07-.19.13-.28,0,0,0,0,0,0,.27-.39.76-.39,1.04,0,0,0,0,0,0,0,.06.09.1.18.13.28l1.17,4.39c.27,1.02.41,2.06.4,3.1l-.05,16.67-.16,27.48"/>
      <path class="cls-5" d="M41.37,100.03c-2.3,0-4.18,2.69-4.19,5.43v3.96s8.33.02,8.33.02v-3.96c.02-2.74-1.84-5.45-4.14-5.46Z"/>
      <rect class="cls-5" x="35.92" y="105.52" width="10.88" height="2.18" rx=".54" ry=".54" transform="translate(.31 -.12) rotate(.16)"/>
      <polygon class="cls-8" points="43.86 124.88 38.74 124.87 39.88 116.91 38.79 109.15 43.9 109.16 42.77 117.12 43.86 124.88"/>
    </g>
    <line class="cls-4" x1="30.43" y1=".87" x2="30.43" y2="121.89"/>
    <line class="cls-4" x1="50.27" y1=".87" x2="50.27" y2="121.89"/>
    <line class="cls-4" x1="59.86" y1=".87" x2="59.86" y2="121.89"/>
    <line class="cls-4" x1="79.7" y1=".87" x2="79.7" y2="121.89"/>
  </g>
</svg>