<?xml version="1.0" encoding="UTF-8"?>
<svg id="Calque_1" data-name="Calque 1" xmlns="http://www.w3.org/2000/svg" xmlns:xlink="http://www.w3.org/1999/xlink" viewBox="0 0 116.22 116.22">
  <defs>
    <style>
      .cls-1 {
        clip-path: url(#clippath);
      }

      .cls-2, .cls-3 {
        fill: none;
      }

      .cls-2, .cls-4, .cls-5, .cls-6, .cls-7 {
        stroke-width: 0px;
      }

      .cls-8, .cls-6 {
        fill: #d8d9c4;
      }

      .cls-9 {
        clip-path: url(#clippath-1);
      }

      .cls-3 {
        stroke: #d8d9c4;
        stroke-miterlimit: 10;
      }

      .cls-4 {
        fill: #505a9d;
      }

      .cls-5 {
        fill: #1d1d1b;
      }

      .cls-7 {
        fill: #fff;
      }
    </style>
    <clipPath id="clippath">
      <path class="cls-2" d="M41.9,3.33c17.25-9.34,61.14,15.44,66.95,52.52,5.81,37.08-46.31,66.95-81.99,57.13C-8.82,103.16,7.82,21.77,41.9,3.33Z"/>
    </clipPath>
    <clipPath id="clippath-1">
      <path class="cls-6" d="M41.9,3.33c17.25-9.34,61.14,15.44,66.95,52.52,5.81,37.08-46.31,66.95-81.99,57.13C-8.82,103.16,7.82,21.77,41.9,3.33Z"/>
    </clipPath>
  </defs>
  <g class="cls-1">
    <g>
      <path class="cls-8" d="M41.9,3.33c17.25-9.34,61.14,15.44,66.95,52.52,5.81,37.08-46.31,66.95-81.99,57.13C-8.82,103.16,7.82,21.77,41.9,3.33Z"/>
      <g class="cls-9">
        <polygon class="cls-5" points="5.12 60.21 20.54 51.38 37.16 51.38 57.88 87.61 64.56 115.14 16.5 117.56 4.07 84.47 5.12 60.21"/>
        <polygon class="cls-5" points="78.18 111.42 75.05 87.59 77.39 67.72 94.05 45.84 105.43 50.03 115.01 77.88 99.29 100.34 78.18 111.42"/>
        <path class="cls-3" d="M6.77,77.43s1.35,3.14,7.04,2.25,4.49-5.39,4.49-5.39l-1.05-8.53s-.3-4.64,4.79-3.74c5.09.9,3.59-4.49,5.54-5.39s9.58-5.24,9.58-5.24"/>
        <polyline class="cls-3" points="25.95 117.08 32.52 64.86 41.95 84.47 41.95 118.01"/>
        <path class="cls-3" d="M75.05,75.49s9.87-7.64,13.91-10.63c4.04-2.99,4.64-3.74,9.88-1.65,5.24,2.1,6.59-15.57,6.59-15.57"/>
        <line class="cls-3" x1="85.64" y1="106.4" x2="93.43" y2="62.13"/>
      </g>
    </g>
    <path class="cls-7" d="M37.2,51.59c9.35,3.27,19.28,6.44,29.23,5.39,9.84-1.6,18.94-6.6,27.67-11.37-8.06,6.24-17.15,11.61-27.4,13.35-10.3,1.03-20.59-2.53-29.51-7.37h0Z"/>
    <path class="cls-4" d="M117.44,82.89c.92.02,2.12-.42,2.7-1.71l1.09-2.44-3.32-5.81c-.13-.22-.33-.27-.44-.28-.11,0-.32,0-.48.2l-3.65,4.44,1.48,3.77c.52,1.32,1.69,1.81,2.62,1.83Z"/>
    <path class="cls-4" d="M-1.64,88.81h0c-.02-.43.21-.83.59-1.02.39-.19.85-.14,1.17.14l4.23,3.56-2.27-13.62c-3.48-2.53-6.41-5.78-8.55-9.52l-12.48,39.04H-.59l-1.05-18.57Z"/>
    <path class="cls-4" d="M114.99,84.38c-.13-.07-.26-.15-.38-.24l-5.25,23.23h7.29l-1.66-22.99Z"/>
  </g>
</svg>