<?xml version="1.0" encoding="UTF-8"?>
<svg id="Calque_1" data-name="Calque 1" xmlns="http://www.w3.org/2000/svg" xmlns:xlink="http://www.w3.org/1999/xlink" viewBox="0 0 116.22 116.22">
  <defs>
    <style>
      .cls-1 {
        clip-path: url(#clippath);
      }

      .cls-2, .cls-3 {
        fill: #9c9eb1;
      }

      .cls-4, .cls-3, .cls-5, .cls-6 {
        stroke-width: 0px;
      }

      .cls-5 {
        fill: #9dc0d5;
      }

      .cls-6 {
        fill: #fdfcf9;
      }
    </style>
    <clipPath id="clippath">
      <path class="cls-3" d="M41.9,3.33c17.25-9.34,61.14,15.44,66.95,52.52,5.81,37.08-46.31,66.95-81.99,57.13C-8.82,103.16,7.82,21.77,41.9,3.33Z"/>
    </clipPath>
  </defs>
  <path class="cls-2" d="M41.9,3.33c17.25-9.34,61.14,15.44,66.95,52.52,5.81,37.08-46.31,66.95-81.99,57.13C-8.82,103.16,7.82,21.77,41.9,3.33Z"/>
  <g class="cls-1">
    <path class="cls-5" d="M41.9,3.33c17.25-9.34,61.14,15.44,66.95,52.52,5.81,37.08-46.31,66.95-81.99,57.13C-8.82,103.16,7.82,21.77,41.9,3.33Z"/>
    <g>
      <g>
        <path class="cls-4" d="M12.31-9.94c-2.87-3.53-5.74-7.06-8.54-10.64-2.34-3-5.45-4.51-9.15-4.53-3.94-.02-7.44,1-10.18,3.51-2.84,2.39-4.31,5.73-4.8,9.64-.46,3.67.63,6.95,3.3,9.66C-13.87.94-10.74,4.25-7.61,7.55,3.21,18.96,14.1,30.31,24.79,41.85c4.74,5.12,9.16,10.54,13.56,15.96,9.44,11.65,18.78,23.39,28.17,35.07.63.78,1.35,1.55,2.16,2.12,5.17,3.64,12.36,2.88,17.02-1.23,4.68-4.09,6.37-11.12,3.43-16.72-.46-.88-1.13-1.69-1.82-2.42-10.37-10.83-20.8-21.61-31.12-32.48-4.81-5.06-9.61-10.15-14.07-15.51C32.07,14.54,22.22,2.27,12.31-9.94Z"/>
        <path class="cls-6" d="M43.55,64.34l2.18-33.49c-2.25-2.77-9.73-11.58-11.2-13.41l-2.15,33.09"/>
        <path class="cls-4" d="M3.77-20.58c-2.34-3-5.45-4.51-9.15-4.53-3.94-.02-7.44,1-10.18,3.51-2.84,2.39-4.31,5.73-4.8,9.64-.46,3.67.63,6.95,3.3,9.66C-13.87.94-10.74,4.25-7.61,7.55-3.25,12.15,1.12,16.74,5.48,21.33L7.87-15.41c-1.38-1.71-2.75-3.43-4.1-5.17Z"/>
      </g>
      <g>
        <rect class="cls-4" x="26.39" y="24.17" width="12.14" height="18.89" rx="2.19" ry="2.19" transform="translate(3.64 70.4) rotate(-97.93)"/>
        <path class="cls-6" d="M40.95,30.73c-.33-2.39-2.42-4.09-4.63-3.78l-.95.13c2.2-.29,4.27,1.4,4.6,3.78l.46,3.34c.33,2.39-1.21,4.59-3.42,4.9l-8.34,1.16s.02,0,.02,0l9.3-1.3c2.21-.31,3.75-2.51,3.42-4.9l-.46-3.34Z"/>
        <path class="cls-6" d="M33.65,35.16l-.47-3.34c-.33-2.39,1.35-4.61,3.74-4.95l-2.21.31c-2.39.33-4.07,2.56-3.74,4.95l.47,3.34c.33,2.39,2.56,4.07,4.95,3.74l2.16-.3c-2.37.3-4.56-1.37-4.89-3.74Z"/>
        <path class="cls-6" d="M26.81,36.11l-.47-3.34c-.33-2.39,1.35-4.61,3.74-4.95l-2.21.31c-2.39.33-4.07,2.56-3.74,4.95l.47,3.34c.33,2.39,2.56,4.07,4.95,3.74l2.16-.3c-2.37.3-4.56-1.37-4.89-3.74Z"/>
      </g>
      <g>
        <rect class="cls-4" x="57.86" y="59.94" width="12.14" height="18.89" rx="2.19" ry="2.19" transform="translate(20.69 -14.47) rotate(15.38)"/>
        <path class="cls-6" d="M67.89,61.34c2.32.64,3.74,2.93,3.15,5.08l-.25.93c.58-2.15-.84-4.42-3.15-5.06l-3.25-.89c-2.32-.64-4.71.6-5.3,2.75l-2.24,8.12s0-.02,0-.02l2.49-9.05c.59-2.15,2.98-3.39,5.3-2.75l3.25.89Z"/>
        <path class="cls-6" d="M62.56,68l3.25.89c2.32.64,4.75-.74,5.39-3.06l-.59,2.15c-.64,2.32-3.06,3.7-5.39,3.06l-3.25-.89c-2.32-.64-3.7-3.06-3.06-5.39l.58-2.1c-.6,2.31.77,4.7,3.08,5.33Z"/>
        <path class="cls-6" d="M60.73,74.67l3.25.89c2.32.64,4.75-.74,5.39-3.06l-.59,2.15c-.64,2.32-3.06,3.7-5.39,3.06l-3.25-.89c-2.32-.64-3.7-3.06-3.06-5.39l.58-2.1c-.6,2.31.77,4.7,3.08,5.33Z"/>
      </g>
    </g>
    <g>
      <path class="cls-4" d="M38.96,84.51H-14.17c4-12.82,18.19-7.38,18.19-7.38,0,0-1.07-6.97,5.27-10.01,12.92-3.8,14.26,7.43,14.26,7.43,16.44-2.48,15.42,9.95,15.42,9.95Z"/>
      <path class="cls-6" d="M.68,84.51H-.46c-.96-1.52-2.04-2.92-2.87-4.56-.02-.04.01-.07.04-.06,1.1.7,2.14,1.83,3.06,3.17.02-.34.05-.7.06-1.04.01-.8-.04-1.6.07-2.39.01-.08.11-.09.14-.02.53,1.09.7,3.08.37,4.43.09.15.18.31.27.46Z"/>
      <path class="cls-6" d="M18.27,74.35c-1.1,1.19-2.07,2.4-3.02,3.78-.59.85-1.26,2.06-2.08,2.66,0,1.25.06,2.48.14,3.72h-.87c-.06-1.19-.06-2.4,0-3.62,0,0-.02,0-.02-.02-.66-.98-.93-2.65-1.18-3.88-.29-1.42-.58-2.98-.32-4.44.02-.1.15-.13.18-.03.43,1.21.54,2.59.82,3.87.13.64.29,1.28.48,1.91.06.2.11.37.17.52.28-3.38.89-6.71,1.73-9.61.04-.11.15-.06.14.06-.55,3.35-1.07,6.64-1.22,10.06.16-.1.36-.3.6-.6,1.35-1.62,2.54-3.71,4.23-4.75.18-.1.39.19.22.38Z"/>
      <path class="cls-6" d="M28.24,78.79c-.51,1.9-1.42,3.6-1.99,5.47-.03.08-.05.17-.07.25h-1.03c.69-2.36,1.76-4.62,2.94-5.83.06-.07.18,0,.15.11Z"/>
    </g>
    <g>
      <path class="cls-4" d="M122.73,42.51h-53.14c4-12.82,18.19-7.38,18.19-7.38,0,0-1.07-6.97,5.27-10.01,12.92-3.8,14.26,7.43,14.26,7.43,16.44-2.48,15.42,9.95,15.42,9.95Z"/>
      <path class="cls-6" d="M84.44,42.51h-1.13c-.96-1.52-2.04-2.92-2.87-4.56-.02-.04.01-.07.04-.06,1.1.7,2.14,1.83,3.06,3.17.02-.34.05-.7.06-1.04.01-.8-.04-1.6.07-2.39.01-.08.11-.09.14-.02.53,1.09.7,3.08.37,4.43.09.15.18.31.27.46Z"/>
      <path class="cls-6" d="M102.04,32.35c-1.1,1.19-2.07,2.4-3.02,3.78-.59.85-1.26,2.06-2.08,2.66,0,1.25.06,2.48.14,3.72h-.87c-.06-1.19-.06-2.4,0-3.62,0,0-.02,0-.02-.02-.66-.98-.93-2.65-1.18-3.88-.29-1.42-.58-2.98-.32-4.44.02-.1.15-.13.18-.03.43,1.21.54,2.59.82,3.87.13.64.29,1.28.48,1.91.06.2.11.37.17.52.28-3.38.89-6.71,1.73-9.61.04-.11.15-.06.14.06-.55,3.35-1.07,6.64-1.22,10.06.16-.1.36-.3.6-.6,1.35-1.62,2.54-3.71,4.23-4.75.18-.1.39.19.22.38Z"/>
      <path class="cls-6" d="M112.01,36.79c-.51,1.9-1.42,3.6-1.99,5.47-.03.08-.05.17-.07.25h-1.03c.69-2.36,1.76-4.62,2.94-5.83.06-.07.18,0,.15.11Z"/>
    </g>
  </g>
</svg>