<?xml version="1.0" encoding="UTF-8"?>
<svg xmlns="http://www.w3.org/2000/svg" viewBox="0 0 99.21 99.21">
  <defs>
    <style>
      .cls-1 {
        mix-blend-mode: multiply;
      }

      .cls-2, .cls-3, .cls-4, .cls-5, .cls-6, .cls-7 {
        stroke-width: 0px;
      }

      .cls-8 {
        isolation: isolate;
      }

      .cls-3 {
        fill: #4f66ae;
      }

      .cls-4 {
        fill: #59bdde;
      }

      .cls-5 {
        fill: #1e6688;
      }

      .cls-6 {
        fill: #fdfcf9;
      }

      .cls-7 {
        fill: #fff;
      }
    </style>
  </defs>
  <g class="cls-8">
    <g id="Calque_1" data-name="Calque 1">
      <rect class="cls-5" width="99.21" height="99.21" rx="5.67" ry="5.67"/>
      <g>
        <g>
          <g>
            <path class="cls-3" d="M56.03,27.84c-.83.68-1.64.95-2.82,1.14,3.51.98,4.47,5.34,4.86,6.49.4-1.14,1.35-5.51,4.86-6.49-1.18-.19-1.99-.46-2.82-1.14-.75-.62-1.66-2.03-2.05-4.12-.39,2.09-1.3,3.5-2.05,4.12Z"/>
            <path class="cls-2" d="M56.89,47.7c.22-.65.76-3.12,2.75-3.67-.67-.11-1.12-.26-1.59-.65-.42-.35-.94-1.15-1.16-2.33-.22,1.18-.73,1.98-1.16,2.33-.47.39-.93.54-1.59.65,1.99.55,2.53,3.02,2.75,3.67Z"/>
            <path class="cls-3" d="M53.7,36.84c-.31,0-.56.25-.56.56s.25.56.56.56.56-.25.56-.56-.25-.56-.56-.56Z"/>
            <path class="cls-3" d="M63.3,26.72c.23,0,.42-.19.42-.42s-.19-.42-.42-.42-.42.19-.42.42.19.42.42.42Z"/>
            <path class="cls-6" d="M62.11,50.61c0,.19.15.34.34.34s.34-.15.34-.34-.15-.34-.34-.34-.34.15-.34.34Z"/>
            <path class="cls-3" d="M65.04,36.05c.19,0,.34-.15.34-.34s-.15-.34-.34-.34-.34.15-.34.34.15.34.34.34Z"/>
            <path class="cls-2" d="M56.03,27.84c-.83.68-1.64.95-2.82,1.14,3.51.98,4.47,5.34,4.86,6.49.4-1.14,1.35-5.51,4.86-6.49-1.18-.19-1.99-.46-2.82-1.14-.75-.62-1.66-2.03-2.05-4.12-.39,2.09-1.3,3.5-2.05,4.12Z"/>
            <path class="cls-2" d="M68.67,44.78c.22-.62.73-3,2.65-3.53-.64-.1-1.08-.25-1.53-.62-.41-.34-.9-1.1-1.11-2.24-.21,1.14-.71,1.9-1.11,2.24-.45.37-.89.52-1.53.62,1.91.53,2.43,2.91,2.65,3.53Z"/>
            <path class="cls-6" d="M53.7,36.84c-.31,0-.56.25-.56.56s.25.56.56.56.56-.25.56-.56-.25-.56-.56-.56Z"/>
            <path class="cls-6" d="M63.3,26.72c.23,0,.42-.19.42-.42s-.19-.42-.42-.42-.42.19-.42.42.19.42.42.42Z"/>
            <circle class="cls-6" cx="65.04" cy="35.7" r=".34"/>
          </g>
          <g>
            <polygon class="cls-7" points="73.09 23.77 74.64 26.92 78.12 27.42 75.6 29.88 76.2 33.34 73.09 31.71 69.98 33.34 70.57 29.88 68.06 27.42 71.53 26.92 73.09 23.77"/>
            <path class="cls-7" d="M75.65,29.83c-.16.01-.32.03-.48.03-2.2,0-3.35-1.64-3.44-3.34l-.2.4-3.48.51,2.52,2.45-.59,3.46,3.11-1.63,3.11,1.63-.59-3.46.05-.04Z"/>
          </g>
        </g>
        <g>
          <path class="cls-7" d="M62.69,60.29c-12.2,0-22.09-9.89-22.09-22.09,0-10.36,7.13-19.04,16.76-21.43-2.63-.65-5.38-1-8.21-1-18.69,0-33.84,15.15-33.84,33.83s15.15,33.84,33.84,33.84,33.84-15.15,33.84-33.84c0-.84-.04-1.66-.1-2.48-3.43,7.75-11.18,13.16-20.2,13.16Z"/>
          <g class="cls-1">
            <path class="cls-4" d="M82.89,47.13c-2.37,5.36-6.81,9.61-12.32,11.72-5.64,8.87-15.56,14.87-26.67,14.87-11.86,0-22.38-6.83-27.76-16.71,3.38,15.13,16.87,26.44,33.02,26.44,18.69,0,33.84-15.15,33.84-33.84,0-.84-.04-1.66-.1-2.48Z"/>
          </g>
        </g>
      </g>
    </g>
  </g>
</svg>