<?xml version="1.0" encoding="UTF-8"?>
<svg id="Calque_1" data-name="Calque 1" xmlns="http://www.w3.org/2000/svg" viewBox="0 0 99.21 99.21">
  <defs>
    <style>
      .cls-1 {
        fill: #1e6688;
      }

      .cls-1, .cls-2, .cls-3, .cls-4, .cls-5 {
        stroke-width: 0px;
      }

      .cls-1, .cls-2, .cls-5 {
        fill-rule: evenodd;
      }

      .cls-2, .cls-4 {
        fill: #fdfcf9;
      }

      .cls-3 {
        fill: #ded4d0;
      }
    </style>
  </defs>
  <rect class="cls-3" x="-.45" width="99.21" height="99.21" rx="5.67" ry="5.67"/>
  <g>
    <path class="cls-2" d="M60.01,68.76l-2.57-18.85c-1.03-6.64-2.05-12.29-7.7-12.29h0c-.2,0-.39,0-.58.02-.19-.01-.39-.02-.58-.02h0c-5.65,0-6.67,5.64-7.7,12.29l-2.57,18.85c-1.03,6.65,4.62,7.91,10.27,7.91h0c.19,0,.39,0,.58-.02.19.01.39.02.58.02h0c5.65,0,11.29-1.27,10.27-7.91Z"/>
    <path class="cls-5" d="M60.01,68.76l-2.57-18.85c-1.03-6.64-2.05-12.29-7.7-12.29h0c-.2,0-.39,0-.58.02-.19-.01-.39-.02-.58-.02h0c-.28,0-.54.02-.79.05-.22.02-.43.06-.63.1h0,0c-4.4.9-5.34,6.09-6.28,12.13l-.93,6.8h14.4l1.64,12.05c.94,6.09-3.72,7.66-8.84,7.88.47.02.95.03,1.42.03h0c.19,0,.39,0,.58-.02.19.01.39.02.58.02h0c5.65,0,11.29-1.27,10.27-7.91Z"/>
    <path class="cls-1" d="M49.16,22.54c-13.38,0-29.99,15.37-29.99,28.87.06.99.93,1.71,2.2,1.65h55.6c1.27.06,2.14-.66,2.2-1.65,0-13.5-16.61-28.87-29.99-28.87Z"/>
    <path class="cls-1" d="M20.69,51.41c0-13.24,15.99-28.28,29.23-28.84-.25-.01-.51-.03-.76-.03-13.38,0-29.99,15.37-29.99,28.87.06.99.93,1.71,2.2,1.65h1.52c-1.27.06-2.14-.66-2.2-1.65Z"/>
    <path class="cls-1" d="M49.16,22.54c-1.31,0-2.66.15-4.01.43,12.47,2.57,25.98,16.26,25.98,28.44-.06.99-.93,1.71-2.2,1.65h8.02c1.27.06,2.14-.66,2.2-1.65,0-13.5-16.61-28.87-29.99-28.87Z"/>
    <g>
      <path class="cls-2" d="M45.69,28.87c0,1.4-1.14,2.54-2.54,2.54s-2.54-1.14-2.54-2.54,1.14-2.54,2.54-2.54,2.54,1.14,2.54,2.54Z"/>
      <path class="cls-2" d="M57.7,28.87c0,1.4-1.14,2.54-2.54,2.54s-2.54-1.14-2.54-2.54,1.14-2.54,2.54-2.54,2.54,1.14,2.54,2.54Z"/>
    </g>
    <g>
      <path class="cls-2" d="M33.68,37.8c0,1.4-1.14,2.54-2.54,2.54s-2.54-1.14-2.54-2.54,1.14-2.54,2.54-2.54,2.54,1.14,2.54,2.54Z"/>
      <path class="cls-2" d="M45.69,37.8c0,1.4-1.14,2.54-2.54,2.54s-2.54-1.14-2.54-2.54,1.14-2.54,2.54-2.54,2.54,1.14,2.54,2.54Z"/>
      <path class="cls-2" d="M57.7,37.8c0,1.4-1.14,2.54-2.54,2.54s-2.54-1.14-2.54-2.54,1.14-2.54,2.54-2.54,2.54,1.14,2.54,2.54Z"/>
      <circle class="cls-4" cx="67.17" cy="37.8" r="2.54"/>
    </g>
    <g>
      <path class="cls-2" d="M25.14,44.2c-1.4,0-2.54,1.14-2.54,2.54s1.14,2.54,2.54,2.54,2.54-1.14,2.54-2.54-1.14-2.54-2.54-2.54Z"/>
      <path class="cls-2" d="M37.15,44.2c-1.4,0-2.54,1.14-2.54,2.54s1.14,2.54,2.54,2.54,2.54-1.14,2.54-2.54-1.14-2.54-2.54-2.54Z"/>
      <path class="cls-2" d="M49.16,44.2c-1.4,0-2.54,1.14-2.54,2.54s1.14,2.54,2.54,2.54,2.54-1.14,2.54-2.54-1.14-2.54-2.54-2.54Z"/>
      <path class="cls-2" d="M61.17,44.2c-1.4,0-2.54,1.14-2.54,2.54s1.14,2.54,2.54,2.54,2.54-1.14,2.54-2.54-1.14-2.54-2.54-2.54Z"/>
      <path class="cls-2" d="M73.17,44.2c-1.4,0-2.54,1.14-2.54,2.54s1.14,2.54,2.54,2.54,2.54-1.14,2.54-2.54-1.14-2.54-2.54-2.54Z"/>
    </g>
  </g>
</svg>