<?xml version="1.0" encoding="UTF-8"?>
<svg id="Calque_1" data-name="Calque 1" xmlns="http://www.w3.org/2000/svg" viewBox="0 0 99.21 99.21">
  <defs>
    <style>
      .cls-1 {
        stroke-width: 3.61px;
      }

      .cls-1, .cls-2 {
        fill: none;
        stroke: #1e6688;
        stroke-miterlimit: 10;
      }

      .cls-2 {
        stroke-width: 1.65px;
      }

      .cls-3, .cls-4, .cls-5 {
        stroke-width: 0px;
      }

      .cls-4 {
        fill: #ded4d0;
      }

      .cls-5 {
        fill: #fdfcf9;
      }
    </style>
  </defs>
  <rect class="cls-4" x="-.45" width="99.21" height="99.21" rx="5.67" ry="5.67"/>
  <g>
    <g>
      <path class="cls-3" d="M27.28,64.44c0,12.85,10.42,23.27,23.27,23.27s23.27-10.42,23.27-23.27-10.42-23.27-23.27-23.27-23.27,10.42-23.27,23.27ZM30.27,64.44c0-11.2,9.08-20.28,20.28-20.28s20.28,9.08,20.28,20.28-9.08,20.28-20.28,20.28-20.28-9.08-20.28-20.28Z"/>
      <path class="cls-3" d="M48.15,64.44c0,1.32,1.07,2.4,2.4,2.4s2.4-1.07,2.4-2.4-1.07-2.4-2.4-2.4-2.4,1.07-2.4,2.4Z"/>
      <path class="cls-3" d="M50.55,86.45c-.08,0-.15-.07-.15-.15v-44.32c0-.08.07-.15.15-.15s.15.07.15.15v44.32c0,.08-.07.15-.15.15Z"/>
      <path class="cls-3" d="M72.71,64.28H28.39c-.08,0-.15-.07-.15-.15s.07-.15.15-.15h44.32c.08,0,.15.07.15.15s-.07.15-.15.15Z"/>
      <path class="cls-3" d="M34.88,79.96s-.08-.01-.11-.04c-.06-.06-.06-.15,0-.21l31.34-31.34c.06-.06.15-.06.21,0,.06.06.06.15,0,.21l-31.34,31.34s-.07.04-.11.04Z"/>
      <path class="cls-3" d="M66.22,79.96s-.08-.01-.11-.04l-31.34-31.34c-.06-.06-.06-.15,0-.21.06-.06.15-.06.21,0l31.34,31.34c.06.06.06.15,0,.21-.03.03-.07.04-.11.04Z"/>
    </g>
    <g>
      <path class="cls-3" d="M52.47,53.51H19.62v-8.31c0-3.84,3.11-6.95,6.95-6.95h34.51v6.65c0,4.75-3.85,8.61-8.61,8.61Z"/>
      <path class="cls-3" d="M60.66,41.1l-6.49-.95,1.58-27.48c.04-.73.69-1.26,1.41-1.17l6.68.83c.7.09,1.2.74,1.09,1.44l-4.26,27.33Z"/>
      <polyline class="cls-1" points="-.45 52.03 41.66 52.03 60.15 33.55 98.76 33.55"/>
      <path class="cls-1" d="M64.5,33.61h-22.9c-8.94,0-16.18,7.24-16.18,16.18v3.09"/>
    </g>
    <polyline class="cls-2" points="33.23 51.88 50.68 64.06 79.33 34.05"/>
  </g>
  <circle class="cls-5" cx="50.61" cy="64.42" r="3.04"/>
</svg>