<?xml version="1.0" encoding="UTF-8"?>
<svg id="Calque_1" data-name="Calque 1" xmlns="http://www.w3.org/2000/svg" viewBox="0 0 99.21 99.21">
  <defs>
    <style>
      .cls-1, .cls-2, .cls-3, .cls-4 {
        stroke-width: 0px;
      }

      .cls-2 {
        fill: #1e6688;
      }

      .cls-3 {
        fill: #ded4d0;
      }

      .cls-4 {
        fill: #fdfcf9;
      }
    </style>
  </defs>
  <rect class="cls-3" x="-.45" width="99.21" height="99.21" rx="5.67" ry="5.67"/>
  <g>
    <ellipse class="cls-2" cx="36.9" cy="26.11" rx="3.85" ry="4.1"/>
    <ellipse class="cls-2" cx="67.48" cy="26.11" rx="3.85" ry="4.1"/>
    <g>
      <path class="cls-1" d="M17.7,70.28c0,1.63,2.79,3.13,7.45,4.31.19-1.24.78-5.37,1.05-8.88-5.28,1.21-8.5,2.81-8.5,4.57Z"/>
      <path class="cls-1" d="M84.73,70.28c0-1.52-2.42-2.92-6.5-4.06.25,2.99.71,6.29.93,7.85,3.51-1.09,5.57-2.39,5.57-3.79Z"/>
      <path class="cls-4" d="M78.23,66.22c-.17-2.03-.25-3.91-.1-4.99.47-3.33.42-11.16-3.25-13.75-4.86-3.42,1.97-3.71-.25-8.95-.34-.79-5.58-16.21-11.82-16.21-5.25,0-8.19.2-10.62.2-2.43,0-5.37-.2-10.62-.2-6.25,0-11.49,15.42-11.82,16.21-2.22,5.24,4.61,5.53-.25,8.95-3.68,2.59-3.72,10.42-3.25,13.75.14.99.08,2.65-.06,4.48,6.14-1.41,15.07-2.3,25.01-2.3,11.09,0,20.91,1.1,27.01,2.8Z"/>
      <path class="cls-4" d="M51.21,63.42c-9.95,0-18.88.89-25.01,2.3-.27,3.51-.87,7.63-1.05,8.88,6.14,1.56,15.54,2.55,26.07,2.55,11.67,0,21.95-1.22,27.95-3.08-.23-1.55-.68-4.86-.93-7.85-6.1-1.7-15.93-2.8-27.01-2.8Z"/>
    </g>
    <ellipse class="cls-1" cx="43.59" cy="27.27" rx="1.21" ry="1.28"/>
    <path class="cls-1" d="M52.19,32.02l-3.12-3.27s-.35-1.14,3.12-1.12v4.4Z"/>
    <ellipse class="cls-3" cx="47.13" cy="57.9" rx="3.45" ry="3.37" transform="translate(-17.56 95.16) rotate(-80.79)"/>
    <path class="cls-3" d="M27.5,59.65c.63,2.12,1.19,3.96,1.76,6.06-1.74-1.39-2.5-3.97-1.76-6.06h0Z"/>
    <path class="cls-3" d="M33.5,56.25c2.58-2.94,7.25-3.44,10.74-1.97-3.73-.07-7.35.19-10.74,1.97h0Z"/>
    <path class="cls-3" d="M43.88,61.23c-.41,2.07-1.97,3.93-4.04,4.48,1.31-1.69,2.44-3.06,4.04-4.48h0Z"/>
    <path class="cls-1" d="M46.34,56.4c1.57-.37,3.05-.09,4.37.85-1.57.38-3.05.08-4.37-.85h0Z"/>
    <path class="cls-1" d="M45.89,58.73c1.58-.61,3.16-.55,4.69.17-1.58.61-3.16.55-4.69-.17h0Z"/>
    <ellipse class="cls-1" cx="60.8" cy="27.27" rx="1.21" ry="1.28"/>
    <path class="cls-1" d="M52.19,32.02l3.12-3.27s.35-1.14-3.12-1.12v4.4Z"/>
    <ellipse class="cls-3" cx="57.26" cy="57.9" rx="3.37" ry="3.45" transform="translate(-8.53 9.91) rotate(-9.21)"/>
    <path class="cls-3" d="M76.89,59.65c.75,2.1-.02,4.68-1.76,6.06.56-2.1,1.13-3.94,1.76-6.06h0Z"/>
    <path class="cls-3" d="M70.89,56.25c-3.39-1.78-7.01-2.03-10.74-1.97,3.49-1.47,8.16-.98,10.74,1.97h0Z"/>
    <path class="cls-3" d="M60.51,61.23c1.6,1.42,2.73,2.79,4.04,4.48-2.07-.55-3.63-2.41-4.04-4.48h0Z"/>
    <path class="cls-1" d="M58.05,56.4c-1.32.93-2.8,1.22-4.37.85,1.32-.94,2.8-1.22,4.37-.85h0Z"/>
    <path class="cls-1" d="M58.5,58.73c-1.53.72-3.12.78-4.69.17,1.53-.72,3.12-.78,4.69-.17h0Z"/>
    <path class="cls-1" d="M56.1,31.46c1.17,3.98-4.36,6.48-6.75,3.13-.71-.93-.88-2.15-.56-3.13h.1c-.06,3.18,3.86,5.07,6.09,2.62.65-.7,1.02-1.66,1.02-2.62h.1Z"/>
    <polygon class="cls-1" points="52.19 30.6 52.68 35.3 51.71 35.3 52.19 30.6 52.19 30.6"/>
    <circle class="cls-1" cx="50.74" cy="54.6" r="1.23"/>
    <path class="cls-2" d="M50.7,54.36c-3.17-.86-4.85-5.43-4.16-8.27,0,0,2.53.67,3.6,4.03,0,0,1.33-4.74,4.68-5.66,0,0,2.78,3.44.15,6.9,0,0,3.89-.56,4.62,1.05,0,0-3.19,3.51-8.89,1.97Z"/>
  </g>
</svg>