<?xml version="1.0" encoding="UTF-8"?>
<svg id="Calque_1" data-name="Calque 1" xmlns="http://www.w3.org/2000/svg" viewBox="0 0 99.21 99.21">
  <defs>
    <style>
      .cls-1, .cls-2, .cls-3, .cls-4, .cls-5, .cls-6, .cls-7 {
        stroke-width: 0px;
      }

      .cls-1, .cls-2, .cls-7 {
        fill-rule: evenodd;
      }

      .cls-1, .cls-4 {
        fill: #1e6688;
      }

      .cls-2, .cls-6 {
        fill: #fdfcf9;
      }

      .cls-5 {
        fill: #ded4d0;
      }
    </style>
  </defs>
  <rect class="cls-5" width="99.21" height="99.21" rx="5.67" ry="5.67"/>
  <g>
    <path class="cls-7" d="M48.86,31.56h1.48c.65,0,1.18.53,1.18,1.21v13.65c0,.65-.53,1.18-1.18,1.18h-1.48c-.65,0-1.18-.53-1.18-1.18v-13.65c0-.67.53-1.21,1.18-1.21h0Z"/>
    <path class="cls-7" d="M29.28,32.95h14.95s0,14.97,0,14.97h-18.63s0-11.31,0-11.31c0-2.02,1.65-3.66,3.69-3.66h0Z"/>
    <rect class="cls-3" x="33.22" y="30.54" width="8.76" height="2.41"/>
    <path class="cls-7" d="M32.55,27.92h10.11c.3,0,.56.25.56.56v1.53c0,.3-.25.53-.56.53h-10.11c-.3,0-.56-.23-.56-.53v-1.53c0-.3.25-.56.56-.56h0Z"/>
    <rect class="cls-6" x="33.22" y="24.89" width="8.76" height="3.04"/>
    <path class="cls-7" d="M32.9,20.6h9.41c.49,0,.9.39.9.88v2.5c0,.49-.42.9-.9.9h-9.41c-.51,0-.9-.42-.9-.9v-2.5c0-.49.39-.88.9-.88h0Z"/>
    <path class="cls-7" d="M25.6,47.93c2.09,0,4.15,0,6.23,0s4.17,0,6.26,0c.39,2.55.83,5.4,1.34,8.69.58,3.78,1.25,8.2,2.06,13.42-3.22,0-6.44,0-9.66,0-3.22,0-6.44,0-9.66,0,.81-5.21,1.51-9.64,2.09-13.42.51-3.29.95-6.17,1.34-8.69h0Z"/>
    <path class="cls-1" d="M25.6,47.93c2.09,0,4.15,0,6.23,0s4.17,0,6.26,0c.39,2.55.83,5.4,1.34,8.69.58,3.78,1.25,8.2,2.06,13.42h-.65s-7.32-20.02-7.32-20.02h-8.25s.32-2.09.32-2.09Z"/>
    <path class="cls-1" d="M22.17,70.04h19.33c.9,0,1.65.74,1.65,1.65v5.31c0,.9-.74,1.62-1.65,1.62h-19.33c-.88,0-1.62-.72-1.62-1.62v-5.31c0-.9.74-1.65,1.62-1.65h0Z"/>
    <path class="cls-7" d="M43.14,75.9v1.09c0,.9-.74,1.62-1.65,1.62h-19.33c-.88,0-1.62-.72-1.62-1.62v-1.09s22.6,0,22.6,0Z"/>
    <path class="cls-2" d="M44.23,35.39h-5.61c-.74,0-1.37.63-1.37,1.37v7.35c0,.76.63,1.39,1.37,1.39h5.61s0-10.11,0-10.11Z"/>
    <g>
      <rect class="cls-3" x="44.23" y="43.57" width="10.75" height="2.99"/>
      <rect class="cls-3" x="44.23" y="34.32" width="10.75" height="2.97"/>
    </g>
    <path class="cls-7" d="M69.93,32.95h-14.95s0,14.97,0,14.97h18.63s0-11.31,0-11.31c0-2.02-1.65-3.66-3.69-3.66h0Z"/>
    <rect class="cls-3" x="57.23" y="30.54" width="8.76" height="2.41"/>
    <path class="cls-7" d="M66.66,27.92h-10.11c-.3,0-.56.25-.56.56v1.53c0,.3.25.53.56.53h10.11c.3,0,.56-.23.56-.53v-1.53c0-.3-.25-.56-.56-.56h0Z"/>
    <rect class="cls-6" x="57.23" y="24.89" width="8.76" height="3.04"/>
    <path class="cls-7" d="M66.32,20.6h-9.41c-.49,0-.9.39-.9.88v2.5c0,.49.42.9.9.9h9.41c.51,0,.9-.42.9-.9v-2.5c0-.49-.39-.88-.9-.88h0Z"/>
    <path class="cls-7" d="M61.13,47.93c2.09,0,4.17,0,6.26,0h6.23c.39,2.55.83,5.4,1.34,8.69.58,3.78,1.27,8.2,2.09,13.42-3.24,0-6.47,0-9.69,0s-6.42,0-9.64,0c.81-5.21,1.48-9.64,2.06-13.42.51-3.29.95-6.17,1.34-8.69h0Z"/>
    <path class="cls-1" d="M61.13,47.93c2.09,0,4.17,0,6.26,0h6.23c.39,2.55.83,5.4,1.34,8.69.58,3.78,1.27,8.2,2.09,13.42h-.67s-7.3-20.02-7.3-20.02h-8.27s.32-2.09.32-2.09Z"/>
    <path class="cls-1" d="M77.05,70.04h-19.33c-.9,0-1.65.74-1.65,1.65v5.31c0,.9.74,1.62,1.65,1.62h19.33c.88,0,1.62-.72,1.62-1.62v-5.31c0-.9-.74-1.65-1.62-1.65h0Z"/>
    <path class="cls-7" d="M56.07,75.9v1.09c0,.9.74,1.62,1.65,1.62h19.33c.88,0,1.62-.72,1.62-1.62v-1.09s-22.6,0-22.6,0Z"/>
    <path class="cls-2" d="M54.98,35.39h5.61c.74,0,1.37.63,1.37,1.37v7.35c0,.76-.63,1.39-1.37,1.39h-5.61s0-10.11,0-10.11Z"/>
    <path class="cls-7" d="M47.36,38.79h4.5c.49,0,.88.39.88.9v1.48c0,.49-.39.9-.88.9h-4.5c-.49,0-.88-.42-.88-.9v-1.48c0-.51.39-.9.88-.9h0Z"/>
    <rect class="cls-4" x="33.22" y="24.89" width="8.76" height="1.11"/>
    <rect class="cls-4" x="57.23" y="24.89" width="8.76" height="1.11"/>
    <rect class="cls-4" x="33.22" y="30.54" width="8.76" height=".7"/>
    <rect class="cls-4" x="57.23" y="30.54" width="8.76" height=".7"/>
  </g>
</svg>