<?xml version="1.0" encoding="UTF-8"?>
<svg id="Calque_1" data-name="Calque 1" xmlns="http://www.w3.org/2000/svg" xmlns:xlink="http://www.w3.org/1999/xlink" viewBox="0 0 99.21 99.21">
  <defs>
    <style>
      .cls-1 {
        clip-path: url(#clippath);
      }

      .cls-2, .cls-3, .cls-4, .cls-5, .cls-6, .cls-7, .cls-8, .cls-9 {
        stroke-width: 0px;
      }

      .cls-2, .cls-10 {
        fill: none;
      }

      .cls-3 {
        fill: #323334;
        opacity: .07;
      }

      .cls-3, .cls-4, .cls-5, .cls-6 {
        fill-rule: evenodd;
      }

      .cls-10 {
        stroke: #1d1d1b;
        stroke-linecap: round;
        stroke-miterlimit: 10;
        stroke-width: 2px;
      }

      .cls-4, .cls-8 {
        fill: #ded4d0;
      }

      .cls-5 {
        fill: #e7ae1f;
      }

      .cls-6, .cls-9 {
        fill: #fdfcf9;
      }

      .cls-7 {
        fill: #1e6688;
      }
    </style>
    <clipPath id="clippath">
      <rect class="cls-2" x="-.45" width="99.21" height="99.21" rx="11.05" ry="11.05"/>
    </clipPath>
  </defs>
  <g class="cls-1">
    <rect class="cls-8" x="-.45" width="99.21" height="99.21" rx="5.67" ry="5.67"/>
    <g>
      <circle class="cls-7" cx="50.47" cy="47.92" r="34.34" transform="translate(-11.45 79.71) rotate(-70.69)"/>
      <path class="cls-5" d="M58.39,79.79s-1.48.8-2.94,1.53c-1.46.73-3.32.31-3.32.31,0,0,.99-2.03,1.43-2.48.45-.45,1.25-.78,1.36-2.05.12-1.27-.07-1.49.54-2.52.61-1.04,1.79-3.24,1.79-4.09s-.03-2.16-1.36-3c-.68-.43-1.5-.77-2.27-1.27,7.94-2.24,14.85-6.93,19.86-13.21.24.2.61.32,1.12.36.96.07,1.83.38,2,1.27.16.9,1.86.05,2.31.52s.78.94,1.27,1.11c.49.17.52.64.05,2.29-.47,1.65-2.35,3.85-3.01,5.1-.66,1.25-1.2,1.96-1.62,2.97-.42,1.01-.75,2.43-2.33,2.74-1.58.31-2.21,1.49-2.94,2.19-.73.71-1.08,1.65-2.78,2.95-1.69,1.3-2.31,2.41-3.27,2.41s-1.42-.27-1.45.4c-.02.67-.91.87-2.13,1.16-1.22.28-1.39.92-2.33,1.32Z"/>
      <path class="cls-6" d="M49.06,34.59s-.59-.1-1.44.02c-.85.11-.65-.16-.49-.48.16-.32,1.23-.49,2.55-.06,1.32.43,3.16,1.13,2.98,1.72-.18.59-1.21.06-1.82.05-.61-.02-.72-.24-.94-.61-.22-.37-.54-.59-.85-.64Z"/>
      <path class="cls-6" d="M80.48,56.46c-.23-.42-.8-.45-1.01-.73-.18-.24-.24-.43-.52-.54,0,0-.01-.02-.02-.02-.19-.2-.59-.16-1-.12-.57-.03-1.09-.08-1.33-.51-.05-.17-.12-.32-.21-.44-.08-.12-.18-.22-.32-.3-.37-.25-.87-.37-1.4-.41-.11-.02-.22-.05-.35-.07-.74-.16-1.03-.58-1.13-1.11,0-.34.02-.9-.01-1.45,0-.14.01-.27.01-.41,0-.33-.09-.59-.26-.81-.05-.1-.1-.2-.17-.27-.17-.2-.57-.35-1.05-.47-.44-.14-.95-.24-1.53-.33-1.81-.28-2.02-1.04-2.49-1.58-.42-.49-1.61-.83-2.1-1.58,0-.01-.01-.03-.02-.04-.04-.09-.08-.17-.13-.25-.2-.53-.47-.66-.76-.64-.06,0-.09,0-.09,0,0,0-.03.01-.08.03-.16.04-.33.11-.5.17-.18.06-.35.13-.51.2-.37.12-.76.24-1.1.3-.36.02-.7-.03-1.02-.11-.52-.2-1.15-.56-1.67-.91-.39-.31-.69-.62-.93-.8-.05-.04-.11-.07-.18-.09-.14-.08-.39-.08-.71-.02-1.16.14-2.93.87-3.27,1.33-.07.1-.14.18-.2.27-.36.39-.72.84-.96,1.22-.4.42-.59.33-.97-.03-.07-.07-.13-.08-.17-.07-.02-.01-.04-.02-.05-.03-.43-.41-.99-.84-1.51-.84-.66,0-1.25.25-2.4.22-1.15-.02-.95-1.22-.84-2.44.12-1.23.26-2.1.16-3.16-.09-1.06-3.01-.28-4.3.05-1.29.33.44-2,.74-2.97.31-.97-.31-.79-1.3-.74-.99.05-1.63.66-2.12,1.06-.49.4-.96.41-1.57.53-.36.07-2.24-2.03-2.31-2.19-.24-.58-.32-1.02-.3-1.38.06-.44.3-.86.56-1.29.02-.03.04-.06.07-.09.23-.31.44-.73.62-1.14.19-.37.53-1,.94-1.77.18-.14.39-.4.77-.42,5.98-.38,9.41,3.19,10.23,2.97.78-3.13.31-5.57.88-5.71.58-.14,2.18-.68,2.69-1.04.52-.35-.45-.98-.73-2.16-.28-1.18,1.47-.81,2.39-1,.92-.19,2.12-1.44,2.65-1.88.53-.44,1.32-.75,1.4-.08.08.67,1.51.28,2.43-.08.93-.37,2.18-.17,3.18-.18,1-.01,0-.88-1.01-1.34-1.01-.46-1.85-1.03-2.62-1.89-.78-.86-1.65-.39-1.95-.5-.31-.11-2.22-1.22-2.67-1.37-.45-.15-1.39.26-1.88.25-.49-.01-1.19-.51-1.66-.51s-.4,1-.4,1.59-.46.9-1.39,1.13c-.93.24-1.29-1.31-1.33-1.56-.04-.25-1.72-.18-2.53-.18s-1.36-.28-1.51-.63c-.14-.34,1.95-1.36,1.95-1.36-4.16.09-9.21,2.01-9.21,2.01-4.12,1.63-6.27,3.18-6.27,3.18-.04.34-.11.79-.26,1.05-.15.19-.39.49-.65.79-.2.2-.43.42-.69.67-.14.14-.3.27-.45.4-.31.23-.68.5-1.06.81-.5.37-.95.71-1.25,1.1-.14.19-.24.4-.3.63-.55,1.08.13,1.66.48,2.52.09.43,1.68,1.32,1.84,2.31.16.99,1.27,3.96,1.86,4.72.1.12.17.26.23.4.27.86.2,1.43-.21,2.03-.11.16-.17.31-.18.45-.11.45.31.88,1.29.92,1.22.05,1.74.71,2.12,1.23.38.52,2.52.53,2.57.47,0,0,.01,0,.02,0,1.29,0,1.29.31,1.88,1.2.59.9,2.94.9,4.16.97,1.22.07,1.01.68.99,1.89s.09,1.25,1.36,1.64c1.27.39,1.74,1.09,2.43,1.85.69.77.87.55,1.29.01.42-.54.44-.74,1.12-.87.67-.13.63.64,1.3.93.01.02.03.04.04.06,0,.23.02.46.04.62.1.71-1.7,3.57-2.23,4.36-1.87,2.8-.87,6.3.18,7.65,1.06,1.34.66,2.29,1.67,4.36,1.01,2.08,2.87,2.57,4.2,3.41,1.33.84,1.36,2.15,1.36,3s-1.18,3.05-1.79,4.09c-.61,1.04-.42,1.25-.54,2.52-.12,1.27-.92,1.6-1.36,2.05-.45.45-1.43,2.48-1.43,2.48,0,0,1.86.42,3.32-.31,1.06-.53,2.12-1.1,2.63-1.37.16,0,.26-.02.26-.02.14-.11.3-.24.47-.37.13-.08.25-.17.36-.26.44-.3.94-.61,1.46-.81.03,0,.05-.02.08-.02.35-.08.68-.16.96-.24.96-.08,1.1-.39,1.15-.77.01-.05.02-.1.02-.15.01-.34.14-.44.38-.45.2,0,.48.06.87.08.13,0,.24,0,.36-.04.87-.12,1.51-1.17,3.1-2.39.61-.47,1.05-.89,1.39-1.27.33-.32.65-.68.96-1.06.32-.39.59-.76.86-1.08.59-.67,1.24-1.48,2.51-1.72.27-.05.51-.14.71-.25.8-.36,1.09-1.08,1.39-1.91.08-.2.15-.39.22-.57.42-1.01.96-1.72,1.62-2.97.33-.63.97-1.5,1.59-2.41.07-.1.15-.2.22-.3.45-.57.8-1.28,1.05-1.97.06-.14.11-.28.15-.42,0,0,0-.01,0-.02.13-.4.22-.77.27-1.09.1-.51.08-.81-.04-.99Z"/>
      <path class="cls-3" d="M84.81,47.74c0-.22,0-.44-.01-.66,0-.04,0-.08,0-.12-.14-6.26-1.95-12.1-5.01-17.11.71,1.3,1.35,2.65,1.89,4.04-2.55,19.07-18.88,33.79-38.65,33.79-9.65,0-18.48-3.51-25.29-9.32,4.42,13.86,17.4,23.91,32.73,23.91,18.96,0,34.34-15.38,34.34-34.34,0-.03,0-.06,0-.09,0-.03,0-.06,0-.1Z"/>
      <path class="cls-6" d="M51.6,37.39s.88-.12,1.34.28c.46.4-.6.37-.85.23-.26-.13-.9-.46-.49-.51Z"/>
    </g>
    <g>
      <path class="cls-10" d="M55.1,51.11c0,1.58-1.28,2.86-2.86,2.86s-2.86-1.28-2.86-2.86"/>
      <path class="cls-10" d="M39.21,49.59c0-.94.76-1.7,1.7-1.7s1.7.76,1.7,1.7"/>
      <path class="cls-10" d="M61.36,49.59c0-.94.76-1.7,1.7-1.7s1.7.76,1.7,1.7"/>
      <path class="cls-4" d="M39.08,52.54c0,.79-1,1.43-2.23,1.43s-2.23-.64-2.23-1.43,1-1.43,2.23-1.43,2.23.64,2.23,1.43Z"/>
      <path class="cls-4" d="M69.49,52.54c0,.79-1,1.43-2.23,1.43s-2.23-.64-2.23-1.43,1-1.43,2.23-1.43,2.23.64,2.23,1.43Z"/>
    </g>
    <g>
      <path class="cls-9" d="M45.15,81.34c-.14-1.66-.31-3.03-.51-4.18h0c-.51-3.02-1.14-4.46-1.66-5.14-.48-.64-1.16-1.53-1.98-2.59-2.21-2.85-5.48-6.96-8.74-10.88-3.53-4.25-5.73-6.7-7.1-8.11-.76-.79-1.27-1.25-1.6-1.53-.35-.29-.51-.37-.57-.39-.12-.03-.25-.04-.37-.05-.25-.01-.56.03-.82.19-.13.08-.26.2-.35.36-.27.45-.67,1.89,1.44,5.38,1.16,1.93,2.04,3.53,2.65,4.86.39.86.67,1.61.85,2.26.28,1.03.28,1.81.03,2.38-.17.39-.55.89-1.37,1.06-.06.01-.12.02-.18.02-.03,0-.06,0-.09,0h0c-.46-.02-.9-.3-1.35-.86-1-1.23-2.26-4.24-3.34-7.37,0,0,0,0,0-.01-.86-2.52-1.6-5.12-1.99-6.95,0,0,0,0,0,0-.17-.82-.27-1.49-.27-1.92h0c0-.12,0-.22.02-.3.05-.29.17-.74.33-1.36.1-.37.21-.8.33-1.28.72-2.9,1.64-7.48.39-10.02h0c-.17-.34-.37-.64-.61-.9-1.6,4.75-4.77,14.25-4.97,15.45-.32,1.92-1.09,16.97-.38,18.47.3.32,1.97,1.72,3.74,3.2,7.31,6.13,15.21,12.88,16.5,15.52,1.89,3.89,1.31,9.72,1.29,9.96v.07s-1.09,5-1.09,5c.18.46.85,2.03,2.42,3.62,2.37,2.4,5.62,3.79,9.67,4.14l-.1-9.78c.14-3.24.39-11.52-.18-18.31Z"/>
      <path class="cls-9" d="M88.56,52.6c-.07-.86-1.28-6.01-2.41-10.67h0c-.46-1.9-.9-3.73-1.25-5.14-2.63,2.31-1.44,9.19-.92,12.17.11.63.19,1.09.21,1.38.06.78-.71,3.26-1.81,6.07-.29.74-.6,1.5-.93,2.26-1.4,3.26-3.04,6.48-4.22,7.71-.5.52-.97.77-1.42.75-.09,0-.18-.02-.27-.05-.81-.24-1.14-.77-1.28-1.17l6.2-14.41c-.24-.5-.74-.63-1.12-.64-.12,0-.25,0-.39.02-.21.05-1.74.74-10.07,9.21-.81.83-1.63,1.66-2.43,2.5-4.03,4.17-7.75,8.19-9.38,10.03-.58.65-1.36,2.08-2.13,5.19h0c-.27,1.09-.54,2.39-.81,3.93-1.14,6.72-1.58,14.98-1.72,18.23v.04s-.92,9.73-.92,9.73c7.98.19,11.55-3.89,12.81-5.88l-.77-6.02c0-.25-.09-6.1,2.12-9.82,1.5-2.52,9.94-8.59,17.74-14.08,1.88-1.33,3.67-2.58,3.99-2.87.83-1.44,1.34-16.5,1.17-18.44Z"/>
    </g>
  </g>
</svg>