<?xml version="1.0" encoding="UTF-8"?>
<svg id="Calque_1" data-name="Calque 1" xmlns="http://www.w3.org/2000/svg" viewBox="0 0 99.21 99.21">
  <defs>
    <style>
      .cls-1, .cls-2, .cls-3, .cls-4, .cls-5, .cls-6 {
        stroke-width: 0px;
      }

      .cls-2 {
        fill: #1e6688;
      }

      .cls-3 {
        fill: #ded4d0;
      }

      .cls-4 {
        fill: #fdfcf9;
      }

      .cls-5 {
        fill: #e8e3de;
      }

      .cls-6 {
        fill: #eeeded;
      }
    </style>
  </defs>
  <rect class="cls-3" width="99.21" height="99.21" rx="5.67" ry="5.67"/>
  <g>
    <g>
      <path class="cls-2" d="M34.81,44.48l5.49,20.95c.74,2.81,3.23,4.79,6.13,4.89l10.61.35c1.55.05,3.07-.45,4.28-1.41l9.88-7.82-13.92-15.39-22.47-1.57Z"/>
      <g>
        <polygon class="cls-1" points="45.82 73.45 35.86 45.13 41.4 43.18 49.27 65.54 65.78 58.37 68.12 63.77 45.82 73.45"/>
        <g>
          <path class="cls-6" d="M37.74,46.44s-.08-.03-.09-.07l-.16-.46.46-.16c.05-.02.11,0,.12.06.02.05,0,.11-.06.12l-.28.1.1.28c.02.05,0,.11-.06.12-.01,0-.02,0-.03,0Z"/>
          <path class="cls-6" d="M38.72,45.68s-.08-.03-.09-.07c-.02-.05,0-.11.06-.12l.74-.26c.05-.02.11,0,.12.06.02.05,0,.11-.06.12l-.74.26s-.02,0-.03,0Z"/>
          <path class="cls-6" d="M40.69,45.4s-.08-.03-.09-.07l-.1-.28-.28.1c-.05.02-.11,0-.12-.06-.02-.05,0-.11.06-.12l.46-.16.16.46c.02.05,0,.11-.06.12-.01,0-.02,0-.03,0Z"/>
          <path class="cls-6" d="M48.07,66.37s-.08-.03-.09-.07l-.26-.75c-.02-.05,0-.11.06-.12.05-.02.11,0,.12.06l.26.75c.02.05,0,.11-.06.12-.01,0-.02,0-.03,0ZM47.55,64.87s-.08-.03-.09-.07l-.26-.75c-.02-.05,0-.11.06-.12.05-.02.11,0,.12.06l.26.75c.02.05,0,.11-.06.12-.01,0-.02,0-.03,0ZM47.02,63.37s-.08-.03-.09-.07l-.26-.75c-.02-.05,0-.11.06-.12.05-.02.11,0,.12.06l.26.75c.02.05,0,.11-.06.12-.01,0-.02,0-.03,0ZM46.49,61.87s-.08-.03-.09-.07l-.26-.75c-.02-.05,0-.11.06-.12s.11,0,.12.06l.26.75c.02.05,0,.11-.06.12-.01,0-.02,0-.03,0ZM45.97,60.37s-.08-.03-.09-.07l-.26-.75c-.02-.05,0-.11.06-.12s.11,0,.12.06l.26.75c.02.05,0,.11-.06.12-.01,0-.02,0-.03,0ZM45.44,58.88s-.08-.03-.09-.07l-.26-.75c-.02-.05,0-.11.06-.12.05-.02.11,0,.12.06l.26.75c.02.05,0,.11-.06.12-.01,0-.02,0-.03,0ZM44.91,57.38s-.08-.03-.09-.07l-.26-.75c-.02-.05,0-.11.06-.12.05-.02.11,0,.12.06l.26.75c.02.05,0,.11-.06.12-.01,0-.02,0-.03,0ZM44.38,55.88s-.08-.03-.09-.07l-.26-.75c-.02-.05,0-.11.06-.12.05-.02.11,0,.12.06l.26.75c.02.05,0,.11-.06.12-.01,0-.02,0-.03,0ZM43.86,54.38s-.08-.03-.09-.07l-.26-.75c-.02-.05,0-.11.06-.12.05-.02.11,0,.12.06l.26.75c.02.05,0,.11-.06.12-.01,0-.02,0-.03,0ZM43.33,52.89s-.08-.03-.09-.07l-.26-.75c-.02-.05,0-.11.06-.12.05-.02.11,0,.12.06l.26.75c.02.05,0,.11-.06.12-.01,0-.02,0-.03,0ZM42.8,51.39s-.08-.03-.09-.07l-.26-.75c-.02-.05,0-.11.06-.12.05-.02.11,0,.12.06l.26.75c.02.05,0,.11-.06.12-.01,0-.02,0-.03,0ZM42.28,49.89s-.08-.03-.09-.07l-.26-.75c-.02-.05,0-.11.06-.12.05-.02.11,0,.12.06l.26.75c.02.05,0,.11-.06.12-.01,0-.02,0-.03,0ZM41.75,48.39s-.08-.03-.09-.07l-.26-.75c-.02-.05,0-.11.06-.12.05-.02.11,0,.12.06l.26.75c.02.05,0,.11-.06.12-.01,0-.02,0-.03,0ZM41.22,46.89s-.08-.03-.09-.07l-.26-.75c-.02-.05,0-.11.06-.12.05-.02.11,0,.12.06l.26.75c.02.05,0,.11-.06.12-.01,0-.02,0-.03,0Z"/>
          <path class="cls-6" d="M48.41,67.52l-.17-.47c-.02-.05,0-.11.06-.12.05-.02.11,0,.12.06l.1.27.26-.11s.11,0,.13.05c.02.05,0,.11-.05.13l-.46.2Z"/>
          <path class="cls-6" d="M49.52,67.03s-.07-.02-.09-.06c-.02-.05,0-.11.05-.13l.69-.3s.11,0,.13.05c.02.05,0,.11-.05.13l-.69.3s-.03,0-.04,0ZM50.9,66.43s-.07-.02-.09-.06c-.02-.05,0-.11.05-.13l.69-.3s.11,0,.13.05c.02.05,0,.11-.05.13l-.69.3s-.03,0-.04,0ZM52.28,65.83s-.07-.02-.09-.06c-.02-.05,0-.11.05-.13l.69-.3s.11,0,.13.05c.02.05,0,.11-.05.13l-.69.3s-.03,0-.04,0ZM53.66,65.23s-.07-.02-.09-.06c-.02-.05,0-.11.05-.13l.69-.3c.05-.02.11,0,.13.05.02.05,0,.11-.05.13l-.69.3s-.03,0-.04,0ZM55.04,64.63s-.07-.02-.09-.06c-.02-.05,0-.11.05-.13l.69-.3s.11,0,.13.05c.02.05,0,.11-.05.13l-.69.3s-.03,0-.04,0ZM56.42,64.03s-.07-.02-.09-.06c-.02-.05,0-.11.05-.13l.69-.3s.11,0,.13.05c.02.05,0,.11-.05.13l-.69.3s-.03,0-.04,0ZM57.8,63.43s-.07-.02-.09-.06c-.02-.05,0-.11.05-.13l.69-.3s.11,0,.13.05c.02.05,0,.11-.05.13l-.69.3s-.03,0-.04,0ZM59.18,62.83s-.07-.02-.09-.06c-.02-.05,0-.11.05-.13l.69-.3s.11,0,.13.05c.02.05,0,.11-.05.13l-.69.3s-.03,0-.04,0ZM60.57,62.23s-.07-.02-.09-.06c-.02-.05,0-.11.05-.13l.69-.3s.11,0,.13.05c.02.05,0,.11-.05.13l-.69.3s-.03,0-.04,0ZM61.95,61.63s-.07-.02-.09-.06c-.02-.05,0-.11.05-.13l.69-.3s.11,0,.13.05c.02.05,0,.11-.05.13l-.69.3s-.03,0-.04,0ZM63.33,61.03s-.07-.02-.09-.06c-.02-.05,0-.11.05-.13l.69-.3s.11,0,.13.05c.02.05,0,.11-.05.13l-.69.3s-.03,0-.04,0Z"/>
          <path class="cls-6" d="M65.22,60.64s-.07-.02-.09-.06l-.12-.27-.27.12s-.11,0-.13-.05c-.02-.05,0-.11.05-.13l.45-.2.2.45s0,.11-.05.13c-.01,0-.03,0-.04,0Z"/>
          <path class="cls-6" d="M65.85,62.07s-.07-.02-.09-.06l-.31-.72s0-.11.05-.13c.05-.02.11,0,.13.05l.31.72s0,.11-.05.13c-.01,0-.03,0-.04,0Z"/>
          <path class="cls-6" d="M65.96,63.31s-.07-.02-.09-.06c-.02-.05,0-.11.05-.13l.27-.12-.12-.27s0-.11.05-.13c.05-.02.11,0,.13.05l.2.45-.45.2s-.03,0-.04,0Z"/>
          <path class="cls-6" d="M47.69,71.24s-.07-.02-.09-.06c-.02-.05,0-.11.05-.13l.7-.31s.11,0,.13.05c.02.05,0,.11-.05.13l-.7.31s-.03,0-.04,0ZM49.1,70.63s-.07-.02-.09-.06c-.02-.05,0-.11.05-.13l.7-.31s.11,0,.13.05c.02.05,0,.11-.05.13l-.7.31s-.03,0-.04,0ZM50.5,70.02s-.07-.02-.09-.06c-.02-.05,0-.11.05-.13l.7-.31s.11,0,.13.05c.02.05,0,.11-.05.13l-.7.31s-.03,0-.04,0ZM51.91,69.41s-.07-.02-.09-.06c-.02-.05,0-.11.05-.13l.7-.31s.11,0,.13.05c.02.05,0,.11-.05.13l-.7.31s-.03,0-.04,0ZM53.31,68.8s-.07-.02-.09-.06c-.02-.05,0-.11.05-.13l.7-.31s.11,0,.13.05c.02.05,0,.11-.05.13l-.7.31s-.03,0-.04,0ZM54.72,68.19s-.07-.02-.09-.06c-.02-.05,0-.11.05-.13l.7-.31s.11,0,.13.05c.02.05,0,.11-.05.13l-.7.31s-.03,0-.04,0ZM56.12,67.58s-.07-.02-.09-.06c-.02-.05,0-.11.05-.13l.7-.31s.11,0,.13.05c.02.05,0,.11-.05.13l-.7.31s-.03,0-.04,0ZM57.53,66.97s-.07-.02-.09-.06c-.02-.05,0-.11.05-.13l.7-.31s.11,0,.13.05c.02.05,0,.11-.05.13l-.7.31s-.03,0-.04,0ZM58.93,66.36s-.07-.02-.09-.06c-.02-.05,0-.11.05-.13l.7-.31s.11,0,.13.05c.02.05,0,.11-.05.13l-.7.31s-.03,0-.04,0ZM60.34,65.75s-.07-.02-.09-.06c-.02-.05,0-.11.05-.13l.7-.31s.11,0,.13.05c.02.05,0,.11-.05.13l-.7.31s-.03,0-.04,0ZM61.74,65.14s-.07-.02-.09-.06c-.02-.05,0-.11.05-.13l.7-.31s.11,0,.13.05c.02.05,0,.11-.05.13l-.7.31s-.03,0-.04,0ZM63.15,64.53s-.07-.02-.09-.06c-.02-.05,0-.11.05-.13l.7-.31s.11,0,.13.05c.02.05,0,.11-.05.13l-.7.31s-.03,0-.04,0ZM64.55,63.92s-.07-.02-.09-.06c-.02-.05,0-.11.05-.13l.7-.31s.11,0,.13.05c.02.05,0,.11-.05.13l-.7.31s-.03,0-.04,0Z"/>
          <path class="cls-6" d="M46.57,71.74l-.17-.47c-.02-.05,0-.11.06-.12.05-.02.11,0,.12.06l.1.27.26-.11s.11,0,.13.05c.02.05,0,.11-.05.13l-.46.2Z"/>
          <path class="cls-6" d="M46.23,70.58s-.08-.03-.09-.07l-.27-.75c-.02-.05,0-.11.06-.12.05-.02.11,0,.12.06l.27.75c.02.05,0,.11-.06.12-.01,0-.02,0-.03,0ZM45.7,69.07s-.08-.03-.09-.07l-.27-.75c-.02-.05,0-.11.06-.12.05-.02.11,0,.12.06l.27.75c.02.05,0,.11-.06.12-.01,0-.02,0-.03,0ZM45.17,67.56s-.08-.03-.09-.07l-.27-.75c-.02-.05,0-.11.06-.12s.11,0,.12.06l.27.75c.02.05,0,.11-.06.12-.01,0-.02,0-.03,0ZM44.64,66.05s-.08-.03-.09-.07l-.27-.75c-.02-.05,0-.11.06-.12.05-.02.11,0,.12.06l.27.75c.02.05,0,.11-.06.12-.01,0-.02,0-.03,0ZM44.11,64.54s-.08-.03-.09-.07l-.27-.75c-.02-.05,0-.11.06-.12.05-.02.11,0,.12.06l.27.75c.02.05,0,.11-.06.12-.01,0-.02,0-.03,0ZM43.58,63.03s-.08-.03-.09-.07l-.27-.75c-.02-.05,0-.11.06-.12.05-.02.11,0,.12.06l.27.75c.02.05,0,.11-.06.12-.01,0-.02,0-.03,0ZM43.05,61.53s-.08-.03-.09-.07l-.27-.75c-.02-.05,0-.11.06-.12.05-.02.11,0,.12.06l.27.75c.02.05,0,.11-.06.12-.01,0-.02,0-.03,0ZM42.52,60.02s-.08-.03-.09-.07l-.27-.75c-.02-.05,0-.11.06-.12.05-.02.11,0,.12.06l.27.75c.02.05,0,.11-.06.12-.01,0-.02,0-.03,0ZM41.98,58.51s-.08-.03-.09-.07l-.27-.75c-.02-.05,0-.11.06-.12.05-.02.11,0,.12.06l.27.75c.02.05,0,.11-.06.12-.01,0-.02,0-.03,0ZM41.45,57s-.08-.03-.09-.07l-.27-.75c-.02-.05,0-.11.06-.12s.11,0,.12.06l.27.75c.02.05,0,.11-.06.12-.01,0-.02,0-.03,0ZM40.92,55.49s-.08-.03-.09-.07l-.27-.75c-.02-.05,0-.11.06-.12.05-.02.11,0,.12.06l.27.75c.02.05,0,.11-.06.12-.01,0-.02,0-.03,0ZM40.39,53.98s-.08-.03-.09-.07l-.27-.75c-.02-.05,0-.11.06-.12.05-.02.11,0,.12.06l.27.75c.02.05,0,.11-.06.12-.01,0-.02,0-.03,0ZM39.86,52.47s-.08-.03-.09-.07l-.27-.75c-.02-.05,0-.11.06-.12.05-.02.11,0,.12.06l.27.75c.02.05,0,.11-.06.12-.01,0-.02,0-.03,0ZM39.33,50.96s-.08-.03-.09-.07l-.27-.75c-.02-.05,0-.11.06-.12s.11,0,.12.06l.27.75c.02.05,0,.11-.06.12-.01,0-.02,0-.03,0ZM38.8,49.45s-.08-.03-.09-.07l-.27-.75c-.02-.05,0-.11.06-.12.05-.02.11,0,.12.06l.27.75c.02.05,0,.11-.06.12-.01,0-.02,0-.03,0ZM38.27,47.94s-.08-.03-.09-.07l-.27-.75c-.02-.05,0-.11.06-.12.05-.02.11,0,.12.06l.27.75c.02.05,0,.11-.06.12-.01,0-.02,0-.03,0Z"/>
        </g>
      </g>
      <g>
        <rect class="cls-1" x="33.51" y="74.03" width="18.02" height="5.88" transform="translate(-45.08 69.29) rotate(-56.07)"/>
        <g>
          <path class="cls-6" d="M37.28,82.76s-.04,0-.05-.02l-.41-.27.27-.41s.09-.06.14-.03c.04.03.06.09.03.14l-.16.24.24.16s.06.09.03.14c-.02.03-.05.04-.08.04Z"/>
          <path class="cls-6" d="M37.6,81.58s-.04,0-.05-.02c-.04-.03-.06-.09-.03-.14l.43-.63s.09-.06.14-.03c.04.03.06.09.03.14l-.43.63s-.05.04-.08.04ZM38.45,80.31s-.04,0-.05-.02c-.04-.03-.06-.09-.03-.14l.43-.63s.09-.06.14-.03c.04.03.06.09.03.14l-.43.63s-.05.04-.08.04ZM39.3,79.05s-.04,0-.05-.02c-.04-.03-.06-.09-.03-.14l.43-.63s.09-.06.14-.03c.04.03.06.09.03.14l-.43.63s-.05.04-.08.04ZM40.15,77.78s-.04,0-.05-.02c-.04-.03-.06-.09-.03-.14l.43-.63s.09-.06.14-.03c.04.03.06.09.03.14l-.43.63s-.05.04-.08.04ZM41,76.51s-.04,0-.05-.02c-.04-.03-.06-.09-.03-.14l.43-.63s.09-.06.14-.03c.04.03.06.09.03.14l-.43.63s-.05.04-.08.04ZM41.86,75.25s-.04,0-.05-.02c-.04-.03-.06-.09-.03-.14l.43-.63s.09-.06.14-.03c.04.03.06.09.03.14l-.43.63s-.05.04-.08.04ZM42.71,73.98s-.04,0-.05-.02c-.04-.03-.06-.09-.03-.14l.43-.63s.09-.06.14-.03c.04.03.06.09.03.14l-.43.63s-.05.04-.08.04ZM43.56,72.72s-.04,0-.05-.02c-.04-.03-.06-.09-.03-.14l.43-.63s.09-.06.14-.03c.04.03.06.09.03.14l-.43.63s-.05.04-.08.04ZM44.41,71.45s-.04,0-.05-.02c-.04-.03-.06-.09-.03-.14l.43-.63s.09-.06.14-.03c.04.03.06.09.03.14l-.43.63s-.05.04-.08.04Z"/>
          <path class="cls-6" d="M45.26,70.18s-.04,0-.05-.02c-.04-.03-.06-.09-.03-.14l.27-.41.41.27s.06.09.03.14c-.03.05-.09.06-.14.03l-.24-.16-.16.24s-.05.04-.08.04Z"/>
          <path class="cls-6" d="M47.11,70.95s-.04,0-.05-.02l-.65-.44s-.06-.09-.03-.14c.03-.04.09-.06.14-.03l.65.44s.06.09.03.14c-.02.03-.05.04-.08.04Z"/>
          <path class="cls-6" d="M47.86,71.93s-.04,0-.05-.02c-.04-.03-.06-.09-.03-.14l.16-.24-.24-.16s-.06-.09-.03-.14c.03-.04.09-.06.14-.03l.41.27-.27.41s-.05.04-.08.04Z"/>
          <path class="cls-6" d="M40.2,83.33s-.04,0-.05-.02c-.04-.03-.06-.09-.03-.14l.43-.63s.09-.06.14-.03c.04.03.06.09.03.14l-.43.63s-.05.04-.08.04ZM41.05,82.06s-.04,0-.05-.02c-.04-.03-.06-.09-.03-.14l.43-.63s.09-.06.14-.03c.04.03.06.09.03.14l-.43.63s-.05.04-.08.04ZM41.9,80.8s-.04,0-.05-.02c-.04-.03-.06-.09-.03-.14l.43-.63s.09-.06.14-.03c.04.03.06.09.03.14l-.43.63s-.05.04-.08.04ZM42.75,79.53s-.04,0-.05-.02c-.04-.03-.06-.09-.03-.14l.43-.63s.09-.06.14-.03c.04.03.06.09.03.14l-.43.63s-.05.04-.08.04ZM43.61,78.26s-.04,0-.05-.02c-.04-.03-.06-.09-.03-.14l.43-.63s.09-.06.14-.03c.04.03.06.09.03.14l-.43.63s-.05.04-.08.04ZM44.46,77s-.04,0-.05-.02c-.04-.03-.06-.09-.03-.14l.43-.63s.09-.06.14-.03c.04.03.06.09.03.14l-.43.63s-.05.04-.08.04ZM45.31,75.73s-.04,0-.05-.02c-.04-.03-.06-.09-.03-.14l.43-.63s.09-.06.14-.03c.04.03.06.09.03.14l-.43.63s-.05.04-.08.04ZM46.16,74.47s-.04,0-.05-.02c-.04-.03-.06-.09-.03-.14l.43-.63s.09-.06.14-.03c.04.03.06.09.03.14l-.43.63s-.05.04-.08.04ZM47.01,73.2s-.04,0-.05-.02c-.04-.03-.06-.09-.03-.14l.43-.63s.09-.06.14-.03c.04.03.06.09.03.14l-.43.63s-.05.04-.08.04Z"/>
          <path class="cls-6" d="M39.58,84.33l-.41-.27s-.06-.09-.03-.14c.03-.04.09-.06.14-.03l.24.16.16-.24s.09-.06.14-.03c.04.03.06.09.03.14l-.27.41Z"/>
          <path class="cls-6" d="M38.58,83.63s-.04,0-.05-.02l-.65-.44s-.06-.09-.03-.14c.03-.04.09-.06.14-.03l.65.44s.06.09.03.14c-.02.03-.05.04-.08.04Z"/>
        </g>
      </g>
      <path class="cls-1" d="M18.7,32.38l-.38.91c-.71,1.72-1.71,3.31-2.96,4.69h0c-.39.44-.17,1.13.4,1.26l13.34,3.12c.93.22,1.77.69,2.44,1.37l3.94,3.99c.43.44,1.02.69,1.63.7l12.52.54-11.71-9.38-19.22-7.21Z"/>
      <rect class="cls-4" x="41.86" y="65.84" width="10.85" height="7.84" rx="3.92" ry="3.92" transform="translate(-36.99 69.62) rotate(-55.78)"/>
      <path class="cls-4" d="M81.98,28.93c-4.01-8.8-13.46-11.91-18.55-13.59-2.98-.98-16.64-5.48-30.31,2.09-8.28,4.58-12.57,11.47-14.41,14.96-.17.32,0,.71.35.8.26.06.54.18.8.39.16.12.36.31.85,1.05h0c.72,1.09,1.79,1.88,3.03,2.27,3.61,1.11,7.22,2.22,10.83,3.32,1.29.4,2.4,1.25,3.11,2.4.72,1.16,1.44,2.33,2.15,3.49.99,1.6,2.71,2.59,4.59,2.65,2.54.07,5.07.15,7.61.22,1.86.05,3.57,1.03,4.56,2.61l6.04,9.6c1.1,1.75,3.08,2.75,5.14,2.59l2.66-.2c.64-.05,1.24-.31,1.71-.74l.02-.02c.64-.59,1.35-1.08,2.13-1.46,1.04-.51,2.08-1.02,3.12-1.53,1.39-.68,2.4-1.93,2.78-3.43.18-.71.39-1.51.64-2.38.84-2.87,1.65-4.9,1.83-5.36,1.28-3.34,2.68-12.42-.65-19.73Z"/>
    </g>
    <g>
      <path class="cls-1" d="M69.23,28.11c-.3-.21-.68-.29-1.08-.28.38,1.41-.2,3.63-1.62,5.7-1.51,2.2-3.51,3.55-4.99,3.56.13.49.38.88.75,1.14,1.43.98,4.15-.48,6.07-3.27,1.92-2.79,2.31-5.85.87-6.84Z"/>
      <path class="cls-5" d="M66.54,33.52c1.42-2.07,2-4.29,1.62-5.7-1.48,0-3.48,1.36-4.99,3.56-1.42,2.07-2,4.29-1.62,5.7,1.48,0,3.48-1.36,4.99-3.56Z"/>
      <path class="cls-1" d="M58.93,23.31c-.39-.12-.81-.09-1.23.07.9,1.18,1.05,3.58.24,6.11-.79,2.47-2.25,4.32-3.63,4.82.25.32.54.57.89.69,1.66.53,3.84-1.66,4.87-4.88,1.03-3.23.52-6.27-1.14-6.8Z"/>
      <path class="cls-5" d="M57.95,29.49c.81-2.53.66-4.93-.24-6.11-1.39.5-2.85,2.35-3.63,4.82-.81,2.53-.66,4.93.24,6.11,1.39-.5,2.85-2.35,3.63-4.82Z"/>
      <path class="cls-1" d="M77.39,36.21c-.27-.37-.69-.59-1.2-.71.06,1.49-1.21,3.54-3.36,5.14-2,1.49-4.18,2.15-5.6,1.84.02.39.11.76.32,1.05,1.04,1.4,4.08.89,6.8-1.13,2.72-2.02,4.07-4.79,3.04-6.19Z"/>
      <path class="cls-5" d="M76.19,35.5c-1.42-.31-3.6.35-5.6,1.84-2.15,1.6-3.42,3.65-3.36,5.14,1.42.31,3.6-.35,5.6-1.84,2.15-1.6,3.42-3.65,3.36-5.14Z"/>
    </g>
  </g>
</svg>