<?xml version="1.0" encoding="UTF-8"?>
<svg id="Calque_1" data-name="Calque 1" xmlns="http://www.w3.org/2000/svg" viewBox="0 0 99.21 99.21">
  <defs>
    <style>
      .cls-1, .cls-2, .cls-3, .cls-4 {
        stroke-width: 0px;
      }

      .cls-2 {
        fill: #1e6688;
      }

      .cls-3 {
        fill: #ded4d0;
      }

      .cls-4 {
        fill: #fdfcf9;
      }
    </style>
  </defs>
  <rect class="cls-3" x="-.45" width="99.21" height="99.21" rx="5.67" ry="5.67"/>
  <g>
    <g>
      <path class="cls-4" d="M58.51,23.63c-2.42,3.69-16.88,26.93-5.68,39.32,2.81,3.11,5.88,4.69,9.1,4.69,1.76,0,3.11-.49,3.76-.78.09-.04.18-.06.27-.05.23.02.47.03.71.03,2.54,0,7.23-1.03,10.15-7.96,6.48-15.37-14.81-32.56-18.31-35.26Z"/>
      <path class="cls-3" d="M66.17,67.72c-.26,0-.49-.19-.54-.45l-5.55-31.09c-.05-.3.15-.58.44-.64.3-.05.58.15.64.44l5.55,31.08c.05.3-.15.58-.44.64-.03,0-.07,0-.1,0Z"/>
      <path class="cls-1" d="M65.22,63.99h-.01c-4.27-.12-7.64-2.02-9.75-5.49-.16-.26-.07-.6.19-.75.26-.16.6-.07.75.18,1.91,3.14,4.96,4.86,8.84,4.97.3,0,.54.26.53.56,0,.3-.25.53-.55.53Z"/>
      <path class="cls-1" d="M63.66,55.23s-.02,0-.03,0c-2.73-.14-5.82-2.25-7.34-4.15-.19-.24-.15-.58.09-.77.24-.19.58-.15.77.09,1.39,1.74,4.21,3.62,6.54,3.74.3.02.54.27.52.58-.02.29-.26.52-.55.52Z"/>
      <path class="cls-1" d="M61.99,45.81s-.02,0-.03,0c-1.88-.1-3.7-1.53-4.6-2.81-.17-.25-.11-.59.13-.77s.59-.11.77.13c.78,1.11,2.32,2.27,3.76,2.35.3.02.54.28.52.58-.02.29-.26.52-.55.52Z"/>
      <path class="cls-3" d="M65.22,63.99c-.22,0-.43-.13-.51-.35-.11-.28.03-.6.31-.71,2.87-1.12,6.1-4.08,6.71-7.58.05-.3.34-.5.64-.45.3.05.5.34.45.64-.68,3.9-4.24,7.19-7.4,8.42-.07.03-.13.04-.2.04Z"/>
      <path class="cls-3" d="M63.81,55.21c-.22,0-.42-.13-.51-.34-.11-.28.02-.6.3-.72,2.16-.88,4.2-3.58,4.94-5.68.1-.29.41-.44.7-.34.29.1.44.41.34.7-.8,2.3-3.03,5.31-5.56,6.34-.07.03-.14.04-.21.04Z"/>
      <path class="cls-3" d="M62.28,45.76c-.22,0-.42-.13-.51-.34-.12-.28.02-.6.3-.72,1.34-.55,2.41-2.15,2.78-3.45.08-.29.39-.46.68-.38.29.08.46.39.38.68-.43,1.51-1.68,3.46-3.42,4.17-.07.03-.14.04-.21.04Z"/>
    </g>
    <g>
      <path class="cls-2" d="M20.31,34.64l-.02-.02s0,.01,0,.02c0,0-.02,0-.02,0l.02.02c.26,1.36,7.69,39.73,30.4,40.88,11.12.56,14.6-6.08,15.45-8.33,1.84-1.55,6.97-7.02,2.78-17.33-8.57-21.07-47.24-15.45-48.62-15.25Z"/>
      <path class="cls-1" d="M73.46,72.97c-.11,0-.22-.03-.32-.1l-39.53-28.08c-.25-.18-.3-.52-.13-.77.18-.25.52-.31.77-.13l39.53,28.08c.25.18.31.52.13.77-.11.15-.28.23-.45.23Z"/>
      <path class="cls-1" d="M52.65,68.93c-1.14,0-2.31-.14-3.49-.43-.29-.07-.47-.37-.4-.66.07-.29.37-.48.66-.4,4.49,1.1,8.74-.09,12.29-3.45.22-.21.57-.2.78.02.21.22.2.57-.02.78-2.9,2.75-6.24,4.15-9.81,4.15Z"/>
      <path class="cls-1" d="M44.69,61.3c-.47,0-.92-.02-1.34-.07-.3-.03-.52-.31-.48-.61.03-.3.3-.52.61-.48,2.79.32,6.98-.53,9.16-2.5.22-.2.57-.19.78.04.2.23.19.57-.04.78-2.15,1.94-5.8,2.84-8.67,2.84Z"/>
      <path class="cls-1" d="M38.57,53.28c-.5,0-.97-.04-1.4-.11-.3-.05-.5-.34-.45-.64.05-.3.34-.5.64-.45,1.69.3,4.12-.05,5.49-1.28.23-.2.57-.18.78.04.2.23.18.57-.04.78-1.32,1.19-3.31,1.66-5.02,1.66Z"/>
      <path class="cls-1" d="M62.08,64.94c-.07,0-.15-.01-.22-.05-.28-.12-.4-.45-.28-.72,1.56-3.55,1.8-9.06-.78-12.72-.17-.25-.11-.59.13-.77.25-.17.59-.11.77.13,2.81,4,2.57,9.97.88,13.8-.09.21-.29.33-.5.33Z"/>
      <path class="cls-1" d="M53.11,58.44c-.07,0-.14-.01-.21-.04-.28-.12-.41-.44-.29-.72,1.14-2.71.56-6.94-.66-9.47-.13-.27-.02-.6.26-.73.27-.13.6-.02.73.26,1.31,2.71,1.99,7.27.68,10.37-.09.21-.29.34-.51.34Z"/>
      <path class="cls-1" d="M43.44,51.46c-.07,0-.14-.01-.21-.04-.28-.12-.41-.44-.3-.72.71-1.7.24-4.11-.6-5.61-.15-.27-.05-.6.21-.75.27-.15.6-.05.75.21.93,1.68,1.54,4.45.65,6.57-.09.21-.29.34-.51.34Z"/>
    </g>
  </g>
</svg>