<?xml version="1.0" encoding="UTF-8"?>
<svg id="Calque_1" data-name="Calque 1" xmlns="http://www.w3.org/2000/svg" viewBox="0 0 99.21 99.21">
  <defs>
    <style>
      .cls-1 {
        fill: #1e6688;
      }

      .cls-1, .cls-2, .cls-3, .cls-4, .cls-5, .cls-6 {
        stroke-width: 0px;
      }

      .cls-1, .cls-2, .cls-6 {
        fill-rule: evenodd;
      }

      .cls-2, .cls-5 {
        fill: #fdfcf9;
      }

      .cls-4 {
        fill: #ded4d0;
      }
    </style>
  </defs>
  <rect class="cls-4" x="-.45" width="99.21" height="99.21" rx="5.67" ry="5.67"/>
  <path class="cls-5" d="M74.51,36.85c-2.11-1.11-4.23-2.19-6.32-3.33-1.35-.74-2.15-.79-2.58,1.06-.55,2.36-1.44,4.64-2.65,6.98-.75-2.3-1.51-4.59-2.23-6.89-.62-1.98-.78-2.06-2.66-1.08-2.1,1.09-4.19,2.19-6.29,3.28-.13-.12-.26-.24-.39-.37,1.35-2.64,2.7-5.27,4.23-8.27-3.02-1.01-5.9-1.98-8.78-2.94.02-.18.04-.35.06-.53,2.82-.91,5.64-1.82,8.72-2.81-1.46-2.89-2.82-5.57-4.18-8.25.14-.13.27-.26.41-.4,2.03,1.05,4.07,2.1,6.1,3.15,2.02,1.04,2.14.99,2.8-1.08.72-2.25,1.46-4.49,2.19-6.74h.48c.75,2.31,1.61,4.58,2.2,6.92.46,1.81,1.23,1.79,2.62,1.01,2.05-1.15,4.18-2.18,6.27-3.26.13.13.27.26.4.38-1.36,2.68-2.72,5.36-4.19,8.26,3.04.98,5.81,1.87,9.06,2.92-.77.47-1.15.81-1.6.95-1.81.58-3.64,1.12-5.47,1.64-1.41.4-2.17.9-1.15,2.55,1.27,2.07,2.27,4.3,3.39,6.46-.15.13-.3.26-.45.39Z"/>
  <g>
    <path class="cls-1" d="M22.05,52.25h0c-.06.08-1.99,4.79-4.15,6.23l2.96-1.11s-2.77,7.26-4.76,8.73l2.96-1.02s-2.96,5.4-4.99,6.81l3.99-1.05s-1.3,4.82-4.79,7.92h17.53c-3.49-3.1-4.79-7.92-4.79-7.92l3.99,1.05c-2.02-1.41-4.99-6.81-4.99-6.81l2.96,1.02c-1.99-1.47-4.76-8.73-4.76-8.73l2.99,1.11c-2.19-1.44-4.13-6.15-4.15-6.23h0Z"/>
    <path class="cls-1" d="M13.24,65.24h0c-.03.06-1.5,3.6-3.13,4.65l2.24-.83s-2.08,5.46-3.57,6.56l2.22-.78s-2.22,4.04-3.74,5.1l2.99-.8s-.97,3.63-3.6,5.96h13.16c-2.63-2.33-3.6-5.96-3.6-5.96l2.99.8c-1.52-1.05-3.74-5.1-3.74-5.1l2.22.78c-1.5-1.11-3.55-6.56-3.55-6.56l2.22.83c-1.63-1.05-3.07-4.6-3.1-4.65h0Z"/>
    <path class="cls-6" d="M23.71,84.72h51.13s-25.4-5.96-51.13,0h0Z"/>
    <path class="cls-1" d="M76.26,52.25h0c.03.08,1.99,4.79,4.15,6.23l-2.96-1.11s2.74,7.26,4.76,8.73l-2.99-1.02s2.99,5.4,4.99,6.81l-3.96-1.05s1.27,4.82,4.79,7.92h-17.56c3.52-3.1,4.82-7.92,4.82-7.92l-3.99,1.05c1.99-1.41,4.99-6.81,4.99-6.81l-2.99,1.02c2.02-1.47,4.76-8.73,4.76-8.73l-2.96,1.11c2.16-1.44,4.13-6.15,4.15-6.23h0Z"/>
    <path class="cls-1" d="M85.07,65.24h0c.03.06,1.5,3.6,3.13,4.65l-2.24-.83s2.08,5.46,3.57,6.56l-2.22-.78s2.22,4.04,3.71,5.1l-2.96-.8s.97,3.63,3.6,5.96h-13.16c2.63-2.33,3.6-5.96,3.6-5.96l-2.99.8c1.5-1.05,3.74-5.1,3.74-5.1l-2.24.78c1.5-1.11,3.57-6.56,3.57-6.56l-2.22.83c1.61-1.05,3.07-4.6,3.1-4.65h0Z"/>
  </g>
  <g>
    <path class="cls-3" d="M14.09,85.1l-2.12-7.35c-.53-.03-.97-.45-.97-1s.47-1,1.03-1,1,.45,1,1c0,.33-.17.64-.42.84l2.17,7.52h-.7Z"/>
    <path class="cls-3" d="M84.25,85.1l2.12-7.35c.53-.03.95-.45.95-1s-.45-1-1-1-1,.45-1,1c0,.33.17.64.42.84l-2.17,7.52h.7Z"/>
    <path class="cls-1" d="M49.21,42.44v.17c6.88,10.53,16.15,20.78,29.52,30.61-1.14,3.95-2.28,7.91-3.43,11.89-17.46-.14-34.84-.14-52.3,0-1.14-3.98-2.28-7.94-3.43-11.89,13.4-9.83,22.64-20.08,29.52-30.61v-.17l.06.08.06-.08Z"/>
    <path class="cls-6" d="M49.21,42.44v.17c6.88,10.53,16.15,20.78,29.52,30.61l-.39,1.39c-9.72-5.99-19.44-14.82-29.19-26.1h0c-9.72,11.28-19.44,20.11-29.16,26.1l-.42-1.39c13.4-9.83,22.64-20.08,29.52-30.61v-.17l.06.08.06-.08Z"/>
    <path class="cls-6" d="M76.11,82.32l-.81,2.78c-17.46-.14-34.84-.14-52.3,0l-.78-2.78h53.89Z"/>
    <path class="cls-2" d="M42.47,85.02c-1.78-2.48-3.79-4.48-6.24-5.38,1.67-.58,3.31-1.2,4.43-2.42.81.89,1.62,1.78,2.42,2.67-.19,1.7-.42,3.43-.61,5.12h0Z"/>
    <path class="cls-2" d="M55.84,85.02c-4.46-.03-8.91-.03-13.37,0l6.68-21.97,6.68,21.97Z"/>
    <path class="cls-6" d="M49.16,63.05c-4.04,7.27-8.13,13.31-12.5,13.87,3.17,1.75,5.01,4.54,5.82,8.1,2.23-7.32,4.46-14.65,6.68-21.97h0Z"/>
    <path class="cls-2" d="M55.9,85.02c1.78-2.48,3.76-4.48,6.24-5.38-1.67-.58-3.31-1.2-4.43-2.42-.81.89-1.62,1.78-2.42,2.67.19,1.7.39,3.43.61,5.12h0Z"/>
    <path class="cls-6" d="M49.21,63.05c4.01,7.27,8.13,13.31,12.5,13.87-3.17,1.75-5.01,4.54-5.82,8.1-2.23-7.32-4.46-14.65-6.68-21.97h0Z"/>
    <path class="cls-3" d="M12.2,79.51c-.22.17-.53.11-.7-.11s-.11-.53.11-.7c8.41-6.15,15.51-12.06,21.61-18.07,6.07-5.99,11.14-12.09,15.46-18.69t.03-.03l.03-.08c.17-.22.47-.31.7-.14.06.03.11.08.14.14h0l.08.11c4.29,6.6,9.36,12.7,15.46,18.69,6.07,6.02,13.2,11.92,21.61,18.07.22.17.25.47.11.7-.17.22-.47.28-.7.11-8.47-6.18-15.62-12.11-21.72-18.16-5.99-5.9-10.97-11.89-15.26-18.35-4.26,6.46-9.27,12.45-15.23,18.35-6.13,6.04-13.28,11.98-21.72,18.16h0Z"/>
  </g>
</svg>