<?xml version="1.0" encoding="UTF-8"?>
<svg id="Calque_1" data-name="Calque 1" xmlns="http://www.w3.org/2000/svg" viewBox="0 0 99.21 99.21">
  <defs>
    <style>
      .cls-1, .cls-2, .cls-3, .cls-4 {
        stroke-width: 0px;
      }

      .cls-2 {
        fill: #1e6688;
      }

      .cls-3 {
        fill: #ded4d0;
      }

      .cls-4 {
        fill: #fdfcf9;
      }
    </style>
  </defs>
  <rect class="cls-3" width="99.21" height="99.21" rx="5.67" ry="5.67"/>
  <g>
    <g>
      <polygon class="cls-1" points="49.46 47.61 51.38 10.45 47.54 11.61 49.46 47.61"/>
      <polygon class="cls-1" points="49.46 47.61 51.38 10.45 47.54 11.61 49.46 47.61"/>
      <polygon class="cls-2" points="50.54 48 75.89 20.76 72.21 19.19 50.54 48"/>
      <polygon class="cls-2" points="50.54 48 75.89 20.76 72.21 19.19 50.54 48"/>
      <polygon class="cls-1" points="51.11 48.99 88.04 44.43 86.23 40.85 51.11 48.99"/>
      <polygon class="cls-1" points="51.11 48.99 88.04 44.43 86.23 40.85 51.11 48.99"/>
      <polygon class="cls-1" points="50.91 50.12 82.13 70.36 83.05 66.46 50.91 50.12"/>
      <polygon class="cls-1" points="50.91 50.12 82.13 70.36 83.05 66.46 50.91 50.12"/>
      <polygon class="cls-1" points="50.03 50.86 60.94 86.43 64.15 84.03 50.03 50.86"/>
      <polygon class="cls-1" points="50.03 50.86 60.94 86.43 64.15 84.03 50.03 50.86"/>
      <polygon class="cls-1" points="48.89 50.86 34.37 85.12 38.37 85.34 48.89 50.86"/>
      <polygon class="cls-1" points="48.89 50.86 34.37 85.12 38.37 85.34 48.89 50.86"/>
      <polygon class="cls-1" points="48.01 50.12 14.87 67.04 17.79 69.78 48.01 50.12"/>
      <polygon class="cls-1" points="48.01 50.12 14.87 67.04 17.79 69.78 48.01 50.12"/>
      <polygon class="cls-1" points="47.81 48.99 11.54 40.65 12.02 44.63 47.81 48.99"/>
      <polygon class="cls-1" points="47.81 48.99 11.54 40.65 12.02 44.63 47.81 48.99"/>
      <polygon class="cls-1" points="48.38 48 25.96 18.3 23.77 21.65 48.38 48"/>
      <polygon class="cls-1" points="48.38 48 25.96 18.3 23.77 21.65 48.38 48"/>
      <polygon class="cls-1" points="49.46 47.61 51.38 10.45 47.54 11.61 49.46 47.61"/>
      <polygon class="cls-1" points="49.46 47.61 51.38 10.45 47.54 11.61 49.46 47.61"/>
    </g>
    <g>
      <polygon class="cls-2" points="49.17 47.48 41.37 25.02 39.38 26.63 49.17 47.48"/>
      <polygon class="cls-2" points="50.32 47.44 58.78 25.22 56.22 25.17 50.32 47.44"/>
      <polygon class="cls-2" points="51.22 48.14 71.99 36.56 70.06 34.88 51.22 48.14"/>
      <polygon class="cls-2" points="51.46 49.27 74.82 53.74 74.42 51.21 51.46 49.27"/>
      <polygon class="cls-2" points="50.93 50.28 65.94 68.72 67.27 66.53 50.93 50.28"/>
      <polygon class="cls-2" points="49.87 50.71 49.52 74.49 51.94 73.66 49.87 50.71"/>
      <polygon class="cls-2" points="48.77 50.36 33.22 68.35 35.61 69.27 48.77 50.36"/>
      <polygon class="cls-2" points="48.16 49.39 24.69 53.17 25.93 55.41 48.16 49.39"/>
      <polygon class="cls-2" points="48.32 48.25 27.9 36.06 27.41 38.57 48.32 48.25"/>
      <polygon class="cls-2" points="49.17 47.48 41.37 25.02 39.38 26.63 49.17 47.48"/>
    </g>
    <polygon class="cls-4" points="14.09 26.09 15.55 27.31 17.38 26.81 16.67 28.57 17.72 30.16 15.82 30.02 14.63 31.51 14.17 29.67 12.39 29 14.01 27.99 14.09 26.09"/>
    <polygon class="cls-1" points="16.09 35.47 16.95 36.19 18.02 35.89 17.6 36.93 18.22 37.86 17.11 37.78 16.41 38.65 16.14 37.57 15.1 37.18 16.04 36.59 16.09 35.47"/>
    <polygon class="cls-1" points="22.49 28.6 24.6 29.6 26.61 28.43 26.31 30.74 28.04 32.3 25.76 32.73 24.81 34.85 23.7 32.81 21.38 32.57 22.98 30.88 22.49 28.6"/>
    <polygon class="cls-4" points="33.96 17.44 35.96 16.25 36.1 13.92 37.86 15.45 40.11 14.87 39.2 17.02 40.45 18.98 38.13 18.77 36.64 20.57 36.12 18.3 33.96 17.44"/>
    <polygon class="cls-4" points="78.3 29.44 79.7 31.3 82.03 31.2 80.69 33.1 81.5 35.29 79.28 34.6 77.45 36.05 77.41 33.72 75.48 32.43 77.68 31.68 78.3 29.44"/>
    <polygon class="cls-4" points="74.53 77.83 72.31 77.12 70.47 78.53 70.47 76.2 68.55 74.88 70.76 74.16 71.43 71.93 72.8 73.82 75.12 73.76 73.75 75.64 74.53 77.83"/>
    <polygon class="cls-1" points="24.43 77.78 25.85 75.93 25.13 73.72 27.32 74.49 29.2 73.12 29.15 75.45 31.03 76.81 28.8 77.48 28.08 79.69 26.76 77.78 24.43 77.78"/>
    <polygon class="cls-2" points="11.89 57.07 11.46 54.78 9.33 53.84 11.38 52.73 11.62 50.41 13.31 52.01 15.59 51.53 14.59 53.63 15.75 55.65 13.44 55.34 11.89 57.07"/>
    <polygon class="cls-1" points="21.27 60.95 20.54 59.86 19.23 59.84 20.05 58.81 19.66 57.56 20.89 58.01 21.96 57.26 21.91 58.57 22.96 59.35 21.69 59.71 21.27 60.95"/>
    <g>
      <polygon class="cls-4" points="60.52 9.97 61.14 11.76 62.98 12.27 61.46 13.42 61.55 15.32 59.99 14.23 58.21 14.9 58.76 13.08 57.57 11.6 59.47 11.56 60.52 9.97"/>
      <polygon class="cls-1" points="55.2 18.22 55.57 19.27 56.64 19.56 55.75 20.24 55.81 21.35 54.89 20.71 53.85 21.11 54.17 20.04 53.48 19.17 54.59 19.15 55.2 18.22"/>
      <polygon class="cls-1" points="63.38 18.01 64.67 19.94 67 19.97 65.56 21.8 66.26 24.02 64.07 23.22 62.17 24.57 62.26 22.24 60.39 20.85 62.63 20.21 63.38 18.01"/>
    </g>
    <g>
      <polygon class="cls-1" points="89.88 54.88 88.09 55.53 87.61 57.37 86.44 55.87 84.54 55.99 85.6 54.41 84.91 52.64 86.74 53.16 88.21 51.95 88.27 53.85 89.88 54.88"/>
      <polygon class="cls-1" points="81.55 49.68 80.5 50.07 80.22 51.14 79.54 50.27 78.43 50.34 79.05 49.41 78.64 48.37 79.71 48.68 80.57 47.97 80.61 49.09 81.55 49.68"/>
      <polygon class="cls-1" points="81.88 57.85 79.97 59.18 79.97 61.51 78.12 60.1 75.91 60.82 76.68 58.63 75.31 56.75 77.63 56.8 78.99 54.91 79.66 57.14 81.88 57.85"/>
    </g>
    <g>
      <polygon class="cls-1" points="51.53 89.25 50.5 87.65 48.59 87.59 49.8 86.11 49.27 84.29 51.04 84.97 52.61 83.9 52.51 85.8 54.01 86.97 52.17 87.46 51.53 89.25"/>
      <polygon class="cls-1" points="54.76 79.98 54.15 79.04 53.04 79.01 53.75 78.15 53.44 77.08 54.47 77.48 55.39 76.85 55.33 77.96 56.21 78.65 55.13 78.93 54.76 79.98"/>
      <polygon class="cls-4" points="46.86 82.1 45.15 80.53 42.88 81.04 43.85 78.93 42.65 76.93 44.96 77.2 46.49 75.44 46.95 77.72 49.09 78.64 47.07 79.78 46.86 82.1"/>
    </g>
  </g>
</svg>