<?xml version="1.0" encoding="UTF-8"?>
<svg id="Calque_1" data-name="Calque 1" xmlns="http://www.w3.org/2000/svg" viewBox="0 0 116.22 116.22">
  <defs>
    <style>
      .cls-1 {
        fill: none;
        stroke: #010101;
        stroke-miterlimit: 10;
      }

      .cls-2 {
        fill-rule: evenodd;
      }

      .cls-2, .cls-3, .cls-4, .cls-5 {
        stroke-width: 0px;
      }

      .cls-2, .cls-5 {
        fill: #efefef;
      }

      .cls-4 {
        fill: #d4c3e1;
      }
    </style>
  </defs>
  <path class="cls-4" d="M95.93,107.76c-12.37,15.23-62.39,9.12-81.95-22.92C-5.58,52.8,31.15,5.27,67.88.69c36.72-4.57,52.48,76.99,28.05,107.06Z"/>
  <g>
    <line class="cls-1" x1="38.68" y1="72.93" x2="23.13" y2="72.93"/>
    <line class="cls-1" x1="46.46" y1="80.7" x2="30.91" y2="80.7"/>
    <line class="cls-1" x1="54.24" y1="88.48" x2="38.68" y2="88.48"/>
  </g>
  <g>
    <path class="cls-3" d="M62.14,39.02c-3.81.22-3.96-5.38-3.96-5.38.89-5.48-2.7-9.73-2.7-9.73l-22.71,17.33,7.81,12.4c24.59,38.48,50.83,35.8,50.83,35.8,5.54-3.98,3.19-8.11,3.19-8.11-17.15-13.16-21.32-34.76-21.32-34.76,0,0-.39-2.41,1.76-7.34,0,0,1.04-1.06-1.28-2.49l-8.07-3.27s-2.17-.9-2.5,1.9l-1.05,3.65Z"/>
    <path class="cls-3" d="M53.95,37.52c1.9,2.95,4.83,7.41,8.63,8.2-.82-2.58-.67-5.17-.14-7.74l-.31,1.05c-3.81.22-3.96-5.38-3.96-5.38.89-5.48-2.7-9.73-2.7-9.73l-5.9,4.5c.86,3.24,2.65,6.42,4.37,9.09Z"/>
    <path class="cls-5" d="M57.84,58.55c2.44-3.29,6.4-4.44,10.26-5.05,1.69-.27,3.38-.47,5.08-.29.64.06,1.36.17,2.09.24-.8-2.26-1.33-4.13-1.64-5.33-.9.3-1.81.6-2.72.85-3.9,1.08-9.71,3.15-13.74,1.59-7.46-2.9-9.45-13.67-9.13-20.96l-2.52,1.92c-.06.16-.11.32-.17.47.95,4.47,2.08,8.89,3.53,13.23,1.14,3.4,2.69,6.7,2.02,10.37-.31,1.69-1.3,4.55-2.04,6.05,1.57,2.19,3.27,4,5.2,5.93.53-2.84,1.98-6.6,3.78-9.02Z"/>
    <path class="cls-5" d="M88.65,75.94c-1.5,1.07-4.26,2.25-6.42,2,1.2,1.74,4.19,2.93,5.78,3.62,2.47,1.08,4.41.58,6.49-.29-2.16-1.66-4.09-3.46-5.85-5.33Z"/>
    <path class="cls-5" d="M75.95,84.03c-8.63-3.4-15.41-10.01-21.88-16.47-5.71-5.69-10.67-12.64-11.76-20.84-.65-4.86.13-9.52,1.65-14.01l-11.19,8.53,7.81,12.4c24.59,38.48,50.83,35.8,50.83,35.8.79-.56,1.4-1.13,1.9-1.69-5.82,1.22-11.94-1.58-17.36-3.72Z"/>
    <path class="cls-3" d="M62.14,39.02c-.17,0-.31,0-.46-.02-.81,4.6.63,9.37,2.2,13.69,1.73,4.75,4.43,9.28,6.83,13.08,2.35,3.74,3.98,7.81,8.11,10.05,3.31,1.8,6.45,1.33,9.11-.67-11.59-12.81-14.64-28.59-14.64-28.59,0,0-.39-2.41,1.76-7.34,0,0,1.04-1.06-1.28-2.49l-8.07-3.27s-2.17-.9-2.5,1.9l-1.05,3.65Z"/>
    <path class="cls-3" d="M32.77,41.25l7.81,12.4c24.59,38.48,50.83,35.8,50.83,35.8,0,0-2.66,3.72-6.3,3.66,0,0-28.64-3.99-48.67-37.17,0,0-4.49-6.01-7.18-11.84,0,0,2.02-3.58,3.5-2.85Z"/>
  </g>
  <circle class="cls-4" cx="31.53" cy="48.75" r="2.2"/>
  <circle class="cls-4" cx="34.52" cy="54.21" r="2.2"/>
  <circle class="cls-4" cx="37.56" cy="59.17" r="2.2"/>
  <circle class="cls-4" cx="41.05" cy="63.68" r="2.2"/>
  <circle class="cls-4" cx="45.11" cy="69.09" r="2.2"/>
  <circle class="cls-4" cx="50.18" cy="73.37" r="2.2"/>
  <circle class="cls-4" cx="54.58" cy="77.76" r="2.2"/>
  <circle class="cls-4" cx="60.32" cy="81.82" r="2.2"/>
  <circle class="cls-4" cx="66.07" cy="85.54" r="2.2"/>
  <circle class="cls-4" cx="71.48" cy="88.47" r="2.2"/>
  <circle class="cls-4" cx="77.34" cy="90.95" r="2.2"/>
  <circle class="cls-4" cx="83.54" cy="92.86" r="2.2"/>
  <path class="cls-2" d="M70.37,50.15l3.97-.21c.54-.02,1,.4,1.04.95h0c.02.54-.4,1-.94,1.02l-3.97.21c-.55.04-1.01-.38-1.05-.93h0c-.02-.54.4-1,.95-1.04h0Z"/>
  <path class="cls-2" d="M71.22,54.79c1.25-.26,2.48-.53,3.71-.79.52-.12,1.03.21,1.14.7h0c.1.51-.21,1.03-.72,1.13-1.23.27-2.49.55-3.72.82-.51.1-1.01-.2-1.13-.72h0c-.1-.51.23-1,.72-1.13h0Z"/>
  <path class="cls-2" d="M73.13,59.35c1.14-.5,2.31-.96,3.47-1.43.47-.21,1.01.02,1.2.49h0c.19.47-.03,1.01-.5,1.23-1.16.47-2.3.94-3.47,1.43-.47.19-1.01-.05-1.22-.52h0c-.19-.47.05-1.01.51-1.2h0Z"/>
  <path class="cls-2" d="M74.84,63.74c1.07-.67,2.12-1.37,3.19-2.05.44-.28,1.04-.15,1.31.29h0c.28.42.15,1.02-.29,1.29-1.07.67-2.15,1.37-3.22,2.04-.42.28-1.02.15-1.29-.29h0c-.28-.42-.15-1.02.29-1.29h0Z"/>
  <path class="cls-2" d="M78.07,67.09l2.97-2.65c.39-.37,1.02-.33,1.38.06h0c.36.41.32,1.04-.07,1.41l-2.94,2.66c-.41.36-1.04.32-1.41-.07h0c-.36-.41-.32-1.04.07-1.41h0Z"/>
</svg>