<?xml version="1.0" encoding="UTF-8"?>
<svg id="Calque_1" data-name="Calque 1" xmlns="http://www.w3.org/2000/svg" xmlns:xlink="http://www.w3.org/1999/xlink" viewBox="0 0 116.22 116.22">
  <defs>
    <style>
      .cls-1 {
        clip-path: url(#clippath);
      }

      .cls-2, .cls-3, .cls-4, .cls-5 {
        fill: none;
      }

      .cls-2, .cls-6, .cls-7, .cls-8, .cls-9, .cls-10 {
        stroke-width: 0px;
      }

      .cls-11, .cls-7 {
        fill: #cfe3c9;
      }

      .cls-3 {
        stroke-width: 5px;
      }

      .cls-3, .cls-4 {
        stroke: #fff;
      }

      .cls-3, .cls-4, .cls-5 {
        stroke-miterlimit: 10;
      }

      .cls-12 {
        clip-path: url(#clippath-1);
      }

      .cls-4 {
        stroke-width: 2px;
      }

      .cls-5 {
        stroke: #000;
        stroke-width: 4px;
      }

      .cls-6, .cls-8 {
        fill: #fdfcf9;
      }

      .cls-6, .cls-10 {
        fill-rule: evenodd;
      }

      .cls-9 {
        fill: #90c8a2;
      }
    </style>
    <clipPath id="clippath">
      <path class="cls-7" d="M41.9,3.33c17.25-9.34,61.14,15.44,66.95,52.52,5.81,37.08-46.31,66.95-81.99,57.13C-8.82,103.16,7.82,21.77,41.9,3.33Z"/>
    </clipPath>
    <clipPath id="clippath-1">
      <path class="cls-2" d="M41.9,3.33c17.25-9.34,61.14,15.44,66.95,52.52,5.81,37.08-46.31,66.95-81.99,57.13C-8.82,103.16,7.82,21.77,41.9,3.33Z"/>
    </clipPath>
  </defs>
  <path class="cls-11" d="M41.9,3.33c17.25-9.34,61.14,15.44,66.95,52.52,5.81,37.08-46.31,66.95-81.99,57.13C-8.82,103.16,7.82,21.77,41.9,3.33Z"/>
  <g class="cls-1">
    <g class="cls-12">
      <path class="cls-9" d="M41.9,3.33c17.25-9.34,61.14,15.44,66.95,52.52,5.81,37.08-46.31,66.95-81.99,57.13C-8.82,103.16,7.82,21.77,41.9,3.33Z"/>
    </g>
    <path class="cls-3" d="M55.77,71.39s12.15,7.99,23.07,10.66"/>
    <path class="cls-4" d="M77.8,80.37c.84-.04.66,2.95,1.72,2.97.48,0,1.14-2.95,1.78-2.92.51.03.88,3.03,1.48,3.08.53.04,1.38-2.87,1.96-2.8.54.06.72,3.08,1.29,3.17.54.08,1.57-2.77,2.14-2.67s.51,3.13,1.07,3.25,1.78-2.65,2.33-2.51.27,3.16.81,3.32,2.01-2.48,2.54-2.29-.03,3.17.49,3.39,2.27-2.26,2.77-2.01-.41,3.14.08,3.42,2.55-1.94,3.01-1.62-.87,3.04-.43,3.39,2.84-1.49,3.24-1.1-1.4,2.82-1.04,3.26,3.07-.91,3.39-.44-1.95,2.47-1.69,2.97,3.19-.25,3.41.28-2.43,2-2.28,2.55,3.17.41,3.28.97-2.76,1.58-2.7,2.14c.06.6,3.06,1.03,3.06,1.59,0,.61-3,1.02-3.06,1.57-.07.6,2.75,1.71,2.61,2.25-.15.58-3.15.17-3.37.68-.24.55,2.08,2.48,1.76,2.95s-2.99-.95-3.39-.54,1.03,3.07.55,3.39-2.42-1.99-2.96-1.76-.1,3.23-.67,3.37-1.66-2.68-2.25-2.61-1.02,3.05-1.61,3.04-.91-3.02-1.49-3.11-1.72,2.72-2.29,2.57-.21-3.16-.76-3.36-2.26,2.29-2.78,2.03.44-3.13-.06-3.45-2.67,1.79-3.13,1.43,1.05-2.99.62-3.39-2.97,1.23-3.36.79,1.61-2.72,1.27-3.2-3.15.63-3.45.12c-.26-.46,2.04-2.42,1.77-2.87s-3.08.67-3.37.23,1.9-2.54,1.6-2.97-3.04.85-3.35.43,1.74-2.65,1.41-3.06-2.97,1.05-3.31.66,1.53-2.78,1.18-3.16-2.87,1.3-3.24.93,1.26-2.92.87-3.26-2.71,1.6-3.12,1.29.87-3.06.43-3.35c-.45-.3-2.42,2-2.87,1.76-.48-.25.27-3.18-.21-3.37-.5-.2-1.88,2.49-2.39,2.37s-.63-3.14-1.15-3.17-.94,2.95-1.46,3.02-1.73-2.69-2.23-2.51.28,3.08-.2,3.36c-.44.25-2.56-1.89-2.98-1.54-.39.32,1.25,2.86.87,3.26-.35.37-2.95-1.16-3.29-.72-.31.4,1.83,2.54,1.53,3.01-.27.42-3.1-.6-3.32-.17s2.33,2.05,2.17,2.51-3.16.1-3.27.57,2.72,1.5,2.66,1.99-3.07.73-3.09,1.23,2.96.96,2.99,1.46-2.9,1.23-2.84,1.72,3.08.51,3.17,1-2.71,1.61-2.59,2.08,3.12.15,3.27.62-2.52,1.88-2.36,2.34,3.12-.14,3.31.31-2.35,2.09-2.15,2.53,3.11-.37,3.32.06-2.2,2.25-1.97,2.68,3.08-.57,3.32-.15-2.06,2.38-1.81,2.79c.27.43,3.05-.73,3.31-.34.28.43-1.92,2.5-1.66,2.88.3.44,3.02-.87,3.28-.51.33.45-1.76,2.63-1.51,2.96.57.74,2.76-1.28,3.23-.72"/>
    <line class="cls-3" x1="74.73" y1="51.12" x2="92.76" y2="68.72"/>
    <path class="cls-4" d="M91.93,66.36c.68.6-.64,2.09.04,2.69s1.99-.88,2.67-.28-.64,2.09.04,2.69,1.99-.88,2.67-.28-.64,2.09.04,2.68,1.99-.89,2.67-.29-.64,2.09.04,2.69,1.99-.88,2.67-.28-.64,2.09.04,2.69,2-.88,2.68-.28-.64,2.09.04,2.69,2-.88,2.68-.28-.63,2.09.05,2.69,2-.88,2.68-.28"/>
    <g>
      <path class="cls-5" d="M50.32,75.07l-27.66-12.4c-1.1-.49-1.73-1.66-1.56-2.85l2.16-14.38c.29-1.94,2.5-2.92,4.14-1.84l30.31,20.07c1.27.84,1.59,2.56.7,3.8l-4.81,6.72c-.74,1.04-2.12,1.41-3.28.89Z"/>
      <path class="cls-8" d="M39.92,74.24l-14.36-6.17c-.71-.32-1.04-1.16-.72-1.87l1.7-3.8c.32-.71,1.16-1.04,1.87-.72l14.36,6.17c.71.32,1.04,1.16.72,1.87l-1.7,3.8c-.32.71-1.16,1.04-1.87.72Z"/>
    </g>
    <g>
      <path class="cls-6" d="M39.19,67.78c1.35,0,2.46,1.09,2.46,2.46s-1.11,2.48-2.46,2.48-2.48-1.11-2.48-2.48,1.11-2.46,2.48-2.46h0Z"/>
      <path class="cls-10" d="M39.19,68.49c.96,0,1.74.78,1.74,1.74s-.78,1.74-1.74,1.74-1.74-.78-1.74-1.74.78-1.74,1.74-1.74h0Z"/>
      <path class="cls-6" d="M39.19,69.31c.51,0,.92.41.92.92s-.41.92-.92.92-.92-.41-.92-.92.41-.92.92-.92h0Z"/>
    </g>
    <g>
      <path class="cls-5" d="M67.68,53.09l-24.12-18.36c-.96-.73-1.31-2.01-.87-3.13l5.37-13.52c.72-1.82,3.1-2.28,4.45-.85l24.96,26.43c1.04,1.11.96,2.86-.18,3.86l-6.21,5.45c-.96.84-2.38.89-3.4.12Z"/>
      <path class="cls-8" d="M57.74,49.91l-12.58-9.27c-.62-.47-.75-1.36-.27-1.99l2.52-3.32c.47-.62,1.36-.75,1.99-.27l12.58,9.27c.62.47.75,1.36.27,1.99l-2.52,3.32c-.47.62-1.36.75-1.99.27Z"/>
    </g>
    <g>
      <path class="cls-6" d="M58.49,43.45c1.32.31,2.15,1.61,1.83,2.95-.31,1.34-1.64,2.16-2.95,1.85s-2.16-1.64-1.85-2.97,1.63-2.14,2.97-1.83h0Z"/>
      <path class="cls-10" d="M58.33,44.15c.94.22,1.52,1.15,1.3,2.09s-1.15,1.52-2.09,1.3-1.52-1.15-1.3-2.09,1.15-1.52,2.09-1.3h0Z"/>
      <path class="cls-6" d="M58.14,44.95c.5.12.8.61.69,1.11s-.61.8-1.11.69-.8-.61-.69-1.11.61-.8,1.11-.69h0Z"/>
    </g>
  </g>
</svg>